<svg version="1.1" xmlns="http://www.w3.org/2000/svg" xmlns:xlink="http://www.w3.org/1999/xlink" width="859.6005859375" height="380"><defs/><g><g transform="translate(-126,-102) scale(1,1)"><rect fill="#C0C0C0" stroke="none" x="143" y="199" width="172.66796875" height="85" opacity="0.2"/></g><g transform="translate(-126,-102) scale(1,1)"><rect fill="#ffffff" stroke="none" x="136" y="192" width="172.66796875" height="85"/></g><g transform="translate(-126,-102) scale(1,1)"><path fill="none" stroke="#000000" d="M 136 192 L 308.66796875 192 L 308.66796875 277 L 136 277 L 136 192 Z Z" stroke-miterlimit="10"/></g><g transform="translate(-126,-102) scale(1,1)"><path fill="none" stroke="#000000" d="M 136 217 L 308.66796875 217" stroke-miterlimit="10"/></g><g transform="translate(-126,-102) scale(1,1)"><path fill="none" stroke="#000000" d="M 136 240 L 308.66796875 240" stroke-miterlimit="10"/></g><g transform="translate(-126,-102) scale(1,1)"><g><path fill="none" stroke="none"/><text fill="#000000" stroke="none" font-family="Arial" font-size="13px" font-style="normal" font-weight="bold" text-decoration="none" x="180.550537109375" y="210">TexteBasique</text></g></g><g transform="translate(-126,-102) scale(1,1)"><g><path fill="none" stroke="none"/><text fill="#000000" stroke="none" font-family="Arial" font-size="13px" font-style="normal" font-weight="normal" text-decoration="none" x="141" y="233">-texte: String</text></g></g><g transform="translate(-126,-102) scale(1,1)"><g><path fill="none" stroke="none"/><text fill="#000000" stroke="none" font-family="Arial" font-size="13px" font-style="normal" font-weight="normal" text-decoration="none" x="141" y="256">+TexteBasique(texte: String)</text></g></g><g transform="translate(-126,-102) scale(1,1)"><g><path fill="none" stroke="none"/><text fill="#000000" stroke="none" font-family="Arial" font-size="13px" font-style="normal" font-weight="normal" text-decoration="none" x="141" y="271">+afficher()</text></g></g><g transform="translate(-126,-102) scale(1,1)"><rect fill="#C0C0C0" stroke="none" x="375" y="119" width="96.18505859375" height="60" opacity="0.2"/></g><g transform="translate(-126,-102) scale(1,1)"><rect fill="#ffffff" stroke="none" x="368" y="112" width="96.18505859375" height="60"/></g><g transform="translate(-126,-102) scale(1,1)"><path fill="none" stroke="#000000" d="M 368 112 L 464.18505859375 112 L 464.18505859375 172 L 368 172 L 368 112 Z Z" stroke-miterlimit="10"/></g><g transform="translate(-126,-102) scale(1,1)"><path fill="none" stroke="#000000" d="M 368 150 L 464.18505859375 150" stroke-miterlimit="10"/></g><g transform="translate(-126,-102) scale(1,1)"><g><path fill="none" stroke="none"/><text fill="#000000" stroke="none" font-family="Arial" font-size="13px" font-style="normal" font-weight="normal" text-decoration="none" x="383.93212890625" y="128">«interface»</text></g></g><g transform="translate(-126,-102) scale(1,1)"><g><path fill="none" stroke="none"/><text fill="#000000" stroke="none" font-family="Arial" font-size="13px" font-style="normal" font-weight="bold" text-decoration="none" x="372.5" y="143">TexteInterface</text></g></g><g transform="translate(-126,-102) scale(1,1)"><g><path fill="none" stroke="none"/><text fill="#000000" stroke="none" font-family="Arial" font-size="13px" font-style="normal" font-weight="normal" text-decoration="none" x="373" y="166">+afficher()</text></g></g><g transform="translate(-126,-102) scale(1,1)"><rect fill="#C0C0C0" stroke="none" x="479" y="207" width="279.6005859375" height="85" opacity="0.2"/></g><g transform="translate(-126,-102) scale(1,1)"><rect fill="#ffffff" stroke="none" x="472" y="200" width="279.6005859375" height="85"/></g><g transform="translate(-126,-102) scale(1,1)"><path fill="none" stroke="#000000" d="M 472 200 L 751.6005859375 200 L 751.6005859375 285 L 472 285 L 472 200 Z Z" stroke-miterlimit="10"/></g><g transform="translate(-126,-102) scale(1,1)"><path fill="none" stroke="#000000" d="M 472 238 L 751.6005859375 238" stroke-miterlimit="10"/></g><g transform="translate(-126,-102) scale(1,1)"><path fill="none" stroke="#000000" d="M 472 248 L 751.6005859375 248" stroke-miterlimit="10"/></g><g transform="translate(-126,-102) scale(1,1)"><g><path fill="none" stroke="none"/><text fill="#000000" stroke="none" font-family="Arial" font-size="13px" font-style="normal" font-weight="normal" text-decoration="none" x="581.448974609375" y="216">«abstract»</text></g></g><g transform="translate(-126,-102) scale(1,1)"><g><path fill="none" stroke="none"/><text fill="#000000" stroke="none" font-family="Arial" font-size="13px" font-style="italic" font-weight="bold" text-decoration="none" x="560.742919921875" y="231">TexteDecorateur</text></g></g><g transform="translate(-126,-102) scale(1,1)"><g><path fill="none" stroke="none"/><text fill="#000000" stroke="none" font-family="Arial" font-size="13px" font-style="normal" font-weight="normal" text-decoration="none" x="477" y="264">+TexteDecorateur(texteDecore: TexteInterface)</text></g></g><g transform="translate(-126,-102) scale(1,1)"><g><path fill="none" stroke="none"/><text fill="#000000" stroke="none" font-family="Arial" font-size="13px" font-style="normal" font-weight="normal" text-decoration="none" x="477" y="279">+afficher()</text></g></g><g transform="translate(-126,-102) scale(1,1)"><rect fill="#C0C0C0" stroke="none" x="263" y="311" width="279.6005859375" height="72" opacity="0.2"/></g><g transform="translate(-126,-102) scale(1,1)"><rect fill="#ffffff" stroke="none" x="256" y="304" width="279.6005859375" height="72"/></g><g transform="translate(-126,-102) scale(1,1)"><path fill="none" stroke="#000000" d="M 256 304 L 535.6005859375 304 L 535.6005859375 376 L 256 376 L 256 304 Z Z" stroke-miterlimit="10"/></g><g transform="translate(-126,-102) scale(1,1)"><path fill="none" stroke="#000000" d="M 256 329 L 535.6005859375 329" stroke-miterlimit="10"/></g><g transform="translate(-126,-102) scale(1,1)"><path fill="none" stroke="#000000" d="M 256 339 L 535.6005859375 339" stroke-miterlimit="10"/></g><g transform="translate(-126,-102) scale(1,1)"><g><path fill="none" stroke="none"/><text fill="#000000" stroke="none" font-family="Arial" font-size="13px" font-style="normal" font-weight="bold" text-decoration="none" x="356.181396484375" y="322">TexteEnGras</text></g></g><g transform="translate(-126,-102) scale(1,1)"><g><path fill="none" stroke="none"/><text fill="#000000" stroke="none" font-family="Arial" font-size="13px" font-style="normal" font-weight="normal" text-decoration="none" x="261" y="355">+TexteEnGras(texteDecore: TexteInterface)</text></g></g><g transform="translate(-126,-102) scale(1,1)"><g><path fill="none" stroke="none"/><text fill="#000000" stroke="none" font-family="Arial" font-size="13px" font-style="normal" font-weight="normal" text-decoration="none" x="261" y="370">+afficher()</text></g></g><g transform="translate(-126,-102) scale(1,1)"><rect fill="#C0C0C0" stroke="none" x="487" y="407" width="279.6005859375" height="72" opacity="0.2"/></g><g transform="translate(-126,-102) scale(1,1)"><rect fill="#ffffff" stroke="none" x="480" y="400" width="279.6005859375" height="72"/></g><g transform="translate(-126,-102) scale(1,1)"><path fill="none" stroke="#000000" d="M 480 400 L 759.6005859375 400 L 759.6005859375 472 L 480 472 L 480 400 Z Z" stroke-miterlimit="10"/></g><g transform="translate(-126,-102) scale(1,1)"><path fill="none" stroke="#000000" d="M 480 425 L 759.6005859375 425" stroke-miterlimit="10"/></g><g transform="translate(-126,-102) scale(1,1)"><path fill="none" stroke="#000000" d="M 480 435 L 759.6005859375 435" stroke-miterlimit="10"/></g><g transform="translate(-126,-102) scale(1,1)"><g><path fill="none" stroke="none"/><text fill="#000000" stroke="none" font-family="Arial" font-size="13px" font-style="normal" font-weight="bold" text-decoration="none" x="572.24365234375" y="418">TexteEnItalique</text></g></g><g transform="translate(-126,-102) scale(1,1)"><g><path fill="none" stroke="none"/><text fill="#000000" stroke="none" font-family="Arial" font-size="13px" font-style="normal" font-weight="normal" text-decoration="none" x="485" y="451">+TexteEnItalique(texteDecore: TexteInterface)</text></g></g><g transform="translate(-126,-102) scale(1,1)"><g><path fill="none" stroke="none"/><text fill="#000000" stroke="none" font-family="Arial" font-size="13px" font-style="normal" font-weight="normal" text-decoration="none" x="485" y="466">+afficher()</text></g></g><g transform="translate(-126,-102) scale(1,1)"><rect fill="#C0C0C0" stroke="none" x="703" y="311" width="279.6005859375" height="72" opacity="0.2"/></g><g transform="translate(-126,-102) scale(1,1)"><rect fill="#ffffff" stroke="none" x="696" y="304" width="279.6005859375" height="72"/></g><g transform="translate(-126,-102) scale(1,1)"><path fill="none" stroke="#000000" d="M 696 304 L 975.6005859375 304 L 975.6005859375 376 L 696 376 L 696 304 Z Z" stroke-miterlimit="10"/></g><g transform="translate(-126,-102) scale(1,1)"><path fill="none" stroke="#000000" d="M 696 329 L 975.6005859375 329" stroke-miterlimit="10"/></g><g transform="translate(-126,-102) scale(1,1)"><path fill="none" stroke="#000000" d="M 696 339 L 975.6005859375 339" stroke-miterlimit="10"/></g><g transform="translate(-126,-102) scale(1,1)"><g><path fill="none" stroke="none"/><text fill="#000000" stroke="none" font-family="Arial" font-size="13px" font-style="normal" font-weight="bold" text-decoration="none" x="791.858642578125" y="322">TexteSouligne</text></g></g><g transform="translate(-126,-102) scale(1,1)"><g><path fill="none" stroke="none"/><text fill="#000000" stroke="none" font-family="Arial" font-size="13px" font-style="normal" font-weight="normal" text-decoration="none" x="701" y="355">+TexteSouligne(texteDecore: TexteInterface)</text></g></g><g transform="translate(-126,-102) scale(1,1)"><g><path fill="none" stroke="none"/><text fill="#000000" stroke="none" font-family="Arial" font-size="13px" font-style="normal" font-weight="normal" text-decoration="none" x="701" y="370">+afficher()</text></g></g><g transform="translate(-126,-102) scale(1,1)"><path fill="none" stroke="#000000" d="M 464 144 L 560 144 L 560 200" stroke-miterlimit="10"/></g><g transform="translate(-126,-102) scale(1,1)"><path fill="#FFFFFF" stroke="none" d="M 555.790482243984 189.83732514237585 L 560 200 L 564.209517756016 189.83732514237585 L 560 178"/></g><g transform="translate(-126,-102) scale(1,1)"><path fill="none" stroke="#000000" d="M 555.790482243984 189.83732514237585 L 560 200 L 564.209517756016 189.83732514237585 L 560 178 L 555.790482243984 189.83732514237585" stroke-miterlimit="10"/></g><g transform="translate(-126,-102) scale(1,1)"><g><path fill="none" stroke="none"/><text fill="#000000" stroke="none" font-family="Arial" font-size="13px" font-style="normal" font-weight="normal" text-decoration="none" x="470.5" y="134">-texteDecore</text></g></g><g transform="translate(-126,-102) scale(1,1)"><g><path fill="none" stroke="none"/><text fill="#000000" stroke="none" font-family="Arial" font-size="13px" font-style="normal" font-weight="normal" text-decoration="none" x="481.5" y="161">1</text></g></g><g transform="translate(-126,-102) scale(1,1)"><path fill="none" stroke="#000000" d="M 392 304 L 392 248 L 472 248" stroke-miterlimit="10"/></g><g transform="translate(-126,-102) scale(1,1)"><path fill="#FFFFFF" stroke="none" d="M 451.6746502847517 256.419035512032 L 472 248 L 451.6746502847517 239.58096448796803"/></g><g transform="translate(-126,-102) scale(1,1)"><path fill="none" stroke="#000000" d="M 451.6746502847517 256.419035512032 L 472 248 L 451.6746502847517 239.58096448796803 L 451.6746502847517 256.419035512032" stroke-miterlimit="10"/></g><g transform="translate(-126,-102) scale(1,1)"><path fill="none" stroke="#000000" d="M 616 400 L 616 285" stroke-miterlimit="10"/></g><g transform="translate(-126,-102) scale(1,1)"><path fill="#FFFFFF" stroke="none" d="M 624.419035512032 305.3253497152483 L 616 285 L 607.580964487968 305.3253497152483"/></g><g transform="translate(-126,-102) scale(1,1)"><path fill="none" stroke="#000000" d="M 624.419035512032 305.3253497152483 L 616 285 L 607.580964487968 305.3253497152483 L 624.419035512032 305.3253497152483" stroke-miterlimit="10"/></g><g transform="translate(-126,-102) scale(1,1)"><path fill="none" stroke="#000000" d="M 840 304 L 840 256 L 752 256" stroke-miterlimit="10"/></g><g transform="translate(-126,-102) scale(1,1)"><path fill="#FFFFFF" stroke="none" d="M 772.3253497152483 247.58096448796803 L 752 256 L 772.3253497152483 264.419035512032"/></g><g transform="translate(-126,-102) scale(1,1)"><path fill="none" stroke="#000000" d="M 772.3253497152483 247.58096448796803 L 752 256 L 772.3253497152483 264.419035512032 L 772.3253497152483 247.58096448796803" stroke-miterlimit="10"/></g><g transform="translate(-126,-102) scale(1,1)"><path fill="none" stroke="#000000" d="M 222 192 L 222 136 L 368 136" stroke-miterlimit="10" stroke-dasharray="3"/></g><g transform="translate(-126,-102) scale(1,1)"><path fill="#FFFFFF" stroke="none" d="M 347.6746502847517 144.41903551203197 L 368 136 L 347.6746502847517 127.58096448796803"/></g><g transform="translate(-126,-102) scale(1,1)"><path fill="none" stroke="#000000" d="M 347.6746502847517 144.41903551203197 L 368 136 L 347.6746502847517 127.58096448796803 L 347.6746502847517 144.41903551203197" stroke-miterlimit="10"/></g><g transform="translate(-126,-102) scale(1,1)"><path fill="none" stroke="#000000" d="M 472 215 L 416 215 L 416 172" stroke-miterlimit="10" stroke-dasharray="3"/></g><g transform="translate(-126,-102) scale(1,1)"><path fill="#FFFFFF" stroke="none" d="M 424.419035512032 192.3253497152483 L 416 172 L 407.580964487968 192.3253497152483"/></g><g transform="translate(-126,-102) scale(1,1)"><path fill="none" stroke="#000000" d="M 424.419035512032 192.3253497152483 L 416 172 L 407.580964487968 192.3253497152483 L 424.419035512032 192.3253497152483" stroke-miterlimit="10"/></g></g></svg>