<svg version="1.1" xmlns="http://www.w3.org/2000/svg" xmlns:xlink="http://www.w3.org/1999/xlink" width="760.5078125" height="507"><defs/><g><g transform="translate(-118,-166) scale(1,1)"><rect fill="#C0C0C0" stroke="none" x="135" y="327" width="129.6181640625" height="72" opacity="0.2"/></g><g transform="translate(-118,-166) scale(1,1)"><rect fill="#ffffff" stroke="none" x="128" y="320" width="129.6181640625" height="72"/></g><g transform="translate(-118,-166) scale(1,1)"><path fill="none" stroke="#000000" d="M 128 320 L 257.6181640625 320 L 257.6181640625 392 L 128 392 L 128 320 Z Z" stroke-miterlimit="10"/></g><g transform="translate(-118,-166) scale(1,1)"><path fill="none" stroke="#000000" d="M 128 345 L 257.6181640625 345" stroke-miterlimit="10"/></g><g transform="translate(-118,-166) scale(1,1)"><path fill="none" stroke="#000000" d="M 128 355 L 257.6181640625 355" stroke-miterlimit="10"/></g><g transform="translate(-118,-166) scale(1,1)"><g><path fill="none" stroke="none"/><text fill="#000000" stroke="none" font-family="Arial" font-size="13px" font-style="normal" font-weight="bold" text-decoration="none" x="132.5" y="338">ComposantConcret</text></g></g><g transform="translate(-118,-166) scale(1,1)"><g><path fill="none" stroke="none"/><text fill="#000000" stroke="none" font-family="Arial" font-size="13px" font-style="normal" font-weight="normal" text-decoration="none" x="133" y="371">+operationA()</text></g></g><g transform="translate(-118,-166) scale(1,1)"><g><path fill="none" stroke="none"/><text fill="#000000" stroke="none" font-family="Arial" font-size="13px" font-style="normal" font-weight="normal" text-decoration="none" x="133" y="386">+operationB()</text></g></g><g transform="translate(-118,-166) scale(1,1)"><rect fill="#C0C0C0" stroke="none" x="175" y="183" width="134.68994140625" height="75" opacity="0.2"/></g><g transform="translate(-118,-166) scale(1,1)"><rect fill="#ffffff" stroke="none" x="168" y="176" width="134.68994140625" height="75"/></g><g transform="translate(-118,-166) scale(1,1)"><path fill="none" stroke="#000000" d="M 168 176 L 302.68994140625 176 L 302.68994140625 251 L 168 251 L 168 176 Z Z" stroke-miterlimit="10"/></g><g transform="translate(-118,-166) scale(1,1)"><path fill="none" stroke="#000000" d="M 168 214 L 302.68994140625 214" stroke-miterlimit="10"/></g><g transform="translate(-118,-166) scale(1,1)"><g><path fill="none" stroke="none"/><text fill="#000000" stroke="none" font-family="Arial" font-size="13px" font-style="normal" font-weight="normal" text-decoration="none" x="203.1845703125" y="192">«interface»</text></g></g><g transform="translate(-118,-166) scale(1,1)"><g><path fill="none" stroke="none"/><text fill="#000000" stroke="none" font-family="Arial" font-size="13px" font-style="normal" font-weight="bold" text-decoration="none" x="175.035888671875" y="207">ComposantAbstrait</text></g></g><g transform="translate(-118,-166) scale(1,1)"><g><path fill="none" stroke="none"/><text fill="#000000" stroke="none" font-family="Arial" font-size="13px" font-style="normal" font-weight="normal" text-decoration="none" x="173" y="230">+operationA()</text></g></g><g transform="translate(-118,-166) scale(1,1)"><g><path fill="none" stroke="none"/><text fill="#000000" stroke="none" font-family="Arial" font-size="13px" font-style="normal" font-weight="normal" text-decoration="none" x="173" y="245">+operationB()</text></g></g><g transform="translate(-118,-166) scale(1,1)"><rect fill="#C0C0C0" stroke="none" x="367" y="327" width="320.07958984375" height="100" opacity="0.2"/></g><g transform="translate(-118,-166) scale(1,1)"><rect fill="#ffffff" stroke="none" x="360" y="320" width="320.07958984375" height="100"/></g><g transform="translate(-118,-166) scale(1,1)"><path fill="none" stroke="#000000" d="M 360 320 L 680.07958984375 320 L 680.07958984375 420 L 360 420 L 360 320 Z Z" stroke-miterlimit="10"/></g><g transform="translate(-118,-166) scale(1,1)"><path fill="none" stroke="#000000" d="M 360 358 L 680.07958984375 358" stroke-miterlimit="10"/></g><g transform="translate(-118,-166) scale(1,1)"><path fill="none" stroke="#000000" d="M 360 368 L 680.07958984375 368" stroke-miterlimit="10"/></g><g transform="translate(-118,-166) scale(1,1)"><g><path fill="none" stroke="none"/><text fill="#000000" stroke="none" font-family="Arial" font-size="13px" font-style="normal" font-weight="normal" text-decoration="none" x="489.6884765625" y="336">«abstract»</text></g></g><g transform="translate(-118,-166) scale(1,1)"><g><path fill="none" stroke="none"/><text fill="#000000" stroke="none" font-family="Arial" font-size="13px" font-style="italic" font-weight="bold" text-decoration="none" x="449.97119140625" y="350.5">ComposantDecorateur</text></g></g><g transform="translate(-118,-166) scale(1,1)"><g><path fill="none" stroke="none"/><text fill="#000000" stroke="none" font-family="Arial" font-size="13px" font-style="normal" font-weight="normal" text-decoration="none" x="365" y="384">+ComposantDecorateur(delegue: ComposantAbstrait)</text></g></g><g transform="translate(-118,-166) scale(1,1)"><g><path fill="none" stroke="none"/><text fill="#000000" stroke="none" font-family="Arial" font-size="13px" font-style="normal" font-weight="normal" text-decoration="none" x="365" y="399">+operationA()</text></g></g><g transform="translate(-118,-166) scale(1,1)"><g><path fill="none" stroke="none"/><text fill="#000000" stroke="none" font-family="Arial" font-size="13px" font-style="normal" font-weight="normal" text-decoration="none" x="365" y="414">+operationB()</text></g></g><g transform="translate(-118,-166) scale(1,1)"><rect fill="#C0C0C0" stroke="none" x="151" y="487" width="320.07958984375" height="72" opacity="0.2"/></g><g transform="translate(-118,-166) scale(1,1)"><rect fill="#ffffff" stroke="none" x="144" y="480" width="320.07958984375" height="72"/></g><g transform="translate(-118,-166) scale(1,1)"><path fill="none" stroke="#000000" d="M 144 480 L 464.07958984375 480 L 464.07958984375 552 L 144 552 L 144 480 Z Z" stroke-miterlimit="10"/></g><g transform="translate(-118,-166) scale(1,1)"><path fill="none" stroke="#000000" d="M 144 505 L 464.07958984375 505" stroke-miterlimit="10"/></g><g transform="translate(-118,-166) scale(1,1)"><path fill="none" stroke="#000000" d="M 144 515 L 464.07958984375 515" stroke-miterlimit="10"/></g><g transform="translate(-118,-166) scale(1,1)"><g><path fill="none" stroke="none"/><text fill="#000000" stroke="none" font-family="Arial" font-size="13px" font-style="normal" font-weight="bold" text-decoration="none" x="240.468017578125" y="498">DecorateurConcretA</text></g></g><g transform="translate(-118,-166) scale(1,1)"><g><path fill="none" stroke="none"/><text fill="#000000" stroke="none" font-family="Arial" font-size="13px" font-style="normal" font-weight="normal" text-decoration="none" x="149" y="531">+DecorateurConcretA(delegue: ComposantAbstrait)</text></g></g><g transform="translate(-118,-166) scale(1,1)"><g><path fill="none" stroke="none"/><text fill="#000000" stroke="none" font-family="Arial" font-size="13px" font-style="normal" font-weight="normal" text-decoration="none" x="149" y="546">+operationA()</text></g></g><g transform="translate(-118,-166) scale(1,1)"><rect fill="#C0C0C0" stroke="none" x="567" y="495" width="308.5078125" height="72" opacity="0.2"/></g><g transform="translate(-118,-166) scale(1,1)"><rect fill="#ffffff" stroke="none" x="560" y="488" width="308.5078125" height="72"/></g><g transform="translate(-118,-166) scale(1,1)"><path fill="none" stroke="#000000" d="M 560 488 L 868.5078125 488 L 868.5078125 560 L 560 560 L 560 488 Z Z" stroke-miterlimit="10"/></g><g transform="translate(-118,-166) scale(1,1)"><path fill="none" stroke="#000000" d="M 560 513 L 868.5078125 513" stroke-miterlimit="10"/></g><g transform="translate(-118,-166) scale(1,1)"><path fill="none" stroke="#000000" d="M 560 523 L 868.5078125 523" stroke-miterlimit="10"/></g><g transform="translate(-118,-166) scale(1,1)"><g><path fill="none" stroke="none"/><text fill="#000000" stroke="none" font-family="Arial" font-size="13px" font-style="normal" font-weight="bold" text-decoration="none" x="650.68212890625" y="506">DecorateurConcretB</text></g></g><g transform="translate(-118,-166) scale(1,1)"><g><path fill="none" stroke="none"/><text fill="#000000" stroke="none" font-family="Arial" font-size="13px" font-style="normal" font-weight="normal" text-decoration="none" x="565" y="539">+DecorateurConcretB(delegue: ComposantAbstrait)</text></g></g><g transform="translate(-118,-166) scale(1,1)"><g><path fill="none" stroke="none"/><text fill="#000000" stroke="none" font-family="Arial" font-size="13px" font-style="normal" font-weight="normal" text-decoration="none" x="565" y="554">+operationB()</text></g></g><g transform="translate(-118,-166) scale(1,1)"><rect fill="#C0C0C0" stroke="none" x="367" y="583" width="308.5078125" height="87" opacity="0.2"/></g><g transform="translate(-118,-166) scale(1,1)"><rect fill="#ffffff" stroke="none" x="360" y="576" width="308.5078125" height="87"/></g><g transform="translate(-118,-166) scale(1,1)"><path fill="none" stroke="#000000" d="M 360 576 L 668.5078125 576 L 668.5078125 663 L 360 663 L 360 576 Z Z" stroke-miterlimit="10"/></g><g transform="translate(-118,-166) scale(1,1)"><path fill="none" stroke="#000000" d="M 360 601 L 668.5078125 601" stroke-miterlimit="10"/></g><g transform="translate(-118,-166) scale(1,1)"><path fill="none" stroke="#000000" d="M 360 611 L 668.5078125 611" stroke-miterlimit="10"/></g><g transform="translate(-118,-166) scale(1,1)"><g><path fill="none" stroke="none"/><text fill="#000000" stroke="none" font-family="Arial" font-size="13px" font-style="normal" font-weight="bold" text-decoration="none" x="450.68212890625" y="594">DecorateurConcretC</text></g></g><g transform="translate(-118,-166) scale(1,1)"><g><path fill="none" stroke="none"/><text fill="#000000" stroke="none" font-family="Arial" font-size="13px" font-style="normal" font-weight="normal" text-decoration="none" x="365" y="627">+DecorateurConcretC(delegue: ComposantAbstrait)</text></g></g><g transform="translate(-118,-166) scale(1,1)"><g><path fill="none" stroke="none"/><text fill="#000000" stroke="none" font-family="Arial" font-size="13px" font-style="normal" font-weight="normal" text-decoration="none" x="365" y="642">+operationA()</text></g></g><g transform="translate(-118,-166) scale(1,1)"><g><path fill="none" stroke="none"/><text fill="#000000" stroke="none" font-family="Arial" font-size="13px" font-style="normal" font-weight="normal" text-decoration="none" x="365" y="657">+operationB()</text></g></g><g transform="translate(-118,-166) scale(1,1)"><path fill="none" stroke="#000000" d="M 303 216 L 400 216 L 400 320" stroke-miterlimit="10"/></g><g transform="translate(-118,-166) scale(1,1)"><path fill="#FFFFFF" stroke="none" d="M 395.790482243984 309.83732514237585 L 400 320 L 404.209517756016 309.83732514237585 L 400 298"/></g><g transform="translate(-118,-166) scale(1,1)"><path fill="none" stroke="#000000" d="M 395.790482243984 309.83732514237585 L 400 320 L 404.209517756016 309.83732514237585 L 400 298 L 395.790482243984 309.83732514237585" stroke-miterlimit="10"/></g><g transform="translate(-118,-166) scale(1,1)"><g><path fill="none" stroke="none"/><text fill="#000000" stroke="none" font-family="Arial" font-size="13px" font-style="normal" font-weight="normal" text-decoration="none" x="302.5" y="206">-delegue</text></g></g><g transform="translate(-118,-166) scale(1,1)"><g><path fill="none" stroke="none"/><text fill="#000000" stroke="none" font-family="Arial" font-size="13px" font-style="normal" font-weight="normal" text-decoration="none" x="320.5" y="233">1</text></g></g><g transform="translate(-118,-166) scale(1,1)"><path fill="none" stroke="#000000" d="M 397 480 L 397 420" stroke-miterlimit="10"/></g><g transform="translate(-118,-166) scale(1,1)"><path fill="#FFFFFF" stroke="none" d="M 405.419035512032 440.3253497152483 L 397 420 L 388.580964487968 440.3253497152483"/></g><g transform="translate(-118,-166) scale(1,1)"><path fill="none" stroke="#000000" d="M 405.419035512032 440.3253497152483 L 397 420 L 388.580964487968 440.3253497152483 L 405.419035512032 440.3253497152483" stroke-miterlimit="10"/></g><g transform="translate(-118,-166) scale(1,1)"><path fill="none" stroke="#000000" d="M 640 488 L 640 420" stroke-miterlimit="10"/></g><g transform="translate(-118,-166) scale(1,1)"><path fill="#FFFFFF" stroke="none" d="M 648.419035512032 440.3253497152483 L 640 420 L 631.580964487968 440.3253497152483"/></g><g transform="translate(-118,-166) scale(1,1)"><path fill="none" stroke="#000000" d="M 648.419035512032 440.3253497152483 L 640 420 L 631.580964487968 440.3253497152483 L 648.419035512032 440.3253497152483" stroke-miterlimit="10"/></g><g transform="translate(-118,-166) scale(1,1)"><path fill="none" stroke="#000000" d="M 520 576 L 520 420" stroke-miterlimit="10"/></g><g transform="translate(-118,-166) scale(1,1)"><path fill="#FFFFFF" stroke="none" d="M 528.419035512032 440.3253497152483 L 520 420 L 511.580964487968 440.3253497152483"/></g><g transform="translate(-118,-166) scale(1,1)"><path fill="none" stroke="#000000" d="M 528.419035512032 440.3253497152483 L 520 420 L 511.580964487968 440.3253497152483 L 528.419035512032 440.3253497152483" stroke-miterlimit="10"/></g><g transform="translate(-118,-166) scale(1,1)"><path fill="none" stroke="#000000" d="M 360 362 L 272 362 L 272 251" stroke-miterlimit="10" stroke-dasharray="3"/></g><g transform="translate(-118,-166) scale(1,1)"><path fill="#FFFFFF" stroke="none" d="M 280.419035512032 271.3253497152483 L 272 251 L 263.580964487968 271.3253497152483"/></g><g transform="translate(-118,-166) scale(1,1)"><path fill="none" stroke="#000000" d="M 280.419035512032 271.3253497152483 L 272 251 L 263.580964487968 271.3253497152483 L 280.419035512032 271.3253497152483" stroke-miterlimit="10"/></g><g transform="translate(-118,-166) scale(1,1)"><path fill="none" stroke="#000000" d="M 223 320 L 223 251" stroke-miterlimit="10" stroke-dasharray="3"/></g><g transform="translate(-118,-166) scale(1,1)"><path fill="#FFFFFF" stroke="none" d="M 231.41903551203197 271.3253497152483 L 223 251 L 214.58096448796803 271.3253497152483"/></g><g transform="translate(-118,-166) scale(1,1)"><path fill="none" stroke="#000000" d="M 231.41903551203197 271.3253497152483 L 223 251 L 214.58096448796803 271.3253497152483 L 231.41903551203197 271.3253497152483" stroke-miterlimit="10"/></g></g></svg>