<svg version="1.1" xmlns="http://www.w3.org/2000/svg" xmlns:xlink="http://www.w3.org/1999/xlink" width="1361.48193359375" height="818"><defs/><g><g transform="translate(-30,-78) scale(1,1)"><rect fill="#C0C0C0" stroke="none" x="159" y="343" width="171.21435546875" height="128" opacity="0.2"/></g><g transform="translate(-30,-78) scale(1,1)"><rect fill="#ffffff" stroke="none" x="152" y="336" width="171.21435546875" height="128"/></g><g transform="translate(-30,-78) scale(1,1)"><path fill="none" stroke="#000000" d="M 152 336 L 323.21435546875 336 L 323.21435546875 464 L 152 464 L 152 336 Z Z" stroke-miterlimit="10"/></g><g transform="translate(-30,-78) scale(1,1)"><path fill="none" stroke="#000000" d="M 152 374 L 323.21435546875 374" stroke-miterlimit="10"/></g><g transform="translate(-30,-78) scale(1,1)"><path fill="none" stroke="#000000" d="M 152 397 L 323.21435546875 397" stroke-miterlimit="10"/></g><g transform="translate(-30,-78) scale(1,1)"><g><path fill="none" stroke="none"/><text fill="#000000" stroke="none" font-family="Arial" font-size="13px" font-style="normal" font-weight="normal" text-decoration="none" x="207.255859375" y="352">«abstract»</text></g></g><g transform="translate(-30,-78) scale(1,1)"><g><path fill="none" stroke="none"/><text fill="#000000" stroke="none" font-family="Arial" font-size="13px" font-style="italic" font-weight="bold" text-decoration="none" x="218.837158203125" y="367">Robot</text></g></g><g transform="translate(-30,-78) scale(1,1)"><g><path fill="none" stroke="none"/><text fill="#000000" stroke="none" font-family="Arial" font-size="13px" font-style="normal" font-weight="normal" text-decoration="none" x="157" y="390">-prixDeBase: int</text></g></g><g transform="translate(-30,-78) scale(1,1)"><g><path fill="none" stroke="none"/><text fill="#000000" stroke="none" font-family="Arial" font-size="13px" font-style="normal" font-weight="normal" text-decoration="none" x="157" y="413">+Robot(prixDeBase: int)</text></g></g><g transform="translate(-30,-78) scale(1,1)"><g><path fill="none" stroke="none"/><text fill="#000000" stroke="none" font-family="Arial" font-size="13px" font-style="normal" font-weight="normal" text-decoration="none" x="157" y="428">+calculerPrix(): int</text></g></g><g transform="translate(-30,-78) scale(1,1)"><g><path fill="none" stroke="none"/><text fill="#000000" stroke="none" font-family="Arial" font-size="13px" font-style="normal" font-weight="normal" text-decoration="none" x="157" y="443">+calculerDureeRoutine(): int</text></g></g><g transform="translate(-30,-78) scale(1,1)"><g><path fill="none" stroke="none"/><text fill="#000000" stroke="none" font-family="Arial" font-size="13px" font-style="normal" font-weight="normal" text-decoration="none" x="157" y="458">+effectuerRoutine()</text></g></g><g transform="translate(-30,-78) scale(1,1)"><rect fill="#C0C0C0" stroke="none" x="391" y="151" width="171.21435546875" height="105" opacity="0.2"/></g><g transform="translate(-30,-78) scale(1,1)"><rect fill="#ffffff" stroke="none" x="384" y="144" width="171.21435546875" height="105"/></g><g transform="translate(-30,-78) scale(1,1)"><path fill="none" stroke="#000000" d="M 384 144 L 555.21435546875 144 L 555.21435546875 249 L 384 249 L 384 144 Z Z" stroke-miterlimit="10"/></g><g transform="translate(-30,-78) scale(1,1)"><path fill="none" stroke="#000000" d="M 384 182 L 555.21435546875 182" stroke-miterlimit="10"/></g><g transform="translate(-30,-78) scale(1,1)"><g><path fill="none" stroke="none"/><text fill="#000000" stroke="none" font-family="Arial" font-size="13px" font-style="normal" font-weight="normal" text-decoration="none" x="437.44677734375" y="160">«interface»</text></g></g><g transform="translate(-30,-78) scale(1,1)"><g><path fill="none" stroke="none"/><text fill="#000000" stroke="none" font-family="Arial" font-size="13px" font-style="normal" font-weight="bold" text-decoration="none" x="423.7421875" y="175">RobotInterface</text></g></g><g transform="translate(-30,-78) scale(1,1)"><g><path fill="none" stroke="none"/><text fill="#000000" stroke="none" font-family="Arial" font-size="13px" font-style="normal" font-weight="normal" text-decoration="none" x="389" y="198">+decrire()</text></g></g><g transform="translate(-30,-78) scale(1,1)"><g><path fill="none" stroke="none"/><text fill="#000000" stroke="none" font-family="Arial" font-size="13px" font-style="normal" font-weight="normal" text-decoration="none" x="389" y="213">+calculerPrix(): int</text></g></g><g transform="translate(-30,-78) scale(1,1)"><g><path fill="none" stroke="none"/><text fill="#000000" stroke="none" font-family="Arial" font-size="13px" font-style="normal" font-weight="normal" text-decoration="none" x="389" y="228">+calculerDureeRoutine(): int</text></g></g><g transform="translate(-30,-78) scale(1,1)"><g><path fill="none" stroke="none"/><text fill="#000000" stroke="none" font-family="Arial" font-size="13px" font-style="normal" font-weight="normal" text-decoration="none" x="389" y="243">+effectuerRoutine()</text></g></g><g transform="translate(-30,-78) scale(1,1)"><rect fill="#C0C0C0" stroke="none" x="399" y="319" width="156.36083984375" height="48" opacity="0.2"/></g><g transform="translate(-30,-78) scale(1,1)"><rect fill="#ffffff" stroke="none" x="392" y="312" width="156.36083984375" height="48"/></g><g transform="translate(-30,-78) scale(1,1)"><path fill="none" stroke="#000000" d="M 392 312 L 548.36083984375 312 L 548.36083984375 360 L 392 360 L 392 312 Z Z" stroke-miterlimit="10"/></g><g transform="translate(-30,-78) scale(1,1)"><g><path fill="none" stroke="none"/><text fill="#000000" stroke="none" font-family="Arial" font-size="13px" font-style="normal" font-weight="normal" text-decoration="none" x="438.02001953125" y="328">«interface»</text></g></g><g transform="translate(-30,-78) scale(1,1)"><g><path fill="none" stroke="none"/><text fill="#000000" stroke="none" font-family="Arial" font-size="13px" font-style="normal" font-weight="bold" text-decoration="none" x="396.5" y="343">RobotPremiumInterface</text></g></g><g transform="translate(-30,-78) scale(1,1)"><path fill="none" stroke="#000000" d="M 469 312 L 469 249" stroke-miterlimit="10"/></g><g transform="translate(-30,-78) scale(1,1)"><path fill="#FFFFFF" stroke="none" d="M 477.419035512032 269.3253497152483 L 469 249 L 460.580964487968 269.3253497152483"/></g><g transform="translate(-30,-78) scale(1,1)"><path fill="none" stroke="#000000" d="M 477.419035512032 269.3253497152483 L 469 249 L 460.580964487968 269.3253497152483 L 477.419035512032 269.3253497152483" stroke-miterlimit="10"/></g><g transform="translate(-30,-78) scale(1,1)"><path fill="none" stroke="#000000" d="M 224 336 L 224 200 L 384 200" stroke-miterlimit="10" stroke-dasharray="3"/></g><g transform="translate(-30,-78) scale(1,1)"><path fill="#FFFFFF" stroke="none" d="M 363.6746502847517 208.41903551203197 L 384 200 L 363.6746502847517 191.58096448796803"/></g><g transform="translate(-30,-78) scale(1,1)"><path fill="none" stroke="#000000" d="M 363.6746502847517 208.41903551203197 L 384 200 L 363.6746502847517 191.58096448796803 L 363.6746502847517 208.41903551203197" stroke-miterlimit="10"/></g><g transform="translate(-30,-78) scale(1,1)"><rect fill="#C0C0C0" stroke="none" x="47" y="519" width="151.30810546875" height="72" opacity="0.2"/></g><g transform="translate(-30,-78) scale(1,1)"><rect fill="#ffffff" stroke="none" x="40" y="512" width="151.30810546875" height="72"/></g><g transform="translate(-30,-78) scale(1,1)"><path fill="none" stroke="#000000" d="M 40 512 L 191.30810546875 512 L 191.30810546875 584 L 40 584 L 40 512 Z Z" stroke-miterlimit="10"/></g><g transform="translate(-30,-78) scale(1,1)"><path fill="none" stroke="#000000" d="M 40 537 L 191.30810546875 537" stroke-miterlimit="10"/></g><g transform="translate(-30,-78) scale(1,1)"><path fill="none" stroke="#000000" d="M 40 547 L 191.30810546875 547" stroke-miterlimit="10"/></g><g transform="translate(-30,-78) scale(1,1)"><g><path fill="none" stroke="none"/><text fill="#000000" stroke="none" font-family="Arial" font-size="13px" font-style="normal" font-weight="bold" text-decoration="none" x="52.80908203125" y="530">RobotEntreeGamme</text></g></g><g transform="translate(-30,-78) scale(1,1)"><g><path fill="none" stroke="none"/><text fill="#000000" stroke="none" font-family="Arial" font-size="13px" font-style="normal" font-weight="normal" text-decoration="none" x="45" y="563">+RobotEntreeGamme()</text></g></g><g transform="translate(-30,-78) scale(1,1)"><g><path fill="none" stroke="none"/><text fill="#000000" stroke="none" font-family="Arial" font-size="13px" font-style="normal" font-weight="normal" text-decoration="none" x="45" y="578">+decrire()</text></g></g><g transform="translate(-30,-78) scale(1,1)"><path fill="none" stroke="#000000" d="M 96 512 L 96 416 L 152 416" stroke-miterlimit="10"/></g><g transform="translate(-30,-78) scale(1,1)"><path fill="#FFFFFF" stroke="none" d="M 131.6746502847517 424.419035512032 L 152 416 L 131.6746502847517 407.580964487968"/></g><g transform="translate(-30,-78) scale(1,1)"><path fill="none" stroke="#000000" d="M 131.6746502847517 424.419035512032 L 152 416 L 131.6746502847517 407.580964487968 L 131.6746502847517 424.419035512032" stroke-miterlimit="10"/></g><g transform="translate(-30,-78) scale(1,1)"><rect fill="#C0C0C0" stroke="none" x="175" y="623" width="159.64892578125" height="72" opacity="0.2"/></g><g transform="translate(-30,-78) scale(1,1)"><rect fill="#ffffff" stroke="none" x="168" y="616" width="159.64892578125" height="72"/></g><g transform="translate(-30,-78) scale(1,1)"><path fill="none" stroke="#000000" d="M 168 616 L 327.64892578125 616 L 327.64892578125 688 L 168 688 L 168 616 Z Z" stroke-miterlimit="10"/></g><g transform="translate(-30,-78) scale(1,1)"><path fill="none" stroke="#000000" d="M 168 641 L 327.64892578125 641" stroke-miterlimit="10"/></g><g transform="translate(-30,-78) scale(1,1)"><path fill="none" stroke="#000000" d="M 168 651 L 327.64892578125 651" stroke-miterlimit="10"/></g><g transform="translate(-30,-78) scale(1,1)"><g><path fill="none" stroke="none"/><text fill="#000000" stroke="none" font-family="Arial" font-size="13px" font-style="normal" font-weight="bold" text-decoration="none" x="186.791748046875" y="634">RobotMilieuGamme</text></g></g><g transform="translate(-30,-78) scale(1,1)"><g><path fill="none" stroke="none"/><text fill="#000000" stroke="none" font-family="Arial" font-size="13px" font-style="normal" font-weight="normal" text-decoration="none" x="173" y="667">+RobotMoyenneGamme()</text></g></g><g transform="translate(-30,-78) scale(1,1)"><g><path fill="none" stroke="none"/><text fill="#000000" stroke="none" font-family="Arial" font-size="13px" font-style="normal" font-weight="normal" text-decoration="none" x="173" y="682">+decrire()</text></g></g><g transform="translate(-30,-78) scale(1,1)"><rect fill="#C0C0C0" stroke="none" x="335" y="519" width="140.85986328125" height="72" opacity="0.2"/></g><g transform="translate(-30,-78) scale(1,1)"><rect fill="#ffffff" stroke="none" x="328" y="512" width="140.85986328125" height="72"/></g><g transform="translate(-30,-78) scale(1,1)"><path fill="none" stroke="#000000" d="M 328 512 L 468.85986328125 512 L 468.85986328125 584 L 328 584 L 328 512 Z Z" stroke-miterlimit="10"/></g><g transform="translate(-30,-78) scale(1,1)"><path fill="none" stroke="#000000" d="M 328 537 L 468.85986328125 537" stroke-miterlimit="10"/></g><g transform="translate(-30,-78) scale(1,1)"><path fill="none" stroke="#000000" d="M 328 547 L 468.85986328125 547" stroke-miterlimit="10"/></g><g transform="translate(-30,-78) scale(1,1)"><g><path fill="none" stroke="none"/><text fill="#000000" stroke="none" font-family="Arial" font-size="13px" font-style="normal" font-weight="bold" text-decoration="none" x="341.370849609375" y="530">RobotHautGamme</text></g></g><g transform="translate(-30,-78) scale(1,1)"><g><path fill="none" stroke="none"/><text fill="#000000" stroke="none" font-family="Arial" font-size="13px" font-style="normal" font-weight="normal" text-decoration="none" x="333" y="563">+RobotHauteGamme()</text></g></g><g transform="translate(-30,-78) scale(1,1)"><g><path fill="none" stroke="none"/><text fill="#000000" stroke="none" font-family="Arial" font-size="13px" font-style="normal" font-weight="normal" text-decoration="none" x="333" y="578">+decrire()</text></g></g><g transform="translate(-30,-78) scale(1,1)"><path fill="none" stroke="#000000" d="M 242 616 L 242 464" stroke-miterlimit="10"/></g><g transform="translate(-30,-78) scale(1,1)"><path fill="#FFFFFF" stroke="none" d="M 250.41903551203197 484.3253497152483 L 242 464 L 233.58096448796803 484.3253497152483"/></g><g transform="translate(-30,-78) scale(1,1)"><path fill="none" stroke="#000000" d="M 250.41903551203197 484.3253497152483 L 242 464 L 233.58096448796803 484.3253497152483 L 250.41903551203197 484.3253497152483" stroke-miterlimit="10"/></g><g transform="translate(-30,-78) scale(1,1)"><path fill="none" stroke="#000000" d="M 398 512 L 398 408 L 323 408" stroke-miterlimit="10"/></g><g transform="translate(-30,-78) scale(1,1)"><path fill="#FFFFFF" stroke="none" d="M 343.3253497152483 399.580964487968 L 323 408 L 343.3253497152483 416.419035512032"/></g><g transform="translate(-30,-78) scale(1,1)"><path fill="none" stroke="#000000" d="M 343.3253497152483 399.580964487968 L 323 408 L 343.3253497152483 416.419035512032 L 343.3253497152483 399.580964487968" stroke-miterlimit="10"/></g><g transform="translate(-30,-78) scale(1,1)"><path fill="none" stroke="#000000" d="M 432 512 L 432 360" stroke-miterlimit="10" stroke-dasharray="3"/></g><g transform="translate(-30,-78) scale(1,1)"><path fill="#FFFFFF" stroke="none" d="M 440.419035512032 380.3253497152483 L 432 360 L 423.580964487968 380.3253497152483"/></g><g transform="translate(-30,-78) scale(1,1)"><path fill="none" stroke="#000000" d="M 440.419035512032 380.3253497152483 L 432 360 L 423.580964487968 380.3253497152483 L 440.419035512032 380.3253497152483" stroke-miterlimit="10"/></g><g transform="translate(-30,-78) scale(1,1)"><path fill="none" stroke="#000000" d="M 328 652 L 496 652 L 496 360" stroke-miterlimit="10" stroke-dasharray="3"/></g><g transform="translate(-30,-78) scale(1,1)"><path fill="#FFFFFF" stroke="none" d="M 504.419035512032 380.3253497152483 L 496 360 L 487.580964487968 380.3253497152483"/></g><g transform="translate(-30,-78) scale(1,1)"><path fill="none" stroke="#000000" d="M 504.419035512032 380.3253497152483 L 496 360 L 487.580964487968 380.3253497152483 L 504.419035512032 380.3253497152483" stroke-miterlimit="10"/></g><g transform="translate(-30,-78) scale(1,1)"><rect fill="#C0C0C0" stroke="none" x="639" y="167" width="288.2841796875" height="130" opacity="0.2"/></g><g transform="translate(-30,-78) scale(1,1)"><rect fill="#ffffff" stroke="none" x="632" y="160" width="288.2841796875" height="130"/></g><g transform="translate(-30,-78) scale(1,1)"><path fill="none" stroke="#000000" d="M 632 160 L 920.2841796875 160 L 920.2841796875 290 L 632 290 L 632 160 Z Z" stroke-miterlimit="10"/></g><g transform="translate(-30,-78) scale(1,1)"><path fill="none" stroke="#000000" d="M 632 198 L 920.2841796875 198" stroke-miterlimit="10"/></g><g transform="translate(-30,-78) scale(1,1)"><path fill="none" stroke="#000000" d="M 632 208 L 920.2841796875 208" stroke-miterlimit="10"/></g><g transform="translate(-30,-78) scale(1,1)"><g><path fill="none" stroke="none"/><text fill="#000000" stroke="none" font-family="Arial" font-size="13px" font-style="normal" font-weight="normal" text-decoration="none" x="745.790771484375" y="176">«abstract»</text></g></g><g transform="translate(-30,-78) scale(1,1)"><g><path fill="none" stroke="none"/><text fill="#000000" stroke="none" font-family="Arial" font-size="13px" font-style="italic" font-weight="bold" text-decoration="none" x="723.053466796875" y="191">RobotDecorateur</text></g></g><g transform="translate(-30,-78) scale(1,1)"><g><path fill="none" stroke="none"/><text fill="#000000" stroke="none" font-family="Arial" font-size="13px" font-style="normal" font-weight="normal" text-decoration="none" x="637" y="224">+RobotDecorateur(robotDecore: RobotInterface)</text></g></g><g transform="translate(-30,-78) scale(1,1)"><g><path fill="none" stroke="none"/><text fill="#000000" stroke="none" font-family="Arial" font-size="13px" font-style="normal" font-weight="normal" text-decoration="none" x="637" y="239">+decrire()</text></g></g><g transform="translate(-30,-78) scale(1,1)"><g><path fill="none" stroke="none"/><text fill="#000000" stroke="none" font-family="Arial" font-size="13px" font-style="normal" font-weight="normal" text-decoration="none" x="637" y="254">+calculerPrix(): int</text></g></g><g transform="translate(-30,-78) scale(1,1)"><g><path fill="none" stroke="none"/><text fill="#000000" stroke="none" font-family="Arial" font-size="13px" font-style="normal" font-weight="normal" text-decoration="none" x="637" y="269">+calculerDureeRoutine(): int</text></g></g><g transform="translate(-30,-78) scale(1,1)"><g><path fill="none" stroke="none"/><text fill="#000000" stroke="none" font-family="Arial" font-size="13px" font-style="normal" font-weight="normal" text-decoration="none" x="637" y="284">+effectuerRoutine()</text></g></g><g transform="translate(-30,-78) scale(1,1)"><rect fill="#C0C0C0" stroke="none" x="631" y="391" width="392.296875" height="70" opacity="0.2"/></g><g transform="translate(-30,-78) scale(1,1)"><rect fill="#ffffff" stroke="none" x="624" y="384" width="392.296875" height="70"/></g><g transform="translate(-30,-78) scale(1,1)"><path fill="none" stroke="#000000" d="M 624 384 L 1016.296875 384 L 1016.296875 454 L 624 454 L 624 384 Z Z" stroke-miterlimit="10"/></g><g transform="translate(-30,-78) scale(1,1)"><path fill="none" stroke="#000000" d="M 624 422 L 1016.296875 422" stroke-miterlimit="10"/></g><g transform="translate(-30,-78) scale(1,1)"><path fill="none" stroke="#000000" d="M 624 432 L 1016.296875 432" stroke-miterlimit="10"/></g><g transform="translate(-30,-78) scale(1,1)"><g><path fill="none" stroke="none"/><text fill="#000000" stroke="none" font-family="Arial" font-size="13px" font-style="normal" font-weight="normal" text-decoration="none" x="789.797119140625" y="400">«abstract»</text></g></g><g transform="translate(-30,-78) scale(1,1)"><g><path fill="none" stroke="none"/><text fill="#000000" stroke="none" font-family="Arial" font-size="13px" font-style="italic" font-weight="bold" text-decoration="none" x="739.244384765625" y="415">RobotPremiumDecorateur</text></g></g><g transform="translate(-30,-78) scale(1,1)"><g><path fill="none" stroke="none"/><text fill="#000000" stroke="none" font-family="Arial" font-size="13px" font-style="normal" font-weight="normal" text-decoration="none" x="629" y="448">+RobotPremiumDecorateur(robotDecore: RobotPremiumInterface)</text></g></g><g transform="translate(-30,-78) scale(1,1)"><path fill="none" stroke="#000000" d="M 776 384 L 776 290" stroke-miterlimit="10"/></g><g transform="translate(-30,-78) scale(1,1)"><path fill="#FFFFFF" stroke="none" d="M 784.419035512032 310.3253497152483 L 776 290 L 767.580964487968 310.3253497152483"/></g><g transform="translate(-30,-78) scale(1,1)"><path fill="none" stroke="#000000" d="M 784.419035512032 310.3253497152483 L 776 290 L 767.580964487968 310.3253497152483 L 784.419035512032 310.3253497152483" stroke-miterlimit="10"/></g><g transform="translate(-30,-78) scale(1,1)"><path fill="none" stroke="#000000" d="M 704 384 L 704 327 L 548 327" stroke-miterlimit="10" stroke-dasharray="3"/></g><g transform="translate(-30,-78) scale(1,1)"><path fill="#FFFFFF" stroke="none" d="M 568.3253497152483 318.580964487968 L 548 327 L 568.3253497152483 335.419035512032"/></g><g transform="translate(-30,-78) scale(1,1)"><path fill="none" stroke="#000000" d="M 568.3253497152483 318.580964487968 L 548 327 L 568.3253497152483 335.419035512032 L 568.3253497152483 318.580964487968" stroke-miterlimit="10"/></g><g transform="translate(-30,-78) scale(1,1)"><path fill="none" stroke="#000000" d="M 632 193 L 555 193" stroke-miterlimit="10" stroke-dasharray="3"/></g><g transform="translate(-30,-78) scale(1,1)"><path fill="#FFFFFF" stroke="none" d="M 575.3253497152483 184.58096448796803 L 555 193 L 575.3253497152483 201.41903551203197"/></g><g transform="translate(-30,-78) scale(1,1)"><path fill="none" stroke="#000000" d="M 575.3253497152483 184.58096448796803 L 555 193 L 575.3253497152483 201.41903551203197 L 575.3253497152483 184.58096448796803" stroke-miterlimit="10"/></g><g transform="translate(-30,-78) scale(1,1)"><path fill="none" stroke="#000000" d="M 464 144 L 464 88 L 776 88 L 776 160" stroke-miterlimit="10"/></g><g transform="translate(-30,-78) scale(1,1)"><path fill="#FFFFFF" stroke="none" d="M 771.790482243984 149.83732514237585 L 776 160 L 780.209517756016 149.83732514237585 L 776 138"/></g><g transform="translate(-30,-78) scale(1,1)"><path fill="none" stroke="#000000" d="M 771.790482243984 149.83732514237585 L 776 160 L 780.209517756016 149.83732514237585 L 776 138 L 771.790482243984 149.83732514237585" stroke-miterlimit="10"/></g><g transform="translate(-30,-78) scale(1,1)"><g><path fill="none" stroke="none"/><text fill="#000000" stroke="none" font-family="Arial" font-size="13px" font-style="normal" font-weight="normal" text-decoration="none" x="382.5" y="139">-robotDecore</text></g></g><g transform="translate(-30,-78) scale(1,1)"><g><path fill="none" stroke="none"/><text fill="#000000" stroke="none" font-family="Arial" font-size="13px" font-style="normal" font-weight="normal" text-decoration="none" x="472.5" y="131">1</text></g></g><g transform="translate(-30,-78) scale(1,1)"><rect fill="#C0C0C0" stroke="none" x="1039" y="103" width="329.962890625" height="117" opacity="0.2"/></g><g transform="translate(-30,-78) scale(1,1)"><rect fill="#ffffff" stroke="none" x="1032" y="96" width="329.962890625" height="117"/></g><g transform="translate(-30,-78) scale(1,1)"><path fill="none" stroke="#000000" d="M 1032 96 L 1361.962890625 96 L 1361.962890625 213 L 1032 213 L 1032 96 Z Z" stroke-miterlimit="10"/></g><g transform="translate(-30,-78) scale(1,1)"><path fill="none" stroke="#000000" d="M 1032 121 L 1361.962890625 121" stroke-miterlimit="10"/></g><g transform="translate(-30,-78) scale(1,1)"><path fill="none" stroke="#000000" d="M 1032 131 L 1361.962890625 131" stroke-miterlimit="10"/></g><g transform="translate(-30,-78) scale(1,1)"><g><path fill="none" stroke="none"/><text fill="#000000" stroke="none" font-family="Arial" font-size="13px" font-style="normal" font-weight="bold" text-decoration="none" x="1121.38720703125" y="114">RobotAvecFonctionCafe</text></g></g><g transform="translate(-30,-78) scale(1,1)"><g><path fill="none" stroke="none"/><text fill="#000000" stroke="none" font-family="Arial" font-size="13px" font-style="normal" font-weight="normal" text-decoration="none" x="1037" y="147">+RobotAvecFonctionCafe(robotDecore: RobotInterface)</text></g></g><g transform="translate(-30,-78) scale(1,1)"><g><path fill="none" stroke="none"/><text fill="#000000" stroke="none" font-family="Arial" font-size="13px" font-style="normal" font-weight="normal" text-decoration="none" x="1037" y="162">+decrire()</text></g></g><g transform="translate(-30,-78) scale(1,1)"><g><path fill="none" stroke="none"/><text fill="#000000" stroke="none" font-family="Arial" font-size="13px" font-style="normal" font-weight="normal" text-decoration="none" x="1037" y="177">+calculerPrix(): int</text></g></g><g transform="translate(-30,-78) scale(1,1)"><g><path fill="none" stroke="none"/><text fill="#000000" stroke="none" font-family="Arial" font-size="13px" font-style="normal" font-weight="normal" text-decoration="none" x="1037" y="192">+calculerDureeRoutine(): int</text></g></g><g transform="translate(-30,-78) scale(1,1)"><g><path fill="none" stroke="none"/><text fill="#000000" stroke="none" font-family="Arial" font-size="13px" font-style="normal" font-weight="normal" text-decoration="none" x="1037" y="207">+effectuerRoutine()</text></g></g><g transform="translate(-30,-78) scale(1,1)"><rect fill="#C0C0C0" stroke="none" x="1039" y="239" width="349.48193359375" height="117" opacity="0.2"/></g><g transform="translate(-30,-78) scale(1,1)"><rect fill="#ffffff" stroke="none" x="1032" y="232" width="349.48193359375" height="117"/></g><g transform="translate(-30,-78) scale(1,1)"><path fill="none" stroke="#000000" d="M 1032 232 L 1381.48193359375 232 L 1381.48193359375 349 L 1032 349 L 1032 232 Z Z" stroke-miterlimit="10"/></g><g transform="translate(-30,-78) scale(1,1)"><path fill="none" stroke="#000000" d="M 1032 257 L 1381.48193359375 257" stroke-miterlimit="10"/></g><g transform="translate(-30,-78) scale(1,1)"><path fill="none" stroke="#000000" d="M 1032 267 L 1381.48193359375 267" stroke-miterlimit="10"/></g><g transform="translate(-30,-78) scale(1,1)"><g><path fill="none" stroke="none"/><text fill="#000000" stroke="none" font-family="Arial" font-size="13px" font-style="normal" font-weight="bold" text-decoration="none" x="1121.034912109375" y="250">RobotAvecFonctionMenage</text></g></g><g transform="translate(-30,-78) scale(1,1)"><g><path fill="none" stroke="none"/><text fill="#000000" stroke="none" font-family="Arial" font-size="13px" font-style="normal" font-weight="normal" text-decoration="none" x="1037" y="283">+RobotAvecFonctionMenage(robotDecore: RobotInterface)</text></g></g><g transform="translate(-30,-78) scale(1,1)"><g><path fill="none" stroke="none"/><text fill="#000000" stroke="none" font-family="Arial" font-size="13px" font-style="normal" font-weight="normal" text-decoration="none" x="1037" y="298">+decrire()</text></g></g><g transform="translate(-30,-78) scale(1,1)"><g><path fill="none" stroke="none"/><text fill="#000000" stroke="none" font-family="Arial" font-size="13px" font-style="normal" font-weight="normal" text-decoration="none" x="1037" y="313">+calculerPrix(): int</text></g></g><g transform="translate(-30,-78) scale(1,1)"><g><path fill="none" stroke="none"/><text fill="#000000" stroke="none" font-family="Arial" font-size="13px" font-style="normal" font-weight="normal" text-decoration="none" x="1037" y="328">+calculerDureeRoutine(): int</text></g></g><g transform="translate(-30,-78) scale(1,1)"><g><path fill="none" stroke="none"/><text fill="#000000" stroke="none" font-family="Arial" font-size="13px" font-style="normal" font-weight="normal" text-decoration="none" x="1037" y="343">+effectuerRoutine()</text></g></g><g transform="translate(-30,-78) scale(1,1)"><rect fill="#C0C0C0" stroke="none" x="519" y="655" width="398.58740234375" height="117" opacity="0.2"/></g><g transform="translate(-30,-78) scale(1,1)"><rect fill="#ffffff" stroke="none" x="512" y="648" width="398.58740234375" height="117"/></g><g transform="translate(-30,-78) scale(1,1)"><path fill="none" stroke="#000000" d="M 512 648 L 910.58740234375 648 L 910.58740234375 765 L 512 765 L 512 648 Z Z" stroke-miterlimit="10"/></g><g transform="translate(-30,-78) scale(1,1)"><path fill="none" stroke="#000000" d="M 512 673 L 910.58740234375 673" stroke-miterlimit="10"/></g><g transform="translate(-30,-78) scale(1,1)"><path fill="none" stroke="#000000" d="M 512 683 L 910.58740234375 683" stroke-miterlimit="10"/></g><g transform="translate(-30,-78) scale(1,1)"><g><path fill="none" stroke="none"/><text fill="#000000" stroke="none" font-family="Arial" font-size="13px" font-style="normal" font-weight="bold" text-decoration="none" x="625.936767578125" y="666">RobotAvecFonctionLessive</text></g></g><g transform="translate(-30,-78) scale(1,1)"><g><path fill="none" stroke="none"/><text fill="#000000" stroke="none" font-family="Arial" font-size="13px" font-style="normal" font-weight="normal" text-decoration="none" x="517" y="699">+RobotAvecFonctionLessive(robotDecore: RobotPremiumInterface)</text></g></g><g transform="translate(-30,-78) scale(1,1)"><g><path fill="none" stroke="none"/><text fill="#000000" stroke="none" font-family="Arial" font-size="13px" font-style="normal" font-weight="normal" text-decoration="none" x="517" y="714">+decrire()</text></g></g><g transform="translate(-30,-78) scale(1,1)"><g><path fill="none" stroke="none"/><text fill="#000000" stroke="none" font-family="Arial" font-size="13px" font-style="normal" font-weight="normal" text-decoration="none" x="517" y="729">+calculerPrix(): int</text></g></g><g transform="translate(-30,-78) scale(1,1)"><g><path fill="none" stroke="none"/><text fill="#000000" stroke="none" font-family="Arial" font-size="13px" font-style="normal" font-weight="normal" text-decoration="none" x="517" y="744">+calculerDureeRoutine(): int</text></g></g><g transform="translate(-30,-78) scale(1,1)"><g><path fill="none" stroke="none"/><text fill="#000000" stroke="none" font-family="Arial" font-size="13px" font-style="normal" font-weight="normal" text-decoration="none" x="517" y="759">+effectuerRoutine()</text></g></g><g transform="translate(-30,-78) scale(1,1)"><rect fill="#C0C0C0" stroke="none" x="511" y="791" width="439.04736328125" height="102" opacity="0.2"/></g><g transform="translate(-30,-78) scale(1,1)"><rect fill="#ffffff" stroke="none" x="504" y="784" width="439.04736328125" height="102"/></g><g transform="translate(-30,-78) scale(1,1)"><path fill="none" stroke="#000000" d="M 504 784 L 943.04736328125 784 L 943.04736328125 886 L 504 886 L 504 784 Z Z" stroke-miterlimit="10"/></g><g transform="translate(-30,-78) scale(1,1)"><path fill="none" stroke="#000000" d="M 504 809 L 943.04736328125 809" stroke-miterlimit="10"/></g><g transform="translate(-30,-78) scale(1,1)"><path fill="none" stroke="#000000" d="M 504 819 L 943.04736328125 819" stroke-miterlimit="10"/></g><g transform="translate(-30,-78) scale(1,1)"><g><path fill="none" stroke="none"/><text fill="#000000" stroke="none" font-family="Arial" font-size="13px" font-style="normal" font-weight="bold" text-decoration="none" x="616.50537109375" y="802">RobotAvecMiseAJourAutomatique</text></g></g><g transform="translate(-30,-78) scale(1,1)"><g><path fill="none" stroke="none"/><text fill="#000000" stroke="none" font-family="Arial" font-size="13px" font-style="normal" font-weight="normal" text-decoration="none" x="509" y="835">+RobotAvecMiseAJourAutomatique(robotDecore: RobotPremiumInterface)</text></g></g><g transform="translate(-30,-78) scale(1,1)"><g><path fill="none" stroke="none"/><text fill="#000000" stroke="none" font-family="Arial" font-size="13px" font-style="normal" font-weight="normal" text-decoration="none" x="509" y="850">+decrire()</text></g></g><g transform="translate(-30,-78) scale(1,1)"><g><path fill="none" stroke="none"/><text fill="#000000" stroke="none" font-family="Arial" font-size="13px" font-style="normal" font-weight="normal" text-decoration="none" x="509" y="865">+calculerDureeRoutine(): int</text></g></g><g transform="translate(-30,-78) scale(1,1)"><g><path fill="none" stroke="none"/><text fill="#000000" stroke="none" font-family="Arial" font-size="13px" font-style="normal" font-weight="normal" text-decoration="none" x="509" y="880">+effectuerRoutine()</text></g></g><g transform="translate(-30,-78) scale(1,1)"><rect fill="#C0C0C0" stroke="none" x="535" y="519" width="366.068359375" height="87" opacity="0.2"/></g><g transform="translate(-30,-78) scale(1,1)"><rect fill="#ffffff" stroke="none" x="528" y="512" width="366.068359375" height="87"/></g><g transform="translate(-30,-78) scale(1,1)"><path fill="none" stroke="#000000" d="M 528 512 L 894.068359375 512 L 894.068359375 599 L 528 599 L 528 512 Z Z" stroke-miterlimit="10"/></g><g transform="translate(-30,-78) scale(1,1)"><path fill="none" stroke="#000000" d="M 528 537 L 894.068359375 537" stroke-miterlimit="10"/></g><g transform="translate(-30,-78) scale(1,1)"><path fill="none" stroke="#000000" d="M 528 547 L 894.068359375 547" stroke-miterlimit="10"/></g><g transform="translate(-30,-78) scale(1,1)"><g><path fill="none" stroke="none"/><text fill="#000000" stroke="none" font-family="Arial" font-size="13px" font-style="normal" font-weight="bold" text-decoration="none" x="643.726806640625" y="530">RobotAvecAssurance</text></g></g><g transform="translate(-30,-78) scale(1,1)"><g><path fill="none" stroke="none"/><text fill="#000000" stroke="none" font-family="Arial" font-size="13px" font-style="normal" font-weight="normal" text-decoration="none" x="533" y="563">+RobotAvecAssurance(robotDecore: RobotPremiumInterface)</text></g></g><g transform="translate(-30,-78) scale(1,1)"><g><path fill="none" stroke="none"/><text fill="#000000" stroke="none" font-family="Arial" font-size="13px" font-style="normal" font-weight="normal" text-decoration="none" x="533" y="578">+decrire()</text></g></g><g transform="translate(-30,-78) scale(1,1)"><g><path fill="none" stroke="none"/><text fill="#000000" stroke="none" font-family="Arial" font-size="13px" font-style="normal" font-weight="normal" text-decoration="none" x="533" y="593">+calculerPrix(): int</text></g></g><g transform="translate(-30,-78) scale(1,1)"><path fill="none" stroke="#000000" d="M 776 512 L 776 454" stroke-miterlimit="10"/></g><g transform="translate(-30,-78) scale(1,1)"><path fill="#FFFFFF" stroke="none" d="M 784.419035512032 474.3253497152483 L 776 454 L 767.580964487968 474.3253497152483"/></g><g transform="translate(-30,-78) scale(1,1)"><path fill="none" stroke="#000000" d="M 784.419035512032 474.3253497152483 L 776 454 L 767.580964487968 474.3253497152483 L 784.419035512032 474.3253497152483" stroke-miterlimit="10"/></g><g transform="translate(-30,-78) scale(1,1)"><path fill="none" stroke="#000000" d="M 911 720 L 928 720 L 928 454" stroke-miterlimit="10"/></g><g transform="translate(-30,-78) scale(1,1)"><path fill="#FFFFFF" stroke="none" d="M 936.419035512032 474.3253497152483 L 928 454 L 919.580964487968 474.3253497152483"/></g><g transform="translate(-30,-78) scale(1,1)"><path fill="none" stroke="#000000" d="M 936.419035512032 474.3253497152483 L 928 454 L 919.580964487968 474.3253497152483 L 936.419035512032 474.3253497152483" stroke-miterlimit="10"/></g><g transform="translate(-30,-78) scale(1,1)"><path fill="none" stroke="#000000" d="M 1032 184 L 920 184" stroke-miterlimit="10"/></g><g transform="translate(-30,-78) scale(1,1)"><path fill="#FFFFFF" stroke="none" d="M 940.3253497152483 175.58096448796803 L 920 184 L 940.3253497152483 192.41903551203197"/></g><g transform="translate(-30,-78) scale(1,1)"><path fill="none" stroke="#000000" d="M 940.3253497152483 175.58096448796803 L 920 184 L 940.3253497152483 192.41903551203197 L 940.3253497152483 175.58096448796803" stroke-miterlimit="10"/></g><g transform="translate(-30,-78) scale(1,1)"><path fill="none" stroke="#000000" d="M 1032 264 L 920 264" stroke-miterlimit="10"/></g><g transform="translate(-30,-78) scale(1,1)"><path fill="#FFFFFF" stroke="none" d="M 940.3253497152483 255.58096448796803 L 920 264 L 940.3253497152483 272.419035512032"/></g><g transform="translate(-30,-78) scale(1,1)"><path fill="none" stroke="#000000" d="M 940.3253497152483 255.58096448796803 L 920 264 L 940.3253497152483 272.419035512032 L 940.3253497152483 255.58096448796803" stroke-miterlimit="10"/></g><g transform="translate(-30,-78) scale(1,1)"><path fill="none" stroke="#000000" d="M 943 840 L 984 840 L 984 454" stroke-miterlimit="10"/></g><g transform="translate(-30,-78) scale(1,1)"><path fill="#FFFFFF" stroke="none" d="M 992.419035512032 474.3253497152483 L 984 454 L 975.580964487968 474.3253497152483"/></g><g transform="translate(-30,-78) scale(1,1)"><path fill="none" stroke="#000000" d="M 992.419035512032 474.3253497152483 L 984 454 L 975.580964487968 474.3253497152483 L 992.419035512032 474.3253497152483" stroke-miterlimit="10"/></g></g></svg>