<svg version="1.1" xmlns="http://www.w3.org/2000/svg" xmlns:xlink="http://www.w3.org/1999/xlink" width="830.97607421875" height="241"><defs/><g><g transform="translate(-286,-142) scale(1,1)"><rect fill="#C0C0C0" stroke="none" x="695" y="175" width="210.97607421875" height="60" opacity="0.2"/></g><g transform="translate(-286,-142) scale(1,1)"><rect fill="#ffffff" stroke="none" x="688" y="168" width="210.97607421875" height="60"/></g><g transform="translate(-286,-142) scale(1,1)"><path fill="none" stroke="#000000" d="M 688 168 L 898.97607421875 168 L 898.97607421875 228 L 688 228 L 688 168 Z Z" stroke-miterlimit="10"/></g><g transform="translate(-286,-142) scale(1,1)"><path fill="none" stroke="#000000" d="M 688 206 L 898.97607421875 206" stroke-miterlimit="10"/></g><g transform="translate(-286,-142) scale(1,1)"><g><path fill="none" stroke="none"/><text fill="#000000" stroke="none" font-family="Arial" font-size="13px" font-style="normal" font-weight="normal" text-decoration="none" x="761.32763671875" y="184">«interface»</text></g></g><g transform="translate(-286,-142) scale(1,1)"><g><path fill="none" stroke="none"/><text fill="#000000" stroke="none" font-family="Arial" font-size="13px" font-style="normal" font-weight="bold" text-decoration="none" x="779.155029296875" y="199">Taxe</text></g></g><g transform="translate(-286,-142) scale(1,1)"><g><path fill="none" stroke="none"/><text fill="#000000" stroke="none" font-family="Arial" font-size="13px" font-style="normal" font-weight="normal" text-decoration="none" x="693" y="222">+calculerTaxe(prix: double): double</text></g></g><g transform="translate(-286,-142) scale(1,1)"><rect fill="#C0C0C0" stroke="none" x="575" y="295" width="210.97607421875" height="85" opacity="0.2"/></g><g transform="translate(-286,-142) scale(1,1)"><rect fill="#ffffff" stroke="none" x="568" y="288" width="210.97607421875" height="85"/></g><g transform="translate(-286,-142) scale(1,1)"><path fill="none" stroke="#000000" d="M 568 288 L 778.97607421875 288 L 778.97607421875 373 L 568 373 L 568 288 Z Z" stroke-miterlimit="10"/></g><g transform="translate(-286,-142) scale(1,1)"><path fill="none" stroke="#000000" d="M 568 313 L 778.97607421875 313" stroke-miterlimit="10"/></g><g transform="translate(-286,-142) scale(1,1)"><path fill="none" stroke="#000000" d="M 568 336 L 778.97607421875 336" stroke-miterlimit="10"/></g><g transform="translate(-286,-142) scale(1,1)"><g><path fill="none" stroke="none"/><text fill="#000000" stroke="none" font-family="Arial" font-size="13px" font-style="normal" font-weight="bold" text-decoration="none" x="644.466552734375" y="306">TaxeTaux</text></g></g><g transform="translate(-286,-142) scale(1,1)"><g><path fill="none" stroke="none"/><text fill="#000000" stroke="none" font-family="Arial" font-size="13px" font-style="normal" font-weight="normal" text-decoration="none" x="573" y="329">-taux: double</text></g></g><g transform="translate(-286,-142) scale(1,1)"><g><path fill="none" stroke="none"/><text fill="#000000" stroke="none" font-family="Arial" font-size="13px" font-style="normal" font-weight="normal" text-decoration="none" x="573" y="352">+TaxeTaux(taux: double)</text></g></g><g transform="translate(-286,-142) scale(1,1)"><g><path fill="none" stroke="none"/><text fill="#000000" stroke="none" font-family="Arial" font-size="13px" font-style="normal" font-weight="normal" text-decoration="none" x="573" y="367">+calculerTaxe(prix: double): double</text></g></g><g transform="translate(-286,-142) scale(1,1)"><rect fill="#C0C0C0" stroke="none" x="903" y="295" width="210.97607421875" height="85" opacity="0.2"/></g><g transform="translate(-286,-142) scale(1,1)"><rect fill="#ffffff" stroke="none" x="896" y="288" width="210.97607421875" height="85"/></g><g transform="translate(-286,-142) scale(1,1)"><path fill="none" stroke="#000000" d="M 896 288 L 1106.97607421875 288 L 1106.97607421875 373 L 896 373 L 896 288 Z Z" stroke-miterlimit="10"/></g><g transform="translate(-286,-142) scale(1,1)"><path fill="none" stroke="#000000" d="M 896 313 L 1106.97607421875 313" stroke-miterlimit="10"/></g><g transform="translate(-286,-142) scale(1,1)"><path fill="none" stroke="#000000" d="M 896 336 L 1106.97607421875 336" stroke-miterlimit="10"/></g><g transform="translate(-286,-142) scale(1,1)"><g><path fill="none" stroke="none"/><text fill="#000000" stroke="none" font-family="Arial" font-size="13px" font-style="normal" font-weight="bold" text-decoration="none" x="974.148681640625" y="306">TaxeFixe</text></g></g><g transform="translate(-286,-142) scale(1,1)"><g><path fill="none" stroke="none"/><text fill="#000000" stroke="none" font-family="Arial" font-size="13px" font-style="normal" font-weight="normal" text-decoration="none" x="901" y="329">-montant: double</text></g></g><g transform="translate(-286,-142) scale(1,1)"><g><path fill="none" stroke="none"/><text fill="#000000" stroke="none" font-family="Arial" font-size="13px" font-style="normal" font-weight="normal" text-decoration="none" x="901" y="352">+TaxeFixe(montant: double)</text></g></g><g transform="translate(-286,-142) scale(1,1)"><g><path fill="none" stroke="none"/><text fill="#000000" stroke="none" font-family="Arial" font-size="13px" font-style="normal" font-weight="normal" text-decoration="none" x="901" y="367">+calculerTaxe(prix: double): double</text></g></g><g transform="translate(-286,-142) scale(1,1)"><rect fill="#C0C0C0" stroke="none" x="303" y="159" width="257.955078125" height="87" opacity="0.2"/></g><g transform="translate(-286,-142) scale(1,1)"><rect fill="#ffffff" stroke="none" x="296" y="152" width="257.955078125" height="87"/></g><g transform="translate(-286,-142) scale(1,1)"><path fill="none" stroke="#000000" d="M 296 152 L 553.955078125 152 L 553.955078125 239 L 296 239 L 296 152 Z Z" stroke-miterlimit="10"/></g><g transform="translate(-286,-142) scale(1,1)"><path fill="none" stroke="#000000" d="M 296 177 L 553.955078125 177" stroke-miterlimit="10"/></g><g transform="translate(-286,-142) scale(1,1)"><path fill="none" stroke="#000000" d="M 296 187 L 553.955078125 187" stroke-miterlimit="10"/></g><g transform="translate(-286,-142) scale(1,1)"><g><path fill="none" stroke="none"/><text fill="#000000" stroke="none" font-family="Arial" font-size="13px" font-style="normal" font-weight="bold" text-decoration="none" x="392.82666015625" y="170">Entreprise</text></g></g><g transform="translate(-286,-142) scale(1,1)"><g><path fill="none" stroke="none"/><text fill="#000000" stroke="none" font-family="Arial" font-size="13px" font-style="normal" font-weight="normal" text-decoration="none" x="301" y="203">+Entreprise(taxe: Taxe)</text></g></g><g transform="translate(-286,-142) scale(1,1)"><g><path fill="none" stroke="none"/><text fill="#000000" stroke="none" font-family="Arial" font-size="13px" font-style="normal" font-weight="normal" text-decoration="none" x="301" y="218">+setTaxe(taxe: Taxe)</text></g></g><g transform="translate(-286,-142) scale(1,1)"><g><path fill="none" stroke="none"/><text fill="#000000" stroke="none" font-family="Arial" font-size="13px" font-style="normal" font-weight="normal" text-decoration="none" x="301" y="233">+effectuerTransactionEnLigne(prix: double)</text></g></g><g transform="translate(-286,-142) scale(1,1)"><path fill="none" stroke="#000000" d="M 688 197 L 554 197" stroke-miterlimit="10"/></g><g transform="translate(-286,-142) scale(1,1)"><path fill="#FFFFFF" stroke="none" d="M 564.1626748576241 192.790482243984 L 554 197 L 564.1626748576241 201.209517756016 L 576 197"/></g><g transform="translate(-286,-142) scale(1,1)"><path fill="none" stroke="#000000" d="M 564.1626748576241 192.790482243984 L 554 197 L 564.1626748576241 201.209517756016 L 576 197 L 564.1626748576241 192.790482243984" stroke-miterlimit="10"/></g><g transform="translate(-286,-142) scale(1,1)"><g><path fill="none" stroke="none"/><text fill="#000000" stroke="none" font-family="Arial" font-size="13px" font-style="normal" font-weight="normal" text-decoration="none" x="647.5" y="215.5">-taxe</text></g></g><g transform="translate(-286,-142) scale(1,1)"><g><path fill="none" stroke="none"/><text fill="#000000" stroke="none" font-family="Arial" font-size="13px" font-style="normal" font-weight="normal" text-decoration="none" x="662.5" y="189">1</text></g></g><g transform="translate(-286,-142) scale(1,1)"><path fill="none" stroke="#000000" d="M 736 288 L 736 228" stroke-miterlimit="10" stroke-dasharray="3"/></g><g transform="translate(-286,-142) scale(1,1)"><path fill="#FFFFFF" stroke="none" d="M 744.419035512032 248.3253497152483 L 736 228 L 727.580964487968 248.3253497152483"/></g><g transform="translate(-286,-142) scale(1,1)"><path fill="none" stroke="#000000" d="M 744.419035512032 248.3253497152483 L 736 228 L 727.580964487968 248.3253497152483 L 744.419035512032 248.3253497152483" stroke-miterlimit="10"/></g><g transform="translate(-286,-142) scale(1,1)"><path fill="none" stroke="#000000" d="M 896 304 L 848 304 L 848 228" stroke-miterlimit="10" stroke-dasharray="3"/></g><g transform="translate(-286,-142) scale(1,1)"><path fill="#FFFFFF" stroke="none" d="M 856.419035512032 248.3253497152483 L 848 228 L 839.580964487968 248.3253497152483"/></g><g transform="translate(-286,-142) scale(1,1)"><path fill="none" stroke="#000000" d="M 856.419035512032 248.3253497152483 L 848 228 L 839.580964487968 248.3253497152483 L 856.419035512032 248.3253497152483" stroke-miterlimit="10"/></g><g transform="translate(-286,-142) scale(1,1)"><path fill="none" stroke="#000000" d="M 779 330 L 896 330" stroke-miterlimit="10"/></g><g transform="translate(-286,-142) scale(1,1)"><path fill="#000000" stroke="none" d="M 885.8373251423759 334.209517756016 L 896 330 L 885.8373251423758 325.790482243984 L 874 330"/></g><g transform="translate(-286,-142) scale(1,1)"><path fill="none" stroke="#000000" d="M 885.8373251423759 334.209517756016 L 896 330 L 885.8373251423758 325.790482243984 L 874 330 L 885.8373251423759 334.209517756016" stroke-miterlimit="10"/></g><g transform="translate(-286,-142) scale(1,1)"><g><path fill="none" stroke="none"/><text fill="#000000" stroke="none" font-family="Arial" font-size="13px" font-style="normal" font-weight="normal" text-decoration="none" x="782.5" y="320">-taxeTaux</text></g></g><g transform="translate(-286,-142) scale(1,1)"><g><path fill="none" stroke="none"/><text fill="#000000" stroke="none" font-family="Arial" font-size="13px" font-style="normal" font-weight="normal" text-decoration="none" x="796.5" y="347">1</text></g></g></g></svg>