<svg version="1.1" xmlns="http://www.w3.org/2000/svg" xmlns:xlink="http://www.w3.org/1999/xlink" width="566.3671875" height="220"><defs/><g><g transform="translate(-38,-134) scale(1,1)"><rect fill="#C0C0C0" stroke="none" x="55" y="151" width="203.73974609375" height="88" opacity="0.2"/></g><g transform="translate(-38,-134) scale(1,1)"><rect fill="#ffffff" stroke="none" x="48" y="144" width="203.73974609375" height="88"/></g><g transform="translate(-38,-134) scale(1,1)"><path fill="none" stroke="#000000" d="M 48 144 L 251.73974609375 144 L 251.73974609375 232 L 48 232 L 48 144 Z Z" stroke-miterlimit="10"/></g><g transform="translate(-38,-134) scale(1,1)"><path fill="none" stroke="#000000" d="M 48 169 L 251.73974609375 169" stroke-miterlimit="10"/></g><g transform="translate(-38,-134) scale(1,1)"><path fill="none" stroke="#000000" d="M 48 179 L 251.73974609375 179" stroke-miterlimit="10"/></g><g transform="translate(-38,-134) scale(1,1)"><g><path fill="none" stroke="none"/><text fill="#000000" stroke="none" font-family="Arial" font-size="13px" font-style="normal" font-weight="bold" text-decoration="none" x="114.119873046875" y="162">Composant</text></g></g><g transform="translate(-38,-134) scale(1,1)"><g><path fill="none" stroke="none"/><text fill="#000000" stroke="none" font-family="Arial" font-size="13px" font-style="normal" font-weight="normal" text-decoration="none" x="53" y="195">+Composant(strategie: Strategie)</text></g></g><g transform="translate(-38,-134) scale(1,1)"><g><path fill="none" stroke="none"/><text fill="#000000" stroke="none" font-family="Arial" font-size="13px" font-style="normal" font-weight="normal" text-decoration="none" x="53" y="210">+setStrategie(strategie: Strategie)</text></g></g><g transform="translate(-38,-134) scale(1,1)"><g><path fill="none" stroke="none"/><text fill="#000000" stroke="none" font-family="Arial" font-size="13px" font-style="normal" font-weight="normal" text-decoration="none" x="53" y="225">+traitement()</text></g></g><g transform="translate(-38,-134) scale(1,1)"><rect fill="#C0C0C0" stroke="none" x="383" y="159" width="156.0498046875" height="60" opacity="0.2"/></g><g transform="translate(-38,-134) scale(1,1)"><rect fill="#ffffff" stroke="none" x="376" y="152" width="156.0498046875" height="60"/></g><g transform="translate(-38,-134) scale(1,1)"><path fill="none" stroke="#000000" d="M 376 152 L 532.0498046875 152 L 532.0498046875 212 L 376 212 L 376 152 Z Z" stroke-miterlimit="10"/></g><g transform="translate(-38,-134) scale(1,1)"><path fill="none" stroke="#000000" d="M 376 190 L 532.0498046875 190" stroke-miterlimit="10"/></g><g transform="translate(-38,-134) scale(1,1)"><g><path fill="none" stroke="none"/><text fill="#000000" stroke="none" font-family="Arial" font-size="13px" font-style="normal" font-weight="normal" text-decoration="none" x="421.864501953125" y="168">«interface»</text></g></g><g transform="translate(-38,-134) scale(1,1)"><g><path fill="none" stroke="none"/><text fill="#000000" stroke="none" font-family="Arial" font-size="13px" font-style="normal" font-weight="bold" text-decoration="none" x="426.20947265625" y="183">Strategie</text></g></g><g transform="translate(-38,-134) scale(1,1)"><g><path fill="none" stroke="none"/><text fill="#000000" stroke="none" font-family="Arial" font-size="13px" font-style="normal" font-weight="normal" text-decoration="none" x="381" y="206">+operation()</text></g></g><g transform="translate(-38,-134) scale(1,1)"><rect fill="#C0C0C0" stroke="none" x="327" y="263" width="130.3671875" height="57" opacity="0.2"/></g><g transform="translate(-38,-134) scale(1,1)"><rect fill="#ffffff" stroke="none" x="320" y="256" width="130.3671875" height="57"/></g><g transform="translate(-38,-134) scale(1,1)"><path fill="none" stroke="#000000" d="M 320 256 L 450.3671875 256 L 450.3671875 313 L 320 313 L 320 256 Z Z" stroke-miterlimit="10"/></g><g transform="translate(-38,-134) scale(1,1)"><path fill="none" stroke="#000000" d="M 320 281 L 450.3671875 281" stroke-miterlimit="10"/></g><g transform="translate(-38,-134) scale(1,1)"><path fill="none" stroke="#000000" d="M 320 291 L 450.3671875 291" stroke-miterlimit="10"/></g><g transform="translate(-38,-134) scale(1,1)"><g><path fill="none" stroke="none"/><text fill="#000000" stroke="none" font-family="Arial" font-size="13px" font-style="normal" font-weight="bold" text-decoration="none" x="324.5" y="274">StrategieConcreteA</text></g></g><g transform="translate(-38,-134) scale(1,1)"><g><path fill="none" stroke="none"/><text fill="#000000" stroke="none" font-family="Arial" font-size="13px" font-style="normal" font-weight="normal" text-decoration="none" x="325" y="307">+operation()</text></g></g><g transform="translate(-38,-134) scale(1,1)"><rect fill="#C0C0C0" stroke="none" x="471" y="263" width="130.3671875" height="57" opacity="0.2"/></g><g transform="translate(-38,-134) scale(1,1)"><rect fill="#ffffff" stroke="none" x="464" y="256" width="130.3671875" height="57"/></g><g transform="translate(-38,-134) scale(1,1)"><path fill="none" stroke="#000000" d="M 464 256 L 594.3671875 256 L 594.3671875 313 L 464 313 L 464 256 Z Z" stroke-miterlimit="10"/></g><g transform="translate(-38,-134) scale(1,1)"><path fill="none" stroke="#000000" d="M 464 281 L 594.3671875 281" stroke-miterlimit="10"/></g><g transform="translate(-38,-134) scale(1,1)"><path fill="none" stroke="#000000" d="M 464 291 L 594.3671875 291" stroke-miterlimit="10"/></g><g transform="translate(-38,-134) scale(1,1)"><g><path fill="none" stroke="none"/><text fill="#000000" stroke="none" font-family="Arial" font-size="13px" font-style="normal" font-weight="bold" text-decoration="none" x="468.5" y="274">StrategieConcreteB</text></g></g><g transform="translate(-38,-134) scale(1,1)"><g><path fill="none" stroke="none"/><text fill="#000000" stroke="none" font-family="Arial" font-size="13px" font-style="normal" font-weight="normal" text-decoration="none" x="469" y="307">+operation()</text></g></g><g transform="translate(-38,-134) scale(1,1)"><path fill="none" stroke="#000000" d="M 376 187 L 252 187" stroke-miterlimit="10"/></g><g transform="translate(-38,-134) scale(1,1)"><path fill="#FFFFFF" stroke="none" d="M 262.16267485762415 182.790482243984 L 252 187 L 262.16267485762415 191.209517756016 L 274 187"/></g><g transform="translate(-38,-134) scale(1,1)"><path fill="none" stroke="#000000" d="M 262.16267485762415 182.790482243984 L 252 187 L 262.16267485762415 191.209517756016 L 274 187 L 262.16267485762415 182.790482243984" stroke-miterlimit="10"/></g><g transform="translate(-38,-134) scale(1,1)"><g><path fill="none" stroke="none"/><text fill="#000000" stroke="none" font-family="Arial" font-size="13px" font-style="normal" font-weight="normal" text-decoration="none" x="310.5" y="203">-strategie</text></g></g><g transform="translate(-38,-134) scale(1,1)"><g><path fill="none" stroke="none"/><text fill="#000000" stroke="none" font-family="Arial" font-size="13px" font-style="normal" font-weight="normal" text-decoration="none" x="350.5" y="179">1</text></g></g><g transform="translate(-38,-134) scale(1,1)"><path fill="#ffffff" stroke="none" d="M 64 288 L 221 288 L 231 298 L 231 343 L 64 343 L 64 288"/></g><g transform="translate(-38,-134) scale(1,1)"><path fill="none" stroke="#000000" d="M 64 288 L 221 288 L 231 298 L 231 343 L 64 343 L 64 288 L 64 288" stroke-miterlimit="10"/></g><g transform="translate(-38,-134) scale(1,1)"><path fill="none" stroke="#000000" d="M 221 288 L 221 298 L 231 298 L 221 288" stroke-miterlimit="10"/></g><g transform="translate(-38,-134) scale(1,1)"><g><path fill="none" stroke="none"/><text fill="#000000" stroke="none" font-family="Arial" font-size="13px" font-style="normal" font-weight="normal" text-decoration="none" x="69" y="303">public void traitement() {</text></g></g><g transform="translate(-38,-134) scale(1,1)"><g><path fill="none" stroke="none"/><text fill="#000000" stroke="none" font-family="Arial" font-size="13px" font-style="normal" font-weight="normal" text-decoration="none" x="69" y="318">    strategie.operation();</text></g></g><g transform="translate(-38,-134) scale(1,1)"><g><path fill="none" stroke="none"/><text fill="#000000" stroke="none" font-family="Arial" font-size="13px" font-style="normal" font-weight="normal" text-decoration="none" x="69" y="333">}</text></g></g><g transform="translate(-38,-134) scale(1,1)"><path fill="none" stroke="#000000" d="M 149 233 L 148 287" stroke-miterlimit="10" stroke-dasharray="3"/></g><g transform="translate(-38,-134) scale(1,1)"><path fill="none" stroke="#000000" d="M 416 256 L 416 212" stroke-miterlimit="10" stroke-dasharray="3"/></g><g transform="translate(-38,-134) scale(1,1)"><path fill="#FFFFFF" stroke="none" d="M 424.419035512032 232.3253497152483 L 416 212 L 407.580964487968 232.3253497152483"/></g><g transform="translate(-38,-134) scale(1,1)"><path fill="none" stroke="#000000" d="M 424.419035512032 232.3253497152483 L 416 212 L 407.580964487968 232.3253497152483 L 424.419035512032 232.3253497152483" stroke-miterlimit="10"/></g><g transform="translate(-38,-134) scale(1,1)"><path fill="none" stroke="#000000" d="M 480 256 L 480 212" stroke-miterlimit="10" stroke-dasharray="3"/></g><g transform="translate(-38,-134) scale(1,1)"><path fill="#FFFFFF" stroke="none" d="M 488.419035512032 232.3253497152483 L 480 212 L 471.580964487968 232.3253497152483"/></g><g transform="translate(-38,-134) scale(1,1)"><path fill="none" stroke="#000000" d="M 488.419035512032 232.3253497152483 L 480 212 L 471.580964487968 232.3253497152483 L 488.419035512032 232.3253497152483" stroke-miterlimit="10"/></g></g></svg>