<svg version="1.1" xmlns="http://www.w3.org/2000/svg" xmlns:xlink="http://www.w3.org/1999/xlink" width="897.92138671875" height="559"><defs/><g><g transform="translate(-94,-206) scale(1,1)"><rect fill="#C0C0C0" stroke="none" x="271" y="399" width="463.13037109375" height="120" opacity="0.2"/></g><g transform="translate(-94,-206) scale(1,1)"><rect fill="#ffffff" stroke="none" x="264" y="392" width="463.13037109375" height="120"/></g><g transform="translate(-94,-206) scale(1,1)"><path fill="none" stroke="#000000" d="M 264 392 L 727.13037109375 392 L 727.13037109375 512 L 264 512 L 264 392 Z Z" stroke-miterlimit="10"/></g><g transform="translate(-94,-206) scale(1,1)"><path fill="none" stroke="#000000" d="M 264 430 L 727.13037109375 430" stroke-miterlimit="10"/></g><g transform="translate(-94,-206) scale(1,1)"><g><path fill="none" stroke="none"/><text fill="#000000" stroke="none" font-family="Arial" font-size="13px" font-style="normal" font-weight="normal" text-decoration="none" x="463.40478515625" y="408">«interface»</text></g></g><g transform="translate(-94,-206) scale(1,1)"><g><path fill="none" stroke="none"/><text fill="#000000" stroke="none" font-family="Arial" font-size="13px" font-style="normal" font-weight="bold" text-decoration="none" x="477.86474609375" y="423">Regle</text></g></g><g transform="translate(-94,-206) scale(1,1)"><g><path fill="none" stroke="none"/><text fill="#000000" stroke="none" font-family="Arial" font-size="13px" font-style="normal" font-weight="normal" text-decoration="none" x="269" y="446">+initialiserScores(scores: int[*])</text></g></g><g transform="translate(-94,-206) scale(1,1)"><g><path fill="none" stroke="none"/><text fill="#000000" stroke="none" font-family="Arial" font-size="13px" font-style="normal" font-weight="normal" text-decoration="none" x="269" y="461">+obtenirNumeroGagnantTour(resultats: int[][]): int</text></g></g><g transform="translate(-94,-206) scale(1,1)"><g><path fill="none" stroke="none"/><text fill="#000000" stroke="none" font-family="Arial" font-size="13px" font-style="normal" font-weight="normal" text-decoration="none" x="269" y="476">+mettreAJourScores(numeroGagnant: int, resultats: int[][], scores: int[*])</text></g></g><g transform="translate(-94,-206) scale(1,1)"><g><path fill="none" stroke="none"/><text fill="#000000" stroke="none" font-family="Arial" font-size="13px" font-style="normal" font-weight="normal" text-decoration="none" x="269" y="491">+partieEstTerminee(scores: int[*]): boolean</text></g></g><g transform="translate(-94,-206) scale(1,1)"><g><path fill="none" stroke="none"/><text fill="#000000" stroke="none" font-family="Arial" font-size="13px" font-style="normal" font-weight="normal" text-decoration="none" x="269" y="506">+obtenirNumeroGagnantPartie(scores: int[*]): int</text></g></g><g transform="translate(-94,-206) scale(1,1)"><rect fill="#C0C0C0" stroke="none" x="111" y="615" width="421.92138671875" height="147" opacity="0.2"/></g><g transform="translate(-94,-206) scale(1,1)"><rect fill="#ffffff" stroke="none" x="104" y="608" width="421.92138671875" height="147"/></g><g transform="translate(-94,-206) scale(1,1)"><path fill="none" stroke="#000000" d="M 104 608 L 525.92138671875 608 L 525.92138671875 755 L 104 755 L 104 608 Z Z" stroke-miterlimit="10"/></g><g transform="translate(-94,-206) scale(1,1)"><path fill="none" stroke="#000000" d="M 104 633 L 525.92138671875 633" stroke-miterlimit="10"/></g><g transform="translate(-94,-206) scale(1,1)"><path fill="none" stroke="#000000" d="M 104 643 L 525.92138671875 643" stroke-miterlimit="10"/></g><g transform="translate(-94,-206) scale(1,1)"><g><path fill="none" stroke="none"/><text fill="#000000" stroke="none" font-family="Arial" font-size="13px" font-style="normal" font-weight="bold" text-decoration="none" x="268.73388671875" y="626">RegleNordique</text></g></g><g transform="translate(-94,-206) scale(1,1)"><g><path fill="none" stroke="none"/><text fill="#000000" stroke="none" font-family="Arial" font-size="13px" font-style="normal" font-weight="normal" text-decoration="none" x="109" y="659">-additionnerValeursDes(resultat: int[*]): int</text></g></g><g transform="translate(-94,-206) scale(1,1)"><g><path fill="none" stroke="none"/><text fill="#000000" stroke="none" font-family="Arial" font-size="13px" font-style="normal" font-weight="normal" text-decoration="none" x="109" y="674">-chercherJoueurAvecCentPointsOuPlus(scores: int[*]): int</text></g></g><g transform="translate(-94,-206) scale(1,1)"><g><path fill="none" stroke="none"/><text fill="#000000" stroke="none" font-family="Arial" font-size="13px" font-style="normal" font-weight="normal" text-decoration="none" x="109" y="689">+initialiserScores(scores: int[*])</text></g></g><g transform="translate(-94,-206) scale(1,1)"><g><path fill="none" stroke="none"/><text fill="#000000" stroke="none" font-family="Arial" font-size="13px" font-style="normal" font-weight="normal" text-decoration="none" x="109" y="704">+obtenirNumeroGagnantTour(resultats: int[][]): int</text></g></g><g transform="translate(-94,-206) scale(1,1)"><g><path fill="none" stroke="none"/><text fill="#000000" stroke="none" font-family="Arial" font-size="13px" font-style="normal" font-weight="normal" text-decoration="none" x="109" y="719">+mettreAJourScores(numeroGagnant: int, resultats: int[][], scores: int[*])</text></g></g><g transform="translate(-94,-206) scale(1,1)"><g><path fill="none" stroke="none"/><text fill="#000000" stroke="none" font-family="Arial" font-size="13px" font-style="normal" font-weight="normal" text-decoration="none" x="109" y="734">+partieEstTerminee(scores: int[*]): boolean</text></g></g><g transform="translate(-94,-206) scale(1,1)"><g><path fill="none" stroke="none"/><text fill="#000000" stroke="none" font-family="Arial" font-size="13px" font-style="normal" font-weight="normal" text-decoration="none" x="109" y="749">+obtenirNumeroGagnantPartie(scores: int[*]): int</text></g></g><g transform="translate(-94,-206) scale(1,1)"><rect fill="#C0C0C0" stroke="none" x="567" y="615" width="421.92138671875" height="147" opacity="0.2"/></g><g transform="translate(-94,-206) scale(1,1)"><rect fill="#ffffff" stroke="none" x="560" y="608" width="421.92138671875" height="147"/></g><g transform="translate(-94,-206) scale(1,1)"><path fill="none" stroke="#000000" d="M 560 608 L 981.92138671875 608 L 981.92138671875 755 L 560 755 L 560 608 Z Z" stroke-miterlimit="10"/></g><g transform="translate(-94,-206) scale(1,1)"><path fill="none" stroke="#000000" d="M 560 633 L 981.92138671875 633" stroke-miterlimit="10"/></g><g transform="translate(-94,-206) scale(1,1)"><path fill="none" stroke="#000000" d="M 560 643 L 981.92138671875 643" stroke-miterlimit="10"/></g><g transform="translate(-94,-206) scale(1,1)"><g><path fill="none" stroke="none"/><text fill="#000000" stroke="none" font-family="Arial" font-size="13px" font-style="normal" font-weight="bold" text-decoration="none" x="729.783447265625" y="626">RegleSudiste</text></g></g><g transform="translate(-94,-206) scale(1,1)"><g><path fill="none" stroke="none"/><text fill="#000000" stroke="none" font-family="Arial" font-size="13px" font-style="normal" font-weight="normal" text-decoration="none" x="565" y="659">-obtenirValeurPlusGrandDe(resultat: int[*]): int</text></g></g><g transform="translate(-94,-206) scale(1,1)"><g><path fill="none" stroke="none"/><text fill="#000000" stroke="none" font-family="Arial" font-size="13px" font-style="normal" font-weight="normal" text-decoration="none" x="565" y="674">-chercherJoueurAvecZeroPointsOuMoins(scores: int[*]): int</text></g></g><g transform="translate(-94,-206) scale(1,1)"><g><path fill="none" stroke="none"/><text fill="#000000" stroke="none" font-family="Arial" font-size="13px" font-style="normal" font-weight="normal" text-decoration="none" x="565" y="689">+initialiserScores(scores: int[*])</text></g></g><g transform="translate(-94,-206) scale(1,1)"><g><path fill="none" stroke="none"/><text fill="#000000" stroke="none" font-family="Arial" font-size="13px" font-style="normal" font-weight="normal" text-decoration="none" x="565" y="704">+obtenirNumeroGagnantTour(resultats: int[][]): int</text></g></g><g transform="translate(-94,-206) scale(1,1)"><g><path fill="none" stroke="none"/><text fill="#000000" stroke="none" font-family="Arial" font-size="13px" font-style="normal" font-weight="normal" text-decoration="none" x="565" y="719">+mettreAJourScores(numeroGagnant: int, resultats: int[][], scores: int[*])</text></g></g><g transform="translate(-94,-206) scale(1,1)"><g><path fill="none" stroke="none"/><text fill="#000000" stroke="none" font-family="Arial" font-size="13px" font-style="normal" font-weight="normal" text-decoration="none" x="565" y="734">+partieEstTerminee(scores: int[*]): boolean</text></g></g><g transform="translate(-94,-206) scale(1,1)"><g><path fill="none" stroke="none"/><text fill="#000000" stroke="none" font-family="Arial" font-size="13px" font-style="normal" font-weight="normal" text-decoration="none" x="565" y="749">+obtenirNumeroGagnantPartie(scores: int[*]): int</text></g></g><g transform="translate(-94,-206) scale(1,1)"><rect fill="#C0C0C0" stroke="none" x="151" y="223" width="182.04345703125" height="85" opacity="0.2"/></g><g transform="translate(-94,-206) scale(1,1)"><rect fill="#ffffff" stroke="none" x="144" y="216" width="182.04345703125" height="85"/></g><g transform="translate(-94,-206) scale(1,1)"><path fill="none" stroke="#000000" d="M 144 216 L 326.04345703125 216 L 326.04345703125 301 L 144 301 L 144 216 Z Z" stroke-miterlimit="10"/></g><g transform="translate(-94,-206) scale(1,1)"><path fill="none" stroke="#000000" d="M 144 241 L 326.04345703125 241" stroke-miterlimit="10"/></g><g transform="translate(-94,-206) scale(1,1)"><path fill="none" stroke="#000000" d="M 144 264 L 326.04345703125 264" stroke-miterlimit="10"/></g><g transform="translate(-94,-206) scale(1,1)"><g><path fill="none" stroke="none"/><text fill="#000000" stroke="none" font-family="Arial" font-size="13px" font-style="normal" font-weight="bold" text-decoration="none" x="198.900390625" y="234">GestionDes</text></g></g><g transform="translate(-94,-206) scale(1,1)"><g><path fill="none" stroke="none"/><text fill="#000000" stroke="none" font-family="Arial" font-size="13px" font-style="normal" font-weight="normal" text-decoration="none" x="149" y="257">-random: Random</text></g></g><g transform="translate(-94,-206) scale(1,1)"><g><path fill="none" stroke="none"/><text fill="#000000" stroke="none" font-family="Arial" font-size="13px" font-style="normal" font-weight="normal" text-decoration="none" x="149" y="280">-genererDeAleatoire(): int</text></g></g><g transform="translate(-94,-206) scale(1,1)"><g><path fill="none" stroke="none"/><text fill="#000000" stroke="none" font-family="Arial" font-size="13px" font-style="normal" font-weight="normal" text-decoration="none" x="149" y="295">+lancerDes(nombre: int): int[*]</text></g></g><g transform="translate(-94,-206) scale(1,1)"><rect fill="#C0C0C0" stroke="none" x="455" y="223" width="116.30712890625" height="100" opacity="0.2"/></g><g transform="translate(-94,-206) scale(1,1)"><rect fill="#ffffff" stroke="none" x="448" y="216" width="116.30712890625" height="100"/></g><g transform="translate(-94,-206) scale(1,1)"><path fill="none" stroke="#000000" d="M 448 216 L 564.30712890625 216 L 564.30712890625 316 L 448 316 L 448 216 Z Z" stroke-miterlimit="10"/></g><g transform="translate(-94,-206) scale(1,1)"><path fill="none" stroke="#000000" d="M 448 241 L 564.30712890625 241" stroke-miterlimit="10"/></g><g transform="translate(-94,-206) scale(1,1)"><path fill="none" stroke="#000000" d="M 448 264 L 564.30712890625 264" stroke-miterlimit="10"/></g><g transform="translate(-94,-206) scale(1,1)"><g><path fill="none" stroke="none"/><text fill="#000000" stroke="none" font-family="Arial" font-size="13px" font-style="normal" font-weight="bold" text-decoration="none" x="494.953125" y="234">Jeu</text></g></g><g transform="translate(-94,-206) scale(1,1)"><g><path fill="none" stroke="none"/><text fill="#000000" stroke="none" font-family="Arial" font-size="13px" font-style="normal" font-weight="normal" text-decoration="none" x="453" y="257">-scores: int[*]</text></g></g><g transform="translate(-94,-206) scale(1,1)"><g><path fill="none" stroke="none"/><text fill="#000000" stroke="none" font-family="Arial" font-size="13px" font-style="normal" font-weight="normal" text-decoration="none" x="453" y="280">+Jeu(regle: Regle)</text></g></g><g transform="translate(-94,-206) scale(1,1)"><g><path fill="none" stroke="none"/><text fill="#000000" stroke="none" font-family="Arial" font-size="13px" font-style="normal" font-weight="normal" text-decoration="none" x="453" y="295">-jouerTour()</text></g></g><g transform="translate(-94,-206) scale(1,1)"><g><path fill="none" stroke="none"/><text fill="#000000" stroke="none" font-family="Arial" font-size="13px" font-style="normal" font-weight="normal" text-decoration="none" x="453" y="310">+jouer()</text></g></g><g transform="translate(-94,-206) scale(1,1)"><path fill="none" stroke="#000000" d="M 447 608 L 447 512" stroke-miterlimit="10" stroke-dasharray="3"/></g><g transform="translate(-94,-206) scale(1,1)"><path fill="#FFFFFF" stroke="none" d="M 455.419035512032 532.3253497152483 L 447 512 L 438.580964487968 532.3253497152483"/></g><g transform="translate(-94,-206) scale(1,1)"><path fill="none" stroke="#000000" d="M 455.419035512032 532.3253497152483 L 447 512 L 438.580964487968 532.3253497152483 L 455.419035512032 532.3253497152483" stroke-miterlimit="10"/></g><g transform="translate(-94,-206) scale(1,1)"><path fill="none" stroke="#000000" d="M 616 608 L 616 512" stroke-miterlimit="10" stroke-dasharray="3"/></g><g transform="translate(-94,-206) scale(1,1)"><path fill="#FFFFFF" stroke="none" d="M 624.419035512032 532.3253497152483 L 616 512 L 607.580964487968 532.3253497152483"/></g><g transform="translate(-94,-206) scale(1,1)"><path fill="none" stroke="#000000" d="M 624.419035512032 532.3253497152483 L 616 512 L 607.580964487968 532.3253497152483 L 624.419035512032 532.3253497152483" stroke-miterlimit="10"/></g><g transform="translate(-94,-206) scale(1,1)"><path fill="none" stroke="#000000" d="M 326 264 L 448 264" stroke-miterlimit="10"/></g><g transform="translate(-94,-206) scale(1,1)"><path fill="#000000" stroke="none" d="M 437.83732514237585 268.209517756016 L 448 264 L 437.83732514237585 259.790482243984 L 426 264"/></g><g transform="translate(-94,-206) scale(1,1)"><path fill="none" stroke="#000000" d="M 437.83732514237585 268.209517756016 L 448 264 L 437.83732514237585 259.790482243984 L 426 264 L 437.83732514237585 268.209517756016" stroke-miterlimit="10"/></g><g transform="translate(-94,-206) scale(1,1)"><g><path fill="none" stroke="none"/><text fill="#000000" stroke="none" font-family="Arial" font-size="13px" font-style="normal" font-weight="normal" text-decoration="none" x="327.5" y="254">-gestionnaire</text></g></g><g transform="translate(-94,-206) scale(1,1)"><g><path fill="none" stroke="none"/><text fill="#000000" stroke="none" font-family="Arial" font-size="13px" font-style="normal" font-weight="normal" text-decoration="none" x="343.5" y="281">1</text></g></g><g transform="translate(-94,-206) scale(1,1)"><path fill="none" stroke="#000000" d="M 503 392 L 503 316" stroke-miterlimit="10"/></g><g transform="translate(-94,-206) scale(1,1)"><path fill="#FFFFFF" stroke="none" d="M 507.209517756016 326.16267485762415 L 503 316 L 498.790482243984 326.16267485762415 L 503 338"/></g><g transform="translate(-94,-206) scale(1,1)"><path fill="none" stroke="#000000" d="M 507.209517756016 326.16267485762415 L 503 316 L 498.790482243984 326.16267485762415 L 503 338 L 507.209517756016 326.16267485762415" stroke-miterlimit="10"/></g><g transform="translate(-94,-206) scale(1,1)"><g><path fill="none" stroke="none"/><text fill="#000000" stroke="none" font-family="Arial" font-size="13px" font-style="normal" font-weight="normal" text-decoration="none" x="463.5" y="378">-regle</text></g></g><g transform="translate(-94,-206) scale(1,1)"><g><path fill="none" stroke="none"/><text fill="#000000" stroke="none" font-family="Arial" font-size="13px" font-style="normal" font-weight="normal" text-decoration="none" x="511.5" y="375">1</text></g></g></g></svg>