<svg version="1.1" xmlns="http://www.w3.org/2000/svg" xmlns:xlink="http://www.w3.org/1999/xlink" width="482.4189453125" height="228"><defs/><g><g transform="translate(-270,-182) scale(1,1)"><rect fill="#C0C0C0" stroke="none" x="543" y="199" width="126.4189453125" height="60" opacity="0.2"/></g><g transform="translate(-270,-182) scale(1,1)"><rect fill="#ffffff" stroke="none" x="536" y="192" width="126.4189453125" height="60"/></g><g transform="translate(-270,-182) scale(1,1)"><path fill="none" stroke="#000000" d="M 536 192 L 662.4189453125 192 L 662.4189453125 252 L 536 252 L 536 192 Z Z" stroke-miterlimit="10"/></g><g transform="translate(-270,-182) scale(1,1)"><path fill="none" stroke="#000000" d="M 536 230 L 662.4189453125 230" stroke-miterlimit="10"/></g><g transform="translate(-270,-182) scale(1,1)"><g><path fill="none" stroke="none"/><text fill="#000000" stroke="none" font-family="Arial" font-size="13px" font-style="normal" font-weight="normal" text-decoration="none" x="567.049072265625" y="208">«interface»</text></g></g><g transform="translate(-270,-182) scale(1,1)"><g><path fill="none" stroke="none"/><text fill="#000000" stroke="none" font-family="Arial" font-size="13px" font-style="normal" font-weight="bold" text-decoration="none" x="567.05224609375" y="223">I_Exemple</text></g></g><g transform="translate(-270,-182) scale(1,1)"><g><path fill="none" stroke="none"/><text fill="#000000" stroke="none" font-family="Arial" font-size="13px" font-style="normal" font-weight="normal" text-decoration="none" x="541" y="246">+methodeExemple()</text></g></g><g transform="translate(-270,-182) scale(1,1)"><rect fill="#C0C0C0" stroke="none" x="455" y="335" width="126.4189453125" height="72" opacity="0.2"/></g><g transform="translate(-270,-182) scale(1,1)"><rect fill="#ffffff" stroke="none" x="448" y="328" width="126.4189453125" height="72"/></g><g transform="translate(-270,-182) scale(1,1)"><path fill="none" stroke="#000000" d="M 448 328 L 574.4189453125 328 L 574.4189453125 400 L 448 400 L 448 328 Z Z" stroke-miterlimit="10"/></g><g transform="translate(-270,-182) scale(1,1)"><path fill="none" stroke="#000000" d="M 448 353 L 574.4189453125 353" stroke-miterlimit="10"/></g><g transform="translate(-270,-182) scale(1,1)"><path fill="none" stroke="#000000" d="M 448 363 L 574.4189453125 363" stroke-miterlimit="10"/></g><g transform="translate(-270,-182) scale(1,1)"><g><path fill="none" stroke="none"/><text fill="#000000" stroke="none" font-family="Arial" font-size="13px" font-style="normal" font-weight="bold" text-decoration="none" x="506.515380859375" y="346">A</text></g></g><g transform="translate(-270,-182) scale(1,1)"><g><path fill="none" stroke="none"/><text fill="#000000" stroke="none" font-family="Arial" font-size="13px" font-style="normal" font-weight="normal" text-decoration="none" x="453" y="379">+methodeA()</text></g></g><g transform="translate(-270,-182) scale(1,1)"><g><path fill="none" stroke="none"/><text fill="#000000" stroke="none" font-family="Arial" font-size="13px" font-style="normal" font-weight="normal" text-decoration="none" x="453" y="394">+methodeExemple()</text></g></g><g transform="translate(-270,-182) scale(1,1)"><rect fill="#C0C0C0" stroke="none" x="623" y="335" width="126.4189453125" height="72" opacity="0.2"/></g><g transform="translate(-270,-182) scale(1,1)"><rect fill="#ffffff" stroke="none" x="616" y="328" width="126.4189453125" height="72"/></g><g transform="translate(-270,-182) scale(1,1)"><path fill="none" stroke="#000000" d="M 616 328 L 742.4189453125 328 L 742.4189453125 400 L 616 400 L 616 328 Z Z" stroke-miterlimit="10"/></g><g transform="translate(-270,-182) scale(1,1)"><path fill="none" stroke="#000000" d="M 616 353 L 742.4189453125 353" stroke-miterlimit="10"/></g><g transform="translate(-270,-182) scale(1,1)"><path fill="none" stroke="#000000" d="M 616 363 L 742.4189453125 363" stroke-miterlimit="10"/></g><g transform="translate(-270,-182) scale(1,1)"><g><path fill="none" stroke="none"/><text fill="#000000" stroke="none" font-family="Arial" font-size="13px" font-style="normal" font-weight="bold" text-decoration="none" x="674.515380859375" y="346">B</text></g></g><g transform="translate(-270,-182) scale(1,1)"><g><path fill="none" stroke="none"/><text fill="#000000" stroke="none" font-family="Arial" font-size="13px" font-style="normal" font-weight="normal" text-decoration="none" x="621" y="379">+methodeB()</text></g></g><g transform="translate(-270,-182) scale(1,1)"><g><path fill="none" stroke="none"/><text fill="#000000" stroke="none" font-family="Arial" font-size="13px" font-style="normal" font-weight="normal" text-decoration="none" x="621" y="394">+methodeExemple()</text></g></g><g transform="translate(-270,-182) scale(1,1)"><path fill="none" stroke="#000000" d="M 560 328 L 560 252" stroke-miterlimit="10" stroke-dasharray="3"/></g><g transform="translate(-270,-182) scale(1,1)"><path fill="#FFFFFF" stroke="none" d="M 568.419035512032 272.3253497152483 L 560 252 L 551.580964487968 272.3253497152483"/></g><g transform="translate(-270,-182) scale(1,1)"><path fill="none" stroke="#000000" d="M 568.419035512032 272.3253497152483 L 560 252 L 551.580964487968 272.3253497152483 L 568.419035512032 272.3253497152483" stroke-miterlimit="10"/></g><g transform="translate(-270,-182) scale(1,1)"><path fill="none" stroke="#000000" d="M 632 328 L 632 252" stroke-miterlimit="10" stroke-dasharray="3"/></g><g transform="translate(-270,-182) scale(1,1)"><path fill="#FFFFFF" stroke="none" d="M 640.419035512032 272.3253497152483 L 632 252 L 623.580964487968 272.3253497152483"/></g><g transform="translate(-270,-182) scale(1,1)"><path fill="none" stroke="#000000" d="M 640.419035512032 272.3253497152483 L 632 252 L 623.580964487968 272.3253497152483 L 640.419035512032 272.3253497152483" stroke-miterlimit="10"/></g><g transform="translate(-270,-182) scale(1,1)"><rect fill="#C0C0C0" stroke="none" x="287" y="199" width="108.734375" height="57" opacity="0.2"/></g><g transform="translate(-270,-182) scale(1,1)"><rect fill="#ffffff" stroke="none" x="280" y="192" width="108.734375" height="57"/></g><g transform="translate(-270,-182) scale(1,1)"><path fill="none" stroke="#000000" d="M 280 192 L 388.734375 192 L 388.734375 249 L 280 249 L 280 192 Z Z" stroke-miterlimit="10"/></g><g transform="translate(-270,-182) scale(1,1)"><path fill="none" stroke="#000000" d="M 280 217 L 388.734375 217" stroke-miterlimit="10"/></g><g transform="translate(-270,-182) scale(1,1)"><path fill="none" stroke="#000000" d="M 280 227 L 388.734375 227" stroke-miterlimit="10"/></g><g transform="translate(-270,-182) scale(1,1)"><g><path fill="none" stroke="none"/><text fill="#000000" stroke="none" font-family="Arial" font-size="13px" font-style="normal" font-weight="bold" text-decoration="none" x="311.236328125" y="210">Service</text></g></g><g transform="translate(-270,-182) scale(1,1)"><g><path fill="none" stroke="none"/><text fill="#000000" stroke="none" font-family="Arial" font-size="13px" font-style="normal" font-weight="normal" text-decoration="none" x="285" y="243">+action()</text></g></g><g transform="translate(-270,-182) scale(1,1)"><path fill="none" stroke="#000000" d="M 389 227 L 536 227" stroke-miterlimit="10"/></g><g transform="translate(-270,-182) scale(1,1)"><path fill="none" stroke="#000000" d="M 525.8373251423759 231.209517756016 L 536 227 L 525.8373251423758 222.790482243984" stroke-miterlimit="10"/></g><g transform="translate(-270,-182) scale(1,1)"><path fill="#FFFFFF" stroke="none" d="M 399.16267485762415 222.790482243984 L 389 227 L 399.16267485762415 231.209517756016 L 411 227"/></g><g transform="translate(-270,-182) scale(1,1)"><path fill="none" stroke="#000000" d="M 399.16267485762415 222.790482243984 L 389 227 L 399.16267485762415 231.209517756016 L 411 227 L 399.16267485762415 222.790482243984" stroke-miterlimit="10"/></g><g transform="translate(-270,-182) scale(1,1)"><g><path fill="none" stroke="none"/><text fill="#000000" stroke="none" font-family="Arial" font-size="13px" font-style="normal" font-weight="normal" text-decoration="none" x="450.13134765625" y="216">-dependance</text></g></g><g transform="translate(-270,-182) scale(1,1)"><g><path fill="none" stroke="none"/><text fill="#000000" stroke="none" font-family="Arial" font-size="13px" font-style="normal" font-weight="normal" text-decoration="none" x="510.5" y="244">1</text></g></g></g></svg>