<svg version="1.1" xmlns="http://www.w3.org/2000/svg" xmlns:xlink="http://www.w3.org/1999/xlink" width="560.26708984375" height="290"><defs/><g><g transform="translate(-238,-214) scale(1,1)"><rect fill="#C0C0C0" stroke="none" x="455" y="231" width="124.26708984375" height="105" opacity="0.2"/></g><g transform="translate(-238,-214) scale(1,1)"><rect fill="#ffffff" stroke="none" x="448" y="224" width="124.26708984375" height="105"/></g><g transform="translate(-238,-214) scale(1,1)"><path fill="none" stroke="#000000" d="M 448 224 L 572.26708984375 224 L 572.26708984375 329 L 448 329 L 448 224 Z Z" stroke-miterlimit="10"/></g><g transform="translate(-238,-214) scale(1,1)"><path fill="none" stroke="#000000" d="M 448 262 L 572.26708984375 262" stroke-miterlimit="10"/></g><g transform="translate(-238,-214) scale(1,1)"><g><path fill="none" stroke="none"/><text fill="#000000" stroke="none" font-family="Arial" font-size="13px" font-style="normal" font-weight="normal" text-decoration="none" x="477.97314453125" y="240">«interface»</text></g></g><g transform="translate(-238,-214) scale(1,1)"><g><path fill="none" stroke="none"/><text fill="#000000" stroke="none" font-family="Arial" font-size="13px" font-style="normal" font-weight="bold" text-decoration="none" x="477.976318359375" y="255">I_Exemple</text></g></g><g transform="translate(-238,-214) scale(1,1)"><g><path fill="none" stroke="none"/><text fill="#000000" stroke="none" font-family="Arial" font-size="13px" font-style="normal" font-weight="normal" text-decoration="none" x="453" y="278">+operationGlobale()</text></g></g><g transform="translate(-238,-214) scale(1,1)"><g><path fill="none" stroke="none"/><text fill="#000000" stroke="none" font-family="Arial" font-size="13px" font-style="normal" font-weight="normal" text-decoration="none" x="453" y="293">+operationA()</text></g></g><g transform="translate(-238,-214) scale(1,1)"><g><path fill="none" stroke="none"/><text fill="#000000" stroke="none" font-family="Arial" font-size="13px" font-style="normal" font-weight="normal" text-decoration="none" x="453" y="308">+operationB()</text></g></g><g transform="translate(-238,-214) scale(1,1)"><g><path fill="none" stroke="none"/><text fill="#000000" stroke="none" font-family="Arial" font-size="13px" font-style="normal" font-weight="normal" text-decoration="none" x="453" y="323">+operationC()</text></g></g><g transform="translate(-238,-214) scale(1,1)"><rect fill="#C0C0C0" stroke="none" x="255" y="399" width="124.26708984375" height="102" opacity="0.2"/></g><g transform="translate(-238,-214) scale(1,1)"><rect fill="#ffffff" stroke="none" x="248" y="392" width="124.26708984375" height="102"/></g><g transform="translate(-238,-214) scale(1,1)"><path fill="none" stroke="#000000" d="M 248 392 L 372.26708984375 392 L 372.26708984375 494 L 248 494 L 248 392 Z Z" stroke-miterlimit="10"/></g><g transform="translate(-238,-214) scale(1,1)"><path fill="none" stroke="#000000" d="M 248 417 L 372.26708984375 417" stroke-miterlimit="10"/></g><g transform="translate(-238,-214) scale(1,1)"><path fill="none" stroke="#000000" d="M 248 427 L 372.26708984375 427" stroke-miterlimit="10"/></g><g transform="translate(-238,-214) scale(1,1)"><g><path fill="none" stroke="none"/><text fill="#000000" stroke="none" font-family="Arial" font-size="13px" font-style="normal" font-weight="bold" text-decoration="none" x="305.439453125" y="410">A</text></g></g><g transform="translate(-238,-214) scale(1,1)"><g><path fill="none" stroke="none"/><text fill="#000000" stroke="none" font-family="Arial" font-size="13px" font-style="normal" font-weight="normal" text-decoration="none" x="253" y="443">+operationGlobale()</text></g></g><g transform="translate(-238,-214) scale(1,1)"><g><path fill="none" stroke="none"/><text fill="#000000" stroke="none" font-family="Arial" font-size="13px" font-style="normal" font-weight="normal" text-decoration="none" x="253" y="458">+operationA()</text></g></g><g transform="translate(-238,-214) scale(1,1)"><g><path fill="none" stroke="none"/><text fill="#000000" stroke="none" font-family="Arial" font-size="13px" font-style="normal" font-weight="normal" text-decoration="none" x="253" y="473">+operationB()</text></g></g><g transform="translate(-238,-214) scale(1,1)"><g><path fill="none" stroke="none"/><text fill="#000000" stroke="none" font-family="Arial" font-size="13px" font-style="normal" font-weight="normal" text-decoration="none" x="253" y="488">+operationC()</text></g></g><g transform="translate(-238,-214) scale(1,1)"><rect fill="#C0C0C0" stroke="none" x="399" y="399" width="124.26708984375" height="102" opacity="0.2"/></g><g transform="translate(-238,-214) scale(1,1)"><rect fill="#ffffff" stroke="none" x="392" y="392" width="124.26708984375" height="102"/></g><g transform="translate(-238,-214) scale(1,1)"><path fill="none" stroke="#000000" d="M 392 392 L 516.26708984375 392 L 516.26708984375 494 L 392 494 L 392 392 Z Z" stroke-miterlimit="10"/></g><g transform="translate(-238,-214) scale(1,1)"><path fill="none" stroke="#000000" d="M 392 417 L 516.26708984375 417" stroke-miterlimit="10"/></g><g transform="translate(-238,-214) scale(1,1)"><path fill="none" stroke="#000000" d="M 392 427 L 516.26708984375 427" stroke-miterlimit="10"/></g><g transform="translate(-238,-214) scale(1,1)"><g><path fill="none" stroke="none"/><text fill="#000000" stroke="none" font-family="Arial" font-size="13px" font-style="normal" font-weight="bold" text-decoration="none" x="449.439453125" y="410">B</text></g></g><g transform="translate(-238,-214) scale(1,1)"><g><path fill="none" stroke="none"/><text fill="#000000" stroke="none" font-family="Arial" font-size="13px" font-style="normal" font-weight="normal" text-decoration="none" x="397" y="443">+operationGlobale()</text></g></g><g transform="translate(-238,-214) scale(1,1)"><g><path fill="none" stroke="none"/><text fill="#000000" stroke="none" font-family="Arial" font-size="13px" font-style="normal" font-weight="normal" text-decoration="none" x="397" y="458">+operationA()</text></g></g><g transform="translate(-238,-214) scale(1,1)"><g><path fill="none" stroke="none"/><text fill="#000000" stroke="none" font-family="Arial" font-size="13px" font-style="normal" font-weight="normal" text-decoration="none" x="397" y="473">+operationB()</text></g></g><g transform="translate(-238,-214) scale(1,1)"><g><path fill="none" stroke="none"/><text fill="#000000" stroke="none" font-family="Arial" font-size="13px" font-style="normal" font-weight="normal" text-decoration="none" x="397" y="488">+operationC()</text></g></g><g transform="translate(-238,-214) scale(1,1)"><rect fill="#C0C0C0" stroke="none" x="535" y="399" width="124.26708984375" height="102" opacity="0.2"/></g><g transform="translate(-238,-214) scale(1,1)"><rect fill="#ffffff" stroke="none" x="528" y="392" width="124.26708984375" height="102"/></g><g transform="translate(-238,-214) scale(1,1)"><path fill="none" stroke="#000000" d="M 528 392 L 652.26708984375 392 L 652.26708984375 494 L 528 494 L 528 392 Z Z" stroke-miterlimit="10"/></g><g transform="translate(-238,-214) scale(1,1)"><path fill="none" stroke="#000000" d="M 528 417 L 652.26708984375 417" stroke-miterlimit="10"/></g><g transform="translate(-238,-214) scale(1,1)"><path fill="none" stroke="#000000" d="M 528 427 L 652.26708984375 427" stroke-miterlimit="10"/></g><g transform="translate(-238,-214) scale(1,1)"><g><path fill="none" stroke="none"/><text fill="#000000" stroke="none" font-family="Arial" font-size="13px" font-style="normal" font-weight="bold" text-decoration="none" x="585.439453125" y="410">C</text></g></g><g transform="translate(-238,-214) scale(1,1)"><g><path fill="none" stroke="none"/><text fill="#000000" stroke="none" font-family="Arial" font-size="13px" font-style="normal" font-weight="normal" text-decoration="none" x="533" y="443">+operationGlobale()</text></g></g><g transform="translate(-238,-214) scale(1,1)"><g><path fill="none" stroke="none"/><text fill="#000000" stroke="none" font-family="Arial" font-size="13px" font-style="normal" font-weight="normal" text-decoration="none" x="533" y="458">+operationA()</text></g></g><g transform="translate(-238,-214) scale(1,1)"><g><path fill="none" stroke="none"/><text fill="#000000" stroke="none" font-family="Arial" font-size="13px" font-style="normal" font-weight="normal" text-decoration="none" x="533" y="473">+operationB()</text></g></g><g transform="translate(-238,-214) scale(1,1)"><g><path fill="none" stroke="none"/><text fill="#000000" stroke="none" font-family="Arial" font-size="13px" font-style="normal" font-weight="normal" text-decoration="none" x="533" y="488">+operationC()</text></g></g><g transform="translate(-238,-214) scale(1,1)"><rect fill="#C0C0C0" stroke="none" x="671" y="399" width="124.26708984375" height="102" opacity="0.2"/></g><g transform="translate(-238,-214) scale(1,1)"><rect fill="#ffffff" stroke="none" x="664" y="392" width="124.26708984375" height="102"/></g><g transform="translate(-238,-214) scale(1,1)"><path fill="none" stroke="#000000" d="M 664 392 L 788.26708984375 392 L 788.26708984375 494 L 664 494 L 664 392 Z Z" stroke-miterlimit="10"/></g><g transform="translate(-238,-214) scale(1,1)"><path fill="none" stroke="#000000" d="M 664 417 L 788.26708984375 417" stroke-miterlimit="10"/></g><g transform="translate(-238,-214) scale(1,1)"><path fill="none" stroke="#000000" d="M 664 427 L 788.26708984375 427" stroke-miterlimit="10"/></g><g transform="translate(-238,-214) scale(1,1)"><g><path fill="none" stroke="none"/><text fill="#000000" stroke="none" font-family="Arial" font-size="13px" font-style="normal" font-weight="bold" text-decoration="none" x="721.439453125" y="410">D</text></g></g><g transform="translate(-238,-214) scale(1,1)"><g><path fill="none" stroke="none"/><text fill="#000000" stroke="none" font-family="Arial" font-size="13px" font-style="normal" font-weight="normal" text-decoration="none" x="669" y="443">+operationGlobale()</text></g></g><g transform="translate(-238,-214) scale(1,1)"><g><path fill="none" stroke="none"/><text fill="#000000" stroke="none" font-family="Arial" font-size="13px" font-style="normal" font-weight="normal" text-decoration="none" x="669" y="458">+operationA()</text></g></g><g transform="translate(-238,-214) scale(1,1)"><g><path fill="none" stroke="none"/><text fill="#000000" stroke="none" font-family="Arial" font-size="13px" font-style="normal" font-weight="normal" text-decoration="none" x="669" y="473">+operationB()</text></g></g><g transform="translate(-238,-214) scale(1,1)"><g><path fill="none" stroke="none"/><text fill="#000000" stroke="none" font-family="Arial" font-size="13px" font-style="normal" font-weight="normal" text-decoration="none" x="669" y="488">+operationC()</text></g></g><g transform="translate(-238,-214) scale(1,1)"><path fill="none" stroke="#000000" d="M 288 392 L 288 280 L 448 280" stroke-miterlimit="10" stroke-dasharray="3"/></g><g transform="translate(-238,-214) scale(1,1)"><path fill="#FFFFFF" stroke="none" d="M 427.6746502847517 288.419035512032 L 448 280 L 427.6746502847517 271.580964487968"/></g><g transform="translate(-238,-214) scale(1,1)"><path fill="none" stroke="#000000" d="M 427.6746502847517 288.419035512032 L 448 280 L 427.6746502847517 271.580964487968 L 427.6746502847517 288.419035512032" stroke-miterlimit="10"/></g><g transform="translate(-238,-214) scale(1,1)"><path fill="none" stroke="#000000" d="M 480 392 L 480 329" stroke-miterlimit="10" stroke-dasharray="3"/></g><g transform="translate(-238,-214) scale(1,1)"><path fill="#FFFFFF" stroke="none" d="M 488.419035512032 349.3253497152483 L 480 329 L 471.580964487968 349.3253497152483"/></g><g transform="translate(-238,-214) scale(1,1)"><path fill="none" stroke="#000000" d="M 488.419035512032 349.3253497152483 L 480 329 L 471.580964487968 349.3253497152483 L 488.419035512032 349.3253497152483" stroke-miterlimit="10"/></g><g transform="translate(-238,-214) scale(1,1)"><path fill="none" stroke="#000000" d="M 552 392 L 552 329" stroke-miterlimit="10" stroke-dasharray="3"/></g><g transform="translate(-238,-214) scale(1,1)"><path fill="#FFFFFF" stroke="none" d="M 560.419035512032 349.3253497152483 L 552 329 L 543.580964487968 349.3253497152483"/></g><g transform="translate(-238,-214) scale(1,1)"><path fill="none" stroke="#000000" d="M 560.419035512032 349.3253497152483 L 552 329 L 543.580964487968 349.3253497152483 L 560.419035512032 349.3253497152483" stroke-miterlimit="10"/></g><g transform="translate(-238,-214) scale(1,1)"><path fill="none" stroke="#000000" d="M 728 392 L 728 280 L 572 280" stroke-miterlimit="10" stroke-dasharray="3"/></g><g transform="translate(-238,-214) scale(1,1)"><path fill="#FFFFFF" stroke="none" d="M 592.3253497152483 271.580964487968 L 572 280 L 592.3253497152483 288.419035512032"/></g><g transform="translate(-238,-214) scale(1,1)"><path fill="none" stroke="#000000" d="M 592.3253497152483 271.580964487968 L 572 280 L 592.3253497152483 288.419035512032 L 592.3253497152483 271.580964487968" stroke-miterlimit="10"/></g></g></svg>