<svg version="1.1" xmlns="http://www.w3.org/2000/svg" xmlns:xlink="http://www.w3.org/1999/xlink" width="624.26708984375" height="363"><defs/><g><g transform="translate(-166,-182) scale(1,1)"><rect fill="#C0C0C0" stroke="none" x="183" y="455" width="124.26708984375" height="72" opacity="0.2"/></g><g transform="translate(-166,-182) scale(1,1)"><rect fill="#ffffff" stroke="none" x="176" y="448" width="124.26708984375" height="72"/></g><g transform="translate(-166,-182) scale(1,1)"><path fill="none" stroke="#000000" d="M 176 448 L 300.26708984375 448 L 300.26708984375 520 L 176 520 L 176 448 Z Z" stroke-miterlimit="10"/></g><g transform="translate(-166,-182) scale(1,1)"><path fill="none" stroke="#000000" d="M 176 473 L 300.26708984375 473" stroke-miterlimit="10"/></g><g transform="translate(-166,-182) scale(1,1)"><path fill="none" stroke="#000000" d="M 176 483 L 300.26708984375 483" stroke-miterlimit="10"/></g><g transform="translate(-166,-182) scale(1,1)"><g><path fill="none" stroke="none"/><text fill="#000000" stroke="none" font-family="Arial" font-size="13px" font-style="normal" font-weight="bold" text-decoration="none" x="233.439453125" y="466">A</text></g></g><g transform="translate(-166,-182) scale(1,1)"><g><path fill="none" stroke="none"/><text fill="#000000" stroke="none" font-family="Arial" font-size="13px" font-style="normal" font-weight="normal" text-decoration="none" x="181" y="499">+operationGlobale()</text></g></g><g transform="translate(-166,-182) scale(1,1)"><g><path fill="none" stroke="none"/><text fill="#000000" stroke="none" font-family="Arial" font-size="13px" font-style="normal" font-weight="normal" text-decoration="none" x="181" y="514">+operationA()</text></g></g><g transform="translate(-166,-182) scale(1,1)"><rect fill="#C0C0C0" stroke="none" x="351" y="199" width="124.26708984375" height="60" opacity="0.2"/></g><g transform="translate(-166,-182) scale(1,1)"><rect fill="#ffffff" stroke="none" x="344" y="192" width="124.26708984375" height="60"/></g><g transform="translate(-166,-182) scale(1,1)"><path fill="none" stroke="#000000" d="M 344 192 L 468.26708984375 192 L 468.26708984375 252 L 344 252 L 344 192 Z Z" stroke-miterlimit="10"/></g><g transform="translate(-166,-182) scale(1,1)"><path fill="none" stroke="#000000" d="M 344 230 L 468.26708984375 230" stroke-miterlimit="10"/></g><g transform="translate(-166,-182) scale(1,1)"><g><path fill="none" stroke="none"/><text fill="#000000" stroke="none" font-family="Arial" font-size="13px" font-style="normal" font-weight="normal" text-decoration="none" x="373.97314453125" y="208">«interface»</text></g></g><g transform="translate(-166,-182) scale(1,1)"><g><path fill="none" stroke="none"/><text fill="#000000" stroke="none" font-family="Arial" font-size="13px" font-style="normal" font-weight="bold" text-decoration="none" x="373.976318359375" y="223">I_Exemple</text></g></g><g transform="translate(-166,-182) scale(1,1)"><g><path fill="none" stroke="none"/><text fill="#000000" stroke="none" font-family="Arial" font-size="13px" font-style="normal" font-weight="normal" text-decoration="none" x="349" y="246">+operationGlobale()</text></g></g><g transform="translate(-166,-182) scale(1,1)"><rect fill="#C0C0C0" stroke="none" x="207" y="335" width="89.57080078125" height="71" opacity="0.2"/></g><g transform="translate(-166,-182) scale(1,1)"><rect fill="#ffffff" stroke="none" x="200" y="328" width="89.57080078125" height="71"/></g><g transform="translate(-166,-182) scale(1,1)"><path fill="none" stroke="#000000" d="M 200 328 L 289.57080078125 328 L 289.57080078125 399 L 200 399 L 200 328 Z Z" stroke-miterlimit="10"/></g><g transform="translate(-166,-182) scale(1,1)"><path fill="none" stroke="#000000" d="M 200 366 L 289.57080078125 366" stroke-miterlimit="10"/></g><g transform="translate(-166,-182) scale(1,1)"><g><path fill="none" stroke="none"/><text fill="#000000" stroke="none" font-family="Arial" font-size="13px" font-style="normal" font-weight="normal" text-decoration="none" x="212.625" y="344">«interface»</text></g></g><g transform="translate(-166,-182) scale(1,1)"><g><path fill="none" stroke="none"/><text fill="#000000" stroke="none" font-family="Arial" font-size="13px" font-style="normal" font-weight="bold" text-decoration="none" x="234.67041015625" y="359">I_A</text></g></g><g transform="translate(-166,-182) scale(1,1)"><g><path fill="none" stroke="none"/><text fill="#000000" stroke="none" font-family="Arial" font-size="13px" font-style="normal" font-weight="normal" text-decoration="none" x="205" y="382">+operationA()</text></g></g><g transform="translate(-166,-182) scale(1,1)"><rect fill="#C0C0C0" stroke="none" x="367" y="335" width="89.57080078125" height="71" opacity="0.2"/></g><g transform="translate(-166,-182) scale(1,1)"><rect fill="#ffffff" stroke="none" x="360" y="328" width="89.57080078125" height="71"/></g><g transform="translate(-166,-182) scale(1,1)"><path fill="none" stroke="#000000" d="M 360 328 L 449.57080078125 328 L 449.57080078125 399 L 360 399 L 360 328 Z Z" stroke-miterlimit="10"/></g><g transform="translate(-166,-182) scale(1,1)"><path fill="none" stroke="#000000" d="M 360 366 L 449.57080078125 366" stroke-miterlimit="10"/></g><g transform="translate(-166,-182) scale(1,1)"><g><path fill="none" stroke="none"/><text fill="#000000" stroke="none" font-family="Arial" font-size="13px" font-style="normal" font-weight="normal" text-decoration="none" x="372.625" y="344">«interface»</text></g></g><g transform="translate(-166,-182) scale(1,1)"><g><path fill="none" stroke="none"/><text fill="#000000" stroke="none" font-family="Arial" font-size="13px" font-style="normal" font-weight="bold" text-decoration="none" x="394.67041015625" y="359">I_B</text></g></g><g transform="translate(-166,-182) scale(1,1)"><g><path fill="none" stroke="none"/><text fill="#000000" stroke="none" font-family="Arial" font-size="13px" font-style="normal" font-weight="normal" text-decoration="none" x="365" y="382">+operationB()</text></g></g><g transform="translate(-166,-182) scale(1,1)"><rect fill="#C0C0C0" stroke="none" x="519" y="295" width="89.57080078125" height="71" opacity="0.2"/></g><g transform="translate(-166,-182) scale(1,1)"><rect fill="#ffffff" stroke="none" x="512" y="288" width="89.57080078125" height="71"/></g><g transform="translate(-166,-182) scale(1,1)"><path fill="none" stroke="#000000" d="M 512 288 L 601.57080078125 288 L 601.57080078125 359 L 512 359 L 512 288 Z Z" stroke-miterlimit="10"/></g><g transform="translate(-166,-182) scale(1,1)"><path fill="none" stroke="#000000" d="M 512 326 L 601.57080078125 326" stroke-miterlimit="10"/></g><g transform="translate(-166,-182) scale(1,1)"><g><path fill="none" stroke="none"/><text fill="#000000" stroke="none" font-family="Arial" font-size="13px" font-style="normal" font-weight="normal" text-decoration="none" x="524.625" y="304">«interface»</text></g></g><g transform="translate(-166,-182) scale(1,1)"><g><path fill="none" stroke="none"/><text fill="#000000" stroke="none" font-family="Arial" font-size="13px" font-style="normal" font-weight="bold" text-decoration="none" x="546.67041015625" y="319">I_C</text></g></g><g transform="translate(-166,-182) scale(1,1)"><g><path fill="none" stroke="none"/><text fill="#000000" stroke="none" font-family="Arial" font-size="13px" font-style="normal" font-weight="normal" text-decoration="none" x="517" y="342">+operationC()</text></g></g><g transform="translate(-166,-182) scale(1,1)"><rect fill="#C0C0C0" stroke="none" x="343" y="455" width="124.26708984375" height="72" opacity="0.2"/></g><g transform="translate(-166,-182) scale(1,1)"><rect fill="#ffffff" stroke="none" x="336" y="448" width="124.26708984375" height="72"/></g><g transform="translate(-166,-182) scale(1,1)"><path fill="none" stroke="#000000" d="M 336 448 L 460.26708984375 448 L 460.26708984375 520 L 336 520 L 336 448 Z Z" stroke-miterlimit="10"/></g><g transform="translate(-166,-182) scale(1,1)"><path fill="none" stroke="#000000" d="M 336 473 L 460.26708984375 473" stroke-miterlimit="10"/></g><g transform="translate(-166,-182) scale(1,1)"><path fill="none" stroke="#000000" d="M 336 483 L 460.26708984375 483" stroke-miterlimit="10"/></g><g transform="translate(-166,-182) scale(1,1)"><g><path fill="none" stroke="none"/><text fill="#000000" stroke="none" font-family="Arial" font-size="13px" font-style="normal" font-weight="bold" text-decoration="none" x="393.439453125" y="466">B</text></g></g><g transform="translate(-166,-182) scale(1,1)"><g><path fill="none" stroke="none"/><text fill="#000000" stroke="none" font-family="Arial" font-size="13px" font-style="normal" font-weight="normal" text-decoration="none" x="341" y="499">+operationGlobale()</text></g></g><g transform="translate(-166,-182) scale(1,1)"><g><path fill="none" stroke="none"/><text fill="#000000" stroke="none" font-family="Arial" font-size="13px" font-style="normal" font-weight="normal" text-decoration="none" x="341" y="514">+operationB()</text></g></g><g transform="translate(-166,-182) scale(1,1)"><rect fill="#C0C0C0" stroke="none" x="663" y="455" width="124.26708984375" height="72" opacity="0.2"/></g><g transform="translate(-166,-182) scale(1,1)"><rect fill="#ffffff" stroke="none" x="656" y="448" width="124.26708984375" height="72"/></g><g transform="translate(-166,-182) scale(1,1)"><path fill="none" stroke="#000000" d="M 656 448 L 780.26708984375 448 L 780.26708984375 520 L 656 520 L 656 448 Z Z" stroke-miterlimit="10"/></g><g transform="translate(-166,-182) scale(1,1)"><path fill="none" stroke="#000000" d="M 656 473 L 780.26708984375 473" stroke-miterlimit="10"/></g><g transform="translate(-166,-182) scale(1,1)"><path fill="none" stroke="#000000" d="M 656 483 L 780.26708984375 483" stroke-miterlimit="10"/></g><g transform="translate(-166,-182) scale(1,1)"><g><path fill="none" stroke="none"/><text fill="#000000" stroke="none" font-family="Arial" font-size="13px" font-style="normal" font-weight="bold" text-decoration="none" x="713.439453125" y="466">C</text></g></g><g transform="translate(-166,-182) scale(1,1)"><g><path fill="none" stroke="none"/><text fill="#000000" stroke="none" font-family="Arial" font-size="13px" font-style="normal" font-weight="normal" text-decoration="none" x="661" y="499">+operationGlobale()</text></g></g><g transform="translate(-166,-182) scale(1,1)"><g><path fill="none" stroke="none"/><text fill="#000000" stroke="none" font-family="Arial" font-size="13px" font-style="normal" font-weight="normal" text-decoration="none" x="661" y="514">+operationC()</text></g></g><g transform="translate(-166,-182) scale(1,1)"><rect fill="#C0C0C0" stroke="none" x="503" y="455" width="124.26708984375" height="87" opacity="0.2"/></g><g transform="translate(-166,-182) scale(1,1)"><rect fill="#ffffff" stroke="none" x="496" y="448" width="124.26708984375" height="87"/></g><g transform="translate(-166,-182) scale(1,1)"><path fill="none" stroke="#000000" d="M 496 448 L 620.26708984375 448 L 620.26708984375 535 L 496 535 L 496 448 Z Z" stroke-miterlimit="10"/></g><g transform="translate(-166,-182) scale(1,1)"><path fill="none" stroke="#000000" d="M 496 473 L 620.26708984375 473" stroke-miterlimit="10"/></g><g transform="translate(-166,-182) scale(1,1)"><path fill="none" stroke="#000000" d="M 496 483 L 620.26708984375 483" stroke-miterlimit="10"/></g><g transform="translate(-166,-182) scale(1,1)"><g><path fill="none" stroke="none"/><text fill="#000000" stroke="none" font-family="Arial" font-size="13px" font-style="normal" font-weight="bold" text-decoration="none" x="553.439453125" y="466">D</text></g></g><g transform="translate(-166,-182) scale(1,1)"><g><path fill="none" stroke="none"/><text fill="#000000" stroke="none" font-family="Arial" font-size="13px" font-style="normal" font-weight="normal" text-decoration="none" x="501" y="499">+operationGlobale()</text></g></g><g transform="translate(-166,-182) scale(1,1)"><g><path fill="none" stroke="none"/><text fill="#000000" stroke="none" font-family="Arial" font-size="13px" font-style="normal" font-weight="normal" text-decoration="none" x="501" y="514">+operationB()</text></g></g><g transform="translate(-166,-182) scale(1,1)"><g><path fill="none" stroke="none"/><text fill="#000000" stroke="none" font-family="Arial" font-size="13px" font-style="normal" font-weight="normal" text-decoration="none" x="501" y="529">+operationC()</text></g></g><g transform="translate(-166,-182) scale(1,1)"><path fill="none" stroke="#000000" d="M 256 328 L 256 224 L 344 224" stroke-miterlimit="10"/></g><g transform="translate(-166,-182) scale(1,1)"><path fill="#FFFFFF" stroke="none" d="M 323.6746502847517 232.41903551203197 L 344 224 L 323.6746502847517 215.58096448796803"/></g><g transform="translate(-166,-182) scale(1,1)"><path fill="none" stroke="#000000" d="M 323.6746502847517 232.41903551203197 L 344 224 L 323.6746502847517 215.58096448796803 L 323.6746502847517 232.41903551203197" stroke-miterlimit="10"/></g><g transform="translate(-166,-182) scale(1,1)"><path fill="none" stroke="#000000" d="M 406 328 L 406 252" stroke-miterlimit="10"/></g><g transform="translate(-166,-182) scale(1,1)"><path fill="#FFFFFF" stroke="none" d="M 414.419035512032 272.3253497152483 L 406 252 L 397.580964487968 272.3253497152483"/></g><g transform="translate(-166,-182) scale(1,1)"><path fill="none" stroke="#000000" d="M 414.419035512032 272.3253497152483 L 406 252 L 397.580964487968 272.3253497152483 L 414.419035512032 272.3253497152483" stroke-miterlimit="10"/></g><g transform="translate(-166,-182) scale(1,1)"><path fill="none" stroke="#000000" d="M 568 288 L 568 224 L 468 224" stroke-miterlimit="10"/></g><g transform="translate(-166,-182) scale(1,1)"><path fill="#FFFFFF" stroke="none" d="M 488.3253497152483 215.58096448796803 L 468 224 L 488.3253497152483 232.41903551203197"/></g><g transform="translate(-166,-182) scale(1,1)"><path fill="none" stroke="#000000" d="M 488.3253497152483 215.58096448796803 L 468 224 L 488.3253497152483 232.41903551203197 L 488.3253497152483 215.58096448796803" stroke-miterlimit="10"/></g><g transform="translate(-166,-182) scale(1,1)"><path fill="none" stroke="#000000" d="M 242 448 L 242 399" stroke-miterlimit="10" stroke-dasharray="3"/></g><g transform="translate(-166,-182) scale(1,1)"><path fill="#FFFFFF" stroke="none" d="M 250.41903551203197 419.3253497152483 L 242 399 L 233.58096448796803 419.3253497152483"/></g><g transform="translate(-166,-182) scale(1,1)"><path fill="none" stroke="#000000" d="M 250.41903551203197 419.3253497152483 L 242 399 L 233.58096448796803 419.3253497152483 L 250.41903551203197 419.3253497152483" stroke-miterlimit="10"/></g><g transform="translate(-166,-182) scale(1,1)"><path fill="none" stroke="#000000" d="M 402 448 L 402 399" stroke-miterlimit="10" stroke-dasharray="3"/></g><g transform="translate(-166,-182) scale(1,1)"><path fill="#FFFFFF" stroke="none" d="M 410.419035512032 419.3253497152483 L 402 399 L 393.580964487968 419.3253497152483"/></g><g transform="translate(-166,-182) scale(1,1)"><path fill="none" stroke="#000000" d="M 410.419035512032 419.3253497152483 L 402 399 L 393.580964487968 419.3253497152483 L 410.419035512032 419.3253497152483" stroke-miterlimit="10"/></g><g transform="translate(-166,-182) scale(1,1)"><path fill="none" stroke="#000000" d="M 712 448 L 712 339 L 602 339" stroke-miterlimit="10" stroke-dasharray="3"/></g><g transform="translate(-166,-182) scale(1,1)"><path fill="#FFFFFF" stroke="none" d="M 622.3253497152483 330.580964487968 L 602 339 L 622.3253497152483 347.419035512032"/></g><g transform="translate(-166,-182) scale(1,1)"><path fill="none" stroke="#000000" d="M 622.3253497152483 330.580964487968 L 602 339 L 622.3253497152483 347.419035512032 L 622.3253497152483 330.580964487968" stroke-miterlimit="10"/></g><g transform="translate(-166,-182) scale(1,1)"><path fill="none" stroke="#000000" d="M 562 448 L 562 359" stroke-miterlimit="10" stroke-dasharray="3"/></g><g transform="translate(-166,-182) scale(1,1)"><path fill="#FFFFFF" stroke="none" d="M 570.419035512032 379.3253497152483 L 562 359 L 553.580964487968 379.3253497152483"/></g><g transform="translate(-166,-182) scale(1,1)"><path fill="none" stroke="#000000" d="M 570.419035512032 379.3253497152483 L 562 359 L 553.580964487968 379.3253497152483 L 570.419035512032 379.3253497152483" stroke-miterlimit="10"/></g><g transform="translate(-166,-182) scale(1,1)"><path fill="none" stroke="#000000" d="M 512 448 L 512 376 L 450 376" stroke-miterlimit="10" stroke-dasharray="3"/></g><g transform="translate(-166,-182) scale(1,1)"><path fill="#FFFFFF" stroke="none" d="M 470.3253497152483 367.580964487968 L 450 376 L 470.3253497152483 384.419035512032"/></g><g transform="translate(-166,-182) scale(1,1)"><path fill="none" stroke="#000000" d="M 470.3253497152483 367.580964487968 L 450 376 L 470.3253497152483 384.419035512032 L 470.3253497152483 367.580964487968" stroke-miterlimit="10"/></g></g></svg>