<svg version="1.1" xmlns="http://www.w3.org/2000/svg" xmlns:xlink="http://www.w3.org/1999/xlink" width="283.28076171875" height="236"><defs/><g><g transform="translate(-422,-174) scale(1,1)"><rect fill="#C0C0C0" stroke="none" x="439" y="191" width="114.142578125" height="72" opacity="0.2"/></g><g transform="translate(-422,-174) scale(1,1)"><rect fill="#ffffff" stroke="none" x="432" y="184" width="114.142578125" height="72"/></g><g transform="translate(-422,-174) scale(1,1)"><path fill="none" stroke="#000000" d="M 432 184 L 546.142578125 184 L 546.142578125 256 L 432 256 L 432 184 Z Z" stroke-miterlimit="10"/></g><g transform="translate(-422,-174) scale(1,1)"><path fill="none" stroke="#000000" d="M 432 209 L 546.142578125 209" stroke-miterlimit="10"/></g><g transform="translate(-422,-174) scale(1,1)"><path fill="none" stroke="#000000" d="M 432 219 L 546.142578125 219" stroke-miterlimit="10"/></g><g transform="translate(-422,-174) scale(1,1)"><g><path fill="none" stroke="none"/><text fill="#000000" stroke="none" font-family="Arial" font-size="13px" font-style="normal" font-weight="bold" text-decoration="none" x="484.377197265625" y="202">A</text></g></g><g transform="translate(-422,-174) scale(1,1)"><g><path fill="none" stroke="none"/><text fill="#000000" stroke="none" font-family="Arial" font-size="13px" font-style="normal" font-weight="normal" text-decoration="none" x="437" y="235">+operation()</text></g></g><g transform="translate(-422,-174) scale(1,1)"><g><path fill="none" stroke="none"/><text fill="#000000" stroke="none" font-family="Arial" font-size="13px" font-style="normal" font-weight="normal" text-decoration="none" x="437" y="250">+operations(n: int)</text></g></g><g transform="translate(-422,-174) scale(1,1)"><rect fill="#C0C0C0" stroke="none" x="439" y="335" width="114.142578125" height="72" opacity="0.2"/></g><g transform="translate(-422,-174) scale(1,1)"><rect fill="#ffffff" stroke="none" x="432" y="328" width="114.142578125" height="72"/></g><g transform="translate(-422,-174) scale(1,1)"><path fill="none" stroke="#000000" d="M 432 328 L 546.142578125 328 L 546.142578125 400 L 432 400 L 432 328 Z Z" stroke-miterlimit="10"/></g><g transform="translate(-422,-174) scale(1,1)"><path fill="none" stroke="#000000" d="M 432 353 L 546.142578125 353" stroke-miterlimit="10"/></g><g transform="translate(-422,-174) scale(1,1)"><path fill="none" stroke="#000000" d="M 432 363 L 546.142578125 363" stroke-miterlimit="10"/></g><g transform="translate(-422,-174) scale(1,1)"><g><path fill="none" stroke="none"/><text fill="#000000" stroke="none" font-family="Arial" font-size="13px" font-style="normal" font-weight="bold" text-decoration="none" x="484.377197265625" y="346">B</text></g></g><g transform="translate(-422,-174) scale(1,1)"><g><path fill="none" stroke="none"/><text fill="#000000" stroke="none" font-family="Arial" font-size="13px" font-style="normal" font-weight="normal" text-decoration="none" x="437" y="379">+operation()</text></g></g><g transform="translate(-422,-174) scale(1,1)"><g><path fill="none" stroke="none"/><text fill="#000000" stroke="none" font-family="Arial" font-size="13px" font-style="normal" font-weight="normal" text-decoration="none" x="437" y="394">+operations(n: int)</text></g></g><g transform="translate(-422,-174) scale(1,1)"><rect fill="#C0C0C0" stroke="none" x="583" y="255" width="114.142578125" height="75" opacity="0.2"/></g><g transform="translate(-422,-174) scale(1,1)"><rect fill="#ffffff" stroke="none" x="576" y="248" width="114.142578125" height="75"/></g><g transform="translate(-422,-174) scale(1,1)"><path fill="none" stroke="#000000" d="M 576 248 L 690.142578125 248 L 690.142578125 323 L 576 323 L 576 248 Z Z" stroke-miterlimit="10"/></g><g transform="translate(-422,-174) scale(1,1)"><path fill="none" stroke="#000000" d="M 576 286 L 690.142578125 286" stroke-miterlimit="10"/></g><g transform="translate(-422,-174) scale(1,1)"><g><path fill="none" stroke="none"/><text fill="#000000" stroke="none" font-family="Arial" font-size="13px" font-style="normal" font-weight="normal" text-decoration="none" x="600.910888671875" y="264">«interface»</text></g></g><g transform="translate(-422,-174) scale(1,1)"><g><path fill="none" stroke="none"/><text fill="#000000" stroke="none" font-family="Arial" font-size="13px" font-style="normal" font-weight="bold" text-decoration="none" x="602.005859375" y="279">Operateur</text></g></g><g transform="translate(-422,-174) scale(1,1)"><g><path fill="none" stroke="none"/><text fill="#000000" stroke="none" font-family="Arial" font-size="13px" font-style="normal" font-weight="normal" text-decoration="none" x="581" y="302">+operation()</text></g></g><g transform="translate(-422,-174) scale(1,1)"><g><path fill="none" stroke="none"/><text fill="#000000" stroke="none" font-family="Arial" font-size="13px" font-style="normal" font-weight="normal" text-decoration="none" x="581" y="317">+operations(n: int)</text></g></g><g transform="translate(-422,-174) scale(1,1)"><path fill="none" stroke="#000000" d="M 472 328 L 472 304 L 576 304" stroke-miterlimit="10" stroke-dasharray="3"/></g><g transform="translate(-422,-174) scale(1,1)"><path fill="#FFFFFF" stroke="none" d="M 555.6746502847517 312.419035512032 L 576 304 L 555.6746502847517 295.580964487968"/></g><g transform="translate(-422,-174) scale(1,1)"><path fill="none" stroke="#000000" d="M 555.6746502847517 312.419035512032 L 576 304 L 555.6746502847517 295.580964487968 L 555.6746502847517 312.419035512032" stroke-miterlimit="10"/></g><g transform="translate(-422,-174) scale(1,1)"><path fill="none" stroke="#000000" d="M 473 256 L 473 280 L 576 280" stroke-miterlimit="10" stroke-dasharray="3"/></g><g transform="translate(-422,-174) scale(1,1)"><path fill="#FFFFFF" stroke="none" d="M 555.6746502847517 288.419035512032 L 576 280 L 555.6746502847517 271.580964487968"/></g><g transform="translate(-422,-174) scale(1,1)"><path fill="none" stroke="#000000" d="M 555.6746502847517 288.419035512032 L 576 280 L 555.6746502847517 271.580964487968 L 555.6746502847517 288.419035512032" stroke-miterlimit="10"/></g><g transform="translate(-422,-174) scale(1,1)"><path fill="none" stroke="#000000" d="M 546 348 L 592 348 L 592 323" stroke-miterlimit="10"/></g><g transform="translate(-422,-174) scale(1,1)"><path fill="none" stroke="#000000" d="M 596.209517756016 333.16267485762415 L 592 323 L 587.790482243984 333.16267485762415" stroke-miterlimit="10"/></g><g transform="translate(-422,-174) scale(1,1)"><path fill="#FFFFFF" stroke="none" d="M 556.1626748576241 343.790482243984 L 546 348 L 556.1626748576241 352.209517756016 L 568 348"/></g><g transform="translate(-422,-174) scale(1,1)"><path fill="none" stroke="#000000" d="M 556.1626748576241 343.790482243984 L 546 348 L 556.1626748576241 352.209517756016 L 568 348 L 556.1626748576241 343.790482243984" stroke-miterlimit="10"/></g><g transform="translate(-422,-174) scale(1,1)"><g><path fill="none" stroke="none"/><text fill="#000000" stroke="none" font-family="Arial" font-size="13px" font-style="normal" font-weight="normal" text-decoration="none" x="597.5" y="366">-operateurParent</text></g></g><g transform="translate(-422,-174) scale(1,1)"><g><path fill="none" stroke="none"/><text fill="#000000" stroke="none" font-family="Arial" font-size="13px" font-style="normal" font-weight="normal" text-decoration="none" x="600.5" y="349">1</text></g></g></g></svg>