<svg version="1.1" xmlns="http://www.w3.org/2000/svg" xmlns:xlink="http://www.w3.org/1999/xlink" width="501.47607421875" height="324"><defs/><g><g transform="translate(-342,-198) scale(1,1)"><rect fill="#C0C0C0" stroke="none" x="495" y="215" width="134.6962890625" height="90" opacity="0.2"/></g><g transform="translate(-342,-198) scale(1,1)"><rect fill="#ffffff" stroke="none" x="488" y="208" width="134.6962890625" height="90"/></g><g transform="translate(-342,-198) scale(1,1)"><path fill="none" stroke="#000000" d="M 488 208 L 622.6962890625 208 L 622.6962890625 298 L 488 298 L 488 208 Z Z" stroke-miterlimit="10"/></g><g transform="translate(-342,-198) scale(1,1)"><path fill="none" stroke="#000000" d="M 488 246 L 622.6962890625 246" stroke-miterlimit="10"/></g><g transform="translate(-342,-198) scale(1,1)"><g><path fill="none" stroke="none"/><text fill="#000000" stroke="none" font-family="Arial" font-size="13px" font-style="normal" font-weight="normal" text-decoration="none" x="523.187744140625" y="224">«interface»</text></g></g><g transform="translate(-342,-198) scale(1,1)"><g><path fill="none" stroke="none"/><text fill="#000000" stroke="none" font-family="Arial" font-size="13px" font-style="normal" font-weight="bold" text-decoration="none" x="492.5" y="239">FigureRectangulaire</text></g></g><g transform="translate(-342,-198) scale(1,1)"><g><path fill="none" stroke="none"/><text fill="#000000" stroke="none" font-family="Arial" font-size="13px" font-style="normal" font-weight="normal" text-decoration="none" x="493" y="262">+aire(): int</text></g></g><g transform="translate(-342,-198) scale(1,1)"><g><path fill="none" stroke="none"/><text fill="#000000" stroke="none" font-family="Arial" font-size="13px" font-style="normal" font-weight="normal" text-decoration="none" x="493" y="277">+getHauteur(): int</text></g></g><g transform="translate(-342,-198) scale(1,1)"><g><path fill="none" stroke="none"/><text fill="#000000" stroke="none" font-family="Arial" font-size="13px" font-style="normal" font-weight="normal" text-decoration="none" x="493" y="292">+getLargeur(): int</text></g></g><g transform="translate(-342,-198) scale(1,1)"><rect fill="#C0C0C0" stroke="none" x="359" y="359" width="156.90625" height="152" opacity="0.2"/></g><g transform="translate(-342,-198) scale(1,1)"><rect fill="#ffffff" stroke="none" x="352" y="352" width="156.90625" height="152"/></g><g transform="translate(-342,-198) scale(1,1)"><path fill="none" stroke="#000000" d="M 352 352 L 508.90625 352 L 508.90625 504 L 352 504 L 352 352 Z Z" stroke-miterlimit="10"/></g><g transform="translate(-342,-198) scale(1,1)"><path fill="none" stroke="#000000" d="M 352 377 L 508.90625 377" stroke-miterlimit="10"/></g><g transform="translate(-342,-198) scale(1,1)"><path fill="none" stroke="#000000" d="M 352 400 L 508.90625 400" stroke-miterlimit="10"/></g><g transform="translate(-342,-198) scale(1,1)"><g><path fill="none" stroke="none"/><text fill="#000000" stroke="none" font-family="Arial" font-size="13px" font-style="normal" font-weight="bold" text-decoration="none" x="413.469970703125" y="370">Carre</text></g></g><g transform="translate(-342,-198) scale(1,1)"><g><path fill="none" stroke="none"/><text fill="#000000" stroke="none" font-family="Arial" font-size="13px" font-style="normal" font-weight="normal" text-decoration="none" x="357" y="393">-tailleCote: int</text></g></g><g transform="translate(-342,-198) scale(1,1)"><g><path fill="none" stroke="none"/><text fill="#000000" stroke="none" font-family="Arial" font-size="13px" font-style="normal" font-weight="normal" text-decoration="none" x="357" y="416">+Carre(tailleCote: int)</text></g></g><g transform="translate(-342,-198) scale(1,1)"><g><path fill="none" stroke="none"/><text fill="#000000" stroke="none" font-family="Arial" font-size="13px" font-style="normal" font-weight="normal" text-decoration="none" x="357" y="431">+aire(): int</text></g></g><g transform="translate(-342,-198) scale(1,1)"><g><path fill="none" stroke="none"/><text fill="#000000" stroke="none" font-family="Arial" font-size="13px" font-style="normal" font-weight="normal" text-decoration="none" x="357" y="446">+getHauteur(): int</text></g></g><g transform="translate(-342,-198) scale(1,1)"><g><path fill="none" stroke="none"/><text fill="#000000" stroke="none" font-family="Arial" font-size="13px" font-style="normal" font-weight="normal" text-decoration="none" x="357" y="461">+getLargeur(): int</text></g></g><g transform="translate(-342,-198) scale(1,1)"><rect fill="#C0C0C0" stroke="none" x="623" y="359" width="217.47607421875" height="160" opacity="0.2"/></g><g transform="translate(-342,-198) scale(1,1)"><rect fill="#ffffff" stroke="none" x="616" y="352" width="217.47607421875" height="160"/></g><g transform="translate(-342,-198) scale(1,1)"><path fill="none" stroke="#000000" d="M 616 352 L 833.47607421875 352 L 833.47607421875 512 L 616 512 L 616 352 Z Z" stroke-miterlimit="10"/></g><g transform="translate(-342,-198) scale(1,1)"><path fill="none" stroke="#000000" d="M 616 377 L 833.47607421875 377" stroke-miterlimit="10"/></g><g transform="translate(-342,-198) scale(1,1)"><path fill="none" stroke="#000000" d="M 616 415 L 833.47607421875 415" stroke-miterlimit="10"/></g><g transform="translate(-342,-198) scale(1,1)"><g><path fill="none" stroke="none"/><text fill="#000000" stroke="none" font-family="Arial" font-size="13px" font-style="normal" font-weight="bold" text-decoration="none" x="693.672607421875" y="370">Rectangle</text></g></g><g transform="translate(-342,-198) scale(1,1)"><g><path fill="none" stroke="none"/><text fill="#000000" stroke="none" font-family="Arial" font-size="13px" font-style="normal" font-weight="normal" text-decoration="none" x="621" y="393">-hauteur: int</text></g></g><g transform="translate(-342,-198) scale(1,1)"><g><path fill="none" stroke="none"/><text fill="#000000" stroke="none" font-family="Arial" font-size="13px" font-style="normal" font-weight="normal" text-decoration="none" x="621" y="408">-largeur: int</text></g></g><g transform="translate(-342,-198) scale(1,1)"><g><path fill="none" stroke="none"/><text fill="#000000" stroke="none" font-family="Arial" font-size="13px" font-style="normal" font-weight="normal" text-decoration="none" x="621" y="431">+Rectangle(hauteur: int, largeur: int)</text></g></g><g transform="translate(-342,-198) scale(1,1)"><g><path fill="none" stroke="none"/><text fill="#000000" stroke="none" font-family="Arial" font-size="13px" font-style="normal" font-weight="normal" text-decoration="none" x="621" y="446">+aire(): int</text></g></g><g transform="translate(-342,-198) scale(1,1)"><g><path fill="none" stroke="none"/><text fill="#000000" stroke="none" font-family="Arial" font-size="13px" font-style="normal" font-weight="normal" text-decoration="none" x="621" y="461">+getHauteur(): int</text></g></g><g transform="translate(-342,-198) scale(1,1)"><g><path fill="none" stroke="none"/><text fill="#000000" stroke="none" font-family="Arial" font-size="13px" font-style="normal" font-weight="normal" text-decoration="none" x="621" y="476">+getLargeur(): int</text></g></g><g transform="translate(-342,-198) scale(1,1)"><g><path fill="none" stroke="none"/><text fill="#000000" stroke="none" font-family="Arial" font-size="13px" font-style="normal" font-weight="normal" text-decoration="none" x="621" y="491">+setHauteur(hauteur: int)</text></g></g><g transform="translate(-342,-198) scale(1,1)"><g><path fill="none" stroke="none"/><text fill="#000000" stroke="none" font-family="Arial" font-size="13px" font-style="normal" font-weight="normal" text-decoration="none" x="621" y="506">+setLargeur(largeur: int)</text></g></g><g transform="translate(-342,-198) scale(1,1)"><path fill="none" stroke="#000000" d="M 509 430 L 616 430" stroke-miterlimit="10"/></g><g transform="translate(-342,-198) scale(1,1)"><path fill="none" stroke="#000000" d="M 605.8373251423759 434.209517756016 L 616 430 L 605.8373251423758 425.790482243984" stroke-miterlimit="10"/></g><g transform="translate(-342,-198) scale(1,1)"><path fill="#000000" stroke="none" d="M 519.1626748576241 425.790482243984 L 509 430 L 519.1626748576241 434.209517756016 L 531 430"/></g><g transform="translate(-342,-198) scale(1,1)"><path fill="none" stroke="#000000" d="M 519.1626748576241 425.790482243984 L 509 430 L 519.1626748576241 434.209517756016 L 531 430 L 519.1626748576241 425.790482243984" stroke-miterlimit="10"/></g><g transform="translate(-342,-198) scale(1,1)"><g><path fill="none" stroke="none"/><text fill="#000000" stroke="none" font-family="Arial" font-size="13px" font-style="normal" font-weight="normal" text-decoration="none" x="551.5" y="419">-rectangle</text></g></g><g transform="translate(-342,-198) scale(1,1)"><g><path fill="none" stroke="none"/><text fill="#000000" stroke="none" font-family="Arial" font-size="13px" font-style="normal" font-weight="normal" text-decoration="none" x="590.5" y="447">1</text></g></g><g transform="translate(-342,-198) scale(1,1)"><path fill="none" stroke="#000000" d="M 424 352 L 424 248 L 488 248" stroke-miterlimit="10" stroke-dasharray="3"/></g><g transform="translate(-342,-198) scale(1,1)"><path fill="#FFFFFF" stroke="none" d="M 467.6746502847517 256.419035512032 L 488 248 L 467.6746502847517 239.58096448796803"/></g><g transform="translate(-342,-198) scale(1,1)"><path fill="none" stroke="#000000" d="M 467.6746502847517 256.419035512032 L 488 248 L 467.6746502847517 239.58096448796803 L 467.6746502847517 256.419035512032" stroke-miterlimit="10"/></g><g transform="translate(-342,-198) scale(1,1)"><path fill="none" stroke="#000000" d="M 688 352 L 688 253 L 623 253" stroke-miterlimit="10" stroke-dasharray="3"/></g><g transform="translate(-342,-198) scale(1,1)"><path fill="#FFFFFF" stroke="none" d="M 643.3253497152483 244.58096448796803 L 623 253 L 643.3253497152483 261.419035512032"/></g><g transform="translate(-342,-198) scale(1,1)"><path fill="none" stroke="#000000" d="M 643.3253497152483 244.58096448796803 L 623 253 L 643.3253497152483 261.419035512032 L 643.3253497152483 244.58096448796803" stroke-miterlimit="10"/></g></g></svg>