<svg version="1.1" xmlns="http://www.w3.org/2000/svg" xmlns:xlink="http://www.w3.org/1999/xlink" width="277.57080078125" height="197"><defs/><g><g transform="translate(-358,-222) scale(1,1)"><rect fill="#C0C0C0" stroke="none" x="431" y="239" width="136" height="64" opacity="0.2"/></g><g transform="translate(-358,-222) scale(1,1)"><rect fill="#ffffff" stroke="none" x="424" y="232" width="136" height="64"/></g><g transform="translate(-358,-222) scale(1,1)"><path fill="none" stroke="#000000" d="M 424 232 L 560 232 L 560 296 L 424 296 L 424 232 Z Z" stroke-miterlimit="10"/></g><g transform="translate(-358,-222) scale(1,1)"><path fill="none" stroke="#000000" d="M 424 257 L 560 257" stroke-miterlimit="10"/></g><g transform="translate(-358,-222) scale(1,1)"><path fill="none" stroke="#000000" d="M 424 267 L 560 267" stroke-miterlimit="10"/></g><g transform="translate(-358,-222) scale(1,1)"><g><path fill="none" stroke="none"/><text fill="#000000" stroke="none" font-family="Arial" font-size="13px" font-style="italic" font-weight="bold" text-decoration="none" x="432.04638671875" y="249.5">FigureGeometrique</text></g></g><g transform="translate(-358,-222) scale(1,1)"><g><path fill="none" stroke="none"/><text fill="#000000" stroke="none" font-family="Arial" font-size="13px" font-style="normal" font-weight="normal" text-decoration="none" x="429" y="283">+dessiner()</text></g></g><g transform="translate(-358,-222) scale(1,1)"><rect fill="#C0C0C0" stroke="none" x="375" y="359" width="89.57080078125" height="57" opacity="0.2"/></g><g transform="translate(-358,-222) scale(1,1)"><rect fill="#ffffff" stroke="none" x="368" y="352" width="89.57080078125" height="57"/></g><g transform="translate(-358,-222) scale(1,1)"><path fill="none" stroke="#000000" d="M 368 352 L 457.57080078125 352 L 457.57080078125 409 L 368 409 L 368 352 Z Z" stroke-miterlimit="10"/></g><g transform="translate(-358,-222) scale(1,1)"><path fill="none" stroke="#000000" d="M 368 377 L 457.57080078125 377" stroke-miterlimit="10"/></g><g transform="translate(-358,-222) scale(1,1)"><path fill="none" stroke="#000000" d="M 368 387 L 457.57080078125 387" stroke-miterlimit="10"/></g><g transform="translate(-358,-222) scale(1,1)"><g><path fill="none" stroke="none"/><text fill="#000000" stroke="none" font-family="Arial" font-size="13px" font-style="normal" font-weight="bold" text-decoration="none" x="387.861328125" y="370">Triangle</text></g></g><g transform="translate(-358,-222) scale(1,1)"><g><path fill="none" stroke="none"/><text fill="#000000" stroke="none" font-family="Arial" font-size="13px" font-style="normal" font-weight="normal" text-decoration="none" x="373" y="403">+dessiner()</text></g></g><g transform="translate(-358,-222) scale(1,1)"><rect fill="#C0C0C0" stroke="none" x="543" y="359" width="89.57080078125" height="57" opacity="0.2"/></g><g transform="translate(-358,-222) scale(1,1)"><rect fill="#ffffff" stroke="none" x="536" y="352" width="89.57080078125" height="57"/></g><g transform="translate(-358,-222) scale(1,1)"><path fill="none" stroke="#000000" d="M 536 352 L 625.57080078125 352 L 625.57080078125 409 L 536 409 L 536 352 Z Z" stroke-miterlimit="10"/></g><g transform="translate(-358,-222) scale(1,1)"><path fill="none" stroke="#000000" d="M 536 377 L 625.57080078125 377" stroke-miterlimit="10"/></g><g transform="translate(-358,-222) scale(1,1)"><path fill="none" stroke="#000000" d="M 536 387 L 625.57080078125 387" stroke-miterlimit="10"/></g><g transform="translate(-358,-222) scale(1,1)"><g><path fill="none" stroke="none"/><text fill="#000000" stroke="none" font-family="Arial" font-size="13px" font-style="normal" font-weight="bold" text-decoration="none" x="549.719970703125" y="370">Rectangle</text></g></g><g transform="translate(-358,-222) scale(1,1)"><g><path fill="none" stroke="none"/><text fill="#000000" stroke="none" font-family="Arial" font-size="13px" font-style="normal" font-weight="normal" text-decoration="none" x="541" y="403">+dessiner()</text></g></g><g transform="translate(-358,-222) scale(1,1)"><path fill="none" stroke="#000000" d="M 384 352 L 384 256 L 424 256" stroke-miterlimit="10"/></g><g transform="translate(-358,-222) scale(1,1)"><path fill="#FFFFFF" stroke="none" d="M 403.6746502847517 264.419035512032 L 424 256 L 403.6746502847517 247.58096448796803"/></g><g transform="translate(-358,-222) scale(1,1)"><path fill="none" stroke="#000000" d="M 403.6746502847517 264.419035512032 L 424 256 L 403.6746502847517 247.58096448796803 L 403.6746502847517 264.419035512032" stroke-miterlimit="10"/></g><g transform="translate(-358,-222) scale(1,1)"><path fill="none" stroke="#000000" d="M 592 352 L 592 256 L 560 256" stroke-miterlimit="10"/></g><g transform="translate(-358,-222) scale(1,1)"><path fill="#FFFFFF" stroke="none" d="M 580.3253497152483 247.58096448796803 L 560 256 L 580.3253497152483 264.419035512032"/></g><g transform="translate(-358,-222) scale(1,1)"><path fill="none" stroke="#000000" d="M 580.3253497152483 247.58096448796803 L 560 256 L 580.3253497152483 264.419035512032 L 580.3253497152483 247.58096448796803" stroke-miterlimit="10"/></g></g></svg>