<svg version="1.1" xmlns="http://www.w3.org/2000/svg" xmlns:xlink="http://www.w3.org/1999/xlink" width="1018.06298828125" height="353"><defs/><g><g transform="translate(-54,-270) scale(1,1)"><rect fill="#C0C0C0" stroke="none" x="383" y="287" width="150.2734375" height="85" opacity="0.2"/></g><g transform="translate(-54,-270) scale(1,1)"><rect fill="#ffffff" stroke="none" x="376" y="280" width="150.2734375" height="85"/></g><g transform="translate(-54,-270) scale(1,1)"><path fill="none" stroke="#000000" d="M 376 280 L 526.2734375 280 L 526.2734375 365 L 376 365 L 376 280 Z Z" stroke-miterlimit="10"/></g><g transform="translate(-54,-270) scale(1,1)"><path fill="none" stroke="#000000" d="M 376 305 L 526.2734375 305" stroke-miterlimit="10"/></g><g transform="translate(-54,-270) scale(1,1)"><path fill="none" stroke="#000000" d="M 376 328 L 526.2734375 328" stroke-miterlimit="10"/></g><g transform="translate(-54,-270) scale(1,1)"><g><path fill="none" stroke="none"/><text fill="#000000" stroke="none" font-family="Arial" font-size="13px" font-style="normal" font-weight="bold" text-decoration="none" x="429.81494140625" y="298">Salarie</text></g></g><g transform="translate(-54,-270) scale(1,1)"><g><path fill="none" stroke="none"/><text fill="#000000" stroke="none" font-family="Arial" font-size="13px" font-style="normal" font-weight="normal" text-decoration="none" x="381" y="321">-salaire: double</text></g></g><g transform="translate(-54,-270) scale(1,1)"><g><path fill="none" stroke="none"/><text fill="#000000" stroke="none" font-family="Arial" font-size="13px" font-style="normal" font-weight="normal" text-decoration="none" x="381" y="344">+Salaire(salaire: double)</text></g></g><g transform="translate(-54,-270) scale(1,1)"><g><path fill="none" stroke="none"/><text fill="#000000" stroke="none" font-family="Arial" font-size="13px" font-style="normal" font-weight="normal" text-decoration="none" x="381" y="359">+getSalaire(): double</text></g></g><g transform="translate(-54,-270) scale(1,1)"><rect fill="#C0C0C0" stroke="none" x="399" y="423" width="130.0498046875" height="60" opacity="0.2"/></g><g transform="translate(-54,-270) scale(1,1)"><rect fill="#ffffff" stroke="none" x="392" y="416" width="130.0498046875" height="60"/></g><g transform="translate(-54,-270) scale(1,1)"><path fill="none" stroke="#000000" d="M 392 416 L 522.0498046875 416 L 522.0498046875 476 L 392 476 L 392 416 Z Z" stroke-miterlimit="10"/></g><g transform="translate(-54,-270) scale(1,1)"><path fill="none" stroke="#000000" d="M 392 454 L 522.0498046875 454" stroke-miterlimit="10"/></g><g transform="translate(-54,-270) scale(1,1)"><g><path fill="none" stroke="none"/><text fill="#000000" stroke="none" font-family="Arial" font-size="13px" font-style="normal" font-weight="normal" text-decoration="none" x="424.864501953125" y="432">«interface»</text></g></g><g transform="translate(-54,-270) scale(1,1)"><g><path fill="none" stroke="none"/><text fill="#000000" stroke="none" font-family="Arial" font-size="13px" font-style="normal" font-weight="bold" text-decoration="none" x="408.608154296875" y="447">SalarieInterface</text></g></g><g transform="translate(-54,-270) scale(1,1)"><g><path fill="none" stroke="none"/><text fill="#000000" stroke="none" font-family="Arial" font-size="13px" font-style="normal" font-weight="normal" text-decoration="none" x="397" y="470">+getSalaire(): double</text></g></g><g transform="translate(-54,-270) scale(1,1)"><rect fill="#C0C0C0" stroke="none" x="71" y="535" width="428.4404296875" height="85" opacity="0.2"/></g><g transform="translate(-54,-270) scale(1,1)"><rect fill="#ffffff" stroke="none" x="64" y="528" width="428.4404296875" height="85"/></g><g transform="translate(-54,-270) scale(1,1)"><path fill="none" stroke="#000000" d="M 64 528 L 492.4404296875 528 L 492.4404296875 613 L 64 613 L 64 528 Z Z" stroke-miterlimit="10"/></g><g transform="translate(-54,-270) scale(1,1)"><path fill="none" stroke="#000000" d="M 64 553 L 492.4404296875 553" stroke-miterlimit="10"/></g><g transform="translate(-54,-270) scale(1,1)"><path fill="none" stroke="#000000" d="M 64 576 L 492.4404296875 576" stroke-miterlimit="10"/></g><g transform="translate(-54,-270) scale(1,1)"><g><path fill="none" stroke="none"/><text fill="#000000" stroke="none" font-family="Arial" font-size="13px" font-style="normal" font-weight="bold" text-decoration="none" x="224.033447265625" y="546">SalarieChefProjet</text></g></g><g transform="translate(-54,-270) scale(1,1)"><g><path fill="none" stroke="none"/><text fill="#000000" stroke="none" font-family="Arial" font-size="13px" font-style="normal" font-weight="normal" text-decoration="none" x="69" y="569">-nombreDeProjetsGeres: int</text></g></g><g transform="translate(-54,-270) scale(1,1)"><g><path fill="none" stroke="none"/><text fill="#000000" stroke="none" font-family="Arial" font-size="13px" font-style="normal" font-weight="normal" text-decoration="none" x="69" y="592">+SalarieChefProjet(salarie: SalarieInterface, nombreDeProjetsGeres: int)</text></g></g><g transform="translate(-54,-270) scale(1,1)"><g><path fill="none" stroke="none"/><text fill="#000000" stroke="none" font-family="Arial" font-size="13px" font-style="normal" font-weight="normal" text-decoration="none" x="69" y="607">+getSalaire(): double</text></g></g><g transform="translate(-54,-270) scale(1,1)"><rect fill="#C0C0C0" stroke="none" x="551" y="535" width="518.06298828125" height="85" opacity="0.2"/></g><g transform="translate(-54,-270) scale(1,1)"><rect fill="#ffffff" stroke="none" x="544" y="528" width="518.06298828125" height="85"/></g><g transform="translate(-54,-270) scale(1,1)"><path fill="none" stroke="#000000" d="M 544 528 L 1062.06298828125 528 L 1062.06298828125 613 L 544 613 L 544 528 Z Z" stroke-miterlimit="10"/></g><g transform="translate(-54,-270) scale(1,1)"><path fill="none" stroke="#000000" d="M 544 553 L 1062.06298828125 553" stroke-miterlimit="10"/></g><g transform="translate(-54,-270) scale(1,1)"><path fill="none" stroke="#000000" d="M 544 576 L 1062.06298828125 576" stroke-miterlimit="10"/></g><g transform="translate(-54,-270) scale(1,1)"><g><path fill="none" stroke="none"/><text fill="#000000" stroke="none" font-family="Arial" font-size="13px" font-style="normal" font-weight="bold" text-decoration="none" x="701.8720703125" y="546">SalarieResponsableDeStagiaires</text></g></g><g transform="translate(-54,-270) scale(1,1)"><g><path fill="none" stroke="none"/><text fill="#000000" stroke="none" font-family="Arial" font-size="13px" font-style="normal" font-weight="normal" text-decoration="none" x="549" y="569">-nombreStagiairesGeres: int</text></g></g><g transform="translate(-54,-270) scale(1,1)"><g><path fill="none" stroke="none"/><text fill="#000000" stroke="none" font-family="Arial" font-size="13px" font-style="normal" font-weight="normal" text-decoration="none" x="549" y="592">+SalarieResponsableDeStagiaires(salarie: SalarieInterface, nombreStagiairesGeres: int)</text></g></g><g transform="translate(-54,-270) scale(1,1)"><g><path fill="none" stroke="none"/><text fill="#000000" stroke="none" font-family="Arial" font-size="13px" font-style="normal" font-weight="normal" text-decoration="none" x="549" y="607">+getSalaire(): double</text></g></g><g transform="translate(-54,-270) scale(1,1)"><path fill="none" stroke="#000000" d="M 432 528 L 432 476" stroke-miterlimit="10" stroke-dasharray="3"/></g><g transform="translate(-54,-270) scale(1,1)"><path fill="#FFFFFF" stroke="none" d="M 440.419035512032 496.3253497152483 L 432 476 L 423.580964487968 496.3253497152483"/></g><g transform="translate(-54,-270) scale(1,1)"><path fill="none" stroke="#000000" d="M 440.419035512032 496.3253497152483 L 432 476 L 423.580964487968 496.3253497152483 L 440.419035512032 496.3253497152483" stroke-miterlimit="10"/></g><g transform="translate(-54,-270) scale(1,1)"><path fill="none" stroke="#000000" d="M 608 528 L 608 512 L 480 512 L 480 476" stroke-miterlimit="10" stroke-dasharray="3"/></g><g transform="translate(-54,-270) scale(1,1)"><path fill="#FFFFFF" stroke="none" d="M 488.419035512032 496.3253497152483 L 480 476 L 471.580964487968 496.3253497152483"/></g><g transform="translate(-54,-270) scale(1,1)"><path fill="none" stroke="#000000" d="M 488.419035512032 496.3253497152483 L 480 476 L 471.580964487968 496.3253497152483 L 488.419035512032 496.3253497152483" stroke-miterlimit="10"/></g><g transform="translate(-54,-270) scale(1,1)"><path fill="none" stroke="#000000" d="M 452 365 L 452 416" stroke-miterlimit="10" stroke-dasharray="3"/></g><g transform="translate(-54,-270) scale(1,1)"><path fill="#FFFFFF" stroke="none" d="M 443.580964487968 395.6746502847517 L 452 416 L 460.419035512032 395.6746502847517"/></g><g transform="translate(-54,-270) scale(1,1)"><path fill="none" stroke="#000000" d="M 443.580964487968 395.6746502847517 L 452 416 L 460.419035512032 395.6746502847517 L 443.580964487968 395.6746502847517" stroke-miterlimit="10"/></g><g transform="translate(-54,-270) scale(1,1)"><path fill="none" stroke="#000000" d="M 288 528 L 288 446 L 392 446" stroke-miterlimit="10"/></g><g transform="translate(-54,-270) scale(1,1)"><path fill="none" stroke="#000000" d="M 381.83732514237585 450.209517756016 L 392 446 L 381.83732514237585 441.790482243984" stroke-miterlimit="10"/></g><g transform="translate(-54,-270) scale(1,1)"><path fill="#FFFFFF" stroke="none" d="M 283.790482243984 517.8373251423759 L 288 528 L 292.209517756016 517.8373251423759 L 288 506"/></g><g transform="translate(-54,-270) scale(1,1)"><path fill="none" stroke="#000000" d="M 283.790482243984 517.8373251423759 L 288 528 L 292.209517756016 517.8373251423759 L 288 506 L 283.790482243984 517.8373251423759" stroke-miterlimit="10"/></g><g transform="translate(-54,-270) scale(1,1)"><g><path fill="none" stroke="none"/><text fill="#000000" stroke="none" font-family="Arial" font-size="13px" font-style="normal" font-weight="normal" text-decoration="none" x="344.5" y="436">-salarie</text></g></g><g transform="translate(-54,-270) scale(1,1)"><g><path fill="none" stroke="none"/><text fill="#000000" stroke="none" font-family="Arial" font-size="13px" font-style="normal" font-weight="normal" text-decoration="none" x="366.5" y="463">1</text></g></g><g transform="translate(-54,-270) scale(1,1)"><path fill="none" stroke="#000000" d="M 704 528 L 704 446 L 522 446" stroke-miterlimit="10"/></g><g transform="translate(-54,-270) scale(1,1)"><path fill="none" stroke="#000000" d="M 532.1626748576241 441.790482243984 L 522 446 L 532.1626748576241 450.209517756016" stroke-miterlimit="10"/></g><g transform="translate(-54,-270) scale(1,1)"><path fill="#FFFFFF" stroke="none" d="M 699.790482243984 517.8373251423759 L 704 528 L 708.209517756016 517.8373251423759 L 704 506"/></g><g transform="translate(-54,-270) scale(1,1)"><path fill="none" stroke="#000000" d="M 699.790482243984 517.8373251423759 L 704 528 L 708.209517756016 517.8373251423759 L 704 506 L 699.790482243984 517.8373251423759" stroke-miterlimit="10"/></g><g transform="translate(-54,-270) scale(1,1)"><g><path fill="none" stroke="none"/><text fill="#000000" stroke="none" font-family="Arial" font-size="13px" font-style="normal" font-weight="normal" text-decoration="none" x="525.5" y="465">-salarie</text></g></g><g transform="translate(-54,-270) scale(1,1)"><g><path fill="none" stroke="none"/><text fill="#000000" stroke="none" font-family="Arial" font-size="13px" font-style="normal" font-weight="normal" text-decoration="none" x="539.5" y="438">1</text></g></g></g></svg>