<svg version="1.1" xmlns="http://www.w3.org/2000/svg" xmlns:xlink="http://www.w3.org/1999/xlink" width="881.85400390625" height="353"><defs/><g><g transform="translate(-54,-270) scale(1,1)"><rect fill="#C0C0C0" stroke="none" x="383" y="287" width="150.2734375" height="85" opacity="0.2"/></g><g transform="translate(-54,-270) scale(1,1)"><rect fill="#ffffff" stroke="none" x="376" y="280" width="150.2734375" height="85"/></g><g transform="translate(-54,-270) scale(1,1)"><path fill="none" stroke="#000000" d="M 376 280 L 526.2734375 280 L 526.2734375 365 L 376 365 L 376 280 Z Z" stroke-miterlimit="10"/></g><g transform="translate(-54,-270) scale(1,1)"><path fill="none" stroke="#000000" d="M 376 305 L 526.2734375 305" stroke-miterlimit="10"/></g><g transform="translate(-54,-270) scale(1,1)"><path fill="none" stroke="#000000" d="M 376 328 L 526.2734375 328" stroke-miterlimit="10"/></g><g transform="translate(-54,-270) scale(1,1)"><g><path fill="none" stroke="none"/><text fill="#000000" stroke="none" font-family="Arial" font-size="13px" font-style="normal" font-weight="bold" text-decoration="none" x="429.81494140625" y="298">Salarie</text></g></g><g transform="translate(-54,-270) scale(1,1)"><g><path fill="none" stroke="none"/><text fill="#000000" stroke="none" font-family="Arial" font-size="13px" font-style="normal" font-weight="normal" text-decoration="none" x="381" y="321">-salaire: double</text></g></g><g transform="translate(-54,-270) scale(1,1)"><g><path fill="none" stroke="none"/><text fill="#000000" stroke="none" font-family="Arial" font-size="13px" font-style="normal" font-weight="normal" text-decoration="none" x="381" y="344">+Salaire(salaire: double)</text></g></g><g transform="translate(-54,-270) scale(1,1)"><g><path fill="none" stroke="none"/><text fill="#000000" stroke="none" font-family="Arial" font-size="13px" font-style="normal" font-weight="normal" text-decoration="none" x="381" y="359">+getSalaire(): double</text></g></g><g transform="translate(-54,-270) scale(1,1)"><rect fill="#C0C0C0" stroke="none" x="399" y="423" width="130.0498046875" height="60" opacity="0.2"/></g><g transform="translate(-54,-270) scale(1,1)"><rect fill="#ffffff" stroke="none" x="392" y="416" width="130.0498046875" height="60"/></g><g transform="translate(-54,-270) scale(1,1)"><path fill="none" stroke="#000000" d="M 392 416 L 522.0498046875 416 L 522.0498046875 476 L 392 476 L 392 416 Z Z" stroke-miterlimit="10"/></g><g transform="translate(-54,-270) scale(1,1)"><path fill="none" stroke="#000000" d="M 392 454 L 522.0498046875 454" stroke-miterlimit="10"/></g><g transform="translate(-54,-270) scale(1,1)"><g><path fill="none" stroke="none"/><text fill="#000000" stroke="none" font-family="Arial" font-size="13px" font-style="normal" font-weight="normal" text-decoration="none" x="424.864501953125" y="432">«interface»</text></g></g><g transform="translate(-54,-270) scale(1,1)"><g><path fill="none" stroke="none"/><text fill="#000000" stroke="none" font-family="Arial" font-size="13px" font-style="normal" font-weight="bold" text-decoration="none" x="430.2822265625" y="447">I_Salarie</text></g></g><g transform="translate(-54,-270) scale(1,1)"><g><path fill="none" stroke="none"/><text fill="#000000" stroke="none" font-family="Arial" font-size="13px" font-style="normal" font-weight="normal" text-decoration="none" x="397" y="470">+getSalaire(): double</text></g></g><g transform="translate(-54,-270) scale(1,1)"><rect fill="#C0C0C0" stroke="none" x="71" y="535" width="341.00146484375" height="85" opacity="0.2"/></g><g transform="translate(-54,-270) scale(1,1)"><rect fill="#ffffff" stroke="none" x="64" y="528" width="341.00146484375" height="85"/></g><g transform="translate(-54,-270) scale(1,1)"><path fill="none" stroke="#000000" d="M 64 528 L 405.00146484375 528 L 405.00146484375 613 L 64 613 L 64 528 Z Z" stroke-miterlimit="10"/></g><g transform="translate(-54,-270) scale(1,1)"><path fill="none" stroke="#000000" d="M 64 553 L 405.00146484375 553" stroke-miterlimit="10"/></g><g transform="translate(-54,-270) scale(1,1)"><path fill="none" stroke="#000000" d="M 64 576 L 405.00146484375 576" stroke-miterlimit="10"/></g><g transform="translate(-54,-270) scale(1,1)"><g><path fill="none" stroke="none"/><text fill="#000000" stroke="none" font-family="Arial" font-size="13px" font-style="normal" font-weight="bold" text-decoration="none" x="201.6357421875" y="546">ChefProjet</text></g></g><g transform="translate(-54,-270) scale(1,1)"><g><path fill="none" stroke="none"/><text fill="#000000" stroke="none" font-family="Arial" font-size="13px" font-style="normal" font-weight="normal" text-decoration="none" x="69" y="569">-nombreDeProjetsGeres: int</text></g></g><g transform="translate(-54,-270) scale(1,1)"><g><path fill="none" stroke="none"/><text fill="#000000" stroke="none" font-family="Arial" font-size="13px" font-style="normal" font-weight="normal" text-decoration="none" x="69" y="592">+ChefProjet(salarie: I_Salrie, nombreDeProjetsGeres: int)</text></g></g><g transform="translate(-54,-270) scale(1,1)"><g><path fill="none" stroke="none"/><text fill="#000000" stroke="none" font-family="Arial" font-size="13px" font-style="normal" font-weight="normal" text-decoration="none" x="69" y="607">+getSalaire(): double</text></g></g><g transform="translate(-54,-270) scale(1,1)"><rect fill="#C0C0C0" stroke="none" x="495" y="527" width="437.85400390625" height="85" opacity="0.2"/></g><g transform="translate(-54,-270) scale(1,1)"><rect fill="#ffffff" stroke="none" x="488" y="520" width="437.85400390625" height="85"/></g><g transform="translate(-54,-270) scale(1,1)"><path fill="none" stroke="#000000" d="M 488 520 L 925.85400390625 520 L 925.85400390625 605 L 488 605 L 488 520 Z Z" stroke-miterlimit="10"/></g><g transform="translate(-54,-270) scale(1,1)"><path fill="none" stroke="#000000" d="M 488 545 L 925.85400390625 545" stroke-miterlimit="10"/></g><g transform="translate(-54,-270) scale(1,1)"><path fill="none" stroke="#000000" d="M 488 568 L 925.85400390625 568" stroke-miterlimit="10"/></g><g transform="translate(-54,-270) scale(1,1)"><g><path fill="none" stroke="none"/><text fill="#000000" stroke="none" font-family="Arial" font-size="13px" font-style="normal" font-weight="bold" text-decoration="none" x="627.08935546875" y="538">ResponsableDeStagiaires</text></g></g><g transform="translate(-54,-270) scale(1,1)"><g><path fill="none" stroke="none"/><text fill="#000000" stroke="none" font-family="Arial" font-size="13px" font-style="normal" font-weight="normal" text-decoration="none" x="493" y="561">-nombreStagiairesGeres: int</text></g></g><g transform="translate(-54,-270) scale(1,1)"><g><path fill="none" stroke="none"/><text fill="#000000" stroke="none" font-family="Arial" font-size="13px" font-style="normal" font-weight="normal" text-decoration="none" x="493" y="584">+ResponsableDeStagiaires(salarie: I_Salarie, nombreStagiairesGeres: int)</text></g></g><g transform="translate(-54,-270) scale(1,1)"><g><path fill="none" stroke="none"/><text fill="#000000" stroke="none" font-family="Arial" font-size="13px" font-style="normal" font-weight="normal" text-decoration="none" x="493" y="599">+getSalaire(): double</text></g></g><g transform="translate(-54,-270) scale(1,1)"><path fill="none" stroke="#000000" d="M 405 536 L 432 536 L 432 476" stroke-miterlimit="10" stroke-dasharray="3"/></g><g transform="translate(-54,-270) scale(1,1)"><path fill="#FFFFFF" stroke="none" d="M 440.419035512032 496.3253497152483 L 432 476 L 423.580964487968 496.3253497152483"/></g><g transform="translate(-54,-270) scale(1,1)"><path fill="none" stroke="#000000" d="M 440.419035512032 496.3253497152483 L 432 476 L 423.580964487968 496.3253497152483 L 440.419035512032 496.3253497152483" stroke-miterlimit="10"/></g><g transform="translate(-54,-270) scale(1,1)"><path fill="none" stroke="#000000" d="M 488 536 L 464 536 L 464 476" stroke-miterlimit="10" stroke-dasharray="3"/></g><g transform="translate(-54,-270) scale(1,1)"><path fill="#FFFFFF" stroke="none" d="M 472.419035512032 496.3253497152483 L 464 476 L 455.580964487968 496.3253497152483"/></g><g transform="translate(-54,-270) scale(1,1)"><path fill="none" stroke="#000000" d="M 472.419035512032 496.3253497152483 L 464 476 L 455.580964487968 496.3253497152483 L 472.419035512032 496.3253497152483" stroke-miterlimit="10"/></g><g transform="translate(-54,-270) scale(1,1)"><path fill="none" stroke="#000000" d="M 452 365 L 452 416" stroke-miterlimit="10" stroke-dasharray="3"/></g><g transform="translate(-54,-270) scale(1,1)"><path fill="#FFFFFF" stroke="none" d="M 443.580964487968 395.6746502847517 L 452 416 L 460.419035512032 395.6746502847517"/></g><g transform="translate(-54,-270) scale(1,1)"><path fill="none" stroke="#000000" d="M 443.580964487968 395.6746502847517 L 452 416 L 460.419035512032 395.6746502847517 L 443.580964487968 395.6746502847517" stroke-miterlimit="10"/></g><g transform="translate(-54,-270) scale(1,1)"><path fill="none" stroke="#000000" d="M 288 528 L 288 446 L 392 446" stroke-miterlimit="10"/></g><g transform="translate(-54,-270) scale(1,1)"><path fill="none" stroke="#000000" d="M 381.83732514237585 450.209517756016 L 392 446 L 381.83732514237585 441.790482243984" stroke-miterlimit="10"/></g><g transform="translate(-54,-270) scale(1,1)"><path fill="#FFFFFF" stroke="none" d="M 283.790482243984 517.8373251423759 L 288 528 L 292.209517756016 517.8373251423759 L 288 506"/></g><g transform="translate(-54,-270) scale(1,1)"><path fill="none" stroke="#000000" d="M 283.790482243984 517.8373251423759 L 288 528 L 292.209517756016 517.8373251423759 L 288 506 L 283.790482243984 517.8373251423759" stroke-miterlimit="10"/></g><g transform="translate(-54,-270) scale(1,1)"><g><path fill="none" stroke="none"/><text fill="#000000" stroke="none" font-family="Arial" font-size="13px" font-style="normal" font-weight="normal" text-decoration="none" x="344.5" y="436">-salarie</text></g></g><g transform="translate(-54,-270) scale(1,1)"><g><path fill="none" stroke="none"/><text fill="#000000" stroke="none" font-family="Arial" font-size="13px" font-style="normal" font-weight="normal" text-decoration="none" x="366.5" y="463">1</text></g></g><g transform="translate(-54,-270) scale(1,1)"><path fill="none" stroke="#000000" d="M 704 520 L 704 446 L 522 446" stroke-miterlimit="10"/></g><g transform="translate(-54,-270) scale(1,1)"><path fill="none" stroke="#000000" d="M 532.1626748576241 441.790482243984 L 522 446 L 532.1626748576241 450.209517756016" stroke-miterlimit="10"/></g><g transform="translate(-54,-270) scale(1,1)"><path fill="#FFFFFF" stroke="none" d="M 699.790482243984 509.83732514237585 L 704 520 L 708.209517756016 509.83732514237585 L 704 498"/></g><g transform="translate(-54,-270) scale(1,1)"><path fill="none" stroke="#000000" d="M 699.790482243984 509.83732514237585 L 704 520 L 708.209517756016 509.83732514237585 L 704 498 L 699.790482243984 509.83732514237585" stroke-miterlimit="10"/></g><g transform="translate(-54,-270) scale(1,1)"><g><path fill="none" stroke="none"/><text fill="#000000" stroke="none" font-family="Arial" font-size="13px" font-style="normal" font-weight="normal" text-decoration="none" x="525.5" y="465">-salarie</text></g></g><g transform="translate(-54,-270) scale(1,1)"><g><path fill="none" stroke="none"/><text fill="#000000" stroke="none" font-family="Arial" font-size="13px" font-style="normal" font-weight="normal" text-decoration="none" x="539.5" y="438">1</text></g></g></g></svg>