<svg version="1.1" xmlns="http://www.w3.org/2000/svg" xmlns:xlink="http://www.w3.org/1999/xlink" width="923.0205078125" height="489"><defs/><g><g transform="translate(-150,-238) scale(1,1)"><rect fill="#C0C0C0" stroke="none" x="703" y="639" width="367.0205078125" height="85" opacity="0.2"/></g><g transform="translate(-150,-238) scale(1,1)"><rect fill="#ffffff" stroke="none" x="696" y="632" width="367.0205078125" height="85"/></g><g transform="translate(-150,-238) scale(1,1)"><path fill="none" stroke="#000000" d="M 696 632 L 1063.0205078125 632 L 1063.0205078125 717 L 696 717 L 696 632 Z Z" stroke-miterlimit="10"/></g><g transform="translate(-150,-238) scale(1,1)"><path fill="none" stroke="#000000" d="M 696 657 L 1063.0205078125 657" stroke-miterlimit="10"/></g><g transform="translate(-150,-238) scale(1,1)"><path fill="none" stroke="#000000" d="M 696 680 L 1063.0205078125 680" stroke-miterlimit="10"/></g><g transform="translate(-150,-238) scale(1,1)"><g><path fill="none" stroke="none"/><text fill="#000000" stroke="none" font-family="Arial" font-size="13px" font-style="normal" font-weight="bold" text-decoration="none" x="825.323486328125" y="650">SalarieChefProjet</text></g></g><g transform="translate(-150,-238) scale(1,1)"><g><path fill="none" stroke="none"/><text fill="#000000" stroke="none" font-family="Arial" font-size="13px" font-style="normal" font-weight="normal" text-decoration="none" x="701" y="673">-nombreDeProjetsGeres: int</text></g></g><g transform="translate(-150,-238) scale(1,1)"><g><path fill="none" stroke="none"/><text fill="#000000" stroke="none" font-family="Arial" font-size="13px" font-style="normal" font-weight="normal" text-decoration="none" x="701" y="696">+Salarie(salarie: SalarieInterface, nombreDeProjetsGeres: int)</text></g></g><g transform="translate(-150,-238) scale(1,1)"><g><path fill="none" stroke="none"/><text fill="#000000" stroke="none" font-family="Arial" font-size="13px" font-style="normal" font-weight="normal" text-decoration="none" x="701" y="711">+getSalaire(): double</text></g></g><g transform="translate(-150,-238) scale(1,1)"><rect fill="#C0C0C0" stroke="none" x="167" y="639" width="518.06298828125" height="85" opacity="0.2"/></g><g transform="translate(-150,-238) scale(1,1)"><rect fill="#ffffff" stroke="none" x="160" y="632" width="518.06298828125" height="85"/></g><g transform="translate(-150,-238) scale(1,1)"><path fill="none" stroke="#000000" d="M 160 632 L 678.06298828125 632 L 678.06298828125 717 L 160 717 L 160 632 Z Z" stroke-miterlimit="10"/></g><g transform="translate(-150,-238) scale(1,1)"><path fill="none" stroke="#000000" d="M 160 657 L 678.06298828125 657" stroke-miterlimit="10"/></g><g transform="translate(-150,-238) scale(1,1)"><path fill="none" stroke="#000000" d="M 160 680 L 678.06298828125 680" stroke-miterlimit="10"/></g><g transform="translate(-150,-238) scale(1,1)"><g><path fill="none" stroke="none"/><text fill="#000000" stroke="none" font-family="Arial" font-size="13px" font-style="normal" font-weight="bold" text-decoration="none" x="317.8720703125" y="650">SalarieResponsableDeStagiaires</text></g></g><g transform="translate(-150,-238) scale(1,1)"><g><path fill="none" stroke="none"/><text fill="#000000" stroke="none" font-family="Arial" font-size="13px" font-style="normal" font-weight="normal" text-decoration="none" x="165" y="673">-nombreStagiairesGeres: int</text></g></g><g transform="translate(-150,-238) scale(1,1)"><g><path fill="none" stroke="none"/><text fill="#000000" stroke="none" font-family="Arial" font-size="13px" font-style="normal" font-weight="normal" text-decoration="none" x="165" y="696">+SalarieResponsableDeStagiaires(salarie: SalarieInterface, nombreStagiairesGeres: int)</text></g></g><g transform="translate(-150,-238) scale(1,1)"><g><path fill="none" stroke="none"/><text fill="#000000" stroke="none" font-family="Arial" font-size="13px" font-style="normal" font-weight="normal" text-decoration="none" x="165" y="711">+getSalaire(): double</text></g></g><g transform="translate(-150,-238) scale(1,1)"><rect fill="#C0C0C0" stroke="none" x="503" y="255" width="150.2734375" height="85" opacity="0.2"/></g><g transform="translate(-150,-238) scale(1,1)"><rect fill="#ffffff" stroke="none" x="496" y="248" width="150.2734375" height="85"/></g><g transform="translate(-150,-238) scale(1,1)"><path fill="none" stroke="#000000" d="M 496 248 L 646.2734375 248 L 646.2734375 333 L 496 333 L 496 248 Z Z" stroke-miterlimit="10"/></g><g transform="translate(-150,-238) scale(1,1)"><path fill="none" stroke="#000000" d="M 496 273 L 646.2734375 273" stroke-miterlimit="10"/></g><g transform="translate(-150,-238) scale(1,1)"><path fill="none" stroke="#000000" d="M 496 296 L 646.2734375 296" stroke-miterlimit="10"/></g><g transform="translate(-150,-238) scale(1,1)"><g><path fill="none" stroke="none"/><text fill="#000000" stroke="none" font-family="Arial" font-size="13px" font-style="normal" font-weight="bold" text-decoration="none" x="549.81494140625" y="266">Salarie</text></g></g><g transform="translate(-150,-238) scale(1,1)"><g><path fill="none" stroke="none"/><text fill="#000000" stroke="none" font-family="Arial" font-size="13px" font-style="normal" font-weight="normal" text-decoration="none" x="501" y="289">-salaire: double</text></g></g><g transform="translate(-150,-238) scale(1,1)"><g><path fill="none" stroke="none"/><text fill="#000000" stroke="none" font-family="Arial" font-size="13px" font-style="normal" font-weight="normal" text-decoration="none" x="501" y="312">+Salaire(salaire: double)</text></g></g><g transform="translate(-150,-238) scale(1,1)"><g><path fill="none" stroke="none"/><text fill="#000000" stroke="none" font-family="Arial" font-size="13px" font-style="normal" font-weight="normal" text-decoration="none" x="501" y="327">+getSalaire(): double</text></g></g><g transform="translate(-150,-238) scale(1,1)"><rect fill="#C0C0C0" stroke="none" x="511" y="407" width="130.0498046875" height="60" opacity="0.2"/></g><g transform="translate(-150,-238) scale(1,1)"><rect fill="#ffffff" stroke="none" x="504" y="400" width="130.0498046875" height="60"/></g><g transform="translate(-150,-238) scale(1,1)"><path fill="none" stroke="#000000" d="M 504 400 L 634.0498046875 400 L 634.0498046875 460 L 504 460 L 504 400 Z Z" stroke-miterlimit="10"/></g><g transform="translate(-150,-238) scale(1,1)"><path fill="none" stroke="#000000" d="M 504 438 L 634.0498046875 438" stroke-miterlimit="10"/></g><g transform="translate(-150,-238) scale(1,1)"><g><path fill="none" stroke="none"/><text fill="#000000" stroke="none" font-family="Arial" font-size="13px" font-style="normal" font-weight="normal" text-decoration="none" x="536.864501953125" y="416">«interface»</text></g></g><g transform="translate(-150,-238) scale(1,1)"><g><path fill="none" stroke="none"/><text fill="#000000" stroke="none" font-family="Arial" font-size="13px" font-style="normal" font-weight="bold" text-decoration="none" x="520.608154296875" y="431">SalarieInterface</text></g></g><g transform="translate(-150,-238) scale(1,1)"><g><path fill="none" stroke="none"/><text fill="#000000" stroke="none" font-family="Arial" font-size="13px" font-style="normal" font-weight="normal" text-decoration="none" x="509" y="454">+getSalaire(): double</text></g></g><g transform="translate(-150,-238) scale(1,1)"><rect fill="#C0C0C0" stroke="none" x="447" y="519" width="259.3642578125" height="72" opacity="0.2"/></g><g transform="translate(-150,-238) scale(1,1)"><rect fill="#ffffff" stroke="none" x="440" y="512" width="259.3642578125" height="72"/></g><g transform="translate(-150,-238) scale(1,1)"><path fill="none" stroke="#000000" d="M 440 512 L 699.3642578125 512 L 699.3642578125 584 L 440 584 L 440 512 Z Z" stroke-miterlimit="10"/></g><g transform="translate(-150,-238) scale(1,1)"><path fill="none" stroke="#000000" d="M 440 537 L 699.3642578125 537" stroke-miterlimit="10"/></g><g transform="translate(-150,-238) scale(1,1)"><path fill="none" stroke="#000000" d="M 440 547 L 699.3642578125 547" stroke-miterlimit="10"/></g><g transform="translate(-150,-238) scale(1,1)"><g><path fill="none" stroke="none"/><text fill="#000000" stroke="none" font-family="Arial" font-size="13px" font-style="italic" font-weight="bold" text-decoration="none" x="514.041748046875" y="529.5">SalarieDecorateur</text></g></g><g transform="translate(-150,-238) scale(1,1)"><g><path fill="none" stroke="none"/><text fill="#000000" stroke="none" font-family="Arial" font-size="13px" font-style="normal" font-weight="normal" text-decoration="none" x="445" y="563">+SalarieDecorator(salarie: SalarieInterface)</text></g></g><g transform="translate(-150,-238) scale(1,1)"><g><path fill="none" stroke="none"/><text fill="#000000" stroke="none" font-family="Arial" font-size="13px" font-style="normal" font-weight="normal" text-decoration="none" x="445" y="578">+getSalaire(): double</text></g></g><g transform="translate(-150,-238) scale(1,1)"><path fill="none" stroke="#000000" d="M 569 512 L 569 460" stroke-miterlimit="10"/></g><g transform="translate(-150,-238) scale(1,1)"><path fill="none" stroke="#000000" d="M 573.209517756016 470.16267485762415 L 569 460 L 564.790482243984 470.16267485762415" stroke-miterlimit="10"/></g><g transform="translate(-150,-238) scale(1,1)"><path fill="#FFFFFF" stroke="none" d="M 564.790482243984 501.83732514237585 L 569 512 L 573.209517756016 501.83732514237585 L 569 490"/></g><g transform="translate(-150,-238) scale(1,1)"><path fill="none" stroke="#000000" d="M 564.790482243984 501.83732514237585 L 569 512 L 573.209517756016 501.83732514237585 L 569 490 L 564.790482243984 501.83732514237585" stroke-miterlimit="10"/></g><g transform="translate(-150,-238) scale(1,1)"><g><path fill="none" stroke="none"/><text fill="#000000" stroke="none" font-family="Arial" font-size="13px" font-style="normal" font-weight="normal" text-decoration="none" x="509.950439453125" y="482">-salarie</text></g></g><g transform="translate(-150,-238) scale(1,1)"><g><path fill="none" stroke="none"/><text fill="#000000" stroke="none" font-family="Arial" font-size="13px" font-style="normal" font-weight="normal" text-decoration="none" x="583.5" y="482">1</text></g></g><g transform="translate(-150,-238) scale(1,1)"><path fill="none" stroke="#000000" d="M 376 632 L 376 552 L 440 552" stroke-miterlimit="10"/></g><g transform="translate(-150,-238) scale(1,1)"><path fill="#FFFFFF" stroke="none" d="M 419.6746502847517 560.419035512032 L 440 552 L 419.6746502847517 543.580964487968"/></g><g transform="translate(-150,-238) scale(1,1)"><path fill="none" stroke="#000000" d="M 419.6746502847517 560.419035512032 L 440 552 L 419.6746502847517 543.580964487968 L 419.6746502847517 560.419035512032" stroke-miterlimit="10"/></g><g transform="translate(-150,-238) scale(1,1)"><path fill="none" stroke="#000000" d="M 784 632 L 784 560 L 699 560" stroke-miterlimit="10"/></g><g transform="translate(-150,-238) scale(1,1)"><path fill="#FFFFFF" stroke="none" d="M 719.3253497152483 551.580964487968 L 699 560 L 719.3253497152483 568.419035512032"/></g><g transform="translate(-150,-238) scale(1,1)"><path fill="none" stroke="#000000" d="M 719.3253497152483 551.580964487968 L 699 560 L 719.3253497152483 568.419035512032 L 719.3253497152483 551.580964487968" stroke-miterlimit="10"/></g><g transform="translate(-150,-238) scale(1,1)"><path fill="none" stroke="#000000" d="M 672 512 L 672 424 L 634 424" stroke-miterlimit="10" stroke-dasharray="3"/></g><g transform="translate(-150,-238) scale(1,1)"><path fill="#FFFFFF" stroke="none" d="M 654.3253497152483 415.580964487968 L 634 424 L 654.3253497152483 432.419035512032"/></g><g transform="translate(-150,-238) scale(1,1)"><path fill="none" stroke="#000000" d="M 654.3253497152483 415.580964487968 L 634 424 L 654.3253497152483 432.419035512032 L 654.3253497152483 415.580964487968" stroke-miterlimit="10"/></g><g transform="translate(-150,-238) scale(1,1)"><path fill="none" stroke="#000000" d="M 570 333 L 570 400" stroke-miterlimit="10" stroke-dasharray="3"/></g><g transform="translate(-150,-238) scale(1,1)"><path fill="#FFFFFF" stroke="none" d="M 561.580964487968 379.6746502847517 L 570 400 L 578.419035512032 379.6746502847517"/></g><g transform="translate(-150,-238) scale(1,1)"><path fill="none" stroke="#000000" d="M 561.580964487968 379.6746502847517 L 570 400 L 578.419035512032 379.6746502847517 L 561.580964487968 379.6746502847517" stroke-miterlimit="10"/></g></g></svg>