<svg version="1.1" xmlns="http://www.w3.org/2000/svg" xmlns:xlink="http://www.w3.org/1999/xlink" width="849.00146484375" height="489"><defs/><g><g transform="translate(-94,-238) scale(1,1)"><rect fill="#C0C0C0" stroke="none" x="599" y="639" width="341.00146484375" height="85" opacity="0.2"/></g><g transform="translate(-94,-238) scale(1,1)"><rect fill="#ffffff" stroke="none" x="592" y="632" width="341.00146484375" height="85"/></g><g transform="translate(-94,-238) scale(1,1)"><path fill="none" stroke="#000000" d="M 592 632 L 933.00146484375 632 L 933.00146484375 717 L 592 717 L 592 632 Z Z" stroke-miterlimit="10"/></g><g transform="translate(-94,-238) scale(1,1)"><path fill="none" stroke="#000000" d="M 592 657 L 933.00146484375 657" stroke-miterlimit="10"/></g><g transform="translate(-94,-238) scale(1,1)"><path fill="none" stroke="#000000" d="M 592 680 L 933.00146484375 680" stroke-miterlimit="10"/></g><g transform="translate(-94,-238) scale(1,1)"><g><path fill="none" stroke="none"/><text fill="#000000" stroke="none" font-family="Arial" font-size="13px" font-style="normal" font-weight="bold" text-decoration="none" x="729.6357421875" y="650">ChefProjet</text></g></g><g transform="translate(-94,-238) scale(1,1)"><g><path fill="none" stroke="none"/><text fill="#000000" stroke="none" font-family="Arial" font-size="13px" font-style="normal" font-weight="normal" text-decoration="none" x="597" y="673">-nombreDeProjetsGeres: int</text></g></g><g transform="translate(-94,-238) scale(1,1)"><g><path fill="none" stroke="none"/><text fill="#000000" stroke="none" font-family="Arial" font-size="13px" font-style="normal" font-weight="normal" text-decoration="none" x="597" y="696">+ChefProjet(salarie: I_Salrie, nombreDeProjetsGeres: int)</text></g></g><g transform="translate(-94,-238) scale(1,1)"><g><path fill="none" stroke="none"/><text fill="#000000" stroke="none" font-family="Arial" font-size="13px" font-style="normal" font-weight="normal" text-decoration="none" x="597" y="711">+getSalaire(): double</text></g></g><g transform="translate(-94,-238) scale(1,1)"><rect fill="#C0C0C0" stroke="none" x="111" y="639" width="437.85400390625" height="85" opacity="0.2"/></g><g transform="translate(-94,-238) scale(1,1)"><rect fill="#ffffff" stroke="none" x="104" y="632" width="437.85400390625" height="85"/></g><g transform="translate(-94,-238) scale(1,1)"><path fill="none" stroke="#000000" d="M 104 632 L 541.85400390625 632 L 541.85400390625 717 L 104 717 L 104 632 Z Z" stroke-miterlimit="10"/></g><g transform="translate(-94,-238) scale(1,1)"><path fill="none" stroke="#000000" d="M 104 657 L 541.85400390625 657" stroke-miterlimit="10"/></g><g transform="translate(-94,-238) scale(1,1)"><path fill="none" stroke="#000000" d="M 104 680 L 541.85400390625 680" stroke-miterlimit="10"/></g><g transform="translate(-94,-238) scale(1,1)"><g><path fill="none" stroke="none"/><text fill="#000000" stroke="none" font-family="Arial" font-size="13px" font-style="normal" font-weight="bold" text-decoration="none" x="243.08935546875" y="650">ResponsableDeStagiaires</text></g></g><g transform="translate(-94,-238) scale(1,1)"><g><path fill="none" stroke="none"/><text fill="#000000" stroke="none" font-family="Arial" font-size="13px" font-style="normal" font-weight="normal" text-decoration="none" x="109" y="673">-nombreStagiairesGeres: int</text></g></g><g transform="translate(-94,-238) scale(1,1)"><g><path fill="none" stroke="none"/><text fill="#000000" stroke="none" font-family="Arial" font-size="13px" font-style="normal" font-weight="normal" text-decoration="none" x="109" y="696">+ResponsableDeStagiaires(salarie: I_Salarie, nombreStagiairesGeres: int)</text></g></g><g transform="translate(-94,-238) scale(1,1)"><g><path fill="none" stroke="none"/><text fill="#000000" stroke="none" font-family="Arial" font-size="13px" font-style="normal" font-weight="normal" text-decoration="none" x="109" y="711">+getSalaire(): double</text></g></g><g transform="translate(-94,-238) scale(1,1)"><rect fill="#C0C0C0" stroke="none" x="503" y="255" width="150.2734375" height="85" opacity="0.2"/></g><g transform="translate(-94,-238) scale(1,1)"><rect fill="#ffffff" stroke="none" x="496" y="248" width="150.2734375" height="85"/></g><g transform="translate(-94,-238) scale(1,1)"><path fill="none" stroke="#000000" d="M 496 248 L 646.2734375 248 L 646.2734375 333 L 496 333 L 496 248 Z Z" stroke-miterlimit="10"/></g><g transform="translate(-94,-238) scale(1,1)"><path fill="none" stroke="#000000" d="M 496 273 L 646.2734375 273" stroke-miterlimit="10"/></g><g transform="translate(-94,-238) scale(1,1)"><path fill="none" stroke="#000000" d="M 496 296 L 646.2734375 296" stroke-miterlimit="10"/></g><g transform="translate(-94,-238) scale(1,1)"><g><path fill="none" stroke="none"/><text fill="#000000" stroke="none" font-family="Arial" font-size="13px" font-style="normal" font-weight="bold" text-decoration="none" x="549.81494140625" y="266">Salarie</text></g></g><g transform="translate(-94,-238) scale(1,1)"><g><path fill="none" stroke="none"/><text fill="#000000" stroke="none" font-family="Arial" font-size="13px" font-style="normal" font-weight="normal" text-decoration="none" x="501" y="289">-salaire: double</text></g></g><g transform="translate(-94,-238) scale(1,1)"><g><path fill="none" stroke="none"/><text fill="#000000" stroke="none" font-family="Arial" font-size="13px" font-style="normal" font-weight="normal" text-decoration="none" x="501" y="312">+Salaire(salaire: double)</text></g></g><g transform="translate(-94,-238) scale(1,1)"><g><path fill="none" stroke="none"/><text fill="#000000" stroke="none" font-family="Arial" font-size="13px" font-style="normal" font-weight="normal" text-decoration="none" x="501" y="327">+getSalaire(): double</text></g></g><g transform="translate(-94,-238) scale(1,1)"><rect fill="#C0C0C0" stroke="none" x="511" y="407" width="130.0498046875" height="60" opacity="0.2"/></g><g transform="translate(-94,-238) scale(1,1)"><rect fill="#ffffff" stroke="none" x="504" y="400" width="130.0498046875" height="60"/></g><g transform="translate(-94,-238) scale(1,1)"><path fill="none" stroke="#000000" d="M 504 400 L 634.0498046875 400 L 634.0498046875 460 L 504 460 L 504 400 Z Z" stroke-miterlimit="10"/></g><g transform="translate(-94,-238) scale(1,1)"><path fill="none" stroke="#000000" d="M 504 438 L 634.0498046875 438" stroke-miterlimit="10"/></g><g transform="translate(-94,-238) scale(1,1)"><g><path fill="none" stroke="none"/><text fill="#000000" stroke="none" font-family="Arial" font-size="13px" font-style="normal" font-weight="normal" text-decoration="none" x="536.864501953125" y="416">«interface»</text></g></g><g transform="translate(-94,-238) scale(1,1)"><g><path fill="none" stroke="none"/><text fill="#000000" stroke="none" font-family="Arial" font-size="13px" font-style="normal" font-weight="bold" text-decoration="none" x="542.2822265625" y="431">I_Salarie</text></g></g><g transform="translate(-94,-238) scale(1,1)"><g><path fill="none" stroke="none"/><text fill="#000000" stroke="none" font-family="Arial" font-size="13px" font-style="normal" font-weight="normal" text-decoration="none" x="509" y="454">+getSalaire(): double</text></g></g><g transform="translate(-94,-238) scale(1,1)"><rect fill="#C0C0C0" stroke="none" x="479" y="519" width="219.62158203125" height="72" opacity="0.2"/></g><g transform="translate(-94,-238) scale(1,1)"><rect fill="#ffffff" stroke="none" x="472" y="512" width="219.62158203125" height="72"/></g><g transform="translate(-94,-238) scale(1,1)"><path fill="none" stroke="#000000" d="M 472 512 L 691.62158203125 512 L 691.62158203125 584 L 472 584 L 472 512 Z Z" stroke-miterlimit="10"/></g><g transform="translate(-94,-238) scale(1,1)"><path fill="none" stroke="#000000" d="M 472 537 L 691.62158203125 537" stroke-miterlimit="10"/></g><g transform="translate(-94,-238) scale(1,1)"><path fill="none" stroke="#000000" d="M 472 547 L 691.62158203125 547" stroke-miterlimit="10"/></g><g transform="translate(-94,-238) scale(1,1)"><g><path fill="none" stroke="none"/><text fill="#000000" stroke="none" font-family="Arial" font-size="13px" font-style="italic" font-weight="bold" text-decoration="none" x="529.785400390625" y="529.5">SalarieDecorator</text></g></g><g transform="translate(-94,-238) scale(1,1)"><g><path fill="none" stroke="none"/><text fill="#000000" stroke="none" font-family="Arial" font-size="13px" font-style="normal" font-weight="normal" text-decoration="none" x="477" y="563">+SalarieDecorator(salarie: I_Salarie)</text></g></g><g transform="translate(-94,-238) scale(1,1)"><g><path fill="none" stroke="none"/><text fill="#000000" stroke="none" font-family="Arial" font-size="13px" font-style="normal" font-weight="normal" text-decoration="none" x="477" y="578">+getSalaire(): double</text></g></g><g transform="translate(-94,-238) scale(1,1)"><path fill="none" stroke="#000000" d="M 569 512 L 569 460" stroke-miterlimit="10"/></g><g transform="translate(-94,-238) scale(1,1)"><path fill="none" stroke="#000000" d="M 573.209517756016 470.16267485762415 L 569 460 L 564.790482243984 470.16267485762415" stroke-miterlimit="10"/></g><g transform="translate(-94,-238) scale(1,1)"><path fill="#FFFFFF" stroke="none" d="M 564.790482243984 501.83732514237585 L 569 512 L 573.209517756016 501.83732514237585 L 569 490"/></g><g transform="translate(-94,-238) scale(1,1)"><path fill="none" stroke="#000000" d="M 564.790482243984 501.83732514237585 L 569 512 L 573.209517756016 501.83732514237585 L 569 490 L 564.790482243984 501.83732514237585" stroke-miterlimit="10"/></g><g transform="translate(-94,-238) scale(1,1)"><g><path fill="none" stroke="none"/><text fill="#000000" stroke="none" font-family="Arial" font-size="13px" font-style="normal" font-weight="normal" text-decoration="none" x="508.5" y="482">#salarie</text></g></g><g transform="translate(-94,-238) scale(1,1)"><g><path fill="none" stroke="none"/><text fill="#000000" stroke="none" font-family="Arial" font-size="13px" font-style="normal" font-weight="normal" text-decoration="none" x="583.5" y="482">1</text></g></g><g transform="translate(-94,-238) scale(1,1)"><path fill="none" stroke="#000000" d="M 523 632 L 523 584" stroke-miterlimit="10"/></g><g transform="translate(-94,-238) scale(1,1)"><path fill="#FFFFFF" stroke="none" d="M 531.419035512032 604.3253497152483 L 523 584 L 514.580964487968 604.3253497152483"/></g><g transform="translate(-94,-238) scale(1,1)"><path fill="none" stroke="#000000" d="M 531.419035512032 604.3253497152483 L 523 584 L 514.580964487968 604.3253497152483 L 531.419035512032 604.3253497152483" stroke-miterlimit="10"/></g><g transform="translate(-94,-238) scale(1,1)"><path fill="none" stroke="#000000" d="M 622 632 L 622 584" stroke-miterlimit="10"/></g><g transform="translate(-94,-238) scale(1,1)"><path fill="#FFFFFF" stroke="none" d="M 630.419035512032 604.3253497152483 L 622 584 L 613.580964487968 604.3253497152483"/></g><g transform="translate(-94,-238) scale(1,1)"><path fill="none" stroke="#000000" d="M 630.419035512032 604.3253497152483 L 622 584 L 613.580964487968 604.3253497152483 L 630.419035512032 604.3253497152483" stroke-miterlimit="10"/></g><g transform="translate(-94,-238) scale(1,1)"><path fill="none" stroke="#000000" d="M 672 512 L 672 424 L 634 424" stroke-miterlimit="10" stroke-dasharray="3"/></g><g transform="translate(-94,-238) scale(1,1)"><path fill="#FFFFFF" stroke="none" d="M 654.3253497152483 415.580964487968 L 634 424 L 654.3253497152483 432.419035512032"/></g><g transform="translate(-94,-238) scale(1,1)"><path fill="none" stroke="#000000" d="M 654.3253497152483 415.580964487968 L 634 424 L 654.3253497152483 432.419035512032 L 654.3253497152483 415.580964487968" stroke-miterlimit="10"/></g><g transform="translate(-94,-238) scale(1,1)"><path fill="none" stroke="#000000" d="M 570 333 L 570 400" stroke-miterlimit="10" stroke-dasharray="3"/></g><g transform="translate(-94,-238) scale(1,1)"><path fill="#FFFFFF" stroke="none" d="M 561.580964487968 379.6746502847517 L 570 400 L 578.419035512032 379.6746502847517"/></g><g transform="translate(-94,-238) scale(1,1)"><path fill="none" stroke="#000000" d="M 561.580964487968 379.6746502847517 L 570 400 L 578.419035512032 379.6746502847517 L 561.580964487968 379.6746502847517" stroke-miterlimit="10"/></g></g></svg>