<svg version="1.1" xmlns="http://www.w3.org/2000/svg" xmlns:xlink="http://www.w3.org/1999/xlink" width="568.5830078125" height="355"><defs/><g><g transform="translate(-30,-54) scale(1,1)"><rect fill="#C0C0C0" stroke="none" x="247" y="175" width="125.6826171875" height="85" opacity="0.2"/></g><g transform="translate(-30,-54) scale(1,1)"><rect fill="#ffffff" stroke="none" x="240" y="168" width="125.6826171875" height="85"/></g><g transform="translate(-30,-54) scale(1,1)"><path fill="none" stroke="#000000" d="M 240 168 L 365.6826171875 168 L 365.6826171875 253 L 240 253 L 240 168 Z Z" stroke-miterlimit="10"/></g><g transform="translate(-30,-54) scale(1,1)"><path fill="none" stroke="#000000" d="M 240 193 L 365.6826171875 193" stroke-miterlimit="10"/></g><g transform="translate(-30,-54) scale(1,1)"><path fill="none" stroke="#000000" d="M 240 216 L 365.6826171875 216" stroke-miterlimit="10"/></g><g transform="translate(-30,-54) scale(1,1)"><g><path fill="none" stroke="none"/><text fill="#000000" stroke="none" font-family="Arial" font-size="13px" font-style="normal" font-weight="bold" text-decoration="none" x="284.42041015625" y="186">Projet</text></g></g><g transform="translate(-30,-54) scale(1,1)"><g><path fill="none" stroke="none"/><text fill="#000000" stroke="none" font-family="Arial" font-size="13px" font-style="normal" font-weight="normal" text-decoration="none" x="245" y="209">-nom: String</text></g></g><g transform="translate(-30,-54) scale(1,1)"><g><path fill="none" stroke="none"/><text fill="#000000" stroke="none" font-family="Arial" font-size="13px" font-style="normal" font-weight="normal" text-decoration="none" x="245" y="232">+Projet(nom: String)</text></g></g><g transform="translate(-30,-54) scale(1,1)"><g><path fill="none" stroke="none"/><text fill="#000000" stroke="none" font-family="Arial" font-size="13px" font-style="normal" font-weight="normal" text-decoration="none" x="245" y="247">+exporter()</text></g></g><g transform="translate(-30,-54) scale(1,1)"><rect fill="#C0C0C0" stroke="none" x="47" y="319" width="260.5830078125" height="87" opacity="0.2"/></g><g transform="translate(-30,-54) scale(1,1)"><rect fill="#ffffff" stroke="none" x="40" y="312" width="260.5830078125" height="87"/></g><g transform="translate(-30,-54) scale(1,1)"><path fill="none" stroke="#000000" d="M 40 312 L 300.5830078125 312 L 300.5830078125 399 L 40 399 L 40 312 Z Z" stroke-miterlimit="10"/></g><g transform="translate(-30,-54) scale(1,1)"><path fill="none" stroke="#000000" d="M 40 337 L 300.5830078125 337" stroke-miterlimit="10"/></g><g transform="translate(-30,-54) scale(1,1)"><path fill="none" stroke="#000000" d="M 40 347 L 300.5830078125 347" stroke-miterlimit="10"/></g><g transform="translate(-30,-54) scale(1,1)"><g><path fill="none" stroke="none"/><text fill="#000000" stroke="none" font-family="Arial" font-size="13px" font-style="normal" font-weight="bold" text-decoration="none" x="136.341064453125" y="330">ExportMP4</text></g></g><g transform="translate(-30,-54) scale(1,1)"><g><path fill="none" stroke="none"/><text fill="#000000" stroke="none" font-family="Arial" font-size="13px" font-style="normal" font-weight="normal" text-decoration="none" x="45" y="363">+exporterEnMP4(nom: String, video: Video)</text></g></g><g transform="translate(-30,-54) scale(1,1)"><g><path fill="none" stroke="none"/><text fill="#000000" stroke="none" font-family="Arial" font-size="13px" font-style="normal" font-weight="normal" text-decoration="none" x="45" y="378">-traitementMP4SpecifiqueA(video: Video)</text></g></g><g transform="translate(-30,-54) scale(1,1)"><g><path fill="none" stroke="none"/><text fill="#000000" stroke="none" font-family="Arial" font-size="13px" font-style="normal" font-weight="normal" text-decoration="none" x="45" y="393">-traitementMP4SpecifiqueB(video: Video)</text></g></g><g transform="translate(-30,-54) scale(1,1)"><rect fill="#C0C0C0" stroke="none" x="335" y="327" width="260.5830078125" height="72" opacity="0.2"/></g><g transform="translate(-30,-54) scale(1,1)"><rect fill="#ffffff" stroke="none" x="328" y="320" width="260.5830078125" height="72"/></g><g transform="translate(-30,-54) scale(1,1)"><path fill="none" stroke="#000000" d="M 328 320 L 588.5830078125 320 L 588.5830078125 392 L 328 392 L 328 320 Z Z" stroke-miterlimit="10"/></g><g transform="translate(-30,-54) scale(1,1)"><path fill="none" stroke="#000000" d="M 328 345 L 588.5830078125 345" stroke-miterlimit="10"/></g><g transform="translate(-30,-54) scale(1,1)"><path fill="none" stroke="#000000" d="M 328 355 L 588.5830078125 355" stroke-miterlimit="10"/></g><g transform="translate(-30,-54) scale(1,1)"><g><path fill="none" stroke="none"/><text fill="#000000" stroke="none" font-family="Arial" font-size="13px" font-style="normal" font-weight="bold" text-decoration="none" x="424.341064453125" y="338">ExportMP3</text></g></g><g transform="translate(-30,-54) scale(1,1)"><g><path fill="none" stroke="none"/><text fill="#000000" stroke="none" font-family="Arial" font-size="13px" font-style="normal" font-weight="normal" text-decoration="none" x="333" y="371">+exporterEnMP3(nom: String, video: Video)</text></g></g><g transform="translate(-30,-54) scale(1,1)"><g><path fill="none" stroke="none"/><text fill="#000000" stroke="none" font-family="Arial" font-size="13px" font-style="normal" font-weight="normal" text-decoration="none" x="333" y="386">-traitementAudio(video: Video)</text></g></g><g transform="translate(-30,-54) scale(1,1)"><rect fill="#C0C0C0" stroke="none" x="279" y="71" width="50.919921875" height="44" opacity="0.2"/></g><g transform="translate(-30,-54) scale(1,1)"><rect fill="#ffffff" stroke="none" x="272" y="64" width="50.919921875" height="44"/></g><g transform="translate(-30,-54) scale(1,1)"><path fill="none" stroke="#000000" d="M 272 64 L 322.919921875 64 L 322.919921875 108 L 272 108 L 272 64 Z Z" stroke-miterlimit="10"/></g><g transform="translate(-30,-54) scale(1,1)"><path fill="none" stroke="#000000" d="M 272 89 L 322.919921875 89" stroke-miterlimit="10"/></g><g transform="translate(-30,-54) scale(1,1)"><path fill="none" stroke="#000000" d="M 272 99 L 322.919921875 99" stroke-miterlimit="10"/></g><g transform="translate(-30,-54) scale(1,1)"><g><path fill="none" stroke="none"/><text fill="#000000" stroke="none" font-family="Arial" font-size="13px" font-style="normal" font-weight="bold" text-decoration="none" x="279.880126953125" y="82">Video</text></g></g><g transform="translate(-30,-54) scale(1,1)"><path fill="none" stroke="#000000" d="M 298 108 L 298 168" stroke-miterlimit="10"/></g><g transform="translate(-30,-54) scale(1,1)"><path fill="#000000" stroke="none" d="M 293.790482243984 157.83732514237585 L 298 168 L 302.209517756016 157.83732514237585 L 298 146"/></g><g transform="translate(-30,-54) scale(1,1)"><path fill="none" stroke="#000000" d="M 293.790482243984 157.83732514237585 L 298 168 L 302.209517756016 157.83732514237585 L 298 146 L 293.790482243984 157.83732514237585" stroke-miterlimit="10"/></g><g transform="translate(-30,-54) scale(1,1)"><g><path fill="none" stroke="none"/><text fill="#000000" stroke="none" font-family="Arial" font-size="13px" font-style="normal" font-weight="normal" text-decoration="none" x="303.5" y="137">-video</text></g></g><g transform="translate(-30,-54) scale(1,1)"><g><path fill="none" stroke="none"/><text fill="#000000" stroke="none" font-family="Arial" font-size="13px" font-style="normal" font-weight="normal" text-decoration="none" x="281.5" y="134">1</text></g></g><g transform="translate(-30,-54) scale(1,1)"><path fill="none" stroke="#000000" d="M 262 312 L 262 253" stroke-miterlimit="10"/></g><g transform="translate(-30,-54) scale(1,1)"><path fill="#000000" stroke="none" d="M 266.209517756016 263.16267485762415 L 262 253 L 257.790482243984 263.16267485762415 L 262 275"/></g><g transform="translate(-30,-54) scale(1,1)"><path fill="none" stroke="#000000" d="M 266.209517756016 263.16267485762415 L 262 253 L 257.790482243984 263.16267485762415 L 262 275 L 266.209517756016 263.16267485762415" stroke-miterlimit="10"/></g><g transform="translate(-30,-54) scale(1,1)"><g><path fill="none" stroke="none"/><text fill="#000000" stroke="none" font-family="Arial" font-size="13px" font-style="normal" font-weight="normal" text-decoration="none" x="213.5" y="306.5">-export</text></g></g><g transform="translate(-30,-54) scale(1,1)"><g><path fill="none" stroke="none"/><text fill="#000000" stroke="none" font-family="Arial" font-size="13px" font-style="normal" font-weight="normal" text-decoration="none" x="263.5" y="307">1</text></g></g></g></svg>