<svg version="1.1" xmlns="http://www.w3.org/2000/svg" xmlns:xlink="http://www.w3.org/1999/xlink" width="473.2080078125" height="310"><defs/><g><g transform="translate(-62,-174) scale(1,1)"><rect fill="#C0C0C0" stroke="none" x="87" y="239" width="197.2080078125" height="87" opacity="0.2"/></g><g transform="translate(-62,-174) scale(1,1)"><rect fill="#ffffff" stroke="none" x="80" y="232" width="197.2080078125" height="87"/></g><g transform="translate(-62,-174) scale(1,1)"><path fill="none" stroke="#000000" d="M 80 232 L 277.2080078125 232 L 277.2080078125 319 L 80 319 L 80 232 Z Z" stroke-miterlimit="10"/></g><g transform="translate(-62,-174) scale(1,1)"><path fill="none" stroke="#000000" d="M 80 257 L 277.2080078125 257" stroke-miterlimit="10"/></g><g transform="translate(-62,-174) scale(1,1)"><path fill="none" stroke="#000000" d="M 80 267 L 277.2080078125 267" stroke-miterlimit="10"/></g><g transform="translate(-62,-174) scale(1,1)"><g><path fill="none" stroke="none"/><text fill="#000000" stroke="none" font-family="Arial" font-size="13px" font-style="normal" font-weight="bold" text-decoration="none" x="128.378173828125" y="250">ReserveDeCarte</text></g></g><g transform="translate(-62,-174) scale(1,1)"><g><path fill="none" stroke="none"/><text fill="#000000" stroke="none" font-family="Arial" font-size="13px" font-style="normal" font-weight="normal" text-decoration="none" x="85" y="283">+piocher(): Carte</text></g></g><g transform="translate(-62,-174) scale(1,1)"><g><path fill="none" stroke="none"/><text fill="#000000" stroke="none" font-family="Arial" font-size="13px" font-style="normal" font-weight="normal" text-decoration="none" x="85" y="298">+ajouter(carte: Carte)</text></g></g><g transform="translate(-62,-174) scale(1,1)"><g><path fill="none" stroke="none"/><text fill="#000000" stroke="none" font-family="Arial" font-size="13px" font-style="normal" font-weight="normal" text-decoration="none" x="85" y="313">+getNombreCartesReserve(): int</text></g></g><g transform="translate(-62,-174) scale(1,1)"><rect fill="#C0C0C0" stroke="none" x="79" y="391" width="197.2080078125" height="87" opacity="0.2"/></g><g transform="translate(-62,-174) scale(1,1)"><rect fill="#ffffff" stroke="none" x="72" y="384" width="197.2080078125" height="87"/></g><g transform="translate(-62,-174) scale(1,1)"><path fill="none" stroke="#000000" d="M 72 384 L 269.2080078125 384 L 269.2080078125 471 L 72 471 L 72 384 Z Z" stroke-miterlimit="10"/></g><g transform="translate(-62,-174) scale(1,1)"><path fill="none" stroke="#000000" d="M 72 409 L 269.2080078125 409" stroke-miterlimit="10"/></g><g transform="translate(-62,-174) scale(1,1)"><path fill="none" stroke="#000000" d="M 72 419 L 269.2080078125 419" stroke-miterlimit="10"/></g><g transform="translate(-62,-174) scale(1,1)"><g><path fill="none" stroke="none"/><text fill="#000000" stroke="none" font-family="Arial" font-size="13px" font-style="normal" font-weight="bold" text-decoration="none" x="155.06494140625" y="402">Deck</text></g></g><g transform="translate(-62,-174) scale(1,1)"><g><path fill="none" stroke="none"/><text fill="#000000" stroke="none" font-family="Arial" font-size="13px" font-style="normal" font-weight="normal" text-decoration="none" x="77" y="435">+piocher(): Carte</text></g></g><g transform="translate(-62,-174) scale(1,1)"><g><path fill="none" stroke="none"/><text fill="#000000" stroke="none" font-family="Arial" font-size="13px" font-style="normal" font-weight="normal" text-decoration="none" x="77" y="450">+ajouter(carte: Carte)</text></g></g><g transform="translate(-62,-174) scale(1,1)"><g><path fill="none" stroke="none"/><text fill="#000000" stroke="none" font-family="Arial" font-size="13px" font-style="normal" font-weight="normal" text-decoration="none" x="77" y="465">+getNombreCartesReserve(): int</text></g></g><g transform="translate(-62,-174) scale(1,1)"><rect fill="#C0C0C0" stroke="none" x="327" y="191" width="50.919921875" height="44" opacity="0.2"/></g><g transform="translate(-62,-174) scale(1,1)"><rect fill="#ffffff" stroke="none" x="320" y="184" width="50.919921875" height="44"/></g><g transform="translate(-62,-174) scale(1,1)"><path fill="none" stroke="#000000" d="M 320 184 L 370.919921875 184 L 370.919921875 228 L 320 228 L 320 184 Z Z" stroke-miterlimit="10"/></g><g transform="translate(-62,-174) scale(1,1)"><path fill="none" stroke="#000000" d="M 320 209 L 370.919921875 209" stroke-miterlimit="10"/></g><g transform="translate(-62,-174) scale(1,1)"><path fill="none" stroke="#000000" d="M 320 219 L 370.919921875 219" stroke-miterlimit="10"/></g><g transform="translate(-62,-174) scale(1,1)"><g><path fill="none" stroke="none"/><text fill="#000000" stroke="none" font-family="Arial" font-size="13px" font-style="normal" font-weight="bold" text-decoration="none" x="328.841796875" y="202">Carte</text></g></g><g transform="translate(-62,-174) scale(1,1)"><path fill="none" stroke="#000000" d="M 277 281 L 345 281 L 345 228" stroke-miterlimit="10"/></g><g transform="translate(-62,-174) scale(1,1)"><path fill="none" stroke="#000000" d="M 349.209517756016 238.16267485762415 L 345 228 L 340.790482243984 238.16267485762415" stroke-miterlimit="10"/></g><g transform="translate(-62,-174) scale(1,1)"><g><path fill="none" stroke="none"/><text fill="#000000" stroke="none" font-family="Arial" font-size="13px" font-style="normal" font-weight="normal" text-decoration="none" x="295.5" y="249.5">-reserve</text></g></g><g transform="translate(-62,-174) scale(1,1)"><g><path fill="none" stroke="none"/><text fill="#000000" stroke="none" font-family="Arial" font-size="13px" font-style="normal" font-weight="normal" text-decoration="none" x="354.5" y="254">*</text></g></g><g transform="translate(-62,-174) scale(1,1)"><rect fill="#C0C0C0" stroke="none" x="335" y="391" width="197.2080078125" height="90" opacity="0.2"/></g><g transform="translate(-62,-174) scale(1,1)"><rect fill="#ffffff" stroke="none" x="328" y="384" width="197.2080078125" height="90"/></g><g transform="translate(-62,-174) scale(1,1)"><path fill="none" stroke="#000000" d="M 328 384 L 525.2080078125 384 L 525.2080078125 474 L 328 474 L 328 384 Z Z" stroke-miterlimit="10"/></g><g transform="translate(-62,-174) scale(1,1)"><path fill="none" stroke="#000000" d="M 328 422 L 525.2080078125 422" stroke-miterlimit="10"/></g><g transform="translate(-62,-174) scale(1,1)"><g><path fill="none" stroke="none"/><text fill="#000000" stroke="none" font-family="Arial" font-size="13px" font-style="normal" font-weight="normal" text-decoration="none" x="394.443603515625" y="400">«interface»</text></g></g><g transform="translate(-62,-174) scale(1,1)"><g><path fill="none" stroke="none"/><text fill="#000000" stroke="none" font-family="Arial" font-size="13px" font-style="normal" font-weight="bold" text-decoration="none" x="377.48583984375" y="415">ConteneurCarte</text></g></g><g transform="translate(-62,-174) scale(1,1)"><g><path fill="none" stroke="none"/><text fill="#000000" stroke="none" font-family="Arial" font-size="13px" font-style="normal" font-weight="normal" text-decoration="none" x="333" y="438">+piocher(): Carte</text></g></g><g transform="translate(-62,-174) scale(1,1)"><g><path fill="none" stroke="none"/><text fill="#000000" stroke="none" font-family="Arial" font-size="13px" font-style="normal" font-weight="normal" text-decoration="none" x="333" y="453">+ajouter(carte: Carte)</text></g></g><g transform="translate(-62,-174) scale(1,1)"><g><path fill="none" stroke="none"/><text fill="#000000" stroke="none" font-family="Arial" font-size="13px" font-style="normal" font-weight="normal" text-decoration="none" x="333" y="468">+getNombreCartesReserve(): int</text></g></g><g transform="translate(-62,-174) scale(1,1)"><path fill="none" stroke="#000000" d="M 176 319 L 176 384" stroke-miterlimit="10"/></g><g transform="translate(-62,-174) scale(1,1)"><path fill="#000000" stroke="none" d="M 171.790482243984 373.83732514237585 L 176 384 L 180.209517756016 373.83732514237585 L 176 362"/></g><g transform="translate(-62,-174) scale(1,1)"><path fill="none" stroke="#000000" d="M 171.790482243984 373.83732514237585 L 176 384 L 180.209517756016 373.83732514237585 L 176 362 L 171.790482243984 373.83732514237585" stroke-miterlimit="10"/></g><g transform="translate(-62,-174) scale(1,1)"><g><path fill="none" stroke="none"/><text fill="#000000" stroke="none" font-family="Arial" font-size="13px" font-style="normal" font-weight="normal" text-decoration="none" x="182.5" y="337.5">-reserve</text></g></g><g transform="translate(-62,-174) scale(1,1)"><g><path fill="none" stroke="none"/><text fill="#000000" stroke="none" font-family="Arial" font-size="13px" font-style="normal" font-weight="normal" text-decoration="none" x="159.5" y="339">1</text></g></g><g transform="translate(-62,-174) scale(1,1)"><path fill="none" stroke="#000000" d="M 277 304 L 376 304 L 376 384" stroke-miterlimit="10" stroke-dasharray="3"/></g><g transform="translate(-62,-174) scale(1,1)"><path fill="#FFFFFF" stroke="none" d="M 367.580964487968 363.6746502847517 L 376 384 L 384.419035512032 363.6746502847517"/></g><g transform="translate(-62,-174) scale(1,1)"><path fill="none" stroke="#000000" d="M 367.580964487968 363.6746502847517 L 376 384 L 384.419035512032 363.6746502847517 L 367.580964487968 363.6746502847517" stroke-miterlimit="10"/></g><g transform="translate(-62,-174) scale(1,1)"><path fill="none" stroke="#000000" d="M 269 422 L 328 422" stroke-miterlimit="10" stroke-dasharray="3"/></g><g transform="translate(-62,-174) scale(1,1)"><path fill="#FFFFFF" stroke="none" d="M 307.6746502847517 430.419035512032 L 328 422 L 307.6746502847517 413.580964487968"/></g><g transform="translate(-62,-174) scale(1,1)"><path fill="none" stroke="#000000" d="M 307.6746502847517 430.419035512032 L 328 422 L 307.6746502847517 413.580964487968 L 307.6746502847517 430.419035512032" stroke-miterlimit="10"/></g></g></svg>