<svg version="1.1" xmlns="http://www.w3.org/2000/svg" xmlns:xlink="http://www.w3.org/1999/xlink" width="572.73974609375" height="565"><defs/><g><g transform="translate(-118,-86) scale(1,1)"><rect fill="#C0C0C0" stroke="none" x="135" y="119" width="207.34521484375" height="190" opacity="0.2"/></g><g transform="translate(-118,-86) scale(1,1)"><rect fill="#ffffff" stroke="none" x="128" y="112" width="207.34521484375" height="190"/></g><g transform="translate(-118,-86) scale(1,1)"><path fill="none" stroke="#000000" d="M 128 112 L 335.34521484375 112 L 335.34521484375 302 L 128 302 L 128 112 Z Z" stroke-miterlimit="10"/></g><g transform="translate(-118,-86) scale(1,1)"><path fill="none" stroke="#000000" d="M 128 137 L 335.34521484375 137" stroke-miterlimit="10"/></g><g transform="translate(-118,-86) scale(1,1)"><path fill="none" stroke="#000000" d="M 128 190 L 335.34521484375 190" stroke-miterlimit="10"/></g><g transform="translate(-118,-86) scale(1,1)"><g><path fill="none" stroke="none"/><text fill="#000000" stroke="none" font-family="Arial" font-size="13px" font-style="normal" font-weight="bold" text-decoration="none" x="208.92578125" y="130">Produit</text></g></g><g transform="translate(-118,-86) scale(1,1)"><g><path fill="none" stroke="none"/><text fill="#000000" stroke="none" font-family="Arial" font-size="13px" font-style="normal" font-weight="normal" text-decoration="none" x="133" y="153">-id: int</text></g></g><g transform="translate(-118,-86) scale(1,1)"><g><path fill="none" stroke="none"/><text fill="#000000" stroke="none" font-family="Arial" font-size="13px" font-style="normal" font-weight="normal" text-decoration="none" x="133" y="168">-nom: String</text></g></g><g transform="translate(-118,-86) scale(1,1)"><g><path fill="none" stroke="none"/><text fill="#000000" stroke="none" font-family="Arial" font-size="13px" font-style="normal" font-weight="normal" text-decoration="none" x="133" y="183">-prix: double</text></g></g><g transform="translate(-118,-86) scale(1,1)"><g><path fill="none" stroke="none"/><text fill="#000000" stroke="none" font-family="Arial" font-size="13px" font-style="normal" font-weight="normal" text-decoration="none" x="133" y="206">+Produit(nom: String, prix: double)</text></g></g><g transform="translate(-118,-86) scale(1,1)"><g><path fill="none" stroke="none"/><text fill="#000000" stroke="none" font-family="Arial" font-size="13px" font-style="normal" font-weight="normal" text-decoration="none" x="133" y="221">+getId(): int</text></g></g><g transform="translate(-118,-86) scale(1,1)"><g><path fill="none" stroke="none"/><text fill="#000000" stroke="none" font-family="Arial" font-size="13px" font-style="normal" font-weight="normal" text-decoration="none" x="133" y="236">+getNom(): String</text></g></g><g transform="translate(-118,-86) scale(1,1)"><g><path fill="none" stroke="none"/><text fill="#000000" stroke="none" font-family="Arial" font-size="13px" font-style="normal" font-weight="normal" text-decoration="none" x="133" y="251">+getPrix(): double</text></g></g><g transform="translate(-118,-86) scale(1,1)"><g><path fill="none" stroke="none"/><text fill="#000000" stroke="none" font-family="Arial" font-size="13px" font-style="normal" font-weight="normal" text-decoration="none" x="133" y="266">+setId(id: int)</text></g></g><g transform="translate(-118,-86) scale(1,1)"><g><path fill="none" stroke="none"/><text fill="#000000" stroke="none" font-family="Arial" font-size="13px" font-style="normal" font-weight="normal" text-decoration="none" x="133" y="281">+setNom(nom: String)</text></g></g><g transform="translate(-118,-86) scale(1,1)"><g><path fill="none" stroke="none"/><text fill="#000000" stroke="none" font-family="Arial" font-size="13px" font-style="normal" font-weight="normal" text-decoration="none" x="133" y="296">+setPrix(prix: double)</text></g></g><g transform="translate(-118,-86) scale(1,1)"><rect fill="#C0C0C0" stroke="none" x="471" y="207" width="216.73974609375" height="132" opacity="0.2"/></g><g transform="translate(-118,-86) scale(1,1)"><rect fill="#ffffff" stroke="none" x="464" y="200" width="216.73974609375" height="132"/></g><g transform="translate(-118,-86) scale(1,1)"><path fill="none" stroke="#000000" d="M 464 200 L 680.73974609375 200 L 680.73974609375 332 L 464 332 L 464 200 Z Z" stroke-miterlimit="10"/></g><g transform="translate(-118,-86) scale(1,1)"><path fill="none" stroke="#000000" d="M 464 225 L 680.73974609375 225" stroke-miterlimit="10"/></g><g transform="translate(-118,-86) scale(1,1)"><path fill="none" stroke="#000000" d="M 464 235 L 680.73974609375 235" stroke-miterlimit="10"/></g><g transform="translate(-118,-86) scale(1,1)"><g><path fill="none" stroke="none"/><text fill="#000000" stroke="none" font-family="Arial" font-size="13px" font-style="normal" font-weight="bold" text-decoration="none" x="515.672607421875" y="218">ProduitRepository</text></g></g><g transform="translate(-118,-86) scale(1,1)"><g><path fill="none" stroke="none"/><text fill="#000000" stroke="none" font-family="Arial" font-size="13px" font-style="normal" font-weight="normal" text-decoration="none" x="469" y="251">+ProduitRepository()</text></g></g><g transform="translate(-118,-86) scale(1,1)"><g><path fill="none" stroke="none"/><text fill="#000000" stroke="none" font-family="Arial" font-size="13px" font-style="normal" font-weight="normal" text-decoration="none" x="469" y="266">+enregistrerProduit(produit: Produit)</text></g></g><g transform="translate(-118,-86) scale(1,1)"><g><path fill="none" stroke="none"/><text fill="#000000" stroke="none" font-family="Arial" font-size="13px" font-style="normal" font-weight="normal" text-decoration="none" x="469" y="281">+recupererProduits(): List&lt;Produit&gt;</text></g></g><g transform="translate(-118,-86) scale(1,1)"><g><path fill="none" stroke="none"/><text fill="#000000" stroke="none" font-family="Arial" font-size="13px" font-style="normal" font-weight="normal" text-decoration="none" x="469" y="296">+recupererProduit(id: int): Produit</text></g></g><g transform="translate(-118,-86) scale(1,1)"><g><path fill="none" stroke="none"/><text fill="#000000" stroke="none" font-family="Arial" font-size="13px" font-style="normal" font-weight="normal" text-decoration="none" x="469" y="311">+modifierProduit(produit: Produit)</text></g></g><g transform="translate(-118,-86) scale(1,1)"><g><path fill="none" stroke="none"/><text fill="#000000" stroke="none" font-family="Arial" font-size="13px" font-style="normal" font-weight="normal" text-decoration="none" x="469" y="326">+supprimerProduit(id: int)</text></g></g><g transform="translate(-118,-86) scale(1,1)"><rect fill="#C0C0C0" stroke="none" x="311" y="591" width="148.83251953125" height="57" opacity="0.2"/></g><g transform="translate(-118,-86) scale(1,1)"><rect fill="#ffffff" stroke="none" x="304" y="584" width="148.83251953125" height="57"/></g><g transform="translate(-118,-86) scale(1,1)"><path fill="none" stroke="#000000" d="M 304 584 L 452.83251953125 584 L 452.83251953125 641 L 304 641 L 304 584 Z Z" stroke-miterlimit="10"/></g><g transform="translate(-118,-86) scale(1,1)"><path fill="none" stroke="#000000" d="M 304 609 L 452.83251953125 609" stroke-miterlimit="10"/></g><g transform="translate(-118,-86) scale(1,1)"><path fill="none" stroke="#000000" d="M 304 619 L 452.83251953125 619" stroke-miterlimit="10"/></g><g transform="translate(-118,-86) scale(1,1)"><g><path fill="none" stroke="none"/><text fill="#000000" stroke="none" font-family="Arial" font-size="13px" font-style="normal" font-weight="bold" text-decoration="none" x="322.061767578125" y="602">ServiceFichierLog</text></g></g><g transform="translate(-118,-86) scale(1,1)"><g><path fill="none" stroke="none"/><text fill="#000000" stroke="none" font-family="Arial" font-size="13px" font-style="normal" font-weight="normal" text-decoration="none" x="309" y="635">+logger(contenu: String)</text></g></g><g transform="translate(-118,-86) scale(1,1)"><rect fill="#C0C0C0" stroke="none" x="255" y="423" width="247.09423828125" height="72" opacity="0.2"/></g><g transform="translate(-118,-86) scale(1,1)"><rect fill="#ffffff" stroke="none" x="248" y="416" width="247.09423828125" height="72"/></g><g transform="translate(-118,-86) scale(1,1)"><path fill="none" stroke="#000000" d="M 248 416 L 495.09423828125 416 L 495.09423828125 488 L 248 488 L 248 416 Z Z" stroke-miterlimit="10"/></g><g transform="translate(-118,-86) scale(1,1)"><path fill="none" stroke="#000000" d="M 248 441 L 495.09423828125 441" stroke-miterlimit="10"/></g><g transform="translate(-118,-86) scale(1,1)"><path fill="none" stroke="#000000" d="M 248 451 L 495.09423828125 451" stroke-miterlimit="10"/></g><g transform="translate(-118,-86) scale(1,1)"><g><path fill="none" stroke="none"/><text fill="#000000" stroke="none" font-family="Arial" font-size="13px" font-style="normal" font-weight="bold" text-decoration="none" x="325.66943359375" y="434">ServiceProduit</text></g></g><g transform="translate(-118,-86) scale(1,1)"><g><path fill="none" stroke="none"/><text fill="#000000" stroke="none" font-family="Arial" font-size="13px" font-style="normal" font-weight="normal" text-decoration="none" x="253" y="467">+ServiceProduit()</text></g></g><g transform="translate(-118,-86) scale(1,1)"><g><path fill="none" stroke="none"/><text fill="#000000" stroke="none" font-family="Arial" font-size="13px" font-style="normal" font-weight="normal" text-decoration="none" x="253" y="482">+ajouterProduit(nom: String, prix: double)</text></g></g><g transform="translate(-118,-86) scale(1,1)"><rect fill="#C0C0C0" stroke="none" x="519" y="103" width="104.3291015625" height="44" opacity="0.2"/></g><g transform="translate(-118,-86) scale(1,1)"><rect fill="#ffffff" stroke="none" x="512" y="96" width="104.3291015625" height="44"/></g><g transform="translate(-118,-86) scale(1,1)"><path fill="none" stroke="#000000" d="M 512 96 L 616.3291015625 96 L 616.3291015625 140 L 512 140 L 512 96 Z Z" stroke-miterlimit="10"/></g><g transform="translate(-118,-86) scale(1,1)"><path fill="none" stroke="#000000" d="M 512 121 L 616.3291015625 121" stroke-miterlimit="10"/></g><g transform="translate(-118,-86) scale(1,1)"><path fill="none" stroke="#000000" d="M 512 131 L 616.3291015625 131" stroke-miterlimit="10"/></g><g transform="translate(-118,-86) scale(1,1)"><g><path fill="none" stroke="none"/><text fill="#000000" stroke="none" font-family="Arial" font-size="13px" font-style="normal" font-weight="bold" text-decoration="none" x="516.5" y="114">ConnexionBDD</text></g></g><g transform="translate(-118,-86) scale(1,1)"><path fill="none" stroke="#000000" d="M 289 416 L 289 302" stroke-miterlimit="10" stroke-dasharray="3"/></g><g transform="translate(-118,-86) scale(1,1)"><path fill="none" stroke="#000000" d="M 293.209517756016 312.16267485762415 L 289 302 L 284.790482243984 312.16267485762415" stroke-miterlimit="10"/></g><g transform="translate(-118,-86) scale(1,1)"><g><path fill="none" stroke="none"/><text fill="#000000" stroke="none" font-family="Arial" font-size="13px" font-style="normal" font-weight="normal" text-decoration="none" x="233.5" y="362.5">«create»</text></g></g><g transform="translate(-118,-86) scale(1,1)"><path fill="none" stroke="#000000" d="M 592 332 L 592 440 L 495 440" stroke-miterlimit="10"/></g><g transform="translate(-118,-86) scale(1,1)"><path fill="#000000" stroke="none" d="M 505.16267485762415 435.790482243984 L 495 440 L 505.16267485762415 444.209517756016 L 517 440"/></g><g transform="translate(-118,-86) scale(1,1)"><path fill="none" stroke="#000000" d="M 505.16267485762415 435.790482243984 L 495 440 L 505.16267485762415 444.209517756016 L 517 440 L 505.16267485762415 435.790482243984" stroke-miterlimit="10"/></g><g transform="translate(-118,-86) scale(1,1)"><g><path fill="none" stroke="none"/><text fill="#000000" stroke="none" font-family="Arial" font-size="13px" font-style="normal" font-weight="normal" text-decoration="none" x="591.5" y="354">-repository</text></g></g><g transform="translate(-118,-86) scale(1,1)"><g><path fill="none" stroke="none"/><text fill="#000000" stroke="none" font-family="Arial" font-size="13px" font-style="normal" font-weight="normal" text-decoration="none" x="575.5" y="355">1</text></g></g><g transform="translate(-118,-86) scale(1,1)"><path fill="none" stroke="#000000" d="M 377 584 L 377 488" stroke-miterlimit="10"/></g><g transform="translate(-118,-86) scale(1,1)"><path fill="#000000" stroke="none" d="M 381.209517756016 498.16267485762415 L 377 488 L 372.790482243984 498.16267485762415 L 377 510"/></g><g transform="translate(-118,-86) scale(1,1)"><path fill="none" stroke="#000000" d="M 381.209517756016 498.16267485762415 L 377 488 L 372.790482243984 498.16267485762415 L 377 510 L 381.209517756016 498.16267485762415" stroke-miterlimit="10"/></g><g transform="translate(-118,-86) scale(1,1)"><g><path fill="none" stroke="none"/><text fill="#000000" stroke="none" font-family="Arial" font-size="13px" font-style="normal" font-weight="normal" text-decoration="none" x="326.5" y="570">-logger</text></g></g><g transform="translate(-118,-86) scale(1,1)"><g><path fill="none" stroke="none"/><text fill="#000000" stroke="none" font-family="Arial" font-size="13px" font-style="normal" font-weight="normal" text-decoration="none" x="385.5" y="567">1</text></g></g><g transform="translate(-118,-86) scale(1,1)"><path fill="none" stroke="#000000" d="M 579 200 L 579 140" stroke-miterlimit="10"/></g><g transform="translate(-118,-86) scale(1,1)"><path fill="none" stroke="#000000" d="M 583.209517756016 150.16267485762415 L 579 140 L 574.790482243984 150.16267485762415" stroke-miterlimit="10"/></g><g transform="translate(-118,-86) scale(1,1)"><path fill="#000000" stroke="none" d="M 574.790482243984 189.83732514237585 L 579 200 L 583.209517756016 189.83732514237585 L 579 178"/></g><g transform="translate(-118,-86) scale(1,1)"><path fill="none" stroke="#000000" d="M 574.790482243984 189.83732514237585 L 579 200 L 583.209517756016 189.83732514237585 L 579 178 L 574.790482243984 189.83732514237585" stroke-miterlimit="10"/></g><g transform="translate(-118,-86) scale(1,1)"><g><path fill="none" stroke="none"/><text fill="#000000" stroke="none" font-family="Arial" font-size="13px" font-style="normal" font-weight="normal" text-decoration="none" x="478.5" y="162">-connexionBDD</text></g></g><g transform="translate(-118,-86) scale(1,1)"><g><path fill="none" stroke="none"/><text fill="#000000" stroke="none" font-family="Arial" font-size="13px" font-style="normal" font-weight="normal" text-decoration="none" x="591.5" y="154">1</text></g></g><g transform="translate(-118,-86) scale(1,1)"><path fill="none" stroke="#000000" d="M 464 247 L 335 247" stroke-miterlimit="10" stroke-dasharray="3"/></g><g transform="translate(-118,-86) scale(1,1)"><path fill="none" stroke="#000000" d="M 345.16267485762415 242.790482243984 L 335 247 L 345.16267485762415 251.209517756016" stroke-miterlimit="10"/></g></g></svg>