<svg version="1.1" xmlns="http://www.w3.org/2000/svg" xmlns:xlink="http://www.w3.org/1999/xlink" width="267.849609375" height="323"><defs/><g><g transform="translate(-110,-206) scale(1,1)"><rect fill="#C0C0C0" stroke="none" x="127" y="223" width="247.849609375" height="160" opacity="0.2"/></g><g transform="translate(-110,-206) scale(1,1)"><rect fill="#ffffff" stroke="none" x="120" y="216" width="247.849609375" height="160"/></g><g transform="translate(-110,-206) scale(1,1)"><path fill="none" stroke="#000000" d="M 120 216 L 367.849609375 216 L 367.849609375 376 L 120 376 L 120 216 Z Z" stroke-miterlimit="10"/></g><g transform="translate(-110,-206) scale(1,1)"><path fill="none" stroke="#000000" d="M 120 241 L 367.849609375 241" stroke-miterlimit="10"/></g><g transform="translate(-110,-206) scale(1,1)"><path fill="none" stroke="#000000" d="M 120 279 L 367.849609375 279" stroke-miterlimit="10"/></g><g transform="translate(-110,-206) scale(1,1)"><g><path fill="none" stroke="none"/><text fill="#000000" stroke="none" font-family="Arial" font-size="13px" font-style="normal" font-weight="bold" text-decoration="none" x="222.97119140625" y="234">Ellipse</text></g></g><g transform="translate(-110,-206) scale(1,1)"><g><path fill="none" stroke="none"/><text fill="#000000" stroke="none" font-family="Arial" font-size="13px" font-style="normal" font-weight="normal" text-decoration="none" x="125" y="257">-hauteur: double</text></g></g><g transform="translate(-110,-206) scale(1,1)"><g><path fill="none" stroke="none"/><text fill="#000000" stroke="none" font-family="Arial" font-size="13px" font-style="normal" font-weight="normal" text-decoration="none" x="125" y="272">-largeur: double</text></g></g><g transform="translate(-110,-206) scale(1,1)"><g><path fill="none" stroke="none"/><text fill="#000000" stroke="none" font-family="Arial" font-size="13px" font-style="normal" font-weight="normal" text-decoration="none" x="125" y="295">+Ellipse(hauteur: double, largeur: double)</text></g></g><g transform="translate(-110,-206) scale(1,1)"><g><path fill="none" stroke="none"/><text fill="#000000" stroke="none" font-family="Arial" font-size="13px" font-style="normal" font-weight="normal" text-decoration="none" x="125" y="310">+setHauteur(hauteur: double)</text></g></g><g transform="translate(-110,-206) scale(1,1)"><g><path fill="none" stroke="none"/><text fill="#000000" stroke="none" font-family="Arial" font-size="13px" font-style="normal" font-weight="normal" text-decoration="none" x="125" y="325">+setLargeur(largeur: double)</text></g></g><g transform="translate(-110,-206) scale(1,1)"><g><path fill="none" stroke="none"/><text fill="#000000" stroke="none" font-family="Arial" font-size="13px" font-style="normal" font-weight="normal" text-decoration="none" x="125" y="340">+getHauteur(): double</text></g></g><g transform="translate(-110,-206) scale(1,1)"><g><path fill="none" stroke="none"/><text fill="#000000" stroke="none" font-family="Arial" font-size="13px" font-style="normal" font-weight="normal" text-decoration="none" x="125" y="355">+getLargeur(): double</text></g></g><g transform="translate(-110,-206) scale(1,1)"><g><path fill="none" stroke="none"/><text fill="#000000" stroke="none" font-family="Arial" font-size="13px" font-style="normal" font-weight="normal" text-decoration="none" x="125" y="370">+calculerAire(): double</text></g></g><g transform="translate(-110,-206) scale(1,1)"><rect fill="#C0C0C0" stroke="none" x="159" y="439" width="179.193359375" height="87" opacity="0.2"/></g><g transform="translate(-110,-206) scale(1,1)"><rect fill="#ffffff" stroke="none" x="152" y="432" width="179.193359375" height="87"/></g><g transform="translate(-110,-206) scale(1,1)"><path fill="none" stroke="#000000" d="M 152 432 L 331.193359375 432 L 331.193359375 519 L 152 519 L 152 432 Z Z" stroke-miterlimit="10"/></g><g transform="translate(-110,-206) scale(1,1)"><path fill="none" stroke="#000000" d="M 152 457 L 331.193359375 457" stroke-miterlimit="10"/></g><g transform="translate(-110,-206) scale(1,1)"><path fill="none" stroke="#000000" d="M 152 467 L 331.193359375 467" stroke-miterlimit="10"/></g><g transform="translate(-110,-206) scale(1,1)"><g><path fill="none" stroke="none"/><text fill="#000000" stroke="none" font-family="Arial" font-size="13px" font-style="normal" font-weight="bold" text-decoration="none" x="221.72216796875" y="450">Cercle</text></g></g><g transform="translate(-110,-206) scale(1,1)"><g><path fill="none" stroke="none"/><text fill="#000000" stroke="none" font-family="Arial" font-size="13px" font-style="normal" font-weight="normal" text-decoration="none" x="157" y="483">+Cercle(diametre)</text></g></g><g transform="translate(-110,-206) scale(1,1)"><g><path fill="none" stroke="none"/><text fill="#000000" stroke="none" font-family="Arial" font-size="13px" font-style="normal" font-weight="normal" text-decoration="none" x="157" y="498">+setHauteur(hauteur: double)</text></g></g><g transform="translate(-110,-206) scale(1,1)"><g><path fill="none" stroke="none"/><text fill="#000000" stroke="none" font-family="Arial" font-size="13px" font-style="normal" font-weight="normal" text-decoration="none" x="157" y="513">+setLargeur(largeur: double)</text></g></g><g transform="translate(-110,-206) scale(1,1)"><path fill="none" stroke="#000000" d="M 242 432 L 242 376" stroke-miterlimit="10"/></g><g transform="translate(-110,-206) scale(1,1)"><path fill="#FFFFFF" stroke="none" d="M 250.41903551203197 396.3253497152483 L 242 376 L 233.58096448796803 396.3253497152483"/></g><g transform="translate(-110,-206) scale(1,1)"><path fill="none" stroke="#000000" d="M 250.41903551203197 396.3253497152483 L 242 376 L 233.58096448796803 396.3253497152483 L 250.41903551203197 396.3253497152483" stroke-miterlimit="10"/></g></g></svg>