<svg version="1.1" xmlns="http://www.w3.org/2000/svg" xmlns:xlink="http://www.w3.org/1999/xlink" width="608.5830078125" height="480"><defs/><g><g transform="translate(-14,-62) scale(1,1)"><rect fill="#C0C0C0" stroke="none" x="231" y="183" width="213.83251953125" height="100" opacity="0.2"/></g><g transform="translate(-14,-62) scale(1,1)"><rect fill="#ffffff" stroke="none" x="224" y="176" width="213.83251953125" height="100"/></g><g transform="translate(-14,-62) scale(1,1)"><path fill="none" stroke="#000000" d="M 224 176 L 437.83251953125 176 L 437.83251953125 276 L 224 276 L 224 176 Z Z" stroke-miterlimit="10"/></g><g transform="translate(-14,-62) scale(1,1)"><path fill="none" stroke="#000000" d="M 224 201 L 437.83251953125 201" stroke-miterlimit="10"/></g><g transform="translate(-14,-62) scale(1,1)"><path fill="none" stroke="#000000" d="M 224 224 L 437.83251953125 224" stroke-miterlimit="10"/></g><g transform="translate(-14,-62) scale(1,1)"><g><path fill="none" stroke="none"/><text fill="#000000" stroke="none" font-family="Arial" font-size="13px" font-style="normal" font-weight="bold" text-decoration="none" x="312.495361328125" y="194">Projet</text></g></g><g transform="translate(-14,-62) scale(1,1)"><g><path fill="none" stroke="none"/><text fill="#000000" stroke="none" font-family="Arial" font-size="13px" font-style="normal" font-weight="normal" text-decoration="none" x="229" y="217">-nom: String</text></g></g><g transform="translate(-14,-62) scale(1,1)"><g><path fill="none" stroke="none"/><text fill="#000000" stroke="none" font-family="Arial" font-size="13px" font-style="normal" font-weight="normal" text-decoration="none" x="229" y="240">+Projet(nom: String, export: Export)</text></g></g><g transform="translate(-14,-62) scale(1,1)"><g><path fill="none" stroke="none"/><text fill="#000000" stroke="none" font-family="Arial" font-size="13px" font-style="normal" font-weight="normal" text-decoration="none" x="229" y="255">+exporter()</text></g></g><g transform="translate(-14,-62) scale(1,1)"><g><path fill="none" stroke="none"/><text fill="#000000" stroke="none" font-family="Arial" font-size="13px" font-style="normal" font-weight="normal" text-decoration="none" x="229" y="270">+setExport(export: Export)</text></g></g><g transform="translate(-14,-62) scale(1,1)"><rect fill="#C0C0C0" stroke="none" x="31" y="327" width="260.5830078125" height="87" opacity="0.2"/></g><g transform="translate(-14,-62) scale(1,1)"><rect fill="#ffffff" stroke="none" x="24" y="320" width="260.5830078125" height="87"/></g><g transform="translate(-14,-62) scale(1,1)"><path fill="none" stroke="#000000" d="M 24 320 L 284.5830078125 320 L 284.5830078125 407 L 24 407 L 24 320 Z Z" stroke-miterlimit="10"/></g><g transform="translate(-14,-62) scale(1,1)"><path fill="none" stroke="#000000" d="M 24 345 L 284.5830078125 345" stroke-miterlimit="10"/></g><g transform="translate(-14,-62) scale(1,1)"><path fill="none" stroke="#000000" d="M 24 355 L 284.5830078125 355" stroke-miterlimit="10"/></g><g transform="translate(-14,-62) scale(1,1)"><g><path fill="none" stroke="none"/><text fill="#000000" stroke="none" font-family="Arial" font-size="13px" font-style="normal" font-weight="bold" text-decoration="none" x="120.341064453125" y="338">ExportMP4</text></g></g><g transform="translate(-14,-62) scale(1,1)"><g><path fill="none" stroke="none"/><text fill="#000000" stroke="none" font-family="Arial" font-size="13px" font-style="normal" font-weight="normal" text-decoration="none" x="29" y="371">+exporterProjet(nom: String, video: Video)</text></g></g><g transform="translate(-14,-62) scale(1,1)"><g><path fill="none" stroke="none"/><text fill="#000000" stroke="none" font-family="Arial" font-size="13px" font-style="normal" font-weight="normal" text-decoration="none" x="29" y="386">-traitementMP4SpecifiqueA(video: Video)</text></g></g><g transform="translate(-14,-62) scale(1,1)"><g><path fill="none" stroke="none"/><text fill="#000000" stroke="none" font-family="Arial" font-size="13px" font-style="normal" font-weight="normal" text-decoration="none" x="29" y="401">-traitementMP4SpecifiqueB(video: Video)</text></g></g><g transform="translate(-14,-62) scale(1,1)"><rect fill="#C0C0C0" stroke="none" x="359" y="327" width="260.5830078125" height="72" opacity="0.2"/></g><g transform="translate(-14,-62) scale(1,1)"><rect fill="#ffffff" stroke="none" x="352" y="320" width="260.5830078125" height="72"/></g><g transform="translate(-14,-62) scale(1,1)"><path fill="none" stroke="#000000" d="M 352 320 L 612.5830078125 320 L 612.5830078125 392 L 352 392 L 352 320 Z Z" stroke-miterlimit="10"/></g><g transform="translate(-14,-62) scale(1,1)"><path fill="none" stroke="#000000" d="M 352 345 L 612.5830078125 345" stroke-miterlimit="10"/></g><g transform="translate(-14,-62) scale(1,1)"><path fill="none" stroke="#000000" d="M 352 355 L 612.5830078125 355" stroke-miterlimit="10"/></g><g transform="translate(-14,-62) scale(1,1)"><g><path fill="none" stroke="none"/><text fill="#000000" stroke="none" font-family="Arial" font-size="13px" font-style="normal" font-weight="bold" text-decoration="none" x="448.341064453125" y="338">ExportMP3</text></g></g><g transform="translate(-14,-62) scale(1,1)"><g><path fill="none" stroke="none"/><text fill="#000000" stroke="none" font-family="Arial" font-size="13px" font-style="normal" font-weight="normal" text-decoration="none" x="357" y="371">+exporterProjet(nom: String, video: Video)</text></g></g><g transform="translate(-14,-62) scale(1,1)"><g><path fill="none" stroke="none"/><text fill="#000000" stroke="none" font-family="Arial" font-size="13px" font-style="normal" font-weight="normal" text-decoration="none" x="357" y="386">-traitementAudio(video: Video)</text></g></g><g transform="translate(-14,-62) scale(1,1)"><rect fill="#C0C0C0" stroke="none" x="311" y="79" width="50.919921875" height="44" opacity="0.2"/></g><g transform="translate(-14,-62) scale(1,1)"><rect fill="#ffffff" stroke="none" x="304" y="72" width="50.919921875" height="44"/></g><g transform="translate(-14,-62) scale(1,1)"><path fill="none" stroke="#000000" d="M 304 72 L 354.919921875 72 L 354.919921875 116 L 304 116 L 304 72 Z Z" stroke-miterlimit="10"/></g><g transform="translate(-14,-62) scale(1,1)"><path fill="none" stroke="#000000" d="M 304 97 L 354.919921875 97" stroke-miterlimit="10"/></g><g transform="translate(-14,-62) scale(1,1)"><path fill="none" stroke="#000000" d="M 304 107 L 354.919921875 107" stroke-miterlimit="10"/></g><g transform="translate(-14,-62) scale(1,1)"><g><path fill="none" stroke="none"/><text fill="#000000" stroke="none" font-family="Arial" font-size="13px" font-style="normal" font-weight="bold" text-decoration="none" x="311.880126953125" y="90">Video</text></g></g><g transform="translate(-14,-62) scale(1,1)"><path fill="none" stroke="#000000" d="M 328 116 L 328 176" stroke-miterlimit="10"/></g><g transform="translate(-14,-62) scale(1,1)"><path fill="#000000" stroke="none" d="M 323.790482243984 165.83732514237585 L 328 176 L 332.209517756016 165.83732514237585 L 328 154"/></g><g transform="translate(-14,-62) scale(1,1)"><path fill="none" stroke="#000000" d="M 323.790482243984 165.83732514237585 L 328 176 L 332.209517756016 165.83732514237585 L 328 154 L 323.790482243984 165.83732514237585" stroke-miterlimit="10"/></g><g transform="translate(-14,-62) scale(1,1)"><g><path fill="none" stroke="none"/><text fill="#000000" stroke="none" font-family="Arial" font-size="13px" font-style="normal" font-weight="normal" text-decoration="none" x="333.5" y="145">-video</text></g></g><g transform="translate(-14,-62) scale(1,1)"><g><path fill="none" stroke="none"/><text fill="#000000" stroke="none" font-family="Arial" font-size="13px" font-style="normal" font-weight="normal" text-decoration="none" x="311.5" y="142">1</text></g></g><g transform="translate(-14,-62) scale(1,1)"><path fill="none" stroke="#000000" d="M 328 472 L 328 276" stroke-miterlimit="10"/></g><g transform="translate(-14,-62) scale(1,1)"><path fill="#FFFFFF" stroke="none" d="M 332.209517756016 286.16267485762415 L 328 276 L 323.790482243984 286.16267485762415 L 328 298"/></g><g transform="translate(-14,-62) scale(1,1)"><path fill="none" stroke="#000000" d="M 332.209517756016 286.16267485762415 L 328 276 L 323.790482243984 286.16267485762415 L 328 298 L 332.209517756016 286.16267485762415" stroke-miterlimit="10"/></g><g transform="translate(-14,-62) scale(1,1)"><g><path fill="none" stroke="none"/><text fill="#000000" stroke="none" font-family="Arial" font-size="13px" font-style="normal" font-weight="normal" text-decoration="none" x="285.5" y="457.5">-export</text></g></g><g transform="translate(-14,-62) scale(1,1)"><g><path fill="none" stroke="none"/><text fill="#000000" stroke="none" font-family="Arial" font-size="13px" font-style="normal" font-weight="normal" text-decoration="none" x="335.5" y="467">1</text></g></g><g transform="translate(-14,-62) scale(1,1)"><rect fill="#C0C0C0" stroke="none" x="207" y="479" width="251.912109375" height="60" opacity="0.2"/></g><g transform="translate(-14,-62) scale(1,1)"><rect fill="#ffffff" stroke="none" x="200" y="472" width="251.912109375" height="60"/></g><g transform="translate(-14,-62) scale(1,1)"><path fill="none" stroke="#000000" d="M 200 472 L 451.912109375 472 L 451.912109375 532 L 200 532 L 200 472 Z Z" stroke-miterlimit="10"/></g><g transform="translate(-14,-62) scale(1,1)"><path fill="none" stroke="#000000" d="M 200 510 L 451.912109375 510" stroke-miterlimit="10"/></g><g transform="translate(-14,-62) scale(1,1)"><g><path fill="none" stroke="none"/><text fill="#000000" stroke="none" font-family="Arial" font-size="13px" font-style="normal" font-weight="normal" text-decoration="none" x="293.795654296875" y="488">«interface»</text></g></g><g transform="translate(-14,-62) scale(1,1)"><g><path fill="none" stroke="none"/><text fill="#000000" stroke="none" font-family="Arial" font-size="13px" font-style="normal" font-weight="bold" text-decoration="none" x="305.37060546875" y="503">Export</text></g></g><g transform="translate(-14,-62) scale(1,1)"><g><path fill="none" stroke="none"/><text fill="#000000" stroke="none" font-family="Arial" font-size="13px" font-style="normal" font-weight="normal" text-decoration="none" x="205" y="526">+exporterProjet(nom: String, video: Video)</text></g></g><g transform="translate(-14,-62) scale(1,1)"><path fill="none" stroke="#000000" d="M 264 407 L 264 472" stroke-miterlimit="10" stroke-dasharray="3"/></g><g transform="translate(-14,-62) scale(1,1)"><path fill="#FFFFFF" stroke="none" d="M 255.58096448796803 451.6746502847517 L 264 472 L 272.419035512032 451.6746502847517"/></g><g transform="translate(-14,-62) scale(1,1)"><path fill="none" stroke="#000000" d="M 255.58096448796803 451.6746502847517 L 264 472 L 272.419035512032 451.6746502847517 L 255.58096448796803 451.6746502847517" stroke-miterlimit="10"/></g><g transform="translate(-14,-62) scale(1,1)"><path fill="none" stroke="#000000" d="M 400 392 L 400 472" stroke-miterlimit="10" stroke-dasharray="3"/></g><g transform="translate(-14,-62) scale(1,1)"><path fill="#FFFFFF" stroke="none" d="M 391.580964487968 451.6746502847517 L 400 472 L 408.419035512032 451.6746502847517"/></g><g transform="translate(-14,-62) scale(1,1)"><path fill="none" stroke="#000000" d="M 391.580964487968 451.6746502847517 L 400 472 L 408.419035512032 451.6746502847517 L 391.580964487968 451.6746502847517" stroke-miterlimit="10"/></g></g></svg>