<svg version="1.1" xmlns="http://www.w3.org/2000/svg" xmlns:xlink="http://www.w3.org/1999/xlink" width="1085" height="661"><defs/><g><g transform="translate(-22,2) scale(1,1)"><rect fill="#C0C0C0" stroke="none" x="135" y="119" width="207.34521484375" height="190" opacity="0.2"/></g><g transform="translate(-22,2) scale(1,1)"><rect fill="#ffffff" stroke="none" x="128" y="112" width="207.34521484375" height="190"/></g><g transform="translate(-22,2) scale(1,1)"><path fill="none" stroke="#000000" d="M 128 112 L 335.34521484375 112 L 335.34521484375 302 L 128 302 L 128 112 Z Z" stroke-miterlimit="10"/></g><g transform="translate(-22,2) scale(1,1)"><path fill="none" stroke="#000000" d="M 128 137 L 335.34521484375 137" stroke-miterlimit="10"/></g><g transform="translate(-22,2) scale(1,1)"><path fill="none" stroke="#000000" d="M 128 190 L 335.34521484375 190" stroke-miterlimit="10"/></g><g transform="translate(-22,2) scale(1,1)"><g><path fill="none" stroke="none"/><text fill="#000000" stroke="none" font-family="Arial" font-size="13px" font-style="normal" font-weight="bold" text-decoration="none" x="208.92578125" y="130">Produit</text></g></g><g transform="translate(-22,2) scale(1,1)"><g><path fill="none" stroke="none"/><text fill="#000000" stroke="none" font-family="Arial" font-size="13px" font-style="normal" font-weight="normal" text-decoration="none" x="133" y="153">-id: int</text></g></g><g transform="translate(-22,2) scale(1,1)"><g><path fill="none" stroke="none"/><text fill="#000000" stroke="none" font-family="Arial" font-size="13px" font-style="normal" font-weight="normal" text-decoration="none" x="133" y="168">-nom: String</text></g></g><g transform="translate(-22,2) scale(1,1)"><g><path fill="none" stroke="none"/><text fill="#000000" stroke="none" font-family="Arial" font-size="13px" font-style="normal" font-weight="normal" text-decoration="none" x="133" y="183">-prix: double</text></g></g><g transform="translate(-22,2) scale(1,1)"><g><path fill="none" stroke="none"/><text fill="#000000" stroke="none" font-family="Arial" font-size="13px" font-style="normal" font-weight="normal" text-decoration="none" x="133" y="206">+Produit(nom: String, prix: double)</text></g></g><g transform="translate(-22,2) scale(1,1)"><g><path fill="none" stroke="none"/><text fill="#000000" stroke="none" font-family="Arial" font-size="13px" font-style="normal" font-weight="normal" text-decoration="none" x="133" y="221">+getId(): int</text></g></g><g transform="translate(-22,2) scale(1,1)"><g><path fill="none" stroke="none"/><text fill="#000000" stroke="none" font-family="Arial" font-size="13px" font-style="normal" font-weight="normal" text-decoration="none" x="133" y="236">+getNom(): String</text></g></g><g transform="translate(-22,2) scale(1,1)"><g><path fill="none" stroke="none"/><text fill="#000000" stroke="none" font-family="Arial" font-size="13px" font-style="normal" font-weight="normal" text-decoration="none" x="133" y="251">+getPrix(): double</text></g></g><g transform="translate(-22,2) scale(1,1)"><g><path fill="none" stroke="none"/><text fill="#000000" stroke="none" font-family="Arial" font-size="13px" font-style="normal" font-weight="normal" text-decoration="none" x="133" y="266">+setId(id: int)</text></g></g><g transform="translate(-22,2) scale(1,1)"><g><path fill="none" stroke="none"/><text fill="#000000" stroke="none" font-family="Arial" font-size="13px" font-style="normal" font-weight="normal" text-decoration="none" x="133" y="281">+setNom(nom: String)</text></g></g><g transform="translate(-22,2) scale(1,1)"><g><path fill="none" stroke="none"/><text fill="#000000" stroke="none" font-family="Arial" font-size="13px" font-style="normal" font-weight="normal" text-decoration="none" x="133" y="296">+setPrix(prix: double)</text></g></g><g transform="translate(-22,2) scale(1,1)"><rect fill="#C0C0C0" stroke="none" x="479" y="15" width="216.73974609375" height="132" opacity="0.2"/></g><g transform="translate(-22,2) scale(1,1)"><rect fill="#ffffff" stroke="none" x="472" y="8" width="216.73974609375" height="132"/></g><g transform="translate(-22,2) scale(1,1)"><path fill="none" stroke="#000000" d="M 472 8 L 688.73974609375 8 L 688.73974609375 140 L 472 140 L 472 8 Z Z" stroke-miterlimit="10"/></g><g transform="translate(-22,2) scale(1,1)"><path fill="none" stroke="#000000" d="M 472 33 L 688.73974609375 33" stroke-miterlimit="10"/></g><g transform="translate(-22,2) scale(1,1)"><path fill="none" stroke="#000000" d="M 472 43 L 688.73974609375 43" stroke-miterlimit="10"/></g><g transform="translate(-22,2) scale(1,1)"><g><path fill="none" stroke="none"/><text fill="#000000" stroke="none" font-family="Arial" font-size="13px" font-style="normal" font-weight="bold" text-decoration="none" x="523.672607421875" y="26">ProduitRepository</text></g></g><g transform="translate(-22,2) scale(1,1)"><g><path fill="none" stroke="none"/><text fill="#000000" stroke="none" font-family="Arial" font-size="13px" font-style="normal" font-weight="normal" text-decoration="none" x="477" y="59">+ProduitRepository()</text></g></g><g transform="translate(-22,2) scale(1,1)"><g><path fill="none" stroke="none"/><text fill="#000000" stroke="none" font-family="Arial" font-size="13px" font-style="normal" font-weight="normal" text-decoration="none" x="477" y="74">+enregistrerProduit(produit: Produit)</text></g></g><g transform="translate(-22,2) scale(1,1)"><g><path fill="none" stroke="none"/><text fill="#000000" stroke="none" font-family="Arial" font-size="13px" font-style="normal" font-weight="normal" text-decoration="none" x="477" y="89">+recupererProduits(): List&lt;Produit&gt;</text></g></g><g transform="translate(-22,2) scale(1,1)"><g><path fill="none" stroke="none"/><text fill="#000000" stroke="none" font-family="Arial" font-size="13px" font-style="normal" font-weight="normal" text-decoration="none" x="477" y="104">+recupererProduit(id: int): Produit</text></g></g><g transform="translate(-22,2) scale(1,1)"><g><path fill="none" stroke="none"/><text fill="#000000" stroke="none" font-family="Arial" font-size="13px" font-style="normal" font-weight="normal" text-decoration="none" x="477" y="119">+modifierProduit(produit: Produit)</text></g></g><g transform="translate(-22,2) scale(1,1)"><g><path fill="none" stroke="none"/><text fill="#000000" stroke="none" font-family="Arial" font-size="13px" font-style="normal" font-weight="normal" text-decoration="none" x="477" y="134">+supprimerProduit(id: int)</text></g></g><g transform="translate(-22,2) scale(1,1)"><rect fill="#C0C0C0" stroke="none" x="751" y="511" width="148.83251953125" height="57" opacity="0.2"/></g><g transform="translate(-22,2) scale(1,1)"><rect fill="#ffffff" stroke="none" x="744" y="504" width="148.83251953125" height="57"/></g><g transform="translate(-22,2) scale(1,1)"><path fill="none" stroke="#000000" d="M 744 504 L 892.83251953125 504 L 892.83251953125 561 L 744 561 L 744 504 Z Z" stroke-miterlimit="10"/></g><g transform="translate(-22,2) scale(1,1)"><path fill="none" stroke="#000000" d="M 744 529 L 892.83251953125 529" stroke-miterlimit="10"/></g><g transform="translate(-22,2) scale(1,1)"><path fill="none" stroke="#000000" d="M 744 539 L 892.83251953125 539" stroke-miterlimit="10"/></g><g transform="translate(-22,2) scale(1,1)"><g><path fill="none" stroke="none"/><text fill="#000000" stroke="none" font-family="Arial" font-size="13px" font-style="normal" font-weight="bold" text-decoration="none" x="762.061767578125" y="522">ServiceFichierLog</text></g></g><g transform="translate(-22,2) scale(1,1)"><g><path fill="none" stroke="none"/><text fill="#000000" stroke="none" font-family="Arial" font-size="13px" font-style="normal" font-weight="normal" text-decoration="none" x="749" y="555">+logger(contenu: String)</text></g></g><g transform="translate(-22,2) scale(1,1)"><rect fill="#C0C0C0" stroke="none" x="287" y="415" width="494.20849609375" height="72" opacity="0.2"/></g><g transform="translate(-22,2) scale(1,1)"><rect fill="#ffffff" stroke="none" x="280" y="408" width="494.20849609375" height="72"/></g><g transform="translate(-22,2) scale(1,1)"><path fill="none" stroke="#000000" d="M 280 408 L 774.20849609375 408 L 774.20849609375 480 L 280 480 L 280 408 Z Z" stroke-miterlimit="10"/></g><g transform="translate(-22,2) scale(1,1)"><path fill="none" stroke="#000000" d="M 280 433 L 774.20849609375 433" stroke-miterlimit="10"/></g><g transform="translate(-22,2) scale(1,1)"><path fill="none" stroke="#000000" d="M 280 443 L 774.20849609375 443" stroke-miterlimit="10"/></g><g transform="translate(-22,2) scale(1,1)"><g><path fill="none" stroke="none"/><text fill="#000000" stroke="none" font-family="Arial" font-size="13px" font-style="normal" font-weight="bold" text-decoration="none" x="481.2265625" y="426">ServiceProduit</text></g></g><g transform="translate(-22,2) scale(1,1)"><g><path fill="none" stroke="none"/><text fill="#000000" stroke="none" font-family="Arial" font-size="13px" font-style="normal" font-weight="normal" text-decoration="none" x="285" y="459">+ServiceProduit(repository: ProduitRepositoryInterface, logger: ServiceLogInterface)</text></g></g><g transform="translate(-22,2) scale(1,1)"><g><path fill="none" stroke="none"/><text fill="#000000" stroke="none" font-family="Arial" font-size="13px" font-style="normal" font-weight="normal" text-decoration="none" x="285" y="474">+ajouterProduit(nom: String, prix: double)</text></g></g><g transform="translate(-22,2) scale(1,1)"><rect fill="#C0C0C0" stroke="none" x="519" y="247" width="104.3291015625" height="44" opacity="0.2"/></g><g transform="translate(-22,2) scale(1,1)"><rect fill="#ffffff" stroke="none" x="512" y="240" width="104.3291015625" height="44"/></g><g transform="translate(-22,2) scale(1,1)"><path fill="none" stroke="#000000" d="M 512 240 L 616.3291015625 240 L 616.3291015625 284 L 512 284 L 512 240 Z Z" stroke-miterlimit="10"/></g><g transform="translate(-22,2) scale(1,1)"><path fill="none" stroke="#000000" d="M 512 265 L 616.3291015625 265" stroke-miterlimit="10"/></g><g transform="translate(-22,2) scale(1,1)"><path fill="none" stroke="#000000" d="M 512 275 L 616.3291015625 275" stroke-miterlimit="10"/></g><g transform="translate(-22,2) scale(1,1)"><g><path fill="none" stroke="none"/><text fill="#000000" stroke="none" font-family="Arial" font-size="13px" font-style="normal" font-weight="bold" text-decoration="none" x="516.5" y="258">ConnexionBDD</text></g></g><g transform="translate(-22,2) scale(1,1)"><path fill="none" stroke="#000000" d="M 304 408 L 304 302" stroke-miterlimit="10" stroke-dasharray="3"/></g><g transform="translate(-22,2) scale(1,1)"><path fill="none" stroke="#000000" d="M 308.209517756016 312.16267485762415 L 304 302 L 299.790482243984 312.16267485762415" stroke-miterlimit="10"/></g><g transform="translate(-22,2) scale(1,1)"><g><path fill="none" stroke="none"/><text fill="#000000" stroke="none" font-family="Arial" font-size="13px" font-style="normal" font-weight="normal" text-decoration="none" x="248.5" y="358.5">«create»</text></g></g><g transform="translate(-22,2) scale(1,1)"><path fill="none" stroke="#000000" d="M 864 224 L 864 304 L 360 304 L 360 408" stroke-miterlimit="10"/></g><g transform="translate(-22,2) scale(1,1)"><path fill="#FFFFFF" stroke="none" d="M 355.790482243984 397.83732514237585 L 360 408 L 364.209517756016 397.83732514237585 L 360 386"/></g><g transform="translate(-22,2) scale(1,1)"><path fill="none" stroke="#000000" d="M 355.790482243984 397.83732514237585 L 360 408 L 364.209517756016 397.83732514237585 L 360 386 L 355.790482243984 397.83732514237585" stroke-miterlimit="10"/></g><g transform="translate(-22,2) scale(1,1)"><g><path fill="none" stroke="none"/><text fill="#000000" stroke="none" font-family="Arial" font-size="13px" font-style="normal" font-weight="normal" text-decoration="none" x="871.5" y="258">-repository</text></g></g><g transform="translate(-22,2) scale(1,1)"><g><path fill="none" stroke="none"/><text fill="#000000" stroke="none" font-family="Arial" font-size="13px" font-style="normal" font-weight="normal" text-decoration="none" x="847.5" y="247">1</text></g></g><g transform="translate(-22,2) scale(1,1)"><path fill="none" stroke="#000000" d="M 832 352 L 696 352 L 696 408" stroke-miterlimit="10"/></g><g transform="translate(-22,2) scale(1,1)"><path fill="#FFFFFF" stroke="none" d="M 691.790482243984 397.83732514237585 L 696 408 L 700.209517756016 397.83732514237585 L 696 386"/></g><g transform="translate(-22,2) scale(1,1)"><path fill="none" stroke="#000000" d="M 691.790482243984 397.83732514237585 L 696 408 L 700.209517756016 397.83732514237585 L 696 386 L 691.790482243984 397.83732514237585" stroke-miterlimit="10"/></g><g transform="translate(-22,2) scale(1,1)"><g><path fill="none" stroke="none"/><text fill="#000000" stroke="none" font-family="Arial" font-size="13px" font-style="normal" font-weight="normal" text-decoration="none" x="791.5" y="371">-logger</text></g></g><g transform="translate(-22,2) scale(1,1)"><g><path fill="none" stroke="none"/><text fill="#000000" stroke="none" font-family="Arial" font-size="13px" font-style="normal" font-weight="normal" text-decoration="none" x="806.5" y="344">1</text></g></g><g transform="translate(-22,2) scale(1,1)"><path fill="none" stroke="#000000" d="M 553 140 L 553 240" stroke-miterlimit="10"/></g><g transform="translate(-22,2) scale(1,1)"><path fill="none" stroke="#000000" d="M 548.790482243984 229.83732514237585 L 553 240 L 557.209517756016 229.83732514237585" stroke-miterlimit="10"/></g><g transform="translate(-22,2) scale(1,1)"><path fill="#000000" stroke="none" d="M 557.209517756016 150.16267485762415 L 553 140 L 548.790482243984 150.16267485762415 L 553 162"/></g><g transform="translate(-22,2) scale(1,1)"><path fill="none" stroke="#000000" d="M 557.209517756016 150.16267485762415 L 553 140 L 548.790482243984 150.16267485762415 L 553 162 L 557.209517756016 150.16267485762415" stroke-miterlimit="10"/></g><g transform="translate(-22,2) scale(1,1)"><g><path fill="none" stroke="none"/><text fill="#000000" stroke="none" font-family="Arial" font-size="13px" font-style="normal" font-weight="normal" text-decoration="none" x="561.5" y="227">-connexionBDD</text></g></g><g transform="translate(-22,2) scale(1,1)"><g><path fill="none" stroke="none"/><text fill="#000000" stroke="none" font-family="Arial" font-size="13px" font-style="normal" font-weight="normal" text-decoration="none" x="532.5" y="235">1</text></g></g><g transform="translate(-22,2) scale(1,1)"><path fill="none" stroke="#000000" d="M 472 104 L 440 104 L 440 216 L 335 216" stroke-miterlimit="10" stroke-dasharray="3"/></g><g transform="translate(-22,2) scale(1,1)"><path fill="none" stroke="#000000" d="M 345.16267485762415 211.790482243984 L 335 216 L 345.16267485762415 220.209517756016" stroke-miterlimit="10"/></g><g transform="translate(-22,2) scale(1,1)"><rect fill="#C0C0C0" stroke="none" x="839" y="111" width="216.73974609375" height="120" opacity="0.2"/></g><g transform="translate(-22,2) scale(1,1)"><rect fill="#ffffff" stroke="none" x="832" y="104" width="216.73974609375" height="120"/></g><g transform="translate(-22,2) scale(1,1)"><path fill="none" stroke="#000000" d="M 832 104 L 1048.73974609375 104 L 1048.73974609375 224 L 832 224 L 832 104 Z Z" stroke-miterlimit="10"/></g><g transform="translate(-22,2) scale(1,1)"><path fill="none" stroke="#000000" d="M 832 142 L 1048.73974609375 142" stroke-miterlimit="10"/></g><g transform="translate(-22,2) scale(1,1)"><g><path fill="none" stroke="none"/><text fill="#000000" stroke="none" font-family="Arial" font-size="13px" font-style="normal" font-weight="normal" text-decoration="none" x="908.20947265625" y="120">«interface»</text></g></g><g transform="translate(-22,2) scale(1,1)"><g><path fill="none" stroke="none"/><text fill="#000000" stroke="none" font-family="Arial" font-size="13px" font-style="normal" font-weight="bold" text-decoration="none" x="856.57763671875" y="135">ProduitRepositoryInterface</text></g></g><g transform="translate(-22,2) scale(1,1)"><g><path fill="none" stroke="none"/><text fill="#000000" stroke="none" font-family="Arial" font-size="13px" font-style="normal" font-weight="normal" text-decoration="none" x="837" y="158">+enregistrerProduit(produit: Produit)</text></g></g><g transform="translate(-22,2) scale(1,1)"><g><path fill="none" stroke="none"/><text fill="#000000" stroke="none" font-family="Arial" font-size="13px" font-style="normal" font-weight="normal" text-decoration="none" x="837" y="173">+recupererProduits(): List&lt;Produit&gt;</text></g></g><g transform="translate(-22,2) scale(1,1)"><g><path fill="none" stroke="none"/><text fill="#000000" stroke="none" font-family="Arial" font-size="13px" font-style="normal" font-weight="normal" text-decoration="none" x="837" y="188">+recupererProduit(id: int): Produit</text></g></g><g transform="translate(-22,2) scale(1,1)"><g><path fill="none" stroke="none"/><text fill="#000000" stroke="none" font-family="Arial" font-size="13px" font-style="normal" font-weight="normal" text-decoration="none" x="837" y="203">+modifierProduit(produit: Produit)</text></g></g><g transform="translate(-22,2) scale(1,1)"><g><path fill="none" stroke="none"/><text fill="#000000" stroke="none" font-family="Arial" font-size="13px" font-style="normal" font-weight="normal" text-decoration="none" x="837" y="218">+supprimerProduit(id: int)</text></g></g><g transform="translate(-22,2) scale(1,1)"><rect fill="#C0C0C0" stroke="none" x="39" y="463" width="216.73974609375" height="130" opacity="0.2"/></g><g transform="translate(-22,2) scale(1,1)"><rect fill="#ffffff" stroke="none" x="32" y="456" width="216.73974609375" height="130"/></g><g transform="translate(-22,2) scale(1,1)"><path fill="none" stroke="#000000" d="M 32 456 L 248.73974609375 456 L 248.73974609375 586 L 32 586 L 32 456 Z Z" stroke-miterlimit="10"/></g><g transform="translate(-22,2) scale(1,1)"><path fill="none" stroke="#000000" d="M 32 481 L 248.73974609375 481" stroke-miterlimit="10"/></g><g transform="translate(-22,2) scale(1,1)"><path fill="none" stroke="#000000" d="M 32 504 L 248.73974609375 504" stroke-miterlimit="10"/></g><g transform="translate(-22,2) scale(1,1)"><g><path fill="none" stroke="none"/><text fill="#000000" stroke="none" font-family="Arial" font-size="13px" font-style="normal" font-weight="bold" text-decoration="none" x="68.857177734375" y="474">FakeProduitRepository</text></g></g><g transform="translate(-22,2) scale(1,1)"><g><path fill="none" stroke="none"/><text fill="#000000" stroke="none" font-family="Arial" font-size="13px" font-style="normal" font-weight="normal" text-decoration="none" x="37" y="497">-ID: int = 0</text><path fill="none" stroke="#000000" d="M 37 498.5 L 97.328125 498.5" stroke-miterlimit="10"/></g></g><g transform="translate(-22,2) scale(1,1)"><g><path fill="none" stroke="none"/><text fill="#000000" stroke="none" font-family="Arial" font-size="13px" font-style="normal" font-weight="normal" text-decoration="none" x="37" y="520">+enregistrerProduit(produit: Produit)</text></g></g><g transform="translate(-22,2) scale(1,1)"><g><path fill="none" stroke="none"/><text fill="#000000" stroke="none" font-family="Arial" font-size="13px" font-style="normal" font-weight="normal" text-decoration="none" x="37" y="535">+recupererProduits(): List&lt;Produit&gt;</text></g></g><g transform="translate(-22,2) scale(1,1)"><g><path fill="none" stroke="none"/><text fill="#000000" stroke="none" font-family="Arial" font-size="13px" font-style="normal" font-weight="normal" text-decoration="none" x="37" y="550">+recupererProduit(id: int): Produit</text></g></g><g transform="translate(-22,2) scale(1,1)"><g><path fill="none" stroke="none"/><text fill="#000000" stroke="none" font-family="Arial" font-size="13px" font-style="normal" font-weight="normal" text-decoration="none" x="37" y="565">+modifierProduit(produit: Produit)</text></g></g><g transform="translate(-22,2) scale(1,1)"><g><path fill="none" stroke="none"/><text fill="#000000" stroke="none" font-family="Arial" font-size="13px" font-style="normal" font-weight="normal" text-decoration="none" x="37" y="580">+supprimerProduit(id: int)</text></g></g><g transform="translate(-22,2) scale(1,1)"><rect fill="#C0C0C0" stroke="none" x="125.17972540311072" y="441" width="54.5126953125" height="22" opacity="0.2"/></g><g transform="translate(-22,2) scale(1,1)"><path fill="none" stroke="#000000" d="M 160 434 L 160 302" stroke-miterlimit="10"/></g><g transform="translate(-22,2) scale(1,1)"><path fill="none" stroke="#000000" d="M 164.209517756016 312.16267485762415 L 160 302 L 155.790482243984 312.16267485762415" stroke-miterlimit="10"/></g><g transform="translate(-22,2) scale(1,1)"><g><path fill="none" stroke="none"/><text fill="#000000" stroke="none" font-family="Arial" font-size="13px" font-style="normal" font-weight="normal" text-decoration="none" x="99.5" y="331">-produits</text></g></g><g transform="translate(-22,2) scale(1,1)"><g><path fill="none" stroke="none"/><text fill="#000000" stroke="none" font-family="Arial" font-size="13px" font-style="normal" font-weight="normal" text-decoration="none" x="167.5" y="316">0..1</text></g></g><g transform="translate(-22,2) scale(1,1)"><rect fill="#ffffff" stroke="none" x="118.17972540311072" y="434" width="54.5126953125" height="22"/></g><g transform="translate(-22,2) scale(1,1)"><path fill="none" stroke="#000000" d="M 118.17972540311072 434 L 172.69242071561072 434 L 172.69242071561072 456 L 118.17972540311072 456 L 118.17972540311072 434 Z Z" stroke-miterlimit="10"/></g><g transform="translate(-22,2) scale(1,1)"><g><path fill="none" stroke="none"/><text fill="#000000" stroke="none" font-family="Arial" font-size="13px" font-style="normal" font-weight="normal" text-decoration="none" x="123.17972540311072" y="450">-key: int</text></g></g><g transform="translate(-22,2) scale(1,1)"><rect fill="#C0C0C0" stroke="none" x="839" y="343" width="148.83251953125" height="60" opacity="0.2"/></g><g transform="translate(-22,2) scale(1,1)"><rect fill="#ffffff" stroke="none" x="832" y="336" width="148.83251953125" height="60"/></g><g transform="translate(-22,2) scale(1,1)"><path fill="none" stroke="#000000" d="M 832 336 L 980.83251953125 336 L 980.83251953125 396 L 832 396 L 832 336 Z Z" stroke-miterlimit="10"/></g><g transform="translate(-22,2) scale(1,1)"><path fill="none" stroke="#000000" d="M 832 374 L 980.83251953125 374" stroke-miterlimit="10"/></g><g transform="translate(-22,2) scale(1,1)"><g><path fill="none" stroke="none"/><text fill="#000000" stroke="none" font-family="Arial" font-size="13px" font-style="normal" font-weight="normal" text-decoration="none" x="874.255859375" y="352">«interface»</text></g></g><g transform="translate(-22,2) scale(1,1)"><g><path fill="none" stroke="none"/><text fill="#000000" stroke="none" font-family="Arial" font-size="13px" font-style="normal" font-weight="bold" text-decoration="none" x="844.279052734375" y="367">ServiceLogInterface</text></g></g><g transform="translate(-22,2) scale(1,1)"><g><path fill="none" stroke="none"/><text fill="#000000" stroke="none" font-family="Arial" font-size="13px" font-style="normal" font-weight="normal" text-decoration="none" x="837" y="390">+logger(contenu: String)</text></g></g><g transform="translate(-22,2) scale(1,1)"><rect fill="#C0C0C0" stroke="none" x="911" y="463" width="179.87890625" height="85" opacity="0.2"/></g><g transform="translate(-22,2) scale(1,1)"><rect fill="#ffffff" stroke="none" x="904" y="456" width="179.87890625" height="85"/></g><g transform="translate(-22,2) scale(1,1)"><path fill="none" stroke="#000000" d="M 904 456 L 1083.87890625 456 L 1083.87890625 541 L 904 541 L 904 456 Z Z" stroke-miterlimit="10"/></g><g transform="translate(-22,2) scale(1,1)"><path fill="none" stroke="#000000" d="M 904 481 L 1083.87890625 481" stroke-miterlimit="10"/></g><g transform="translate(-22,2) scale(1,1)"><path fill="none" stroke="#000000" d="M 904 504 L 1083.87890625 504" stroke-miterlimit="10"/></g><g transform="translate(-22,2) scale(1,1)"><g><path fill="none" stroke="none"/><text fill="#000000" stroke="none" font-family="Arial" font-size="13px" font-style="normal" font-weight="bold" text-decoration="none" x="944.081787109375" y="474">FakeServiceLog</text></g></g><g transform="translate(-22,2) scale(1,1)"><g><path fill="none" stroke="none"/><text fill="#000000" stroke="none" font-family="Arial" font-size="13px" font-style="normal" font-weight="normal" text-decoration="none" x="909" y="497">-dernierMessage: String</text></g></g><g transform="translate(-22,2) scale(1,1)"><g><path fill="none" stroke="none"/><text fill="#000000" stroke="none" font-family="Arial" font-size="13px" font-style="normal" font-weight="normal" text-decoration="none" x="909" y="520">+logger(contenu: String)</text></g></g><g transform="translate(-22,2) scale(1,1)"><g><path fill="none" stroke="none"/><text fill="#000000" stroke="none" font-family="Arial" font-size="13px" font-style="normal" font-weight="normal" text-decoration="none" x="909" y="535">+getDernierMessage(): String</text></g></g><g transform="translate(-22,2) scale(1,1)"><path fill="none" stroke="#000000" d="M 580 140 L 580 152 L 832 152" stroke-miterlimit="10" stroke-dasharray="3"/></g><g transform="translate(-22,2) scale(1,1)"><path fill="#FFFFFF" stroke="none" d="M 811.6746502847517 160.41903551203197 L 832 152 L 811.6746502847517 143.58096448796803"/></g><g transform="translate(-22,2) scale(1,1)"><path fill="none" stroke="#000000" d="M 811.6746502847517 160.41903551203197 L 832 152 L 811.6746502847517 143.58096448796803 L 811.6746502847517 160.41903551203197" stroke-miterlimit="10"/></g><g transform="translate(-22,2) scale(1,1)"><path fill="none" stroke="#000000" d="M 936 456 L 936 396" stroke-miterlimit="10" stroke-dasharray="3"/></g><g transform="translate(-22,2) scale(1,1)"><path fill="#FFFFFF" stroke="none" d="M 944.419035512032 416.3253497152483 L 936 396 L 927.580964487968 416.3253497152483"/></g><g transform="translate(-22,2) scale(1,1)"><path fill="none" stroke="#000000" d="M 944.419035512032 416.3253497152483 L 936 396 L 927.580964487968 416.3253497152483 L 944.419035512032 416.3253497152483" stroke-miterlimit="10"/></g><g transform="translate(-22,2) scale(1,1)"><path fill="none" stroke="#000000" d="M 864 504 L 864 396" stroke-miterlimit="10" stroke-dasharray="3"/></g><g transform="translate(-22,2) scale(1,1)"><path fill="#FFFFFF" stroke="none" d="M 872.419035512032 416.3253497152483 L 864 396 L 855.580964487968 416.3253497152483"/></g><g transform="translate(-22,2) scale(1,1)"><path fill="none" stroke="#000000" d="M 872.419035512032 416.3253497152483 L 864 396 L 855.580964487968 416.3253497152483 L 872.419035512032 416.3253497152483" stroke-miterlimit="10"/></g><g transform="translate(-22,2) scale(1,1)"><path fill="none" stroke="#000000" d="M 140 586 L 140 648 L 1096 648 L 1096 176 L 1049 176" stroke-miterlimit="10" stroke-dasharray="3"/></g><g transform="translate(-22,2) scale(1,1)"><path fill="#FFFFFF" stroke="none" d="M 1069.3253497152482 167.58096448796803 L 1049 176 L 1069.3253497152482 184.41903551203197"/></g><g transform="translate(-22,2) scale(1,1)"><path fill="none" stroke="#000000" d="M 1069.3253497152482 167.58096448796803 L 1049 176 L 1069.3253497152482 184.41903551203197 L 1069.3253497152482 167.58096448796803" stroke-miterlimit="10"/></g></g></svg>