<svg version="1.1" xmlns="http://www.w3.org/2000/svg" xmlns:xlink="http://www.w3.org/1999/xlink" width="358.919921875" height="245"><defs/><g><g transform="translate(-78,-230) scale(1,1)"><rect fill="#C0C0C0" stroke="none" x="95" y="247" width="197.2080078125" height="87" opacity="0.2"/></g><g transform="translate(-78,-230) scale(1,1)"><rect fill="#ffffff" stroke="none" x="88" y="240" width="197.2080078125" height="87"/></g><g transform="translate(-78,-230) scale(1,1)"><path fill="none" stroke="#000000" d="M 88 240 L 285.2080078125 240 L 285.2080078125 327 L 88 327 L 88 240 Z Z" stroke-miterlimit="10"/></g><g transform="translate(-78,-230) scale(1,1)"><path fill="none" stroke="#000000" d="M 88 265 L 285.2080078125 265" stroke-miterlimit="10"/></g><g transform="translate(-78,-230) scale(1,1)"><path fill="none" stroke="#000000" d="M 88 275 L 285.2080078125 275" stroke-miterlimit="10"/></g><g transform="translate(-78,-230) scale(1,1)"><g><path fill="none" stroke="none"/><text fill="#000000" stroke="none" font-family="Arial" font-size="13px" font-style="normal" font-weight="bold" text-decoration="none" x="136.378173828125" y="258">ReserveDeCarte</text></g></g><g transform="translate(-78,-230) scale(1,1)"><g><path fill="none" stroke="none"/><text fill="#000000" stroke="none" font-family="Arial" font-size="13px" font-style="normal" font-weight="normal" text-decoration="none" x="93" y="291">+piocher(): Carte</text></g></g><g transform="translate(-78,-230) scale(1,1)"><g><path fill="none" stroke="none"/><text fill="#000000" stroke="none" font-family="Arial" font-size="13px" font-style="normal" font-weight="normal" text-decoration="none" x="93" y="306">+ajouter(carte: Carte)</text></g></g><g transform="translate(-78,-230) scale(1,1)"><g><path fill="none" stroke="none"/><text fill="#000000" stroke="none" font-family="Arial" font-size="13px" font-style="normal" font-weight="normal" text-decoration="none" x="93" y="321">+getNombreCartesReserve(): int</text></g></g><g transform="translate(-78,-230) scale(1,1)"><rect fill="#C0C0C0" stroke="none" x="119" y="415" width="132.91259765625" height="57" opacity="0.2"/></g><g transform="translate(-78,-230) scale(1,1)"><rect fill="#ffffff" stroke="none" x="112" y="408" width="132.91259765625" height="57"/></g><g transform="translate(-78,-230) scale(1,1)"><path fill="none" stroke="#000000" d="M 112 408 L 244.91259765625 408 L 244.91259765625 465 L 112 465 L 112 408 Z Z" stroke-miterlimit="10"/></g><g transform="translate(-78,-230) scale(1,1)"><path fill="none" stroke="#000000" d="M 112 433 L 244.91259765625 433" stroke-miterlimit="10"/></g><g transform="translate(-78,-230) scale(1,1)"><path fill="none" stroke="#000000" d="M 112 443 L 244.91259765625 443" stroke-miterlimit="10"/></g><g transform="translate(-78,-230) scale(1,1)"><g><path fill="none" stroke="none"/><text fill="#000000" stroke="none" font-family="Arial" font-size="13px" font-style="normal" font-weight="bold" text-decoration="none" x="162.917236328125" y="426">Deck</text></g></g><g transform="translate(-78,-230) scale(1,1)"><g><path fill="none" stroke="none"/><text fill="#000000" stroke="none" font-family="Arial" font-size="13px" font-style="normal" font-weight="normal" text-decoration="none" x="117" y="459">+ajouter(carte: Carte)</text></g></g><g transform="translate(-78,-230) scale(1,1)"><rect fill="#C0C0C0" stroke="none" x="383" y="263" width="50.919921875" height="44" opacity="0.2"/></g><g transform="translate(-78,-230) scale(1,1)"><rect fill="#ffffff" stroke="none" x="376" y="256" width="50.919921875" height="44"/></g><g transform="translate(-78,-230) scale(1,1)"><path fill="none" stroke="#000000" d="M 376 256 L 426.919921875 256 L 426.919921875 300 L 376 300 L 376 256 Z Z" stroke-miterlimit="10"/></g><g transform="translate(-78,-230) scale(1,1)"><path fill="none" stroke="#000000" d="M 376 281 L 426.919921875 281" stroke-miterlimit="10"/></g><g transform="translate(-78,-230) scale(1,1)"><path fill="none" stroke="#000000" d="M 376 291 L 426.919921875 291" stroke-miterlimit="10"/></g><g transform="translate(-78,-230) scale(1,1)"><g><path fill="none" stroke="none"/><text fill="#000000" stroke="none" font-family="Arial" font-size="13px" font-style="normal" font-weight="bold" text-decoration="none" x="384.841796875" y="274">Carte</text></g></g><g transform="translate(-78,-230) scale(1,1)"><path fill="none" stroke="#000000" d="M 285 281 L 376 281" stroke-miterlimit="10"/></g><g transform="translate(-78,-230) scale(1,1)"><path fill="none" stroke="#000000" d="M 365.83732514237585 285.209517756016 L 376 281 L 365.83732514237585 276.790482243984" stroke-miterlimit="10"/></g><g transform="translate(-78,-230) scale(1,1)"><g><path fill="none" stroke="none"/><text fill="#000000" stroke="none" font-family="Arial" font-size="13px" font-style="normal" font-weight="normal" text-decoration="none" x="326.5" y="269.5">-reserve</text></g></g><g transform="translate(-78,-230) scale(1,1)"><g><path fill="none" stroke="none"/><text fill="#000000" stroke="none" font-family="Arial" font-size="13px" font-style="normal" font-weight="normal" text-decoration="none" x="351.5" y="298">*</text></g></g><g transform="translate(-78,-230) scale(1,1)"><path fill="none" stroke="#000000" d="M 184 408 L 184 327" stroke-miterlimit="10"/></g><g transform="translate(-78,-230) scale(1,1)"><path fill="#FFFFFF" stroke="none" d="M 192.41903551203197 347.3253497152483 L 184 327 L 175.58096448796803 347.3253497152483"/></g><g transform="translate(-78,-230) scale(1,1)"><path fill="none" stroke="#000000" d="M 192.41903551203197 347.3253497152483 L 184 327 L 175.58096448796803 347.3253497152483 L 192.41903551203197 347.3253497152483" stroke-miterlimit="10"/></g></g></svg>