<svg version="1.1" xmlns="http://www.w3.org/2000/svg" xmlns:xlink="http://www.w3.org/1999/xlink" width="487.42529296875" height="331"><defs/><g><g transform="translate(-110,-206) scale(1,1)"><rect fill="#C0C0C0" stroke="none" x="127" y="223" width="247.849609375" height="160" opacity="0.2"/></g><g transform="translate(-110,-206) scale(1,1)"><rect fill="#ffffff" stroke="none" x="120" y="216" width="247.849609375" height="160"/></g><g transform="translate(-110,-206) scale(1,1)"><path fill="none" stroke="#000000" d="M 120 216 L 367.849609375 216 L 367.849609375 376 L 120 376 L 120 216 Z Z" stroke-miterlimit="10"/></g><g transform="translate(-110,-206) scale(1,1)"><path fill="none" stroke="#000000" d="M 120 241 L 367.849609375 241" stroke-miterlimit="10"/></g><g transform="translate(-110,-206) scale(1,1)"><path fill="none" stroke="#000000" d="M 120 279 L 367.849609375 279" stroke-miterlimit="10"/></g><g transform="translate(-110,-206) scale(1,1)"><g><path fill="none" stroke="none"/><text fill="#000000" stroke="none" font-family="Arial" font-size="13px" font-style="normal" font-weight="bold" text-decoration="none" x="222.97119140625" y="234">Ellipse</text></g></g><g transform="translate(-110,-206) scale(1,1)"><g><path fill="none" stroke="none"/><text fill="#000000" stroke="none" font-family="Arial" font-size="13px" font-style="normal" font-weight="normal" text-decoration="none" x="125" y="257">-hauteur: double</text></g></g><g transform="translate(-110,-206) scale(1,1)"><g><path fill="none" stroke="none"/><text fill="#000000" stroke="none" font-family="Arial" font-size="13px" font-style="normal" font-weight="normal" text-decoration="none" x="125" y="272">-largeur: double</text></g></g><g transform="translate(-110,-206) scale(1,1)"><g><path fill="none" stroke="none"/><text fill="#000000" stroke="none" font-family="Arial" font-size="13px" font-style="normal" font-weight="normal" text-decoration="none" x="125" y="295">+Ellipse(hauteur: double, largeur: double)</text></g></g><g transform="translate(-110,-206) scale(1,1)"><g><path fill="none" stroke="none"/><text fill="#000000" stroke="none" font-family="Arial" font-size="13px" font-style="normal" font-weight="normal" text-decoration="none" x="125" y="310">+setHauteur(hauteur: double)</text></g></g><g transform="translate(-110,-206) scale(1,1)"><g><path fill="none" stroke="none"/><text fill="#000000" stroke="none" font-family="Arial" font-size="13px" font-style="normal" font-weight="normal" text-decoration="none" x="125" y="325">+setLargeur(largeur: double)</text></g></g><g transform="translate(-110,-206) scale(1,1)"><g><path fill="none" stroke="none"/><text fill="#000000" stroke="none" font-family="Arial" font-size="13px" font-style="normal" font-weight="normal" text-decoration="none" x="125" y="340">+getHauteur(): double</text></g></g><g transform="translate(-110,-206) scale(1,1)"><g><path fill="none" stroke="none"/><text fill="#000000" stroke="none" font-family="Arial" font-size="13px" font-style="normal" font-weight="normal" text-decoration="none" x="125" y="355">+getLargeur(): double</text></g></g><g transform="translate(-110,-206) scale(1,1)"><g><path fill="none" stroke="none"/><text fill="#000000" stroke="none" font-family="Arial" font-size="13px" font-style="normal" font-weight="normal" text-decoration="none" x="125" y="370">+calculerAire(): double</text></g></g><g transform="translate(-110,-206) scale(1,1)"><rect fill="#C0C0C0" stroke="none" x="151" y="447" width="192.16796875" height="87" opacity="0.2"/></g><g transform="translate(-110,-206) scale(1,1)"><rect fill="#ffffff" stroke="none" x="144" y="440" width="192.16796875" height="87"/></g><g transform="translate(-110,-206) scale(1,1)"><path fill="none" stroke="#000000" d="M 144 440 L 336.16796875 440 L 336.16796875 527 L 144 527 L 144 440 Z Z" stroke-miterlimit="10"/></g><g transform="translate(-110,-206) scale(1,1)"><path fill="none" stroke="#000000" d="M 144 465 L 336.16796875 465" stroke-miterlimit="10"/></g><g transform="translate(-110,-206) scale(1,1)"><path fill="none" stroke="#000000" d="M 144 475 L 336.16796875 475" stroke-miterlimit="10"/></g><g transform="translate(-110,-206) scale(1,1)"><g><path fill="none" stroke="none"/><text fill="#000000" stroke="none" font-family="Arial" font-size="13px" font-style="normal" font-weight="bold" text-decoration="none" x="220.20947265625" y="458">Cercle</text></g></g><g transform="translate(-110,-206) scale(1,1)"><g><path fill="none" stroke="none"/><text fill="#000000" stroke="none" font-family="Arial" font-size="13px" font-style="normal" font-weight="normal" text-decoration="none" x="149" y="491">+Cercle(diametre)</text></g></g><g transform="translate(-110,-206) scale(1,1)"><g><path fill="none" stroke="none"/><text fill="#000000" stroke="none" font-family="Arial" font-size="13px" font-style="normal" font-weight="normal" text-decoration="none" x="149" y="506">+setDiametre(diametre: double)</text></g></g><g transform="translate(-110,-206) scale(1,1)"><g><path fill="none" stroke="none"/><text fill="#000000" stroke="none" font-family="Arial" font-size="13px" font-style="normal" font-weight="normal" text-decoration="none" x="149" y="521">+calculerAire(): double</text></g></g><g transform="translate(-110,-206) scale(1,1)"><rect fill="#C0C0C0" stroke="none" x="455" y="343" width="139.42529296875" height="60" opacity="0.2"/></g><g transform="translate(-110,-206) scale(1,1)"><rect fill="#ffffff" stroke="none" x="448" y="336" width="139.42529296875" height="60"/></g><g transform="translate(-110,-206) scale(1,1)"><path fill="none" stroke="#000000" d="M 448 336 L 587.42529296875 336 L 587.42529296875 396 L 448 396 L 448 336 Z Z" stroke-miterlimit="10"/></g><g transform="translate(-110,-206) scale(1,1)"><path fill="none" stroke="#000000" d="M 448 374 L 587.42529296875 374" stroke-miterlimit="10"/></g><g transform="translate(-110,-206) scale(1,1)"><g><path fill="none" stroke="none"/><text fill="#000000" stroke="none" font-family="Arial" font-size="13px" font-style="normal" font-weight="normal" text-decoration="none" x="485.55224609375" y="352">«interface»</text></g></g><g transform="translate(-110,-206) scale(1,1)"><g><path fill="none" stroke="none"/><text fill="#000000" stroke="none" font-family="Arial" font-size="13px" font-style="normal" font-weight="bold" text-decoration="none" x="467.864501953125" y="367">FigureCirculaire</text></g></g><g transform="translate(-110,-206) scale(1,1)"><g><path fill="none" stroke="none"/><text fill="#000000" stroke="none" font-family="Arial" font-size="13px" font-style="normal" font-weight="normal" text-decoration="none" x="453" y="390">+calculerAire(): double</text></g></g><g transform="translate(-110,-206) scale(1,1)"><path fill="none" stroke="#000000" d="M 242 440 L 242 376" stroke-miterlimit="10"/></g><g transform="translate(-110,-206) scale(1,1)"><path fill="none" stroke="#000000" d="M 246.209517756016 386.16267485762415 L 242 376 L 237.790482243984 386.16267485762415" stroke-miterlimit="10"/></g><g transform="translate(-110,-206) scale(1,1)"><path fill="#000000" stroke="none" d="M 237.790482243984 429.83732514237585 L 242 440 L 246.209517756016 429.83732514237585 L 242 418"/></g><g transform="translate(-110,-206) scale(1,1)"><path fill="none" stroke="#000000" d="M 237.790482243984 429.83732514237585 L 242 440 L 246.209517756016 429.83732514237585 L 242 418 L 237.790482243984 429.83732514237585" stroke-miterlimit="10"/></g><g transform="translate(-110,-206) scale(1,1)"><g><path fill="none" stroke="none"/><text fill="#000000" stroke="none" font-family="Arial" font-size="13px" font-style="normal" font-weight="normal" text-decoration="none" x="189.13134765625" y="402">-ellipse</text></g></g><g transform="translate(-110,-206) scale(1,1)"><g><path fill="none" stroke="none"/><text fill="#000000" stroke="none" font-family="Arial" font-size="13px" font-style="normal" font-weight="normal" text-decoration="none" x="250.5" y="402">1</text></g></g><g transform="translate(-110,-206) scale(1,1)"><path fill="none" stroke="#000000" d="M 368 360 L 448 360" stroke-miterlimit="10" stroke-dasharray="3"/></g><g transform="translate(-110,-206) scale(1,1)"><path fill="#FFFFFF" stroke="none" d="M 427.6746502847517 368.419035512032 L 448 360 L 427.6746502847517 351.580964487968"/></g><g transform="translate(-110,-206) scale(1,1)"><path fill="none" stroke="#000000" d="M 427.6746502847517 368.419035512032 L 448 360 L 427.6746502847517 351.580964487968 L 427.6746502847517 368.419035512032" stroke-miterlimit="10"/></g><g transform="translate(-110,-206) scale(1,1)"><path fill="none" stroke="#000000" d="M 336 472 L 517 472 L 517 396" stroke-miterlimit="10" stroke-dasharray="3"/></g><g transform="translate(-110,-206) scale(1,1)"><path fill="#FFFFFF" stroke="none" d="M 525.419035512032 416.3253497152483 L 517 396 L 508.580964487968 416.3253497152483"/></g><g transform="translate(-110,-206) scale(1,1)"><path fill="none" stroke="#000000" d="M 525.419035512032 416.3253497152483 L 517 396 L 508.580964487968 416.3253497152483 L 525.419035512032 416.3253497152483" stroke-miterlimit="10"/></g></g></svg>