<svg version="1.1" xmlns="http://www.w3.org/2000/svg" xmlns:xlink="http://www.w3.org/1999/xlink" width="1348" height="720"><defs/><g><g transform="translate(-78,-118) scale(1,1)"><rect fill="#C0C0C0" stroke="none" x="959" y="407" width="185.5999999999999" height="15" opacity="0.2"/></g><g transform="translate(-78,-118) scale(1,1)"><rect fill="#C0C0C0" stroke="none" x="959" y="421" width="464" height="186" opacity="0.2"/></g><g transform="translate(-78,-118) scale(1,1)"><rect fill="#ffffff" stroke="none" x="952" y="415" width="464" height="185"/></g><g transform="translate(-78,-118) scale(1,1)"><path fill="none" stroke="#000000" d="M 952 415 L 1416 415 L 1416 600 L 952 600 L 952 415 Z Z" stroke-miterlimit="10"/></g><g transform="translate(-78,-118) scale(1,1)"><rect fill="#ffffff" stroke="none" x="952" y="400" width="185.5999999999999" height="15"/></g><g transform="translate(-78,-118) scale(1,1)"><path fill="none" stroke="#000000" d="M 952 400 L 1137.6 400 L 1137.6 415 L 952 415 L 952 400 Z Z" stroke-miterlimit="10"/></g><g transform="translate(-78,-118) scale(1,1)"><rect fill="#ffffff" stroke="none" x="952" y="414" width="464" height="186"/></g><g transform="translate(-78,-118) scale(1,1)"><path fill="none" stroke="#000000" d="M 952 414 L 1416 414 L 1416 600 L 952 600 L 952 414 Z Z" stroke-miterlimit="10"/></g><g transform="translate(-78,-118) scale(1,1)"><g><path fill="none" stroke="none"/><text fill="#000000" stroke="none" font-family="Arial" font-size="13px" font-style="normal" font-weight="bold" text-decoration="none" x="1148.240478515625" y="433">Pattermons</text></g></g><g transform="translate(-78,-118) scale(1,1)"><rect fill="#C0C0C0" stroke="none" x="463" y="167" width="128.9072265625" height="75" opacity="0.2"/></g><g transform="translate(-78,-118) scale(1,1)"><rect fill="#ffffff" stroke="none" x="456" y="160" width="128.9072265625" height="75"/></g><g transform="translate(-78,-118) scale(1,1)"><path fill="none" stroke="#000000" d="M 456 160 L 584.9072265625 160 L 584.9072265625 235 L 456 235 L 456 160 Z Z" stroke-miterlimit="10"/></g><g transform="translate(-78,-118) scale(1,1)"><path fill="none" stroke="#000000" d="M 456 198 L 584.9072265625 198" stroke-miterlimit="10"/></g><g transform="translate(-78,-118) scale(1,1)"><g><path fill="none" stroke="none"/><text fill="#000000" stroke="none" font-family="Arial" font-size="13px" font-style="normal" font-weight="normal" text-decoration="none" x="488.293212890625" y="176">«interface»</text></g></g><g transform="translate(-78,-118) scale(1,1)"><g><path fill="none" stroke="none"/><text fill="#000000" stroke="none" font-family="Arial" font-size="13px" font-style="normal" font-weight="bold" text-decoration="none" x="460.5" y="191">FigureGeometrique</text></g></g><g transform="translate(-78,-118) scale(1,1)"><g><path fill="none" stroke="none"/><text fill="#000000" stroke="none" font-family="Arial" font-size="13px" font-style="normal" font-weight="normal" text-decoration="none" x="461" y="214">+getAire(): int</text></g></g><g transform="translate(-78,-118) scale(1,1)"><g><path fill="none" stroke="none"/><text fill="#000000" stroke="none" font-family="Arial" font-size="13px" font-style="normal" font-weight="normal" text-decoration="none" x="461" y="229">+afficherFigure()</text></g></g><g transform="translate(-78,-118) scale(1,1)"><rect fill="#C0C0C0" stroke="none" x="175" y="303" width="161.35986328125" height="60" opacity="0.2"/></g><g transform="translate(-78,-118) scale(1,1)"><rect fill="#ffffff" stroke="none" x="168" y="296" width="161.35986328125" height="60"/></g><g transform="translate(-78,-118) scale(1,1)"><path fill="none" stroke="#000000" d="M 168 296 L 329.35986328125 296 L 329.35986328125 356 L 168 356 L 168 296 Z Z" stroke-miterlimit="10"/></g><g transform="translate(-78,-118) scale(1,1)"><path fill="none" stroke="#000000" d="M 168 334 L 329.35986328125 334" stroke-miterlimit="10"/></g><g transform="translate(-78,-118) scale(1,1)"><g><path fill="none" stroke="none"/><text fill="#000000" stroke="none" font-family="Arial" font-size="13px" font-style="normal" font-weight="normal" text-decoration="none" x="216.51953125" y="312">«interface»</text></g></g><g transform="translate(-78,-118) scale(1,1)"><g><path fill="none" stroke="none"/><text fill="#000000" stroke="none" font-family="Arial" font-size="13px" font-style="normal" font-weight="bold" text-decoration="none" x="231.69677734375" y="327">Carre</text></g></g><g transform="translate(-78,-118) scale(1,1)"><g><path fill="none" stroke="none"/><text fill="#000000" stroke="none" font-family="Arial" font-size="13px" font-style="normal" font-weight="normal" text-decoration="none" x="173" y="350">+getTailleCote(): int</text></g></g><g transform="translate(-78,-118) scale(1,1)"><rect fill="#C0C0C0" stroke="none" x="671" y="303" width="168" height="60" opacity="0.2"/></g><g transform="translate(-78,-118) scale(1,1)"><rect fill="#ffffff" stroke="none" x="664" y="296" width="168" height="60"/></g><g transform="translate(-78,-118) scale(1,1)"><path fill="none" stroke="#000000" d="M 664 296 L 832 296 L 832 356 L 664 356 L 664 296 Z Z" stroke-miterlimit="10"/></g><g transform="translate(-78,-118) scale(1,1)"><path fill="none" stroke="#000000" d="M 664 334 L 832 334" stroke-miterlimit="10"/></g><g transform="translate(-78,-118) scale(1,1)"><g><path fill="none" stroke="none"/><text fill="#000000" stroke="none" font-family="Arial" font-size="13px" font-style="normal" font-weight="normal" text-decoration="none" x="715.839599609375" y="312">«interface»</text></g></g><g transform="translate(-78,-118) scale(1,1)"><g><path fill="none" stroke="none"/><text fill="#000000" stroke="none" font-family="Arial" font-size="13px" font-style="normal" font-weight="bold" text-decoration="none" x="728.12548828125" y="327">Cercle</text></g></g><g transform="translate(-78,-118) scale(1,1)"><g><path fill="none" stroke="none"/><text fill="#000000" stroke="none" font-family="Arial" font-size="13px" font-style="normal" font-weight="normal" text-decoration="none" x="669" y="350">+getDiametre(): int</text></g></g><g transform="translate(-78,-118) scale(1,1)"><path fill="none" stroke="#000000" d="M 329 328 L 480 328 L 480 235" stroke-miterlimit="10"/></g><g transform="translate(-78,-118) scale(1,1)"><path fill="#FFFFFF" stroke="none" d="M 488.419035512032 255.3253497152483 L 480 235 L 471.580964487968 255.3253497152483"/></g><g transform="translate(-78,-118) scale(1,1)"><path fill="none" stroke="#000000" d="M 488.419035512032 255.3253497152483 L 480 235 L 471.580964487968 255.3253497152483 L 488.419035512032 255.3253497152483" stroke-miterlimit="10"/></g><g transform="translate(-78,-118) scale(1,1)"><path fill="none" stroke="#000000" d="M 664 326 L 548 326 L 548 235" stroke-miterlimit="10"/></g><g transform="translate(-78,-118) scale(1,1)"><path fill="#FFFFFF" stroke="none" d="M 556.419035512032 255.3253497152483 L 548 235 L 539.580964487968 255.3253497152483"/></g><g transform="translate(-78,-118) scale(1,1)"><path fill="none" stroke="#000000" d="M 556.419035512032 255.3253497152483 L 548 235 L 539.580964487968 255.3253497152483 L 556.419035512032 255.3253497152483" stroke-miterlimit="10"/></g><g transform="translate(-78,-118) scale(1,1)"><rect fill="#C0C0C0" stroke="none" x="319" y="735" width="302.71240234375" height="100" opacity="0.2"/></g><g transform="translate(-78,-118) scale(1,1)"><rect fill="#ffffff" stroke="none" x="312" y="728" width="302.71240234375" height="100"/></g><g transform="translate(-78,-118) scale(1,1)"><path fill="none" stroke="#000000" d="M 312 728 L 614.71240234375 728 L 614.71240234375 828 L 312 828 L 312 728 Z Z" stroke-miterlimit="10"/></g><g transform="translate(-78,-118) scale(1,1)"><path fill="none" stroke="#000000" d="M 312 753 L 614.71240234375 753" stroke-miterlimit="10"/></g><g transform="translate(-78,-118) scale(1,1)"><path fill="none" stroke="#000000" d="M 312 776 L 614.71240234375 776" stroke-miterlimit="10"/></g><g transform="translate(-78,-118) scale(1,1)"><g><path fill="none" stroke="none"/><text fill="#000000" stroke="none" font-family="Arial" font-size="13px" font-style="italic" font-weight="bold" text-decoration="none" x="353.554443359375" y="746">AbstractFigureGeometriqueFactory</text></g></g><g transform="translate(-78,-118) scale(1,1)"><g><path fill="none" stroke="none"/><text fill="#000000" stroke="none" font-family="Arial" font-size="13px" font-style="normal" font-weight="normal" text-decoration="none" x="317" y="769">-INSTANCE: AbstractFigureGeometriqueFactory</text><path fill="none" stroke="#000000" d="M 317 770.5 L 596.34130859375 770.5" stroke-miterlimit="10"/></g></g><g transform="translate(-78,-118) scale(1,1)"><g><path fill="none" stroke="none"/><text fill="#000000" stroke="none" font-family="Arial" font-size="13px" font-style="normal" font-weight="normal" text-decoration="none" x="317" y="792">+getInstance(): AbstractFigureGeometriqueFactory</text><path fill="none" stroke="#000000" d="M 317 793.5 L 610.71240234375 793.5" stroke-miterlimit="10"/></g></g><g transform="translate(-78,-118) scale(1,1)"><g><path fill="none" stroke="none"/><text fill="#000000" stroke="none" font-family="Arial" font-size="13px" font-style="italic" font-weight="normal" text-decoration="none" x="317" y="807">+creerCarre(tailleCote: int): Carre</text></g></g><g transform="translate(-78,-118) scale(1,1)"><g><path fill="none" stroke="none"/><text fill="#000000" stroke="none" font-family="Arial" font-size="13px" font-style="italic" font-weight="normal" text-decoration="none" x="317" y="822">+creerCercle(rayon: int): Cercle</text></g></g><g transform="translate(-78,-118) scale(1,1)"><rect fill="#C0C0C0" stroke="none" x="999" y="463" width="166.1298828125" height="102" opacity="0.2"/></g><g transform="translate(-78,-118) scale(1,1)"><rect fill="#ffffff" stroke="none" x="992" y="456" width="166.1298828125" height="102"/></g><g transform="translate(-78,-118) scale(1,1)"><path fill="none" stroke="#000000" d="M 992 456 L 1158.1298828125 456 L 1158.1298828125 558 L 992 558 L 992 456 Z Z" stroke-miterlimit="10"/></g><g transform="translate(-78,-118) scale(1,1)"><path fill="none" stroke="#000000" d="M 992 481 L 1158.1298828125 481" stroke-miterlimit="10"/></g><g transform="translate(-78,-118) scale(1,1)"><path fill="none" stroke="#000000" d="M 992 491 L 1158.1298828125 491" stroke-miterlimit="10"/></g><g transform="translate(-78,-118) scale(1,1)"><g><path fill="none" stroke="none"/><text fill="#000000" stroke="none" font-family="Arial" font-size="13px" font-style="normal" font-weight="bold" text-decoration="none" x="1029.549072265625" y="474">ComplexCircle</text></g></g><g transform="translate(-78,-118) scale(1,1)"><g><path fill="none" stroke="none"/><text fill="#000000" stroke="none" font-family="Arial" font-size="13px" font-style="normal" font-weight="normal" text-decoration="none" x="997" y="507">+ComplexCircle(radius: int)</text></g></g><g transform="translate(-78,-118) scale(1,1)"><g><path fill="none" stroke="none"/><text fill="#000000" stroke="none" font-family="Arial" font-size="13px" font-style="normal" font-weight="normal" text-decoration="none" x="997" y="522">+getDiameter(): int</text></g></g><g transform="translate(-78,-118) scale(1,1)"><g><path fill="none" stroke="none"/><text fill="#000000" stroke="none" font-family="Arial" font-size="13px" font-style="normal" font-weight="normal" text-decoration="none" x="997" y="537">+calculateArea(): int</text></g></g><g transform="translate(-78,-118) scale(1,1)"><g><path fill="none" stroke="none"/><text fill="#000000" stroke="none" font-family="Arial" font-size="13px" font-style="normal" font-weight="normal" text-decoration="none" x="997" y="552">+displayCircle()</text></g></g><g transform="translate(-78,-118) scale(1,1)"><rect fill="#C0C0C0" stroke="none" x="95" y="439" width="354.76318359375" height="102" opacity="0.2"/></g><g transform="translate(-78,-118) scale(1,1)"><rect fill="#ffffff" stroke="none" x="88" y="432" width="354.76318359375" height="102"/></g><g transform="translate(-78,-118) scale(1,1)"><path fill="none" stroke="#000000" d="M 88 432 L 442.76318359375 432 L 442.76318359375 534 L 88 534 L 88 432 Z Z" stroke-miterlimit="10"/></g><g transform="translate(-78,-118) scale(1,1)"><path fill="none" stroke="#000000" d="M 88 457 L 442.76318359375 457" stroke-miterlimit="10"/></g><g transform="translate(-78,-118) scale(1,1)"><path fill="none" stroke="#000000" d="M 88 467 L 442.76318359375 467" stroke-miterlimit="10"/></g><g transform="translate(-78,-118) scale(1,1)"><g><path fill="none" stroke="none"/><text fill="#000000" stroke="none" font-family="Arial" font-size="13px" font-style="normal" font-weight="bold" text-decoration="none" x="191.336181640625" y="450">ComplexSquareAdapter</text></g></g><g transform="translate(-78,-118) scale(1,1)"><g><path fill="none" stroke="none"/><text fill="#000000" stroke="none" font-family="Arial" font-size="13px" font-style="normal" font-weight="normal" text-decoration="none" x="93" y="483">+ComplexSquareAdapter(complexSquare: ComplexSquare)</text></g></g><g transform="translate(-78,-118) scale(1,1)"><g><path fill="none" stroke="none"/><text fill="#000000" stroke="none" font-family="Arial" font-size="13px" font-style="normal" font-weight="normal" text-decoration="none" x="93" y="498">+getTailleCote(): int</text></g></g><g transform="translate(-78,-118) scale(1,1)"><g><path fill="none" stroke="none"/><text fill="#000000" stroke="none" font-family="Arial" font-size="13px" font-style="normal" font-weight="normal" text-decoration="none" x="93" y="513">+getAire(): int</text></g></g><g transform="translate(-78,-118) scale(1,1)"><g><path fill="none" stroke="none"/><text fill="#000000" stroke="none" font-family="Arial" font-size="13px" font-style="normal" font-weight="normal" text-decoration="none" x="93" y="528">+afficherFigure()</text></g></g><g transform="translate(-78,-118) scale(1,1)"><path fill="none" stroke="#000000" d="M 248 432 L 248 356" stroke-miterlimit="10" stroke-dasharray="3"/></g><g transform="translate(-78,-118) scale(1,1)"><path fill="#FFFFFF" stroke="none" d="M 256.419035512032 376.3253497152483 L 248 356 L 239.58096448796803 376.3253497152483"/></g><g transform="translate(-78,-118) scale(1,1)"><path fill="none" stroke="#000000" d="M 256.419035512032 376.3253497152483 L 248 356 L 239.58096448796803 376.3253497152483 L 256.419035512032 376.3253497152483" stroke-miterlimit="10"/></g><g transform="translate(-78,-118) scale(1,1)"><rect fill="#C0C0C0" stroke="none" x="487" y="439" width="328.67431640625" height="102" opacity="0.2"/></g><g transform="translate(-78,-118) scale(1,1)"><rect fill="#ffffff" stroke="none" x="480" y="432" width="328.67431640625" height="102"/></g><g transform="translate(-78,-118) scale(1,1)"><path fill="none" stroke="#000000" d="M 480 432 L 808.67431640625 432 L 808.67431640625 534 L 480 534 L 480 432 Z Z" stroke-miterlimit="10"/></g><g transform="translate(-78,-118) scale(1,1)"><path fill="none" stroke="#000000" d="M 480 457 L 808.67431640625 457" stroke-miterlimit="10"/></g><g transform="translate(-78,-118) scale(1,1)"><path fill="none" stroke="#000000" d="M 480 467 L 808.67431640625 467" stroke-miterlimit="10"/></g><g transform="translate(-78,-118) scale(1,1)"><g><path fill="none" stroke="none"/><text fill="#000000" stroke="none" font-family="Arial" font-size="13px" font-style="normal" font-weight="bold" text-decoration="none" x="574.26220703125" y="450">ComplexCircleAdapter</text></g></g><g transform="translate(-78,-118) scale(1,1)"><g><path fill="none" stroke="none"/><text fill="#000000" stroke="none" font-family="Arial" font-size="13px" font-style="normal" font-weight="normal" text-decoration="none" x="485" y="483">+ComplexCircleAdapter(complexCircle: ComplexCircle)</text></g></g><g transform="translate(-78,-118) scale(1,1)"><g><path fill="none" stroke="none"/><text fill="#000000" stroke="none" font-family="Arial" font-size="13px" font-style="normal" font-weight="normal" text-decoration="none" x="485" y="498">+getDiametre(): int</text></g></g><g transform="translate(-78,-118) scale(1,1)"><g><path fill="none" stroke="none"/><text fill="#000000" stroke="none" font-family="Arial" font-size="13px" font-style="normal" font-weight="normal" text-decoration="none" x="485" y="513">+getAire(): int</text></g></g><g transform="translate(-78,-118) scale(1,1)"><g><path fill="none" stroke="none"/><text fill="#000000" stroke="none" font-family="Arial" font-size="13px" font-style="normal" font-weight="normal" text-decoration="none" x="485" y="528">+afficherFigure()</text></g></g><g transform="translate(-78,-118) scale(1,1)"><path fill="none" stroke="#000000" d="M 727 432 L 727 356" stroke-miterlimit="10" stroke-dasharray="3"/></g><g transform="translate(-78,-118) scale(1,1)"><path fill="#FFFFFF" stroke="none" d="M 735.419035512032 376.3253497152483 L 727 356 L 718.580964487968 376.3253497152483"/></g><g transform="translate(-78,-118) scale(1,1)"><path fill="none" stroke="#000000" d="M 735.419035512032 376.3253497152483 L 727 356 L 718.580964487968 376.3253497152483 L 735.419035512032 376.3253497152483" stroke-miterlimit="10"/></g><g transform="translate(-78,-118) scale(1,1)"><rect fill="#C0C0C0" stroke="none" x="351" y="615" width="237.998046875" height="72" opacity="0.2"/></g><g transform="translate(-78,-118) scale(1,1)"><rect fill="#ffffff" stroke="none" x="344" y="608" width="237.998046875" height="72"/></g><g transform="translate(-78,-118) scale(1,1)"><path fill="none" stroke="#000000" d="M 344 608 L 581.998046875 608 L 581.998046875 680 L 344 680 L 344 608 Z Z" stroke-miterlimit="10"/></g><g transform="translate(-78,-118) scale(1,1)"><path fill="none" stroke="#000000" d="M 344 633 L 581.998046875 633" stroke-miterlimit="10"/></g><g transform="translate(-78,-118) scale(1,1)"><path fill="none" stroke="#000000" d="M 344 643 L 581.998046875 643" stroke-miterlimit="10"/></g><g transform="translate(-78,-118) scale(1,1)"><g><path fill="none" stroke="none"/><text fill="#000000" stroke="none" font-family="Arial" font-size="13px" font-style="normal" font-weight="bold" text-decoration="none" x="348.5" y="626">FigureGeometriqueComplexeFactory</text></g></g><g transform="translate(-78,-118) scale(1,1)"><g><path fill="none" stroke="none"/><text fill="#000000" stroke="none" font-family="Arial" font-size="13px" font-style="normal" font-weight="normal" text-decoration="none" x="349" y="659">+creerCarre(tailleCote: int): Carre</text></g></g><g transform="translate(-78,-118) scale(1,1)"><g><path fill="none" stroke="none"/><text fill="#000000" stroke="none" font-family="Arial" font-size="13px" font-style="normal" font-weight="normal" text-decoration="none" x="349" y="674">+creerCercle(rayon: int): Cercle</text></g></g><g transform="translate(-78,-118) scale(1,1)"><path fill="none" stroke="#000000" d="M 344 644 L 329 644 L 329 534" stroke-miterlimit="10" stroke-dasharray="3"/></g><g transform="translate(-78,-118) scale(1,1)"><path fill="none" stroke="#000000" d="M 333.209517756016 544.1626748576241 L 329 534 L 324.790482243984 544.1626748576241" stroke-miterlimit="10"/></g><g transform="translate(-78,-118) scale(1,1)"><g><path fill="none" stroke="none"/><text fill="#000000" stroke="none" font-family="Arial" font-size="13px" font-style="normal" font-weight="normal" text-decoration="none" x="245.5" y="626.5">«create»</text></g></g><g transform="translate(-78,-118) scale(1,1)"><path fill="none" stroke="#000000" d="M 582 644 L 648 644 L 648 534" stroke-miterlimit="10" stroke-dasharray="3"/></g><g transform="translate(-78,-118) scale(1,1)"><path fill="none" stroke="#000000" d="M 652.209517756016 544.1626748576241 L 648 534 L 643.790482243984 544.1626748576241" stroke-miterlimit="10"/></g><g transform="translate(-78,-118) scale(1,1)"><g><path fill="none" stroke="none"/><text fill="#000000" stroke="none" font-family="Arial" font-size="13px" font-style="normal" font-weight="normal" text-decoration="none" x="590.5" y="617.5">«create»</text></g></g><g transform="translate(-78,-118) scale(1,1)"><path fill="none" stroke="#000000" d="M 462 680 L 462 728" stroke-miterlimit="10"/></g><g transform="translate(-78,-118) scale(1,1)"><path fill="#FFFFFF" stroke="none" d="M 453.580964487968 707.6746502847517 L 462 728 L 470.419035512032 707.6746502847517"/></g><g transform="translate(-78,-118) scale(1,1)"><path fill="none" stroke="#000000" d="M 453.580964487968 707.6746502847517 L 462 728 L 470.419035512032 707.6746502847517 L 453.580964487968 707.6746502847517" stroke-miterlimit="10"/></g><g transform="translate(-78,-118) scale(1,1)"><rect fill="#C0C0C0" stroke="none" x="1207" y="463" width="162.537109375" height="102" opacity="0.2"/></g><g transform="translate(-78,-118) scale(1,1)"><rect fill="#ffffff" stroke="none" x="1200" y="456" width="162.537109375" height="102"/></g><g transform="translate(-78,-118) scale(1,1)"><path fill="none" stroke="#000000" d="M 1200 456 L 1362.537109375 456 L 1362.537109375 558 L 1200 558 L 1200 456 Z Z" stroke-miterlimit="10"/></g><g transform="translate(-78,-118) scale(1,1)"><path fill="none" stroke="#000000" d="M 1200 481 L 1362.537109375 481" stroke-miterlimit="10"/></g><g transform="translate(-78,-118) scale(1,1)"><path fill="none" stroke="#000000" d="M 1200 491 L 1362.537109375 491" stroke-miterlimit="10"/></g><g transform="translate(-78,-118) scale(1,1)"><g><path fill="none" stroke="none"/><text fill="#000000" stroke="none" font-family="Arial" font-size="13px" font-style="normal" font-weight="bold" text-decoration="none" x="1231.7822265625" y="474">ComplexSquare</text></g></g><g transform="translate(-78,-118) scale(1,1)"><g><path fill="none" stroke="none"/><text fill="#000000" stroke="none" font-family="Arial" font-size="13px" font-style="normal" font-weight="normal" text-decoration="none" x="1205" y="507">+ComplexSquare(size: int)</text></g></g><g transform="translate(-78,-118) scale(1,1)"><g><path fill="none" stroke="none"/><text fill="#000000" stroke="none" font-family="Arial" font-size="13px" font-style="normal" font-weight="normal" text-decoration="none" x="1205" y="522">+getSize(): int</text></g></g><g transform="translate(-78,-118) scale(1,1)"><g><path fill="none" stroke="none"/><text fill="#000000" stroke="none" font-family="Arial" font-size="13px" font-style="normal" font-weight="normal" text-decoration="none" x="1205" y="537">+calculateArea(): int</text></g></g><g transform="translate(-78,-118) scale(1,1)"><g><path fill="none" stroke="none"/><text fill="#000000" stroke="none" font-family="Arial" font-size="13px" font-style="normal" font-weight="normal" text-decoration="none" x="1205" y="552">+displaySquare()</text></g></g><g transform="translate(-78,-118) scale(1,1)"><path fill="none" stroke="#000000" d="M 809 501 L 992 501" stroke-miterlimit="10"/></g><g transform="translate(-78,-118) scale(1,1)"><path fill="none" stroke="#000000" d="M 981.8373251423759 505.209517756016 L 992 501 L 981.8373251423758 496.790482243984" stroke-miterlimit="10"/></g><g transform="translate(-78,-118) scale(1,1)"><g><path fill="none" stroke="none"/><text fill="#000000" stroke="none" font-family="Arial" font-size="13px" font-style="normal" font-weight="normal" text-decoration="none" x="879.5" y="490">-complexCircle</text></g></g><g transform="translate(-78,-118) scale(1,1)"><g><path fill="none" stroke="none"/><text fill="#000000" stroke="none" font-family="Arial" font-size="13px" font-style="normal" font-weight="normal" text-decoration="none" x="966.5" y="518">1</text></g></g><g transform="translate(-78,-118) scale(1,1)"><path fill="none" stroke="#000000" d="M 128 432 L 128 128 L 1272 128 L 1272 456" stroke-miterlimit="10"/></g><g transform="translate(-78,-118) scale(1,1)"><path fill="none" stroke="#000000" d="M 1267.7904822439841 445.83732514237585 L 1272 456 L 1276.2095177560159 445.83732514237585" stroke-miterlimit="10"/></g><g transform="translate(-78,-118) scale(1,1)"><g><path fill="none" stroke="none"/><text fill="#000000" stroke="none" font-family="Arial" font-size="13px" font-style="normal" font-weight="normal" text-decoration="none" x="1281.13134765625" y="395">-complexSquare</text></g></g><g transform="translate(-78,-118) scale(1,1)"><g><path fill="none" stroke="none"/><text fill="#000000" stroke="none" font-family="Arial" font-size="13px" font-style="normal" font-weight="normal" text-decoration="none" x="1255.5" y="402">1</text></g></g></g></svg>