<svg version="1.1" xmlns="http://www.w3.org/2000/svg" xmlns:xlink="http://www.w3.org/1999/xlink" width="1277.91943359375" height="788"><defs/><g><g transform="translate(-46,-110) scale(1,1)"><rect fill="#C0C0C0" stroke="none" x="119" y="127" width="207.30078125" height="72" opacity="0.2"/></g><g transform="translate(-46,-110) scale(1,1)"><rect fill="#ffffff" stroke="none" x="112" y="120" width="207.30078125" height="72"/></g><g transform="translate(-46,-110) scale(1,1)"><path fill="none" stroke="#000000" d="M 112 120 L 319.30078125 120 L 319.30078125 192 L 112 192 L 112 120 Z Z" stroke-miterlimit="10"/></g><g transform="translate(-46,-110) scale(1,1)"><path fill="none" stroke="#000000" d="M 112 145 L 319.30078125 145" stroke-miterlimit="10"/></g><g transform="translate(-46,-110) scale(1,1)"><path fill="none" stroke="#000000" d="M 112 168 L 319.30078125 168" stroke-miterlimit="10"/></g><g transform="translate(-46,-110) scale(1,1)"><g><path fill="none" stroke="none"/><text fill="#000000" stroke="none" font-family="Arial" font-size="13px" font-style="normal" font-weight="bold" text-decoration="none" x="184.232666015625" y="138">ClientFilm</text></g></g><g transform="translate(-46,-110) scale(1,1)"><g><path fill="none" stroke="none"/><text fill="#000000" stroke="none" font-family="Arial" font-size="13px" font-style="normal" font-weight="normal" text-decoration="none" x="117" y="161">-scan: Scanner</text></g></g><g transform="translate(-46,-110) scale(1,1)"><g><path fill="none" stroke="none"/><text fill="#000000" stroke="none" font-family="Arial" font-size="13px" font-style="normal" font-weight="normal" text-decoration="none" x="117" y="184">+ClientFilm(extracteur: Extracteur)</text></g></g><g transform="translate(-46,-110) scale(1,1)"><rect fill="#C0C0C0" stroke="none" x="455" y="287" width="363.40234375" height="87" opacity="0.2"/></g><g transform="translate(-46,-110) scale(1,1)"><rect fill="#ffffff" stroke="none" x="448" y="280" width="363.40234375" height="87"/></g><g transform="translate(-46,-110) scale(1,1)"><path fill="none" stroke="#000000" d="M 448 280 L 811.40234375 280 L 811.40234375 367 L 448 367 L 448 280 Z Z" stroke-miterlimit="10"/></g><g transform="translate(-46,-110) scale(1,1)"><path fill="none" stroke="#000000" d="M 448 305 L 811.40234375 305" stroke-miterlimit="10"/></g><g transform="translate(-46,-110) scale(1,1)"><path fill="none" stroke="#000000" d="M 448 315 L 811.40234375 315" stroke-miterlimit="10"/></g><g transform="translate(-46,-110) scale(1,1)"><g><path fill="none" stroke="none"/><text fill="#000000" stroke="none" font-family="Arial" font-size="13px" font-style="normal" font-weight="bold" text-decoration="none" x="572.264404296875" y="298">ExtracteurAllocine</text></g></g><g transform="translate(-46,-110) scale(1,1)"><g><path fill="none" stroke="none"/><text fill="#000000" stroke="none" font-family="Arial" font-size="13px" font-style="normal" font-weight="normal" text-decoration="none" x="453" y="331">+filmExiste(nomFilm: String): boolean</text></g></g><g transform="translate(-46,-110) scale(1,1)"><g><path fill="none" stroke="none"/><text fill="#000000" stroke="none" font-family="Arial" font-size="13px" font-style="normal" font-weight="normal" text-decoration="none" x="453" y="346">+recupererNoteMoyenneUtilisateurs(nomFilm: String): double</text></g></g><g transform="translate(-46,-110) scale(1,1)"><g><path fill="none" stroke="none"/><text fill="#000000" stroke="none" font-family="Arial" font-size="13px" font-style="normal" font-weight="normal" text-decoration="none" x="453" y="361">+recupererAvis(nomFilm: String): String[*]</text></g></g><g transform="translate(-46,-110) scale(1,1)"><rect fill="#C0C0C0" stroke="none" x="423" y="127" width="363.40234375" height="90" opacity="0.2"/></g><g transform="translate(-46,-110) scale(1,1)"><rect fill="#ffffff" stroke="none" x="416" y="120" width="363.40234375" height="90"/></g><g transform="translate(-46,-110) scale(1,1)"><path fill="none" stroke="#000000" d="M 416 120 L 779.40234375 120 L 779.40234375 210 L 416 210 L 416 120 Z Z" stroke-miterlimit="10"/></g><g transform="translate(-46,-110) scale(1,1)"><path fill="none" stroke="#000000" d="M 416 158 L 779.40234375 158" stroke-miterlimit="10"/></g><g transform="translate(-46,-110) scale(1,1)"><g><path fill="none" stroke="none"/><text fill="#000000" stroke="none" font-family="Arial" font-size="13px" font-style="normal" font-weight="normal" text-decoration="none" x="565.540771484375" y="136">«interface»</text></g></g><g transform="translate(-46,-110) scale(1,1)"><g><path fill="none" stroke="none"/><text fill="#000000" stroke="none" font-family="Arial" font-size="13px" font-style="normal" font-weight="bold" text-decoration="none" x="565.547119140625" y="151">Extracteur</text></g></g><g transform="translate(-46,-110) scale(1,1)"><g><path fill="none" stroke="none"/><text fill="#000000" stroke="none" font-family="Arial" font-size="13px" font-style="normal" font-weight="normal" text-decoration="none" x="421" y="174">+filmExiste(nomFilm: String): boolean</text></g></g><g transform="translate(-46,-110) scale(1,1)"><g><path fill="none" stroke="none"/><text fill="#000000" stroke="none" font-family="Arial" font-size="13px" font-style="normal" font-weight="normal" text-decoration="none" x="421" y="189">+recupererNoteMoyenneUtilisateurs(nomFilm: String): double</text></g></g><g transform="translate(-46,-110) scale(1,1)"><g><path fill="none" stroke="none"/><text fill="#000000" stroke="none" font-family="Arial" font-size="13px" font-style="normal" font-weight="normal" text-decoration="none" x="421" y="204">+recupererAvis(nomFilm: String): String[*]</text></g></g><g transform="translate(-46,-110) scale(1,1)"><path fill="none" stroke="#000000" d="M 615 280 L 615 210" stroke-miterlimit="10" stroke-dasharray="3"/></g><g transform="translate(-46,-110) scale(1,1)"><path fill="#FFFFFF" stroke="none" d="M 623.419035512032 230.3253497152483 L 615 210 L 606.580964487968 230.3253497152483"/></g><g transform="translate(-46,-110) scale(1,1)"><path fill="none" stroke="#000000" d="M 623.419035512032 230.3253497152483 L 615 210 L 606.580964487968 230.3253497152483 L 623.419035512032 230.3253497152483" stroke-miterlimit="10"/></g><g transform="translate(-46,-110) scale(1,1)"><path fill="none" stroke="#000000" d="M 416 160 L 319 160" stroke-miterlimit="10"/></g><g transform="translate(-46,-110) scale(1,1)"><path fill="#FFFFFF" stroke="none" d="M 329.16267485762415 155.790482243984 L 319 160 L 329.16267485762415 164.209517756016 L 341 160"/></g><g transform="translate(-46,-110) scale(1,1)"><path fill="none" stroke="#000000" d="M 329.16267485762415 155.790482243984 L 319 160 L 329.16267485762415 164.209517756016 L 341 160 L 329.16267485762415 155.790482243984" stroke-miterlimit="10"/></g><g transform="translate(-46,-110) scale(1,1)"><path fill="none" stroke="#000000" d="M 405.83732514237585 164.209517756016 L 416 160 L 405.83732514237585 155.790482243984" stroke-miterlimit="10"/></g><g transform="translate(-46,-110) scale(1,1)"><g><path fill="none" stroke="none"/><text fill="#000000" stroke="none" font-family="Arial" font-size="13px" font-style="normal" font-weight="normal" text-decoration="none" x="342.5" y="178.5">-extracteur</text></g></g><g transform="translate(-46,-110) scale(1,1)"><g><path fill="none" stroke="none"/><text fill="#000000" stroke="none" font-family="Arial" font-size="13px" font-style="normal" font-weight="normal" text-decoration="none" x="390.5" y="152">1</text></g></g><g transform="translate(-46,-110) scale(1,1)"><rect fill="#C0C0C0" stroke="none" x="63" y="431" width="156.8" height="15" opacity="0.2"/></g><g transform="translate(-46,-110) scale(1,1)"><rect fill="#C0C0C0" stroke="none" x="63" y="445" width="392" height="194" opacity="0.2"/></g><g transform="translate(-46,-110) scale(1,1)"><rect fill="#ffffff" stroke="none" x="56" y="439" width="392" height="193"/></g><g transform="translate(-46,-110) scale(1,1)"><path fill="none" stroke="#000000" d="M 56 439 L 448 439 L 448 632 L 56 632 L 56 439 Z Z" stroke-miterlimit="10"/></g><g transform="translate(-46,-110) scale(1,1)"><rect fill="#ffffff" stroke="none" x="56" y="424" width="156.8" height="15"/></g><g transform="translate(-46,-110) scale(1,1)"><path fill="none" stroke="#000000" d="M 56 424 L 212.8 424 L 212.8 439 L 56 439 L 56 424 Z Z" stroke-miterlimit="10"/></g><g transform="translate(-46,-110) scale(1,1)"><rect fill="#ffffff" stroke="none" x="56" y="438" width="392" height="194"/></g><g transform="translate(-46,-110) scale(1,1)"><path fill="none" stroke="#000000" d="M 56 438 L 448 438 L 448 632 L 56 632 L 56 438 Z Z" stroke-miterlimit="10"/></g><g transform="translate(-46,-110) scale(1,1)"><path fill="none" stroke="#000000" d="M 204.8 427 L 204.8 431" stroke-miterlimit="10"/></g><g transform="translate(-46,-110) scale(1,1)"><path fill="none" stroke="#000000" d="M 201.8 435 L 201.8 431 L 207.8 431" stroke-miterlimit="10"/></g><g transform="translate(-46,-110) scale(1,1)"><path fill="none" stroke="#000000" d="M 207.8 435 L 207.8 431 L 201.8 431" stroke-miterlimit="10"/></g><g transform="translate(-46,-110) scale(1,1)"><g><path fill="none" stroke="none"/><text fill="#000000" stroke="none" font-family="Arial" font-size="13px" font-style="normal" font-weight="bold" text-decoration="none" x="182.648681640625" y="457">Librairie Sens Critique</text></g></g><g transform="translate(-46,-110) scale(1,1)"><rect fill="#C0C0C0" stroke="none" x="479" y="447" width="230.39999999999998" height="15" opacity="0.2"/></g><g transform="translate(-46,-110) scale(1,1)"><rect fill="#C0C0C0" stroke="none" x="479" y="461" width="576" height="434" opacity="0.2"/></g><g transform="translate(-46,-110) scale(1,1)"><rect fill="#ffffff" stroke="none" x="472" y="455" width="576" height="433"/></g><g transform="translate(-46,-110) scale(1,1)"><path fill="none" stroke="#000000" d="M 472 455 L 1048 455 L 1048 888 L 472 888 L 472 455 Z Z" stroke-miterlimit="10"/></g><g transform="translate(-46,-110) scale(1,1)"><rect fill="#ffffff" stroke="none" x="472" y="440" width="230.39999999999998" height="15"/></g><g transform="translate(-46,-110) scale(1,1)"><path fill="none" stroke="#000000" d="M 472 440 L 702.4 440 L 702.4 455 L 472 455 L 472 440 Z Z" stroke-miterlimit="10"/></g><g transform="translate(-46,-110) scale(1,1)"><rect fill="#ffffff" stroke="none" x="472" y="454" width="576" height="434"/></g><g transform="translate(-46,-110) scale(1,1)"><path fill="none" stroke="#000000" d="M 472 454 L 1048 454 L 1048 888 L 472 888 L 472 454 Z Z" stroke-miterlimit="10"/></g><g transform="translate(-46,-110) scale(1,1)"><path fill="none" stroke="#000000" d="M 694.4 443 L 694.4 447" stroke-miterlimit="10"/></g><g transform="translate(-46,-110) scale(1,1)"><path fill="none" stroke="#000000" d="M 691.4 451 L 691.4 447 L 697.4 447" stroke-miterlimit="10"/></g><g transform="translate(-46,-110) scale(1,1)"><path fill="none" stroke="#000000" d="M 697.4 451 L 697.4 447 L 691.4 447" stroke-miterlimit="10"/></g><g transform="translate(-46,-110) scale(1,1)"><g><path fill="none" stroke="none"/><text fill="#000000" stroke="none" font-family="Arial" font-size="13px" font-style="normal" font-weight="bold" text-decoration="none" x="679.943359375" y="473">Librairie Rotten Tomatoes</text></g></g><g transform="translate(-46,-110) scale(1,1)"><rect fill="#C0C0C0" stroke="none" x="79" y="503" width="349.68505859375" height="117" opacity="0.2"/></g><g transform="translate(-46,-110) scale(1,1)"><rect fill="#ffffff" stroke="none" x="72" y="496" width="349.68505859375" height="117"/></g><g transform="translate(-46,-110) scale(1,1)"><path fill="none" stroke="#000000" d="M 72 496 L 421.68505859375 496 L 421.68505859375 613 L 72 613 L 72 496 Z Z" stroke-miterlimit="10"/></g><g transform="translate(-46,-110) scale(1,1)"><path fill="none" stroke="#000000" d="M 72 521 L 421.68505859375 521" stroke-miterlimit="10"/></g><g transform="translate(-46,-110) scale(1,1)"><path fill="none" stroke="#000000" d="M 72 531 L 421.68505859375 531" stroke-miterlimit="10"/></g><g transform="translate(-46,-110) scale(1,1)"><g><path fill="none" stroke="none"/><text fill="#000000" stroke="none" font-family="Arial" font-size="13px" font-style="normal" font-weight="bold" text-decoration="none" x="195.915283203125" y="514">SensCritiqueAPI</text></g></g><g transform="translate(-46,-110) scale(1,1)"><g><path fill="none" stroke="none"/><text fill="#000000" stroke="none" font-family="Arial" font-size="13px" font-style="normal" font-weight="normal" text-decoration="none" x="77" y="547">+verifierFilm(film: String): int</text></g></g><g transform="translate(-46,-110) scale(1,1)"><g><path fill="none" stroke="none"/><text fill="#000000" stroke="none" font-family="Arial" font-size="13px" font-style="normal" font-weight="normal" text-decoration="none" x="77" y="562">+obtenirNoteUtilisateurs(film: String): double</text></g></g><g transform="translate(-46,-110) scale(1,1)"><g><path fill="none" stroke="none"/><text fill="#000000" stroke="none" font-family="Arial" font-size="13px" font-style="normal" font-weight="normal" text-decoration="none" x="77" y="577">+obtenirNotePresse(film: String): double</text></g></g><g transform="translate(-46,-110) scale(1,1)"><g><path fill="none" stroke="none"/><text fill="#000000" stroke="none" font-family="Arial" font-size="13px" font-style="normal" font-weight="normal" text-decoration="none" x="77" y="592">+obtenirCritiquesUtilisateurs(film: String): List&lt;String&gt;</text></g></g><g transform="translate(-46,-110) scale(1,1)"><g><path fill="none" stroke="none"/><text fill="#000000" stroke="none" font-family="Arial" font-size="13px" font-style="normal" font-weight="normal" text-decoration="none" x="77" y="607">+obtenirInformationsTechniquesFilm(): Map&lt;String, String&gt;</text></g></g><g transform="translate(-46,-110) scale(1,1)"><path fill="none" stroke="#000000" d="M 765 596 L 765 672" stroke-miterlimit="10" stroke-dasharray="3"/></g><g transform="translate(-46,-110) scale(1,1)"><path fill="none" stroke="#000000" d="M 760.790482243984 661.8373251423759 L 765 672 L 769.209517756016 661.8373251423759" stroke-miterlimit="10"/></g><g transform="translate(-46,-110) scale(1,1)"><g><path fill="none" stroke="none"/><text fill="#000000" stroke="none" font-family="Arial" font-size="13px" font-style="normal" font-weight="normal" text-decoration="none" x="783.5" y="634.5">«create»</text></g></g><g transform="translate(-46,-110) scale(1,1)"><rect fill="#C0C0C0" stroke="none" x="71" y="287" width="363.40234375" height="102" opacity="0.2"/></g><g transform="translate(-46,-110) scale(1,1)"><rect fill="#ffffff" stroke="none" x="64" y="280" width="363.40234375" height="102"/></g><g transform="translate(-46,-110) scale(1,1)"><path fill="none" stroke="#000000" d="M 64 280 L 427.40234375 280 L 427.40234375 382 L 64 382 L 64 280 Z Z" stroke-miterlimit="10"/></g><g transform="translate(-46,-110) scale(1,1)"><path fill="none" stroke="#000000" d="M 64 305 L 427.40234375 305" stroke-miterlimit="10"/></g><g transform="translate(-46,-110) scale(1,1)"><path fill="none" stroke="#000000" d="M 64 315 L 427.40234375 315" stroke-miterlimit="10"/></g><g transform="translate(-46,-110) scale(1,1)"><g><path fill="none" stroke="none"/><text fill="#000000" stroke="none" font-family="Arial" font-size="13px" font-style="normal" font-weight="bold" text-decoration="none" x="139.146240234375" y="298">ExtracteurSensCritiqueAdaptateur</text></g></g><g transform="translate(-46,-110) scale(1,1)"><g><path fill="none" stroke="none"/><text fill="#000000" stroke="none" font-family="Arial" font-size="13px" font-style="normal" font-weight="normal" text-decoration="none" x="69" y="331">+ExtracteurSensCritiqueAdaptateur(api: SensCritiqueAPI)</text></g></g><g transform="translate(-46,-110) scale(1,1)"><g><path fill="none" stroke="none"/><text fill="#000000" stroke="none" font-family="Arial" font-size="13px" font-style="normal" font-weight="normal" text-decoration="none" x="69" y="346">+filmExiste(nomFilm: String): boolean</text></g></g><g transform="translate(-46,-110) scale(1,1)"><g><path fill="none" stroke="none"/><text fill="#000000" stroke="none" font-family="Arial" font-size="13px" font-style="normal" font-weight="normal" text-decoration="none" x="69" y="361">+recupererNoteMoyenneUtilisateurs(nomFilm: String): double</text></g></g><g transform="translate(-46,-110) scale(1,1)"><g><path fill="none" stroke="none"/><text fill="#000000" stroke="none" font-family="Arial" font-size="13px" font-style="normal" font-weight="normal" text-decoration="none" x="69" y="376">+recupererAvis(nomFilm: String): String[*]</text></g></g><g transform="translate(-46,-110) scale(1,1)"><path fill="none" stroke="#000000" d="M 352 496 L 352 382" stroke-miterlimit="10"/></g><g transform="translate(-46,-110) scale(1,1)"><path fill="#FFFFFF" stroke="none" d="M 356.209517756016 392.16267485762415 L 352 382 L 347.790482243984 392.16267485762415 L 352 404"/></g><g transform="translate(-46,-110) scale(1,1)"><path fill="none" stroke="#000000" d="M 356.209517756016 392.16267485762415 L 352 382 L 347.790482243984 392.16267485762415 L 352 404 L 356.209517756016 392.16267485762415" stroke-miterlimit="10"/></g><g transform="translate(-46,-110) scale(1,1)"><path fill="none" stroke="#000000" d="M 347.790482243984 485.83732514237585 L 352 496 L 356.209517756016 485.83732514237585" stroke-miterlimit="10"/></g><g transform="translate(-46,-110) scale(1,1)"><g><path fill="none" stroke="none"/><text fill="#000000" stroke="none" font-family="Arial" font-size="13px" font-style="normal" font-weight="normal" text-decoration="none" x="326.5" y="475">-api</text></g></g><g transform="translate(-46,-110) scale(1,1)"><g><path fill="none" stroke="none"/><text fill="#000000" stroke="none" font-family="Arial" font-size="13px" font-style="normal" font-weight="normal" text-decoration="none" x="360.5" y="479">1</text></g></g><g transform="translate(-46,-110) scale(1,1)"><rect fill="#C0C0C0" stroke="none" x="615" y="503" width="295.4697265625" height="100" opacity="0.2"/></g><g transform="translate(-46,-110) scale(1,1)"><rect fill="#ffffff" stroke="none" x="608" y="496" width="295.4697265625" height="100"/></g><g transform="translate(-46,-110) scale(1,1)"><path fill="none" stroke="#000000" d="M 608 496 L 903.4697265625 496 L 903.4697265625 596 L 608 596 L 608 496 Z Z" stroke-miterlimit="10"/></g><g transform="translate(-46,-110) scale(1,1)"><path fill="none" stroke="#000000" d="M 608 521 L 903.4697265625 521" stroke-miterlimit="10"/></g><g transform="translate(-46,-110) scale(1,1)"><path fill="none" stroke="#000000" d="M 608 544 L 903.4697265625 544" stroke-miterlimit="10"/></g><g transform="translate(-46,-110) scale(1,1)"><g><path fill="none" stroke="none"/><text fill="#000000" stroke="none" font-family="Arial" font-size="13px" font-style="normal" font-weight="bold" text-decoration="none" x="662.31005859375" y="514">RottenTomatoesDataExtractor</text></g></g><g transform="translate(-46,-110) scale(1,1)"><g><path fill="none" stroke="none"/><text fill="#000000" stroke="none" font-family="Arial" font-size="13px" font-style="normal" font-weight="normal" text-decoration="none" x="613" y="537">-INSTANCE: RottenTomatoesDataExtractor</text><path fill="none" stroke="#000000" d="M 613 538.5 L 863.453125 538.5" stroke-miterlimit="10"/></g></g><g transform="translate(-46,-110) scale(1,1)"><g><path fill="none" stroke="none"/><text fill="#000000" stroke="none" font-family="Arial" font-size="13px" font-style="normal" font-weight="normal" text-decoration="none" x="613" y="560">-RottenTomatoesDataExtractor()</text></g></g><g transform="translate(-46,-110) scale(1,1)"><g><path fill="none" stroke="none"/><text fill="#000000" stroke="none" font-family="Arial" font-size="13px" font-style="normal" font-weight="normal" text-decoration="none" x="613" y="575">+getInstance(): RottenTomatoesDataExtractor</text><path fill="none" stroke="#000000" d="M 613 576.5 L 877.82421875 576.5" stroke-miterlimit="10"/></g></g><g transform="translate(-46,-110) scale(1,1)"><g><path fill="none" stroke="none"/><text fill="#000000" stroke="none" font-family="Arial" font-size="13px" font-style="normal" font-weight="normal" text-decoration="none" x="613" y="590">+getMovieInformation(movieName: String): Movie</text></g></g><g transform="translate(-46,-110) scale(1,1)"><rect fill="#C0C0C0" stroke="none" x="559" y="679" width="420.5185546875" height="175" opacity="0.2"/></g><g transform="translate(-46,-110) scale(1,1)"><rect fill="#ffffff" stroke="none" x="552" y="672" width="420.5185546875" height="175"/></g><g transform="translate(-46,-110) scale(1,1)"><path fill="none" stroke="#000000" d="M 552 672 L 972.5185546875 672 L 972.5185546875 847 L 552 847 L 552 672 Z Z" stroke-miterlimit="10"/></g><g transform="translate(-46,-110) scale(1,1)"><path fill="none" stroke="#000000" d="M 552 697 L 972.5185546875 697" stroke-miterlimit="10"/></g><g transform="translate(-46,-110) scale(1,1)"><path fill="none" stroke="#000000" d="M 552 765 L 972.5185546875 765" stroke-miterlimit="10"/></g><g transform="translate(-46,-110) scale(1,1)"><g><path fill="none" stroke="none"/><text fill="#000000" stroke="none" font-family="Arial" font-size="13px" font-style="normal" font-weight="bold" text-decoration="none" x="743.83837890625" y="690">Movie</text></g></g><g transform="translate(-46,-110) scale(1,1)"><g><path fill="none" stroke="none"/><text fill="#000000" stroke="none" font-family="Arial" font-size="13px" font-style="normal" font-weight="normal" text-decoration="none" x="557" y="713">-name: String</text></g></g><g transform="translate(-46,-110) scale(1,1)"><g><path fill="none" stroke="none"/><text fill="#000000" stroke="none" font-family="Arial" font-size="13px" font-style="normal" font-weight="normal" text-decoration="none" x="557" y="728">-category: String</text></g></g><g transform="translate(-46,-110) scale(1,1)"><g><path fill="none" stroke="none"/><text fill="#000000" stroke="none" font-family="Arial" font-size="13px" font-style="normal" font-weight="normal" text-decoration="none" x="557" y="743">-note: double</text></g></g><g transform="translate(-46,-110) scale(1,1)"><g><path fill="none" stroke="none"/><text fill="#000000" stroke="none" font-family="Arial" font-size="13px" font-style="normal" font-weight="normal" text-decoration="none" x="557" y="758">-reviews: String[*]</text></g></g><g transform="translate(-46,-110) scale(1,1)"><g><path fill="none" stroke="none"/><text fill="#000000" stroke="none" font-family="Arial" font-size="13px" font-style="normal" font-weight="normal" text-decoration="none" x="557" y="781">+Movie(name: String, category: double, note: double, reviews: String[*])</text></g></g><g transform="translate(-46,-110) scale(1,1)"><g><path fill="none" stroke="none"/><text fill="#000000" stroke="none" font-family="Arial" font-size="13px" font-style="normal" font-weight="normal" text-decoration="none" x="557" y="796">+getName(): String</text></g></g><g transform="translate(-46,-110) scale(1,1)"><g><path fill="none" stroke="none"/><text fill="#000000" stroke="none" font-family="Arial" font-size="13px" font-style="normal" font-weight="normal" text-decoration="none" x="557" y="811">+getCategory(): String</text></g></g><g transform="translate(-46,-110) scale(1,1)"><g><path fill="none" stroke="none"/><text fill="#000000" stroke="none" font-family="Arial" font-size="13px" font-style="normal" font-weight="normal" text-decoration="none" x="557" y="826">+getNote(): double</text></g></g><g transform="translate(-46,-110) scale(1,1)"><g><path fill="none" stroke="none"/><text fill="#000000" stroke="none" font-family="Arial" font-size="13px" font-style="normal" font-weight="normal" text-decoration="none" x="557" y="841">+getReviews(): String[*]</text></g></g><g transform="translate(-46,-110) scale(1,1)"><path fill="none" stroke="#000000" d="M 903 544 L 1000 544 L 1000 382" stroke-miterlimit="10"/></g><g transform="translate(-46,-110) scale(1,1)"><path fill="#FFFFFF" stroke="none" d="M 1004.209517756016 392.16267485762415 L 1000 382 L 995.790482243984 392.16267485762415 L 1000 404"/></g><g transform="translate(-46,-110) scale(1,1)"><path fill="none" stroke="#000000" d="M 1004.209517756016 392.16267485762415 L 1000 382 L 995.790482243984 392.16267485762415 L 1000 404 L 1004.209517756016 392.16267485762415" stroke-miterlimit="10"/></g><g transform="translate(-46,-110) scale(1,1)"><path fill="none" stroke="#000000" d="M 913.1626748576241 539.790482243984 L 903 544 L 913.1626748576241 548.209517756016" stroke-miterlimit="10"/></g><g transform="translate(-46,-110) scale(1,1)"><g><path fill="none" stroke="none"/><text fill="#000000" stroke="none" font-family="Arial" font-size="13px" font-style="normal" font-weight="normal" text-decoration="none" x="910.5" y="530.5">-extractor</text></g></g><g transform="translate(-46,-110) scale(1,1)"><g><path fill="none" stroke="none"/><text fill="#000000" stroke="none" font-family="Arial" font-size="13px" font-style="normal" font-weight="normal" text-decoration="none" x="920.5" y="561">1</text></g></g><g transform="translate(-46,-110) scale(1,1)"><path fill="none" stroke="#000000" d="M 1136 382 L 1136 768 L 973 768" stroke-miterlimit="10" stroke-dasharray="3"/></g><g transform="translate(-46,-110) scale(1,1)"><path fill="none" stroke="#000000" d="M 983.1626748576241 763.790482243984 L 973 768 L 983.1626748576241 772.209517756016" stroke-miterlimit="10"/></g><g transform="translate(-46,-110) scale(1,1)"><rect fill="#C0C0C0" stroke="none" x="839" y="287" width="481.91943359375" height="102" opacity="0.2"/></g><g transform="translate(-46,-110) scale(1,1)"><rect fill="#ffffff" stroke="none" x="832" y="280" width="481.91943359375" height="102"/></g><g transform="translate(-46,-110) scale(1,1)"><path fill="none" stroke="#000000" d="M 832 280 L 1313.91943359375 280 L 1313.91943359375 382 L 832 382 L 832 280 Z Z" stroke-miterlimit="10"/></g><g transform="translate(-46,-110) scale(1,1)"><path fill="none" stroke="#000000" d="M 832 305 L 1313.91943359375 305" stroke-miterlimit="10"/></g><g transform="translate(-46,-110) scale(1,1)"><path fill="none" stroke="#000000" d="M 832 315 L 1313.91943359375 315" stroke-miterlimit="10"/></g><g transform="translate(-46,-110) scale(1,1)"><g><path fill="none" stroke="none"/><text fill="#000000" stroke="none" font-family="Arial" font-size="13px" font-style="normal" font-weight="bold" text-decoration="none" x="955.699462890625" y="298">ExtracteurRottenTomatoesAdaptateur</text></g></g><g transform="translate(-46,-110) scale(1,1)"><g><path fill="none" stroke="none"/><text fill="#000000" stroke="none" font-family="Arial" font-size="13px" font-style="normal" font-weight="normal" text-decoration="none" x="837" y="331">+ExtracteurRottenTomatoesAdaptateur(extractor: RottenTomatoesDataExtractor)</text></g></g><g transform="translate(-46,-110) scale(1,1)"><g><path fill="none" stroke="none"/><text fill="#000000" stroke="none" font-family="Arial" font-size="13px" font-style="normal" font-weight="normal" text-decoration="none" x="837" y="346">+filmExiste(nomFilm: String): boolean</text></g></g><g transform="translate(-46,-110) scale(1,1)"><g><path fill="none" stroke="none"/><text fill="#000000" stroke="none" font-family="Arial" font-size="13px" font-style="normal" font-weight="normal" text-decoration="none" x="837" y="361">+recupererNoteMoyenneUtilisateurs(nomFilm: String): double</text></g></g><g transform="translate(-46,-110) scale(1,1)"><g><path fill="none" stroke="none"/><text fill="#000000" stroke="none" font-family="Arial" font-size="13px" font-style="normal" font-weight="normal" text-decoration="none" x="837" y="376">+recupererAvis(nomFilm: String): String[*]</text></g></g><g transform="translate(-46,-110) scale(1,1)"><path fill="none" stroke="#000000" d="M 336 280 L 336 256 L 560 256 L 560 210" stroke-miterlimit="10" stroke-dasharray="3"/></g><g transform="translate(-46,-110) scale(1,1)"><path fill="#FFFFFF" stroke="none" d="M 568.419035512032 230.3253497152483 L 560 210 L 551.580964487968 230.3253497152483"/></g><g transform="translate(-46,-110) scale(1,1)"><path fill="none" stroke="#000000" d="M 568.419035512032 230.3253497152483 L 560 210 L 551.580964487968 230.3253497152483 L 568.419035512032 230.3253497152483" stroke-miterlimit="10"/></g><g transform="translate(-46,-110) scale(1,1)"><path fill="none" stroke="#000000" d="M 928 280 L 928 256 L 664 256 L 664 210" stroke-miterlimit="10" stroke-dasharray="3"/></g><g transform="translate(-46,-110) scale(1,1)"><path fill="#FFFFFF" stroke="none" d="M 672.419035512032 230.3253497152483 L 664 210 L 655.580964487968 230.3253497152483"/></g><g transform="translate(-46,-110) scale(1,1)"><path fill="none" stroke="#000000" d="M 672.419035512032 230.3253497152483 L 664 210 L 655.580964487968 230.3253497152483 L 672.419035512032 230.3253497152483" stroke-miterlimit="10"/></g></g></svg>