<svg version="1.1" xmlns="http://www.w3.org/2000/svg" xmlns:xlink="http://www.w3.org/1999/xlink" width="1076" height="788"><defs/><g><g transform="translate(-102,-110) scale(1,1)"><rect fill="#C0C0C0" stroke="none" x="119" y="127" width="207.30078125" height="72" opacity="0.2"/></g><g transform="translate(-102,-110) scale(1,1)"><rect fill="#ffffff" stroke="none" x="112" y="120" width="207.30078125" height="72"/></g><g transform="translate(-102,-110) scale(1,1)"><path fill="none" stroke="#000000" d="M 112 120 L 319.30078125 120 L 319.30078125 192 L 112 192 L 112 120 Z Z" stroke-miterlimit="10"/></g><g transform="translate(-102,-110) scale(1,1)"><path fill="none" stroke="#000000" d="M 112 145 L 319.30078125 145" stroke-miterlimit="10"/></g><g transform="translate(-102,-110) scale(1,1)"><path fill="none" stroke="#000000" d="M 112 168 L 319.30078125 168" stroke-miterlimit="10"/></g><g transform="translate(-102,-110) scale(1,1)"><g><path fill="none" stroke="none"/><text fill="#000000" stroke="none" font-family="Arial" font-size="13px" font-style="normal" font-weight="bold" text-decoration="none" x="184.232666015625" y="138">ClientFilm</text></g></g><g transform="translate(-102,-110) scale(1,1)"><g><path fill="none" stroke="none"/><text fill="#000000" stroke="none" font-family="Arial" font-size="13px" font-style="normal" font-weight="normal" text-decoration="none" x="117" y="161">-scan: Scanner</text></g></g><g transform="translate(-102,-110) scale(1,1)"><g><path fill="none" stroke="none"/><text fill="#000000" stroke="none" font-family="Arial" font-size="13px" font-style="normal" font-weight="normal" text-decoration="none" x="117" y="184">+ClientFilm(extracteur: Extracteur)</text></g></g><g transform="translate(-102,-110) scale(1,1)"><rect fill="#C0C0C0" stroke="none" x="455" y="287" width="363.40234375" height="87" opacity="0.2"/></g><g transform="translate(-102,-110) scale(1,1)"><rect fill="#ffffff" stroke="none" x="448" y="280" width="363.40234375" height="87"/></g><g transform="translate(-102,-110) scale(1,1)"><path fill="none" stroke="#000000" d="M 448 280 L 811.40234375 280 L 811.40234375 367 L 448 367 L 448 280 Z Z" stroke-miterlimit="10"/></g><g transform="translate(-102,-110) scale(1,1)"><path fill="none" stroke="#000000" d="M 448 305 L 811.40234375 305" stroke-miterlimit="10"/></g><g transform="translate(-102,-110) scale(1,1)"><path fill="none" stroke="#000000" d="M 448 315 L 811.40234375 315" stroke-miterlimit="10"/></g><g transform="translate(-102,-110) scale(1,1)"><g><path fill="none" stroke="none"/><text fill="#000000" stroke="none" font-family="Arial" font-size="13px" font-style="normal" font-weight="bold" text-decoration="none" x="572.264404296875" y="298">ExtracteurAllocine</text></g></g><g transform="translate(-102,-110) scale(1,1)"><g><path fill="none" stroke="none"/><text fill="#000000" stroke="none" font-family="Arial" font-size="13px" font-style="normal" font-weight="normal" text-decoration="none" x="453" y="331">+filmExiste(nomFilm: String): boolean</text></g></g><g transform="translate(-102,-110) scale(1,1)"><g><path fill="none" stroke="none"/><text fill="#000000" stroke="none" font-family="Arial" font-size="13px" font-style="normal" font-weight="normal" text-decoration="none" x="453" y="346">+recupererNoteMoyenneUtilisateurs(nomFilm: String): double</text></g></g><g transform="translate(-102,-110) scale(1,1)"><g><path fill="none" stroke="none"/><text fill="#000000" stroke="none" font-family="Arial" font-size="13px" font-style="normal" font-weight="normal" text-decoration="none" x="453" y="361">+recupererAvis(nomFilm: String): String[*]</text></g></g><g transform="translate(-102,-110) scale(1,1)"><rect fill="#C0C0C0" stroke="none" x="455" y="127" width="363.40234375" height="90" opacity="0.2"/></g><g transform="translate(-102,-110) scale(1,1)"><rect fill="#ffffff" stroke="none" x="448" y="120" width="363.40234375" height="90"/></g><g transform="translate(-102,-110) scale(1,1)"><path fill="none" stroke="#000000" d="M 448 120 L 811.40234375 120 L 811.40234375 210 L 448 210 L 448 120 Z Z" stroke-miterlimit="10"/></g><g transform="translate(-102,-110) scale(1,1)"><path fill="none" stroke="#000000" d="M 448 158 L 811.40234375 158" stroke-miterlimit="10"/></g><g transform="translate(-102,-110) scale(1,1)"><g><path fill="none" stroke="none"/><text fill="#000000" stroke="none" font-family="Arial" font-size="13px" font-style="normal" font-weight="normal" text-decoration="none" x="597.540771484375" y="136">«interface»</text></g></g><g transform="translate(-102,-110) scale(1,1)"><g><path fill="none" stroke="none"/><text fill="#000000" stroke="none" font-family="Arial" font-size="13px" font-style="normal" font-weight="bold" text-decoration="none" x="597.547119140625" y="151">Extracteur</text></g></g><g transform="translate(-102,-110) scale(1,1)"><g><path fill="none" stroke="none"/><text fill="#000000" stroke="none" font-family="Arial" font-size="13px" font-style="normal" font-weight="normal" text-decoration="none" x="453" y="174">+filmExiste(nomFilm: String): boolean</text></g></g><g transform="translate(-102,-110) scale(1,1)"><g><path fill="none" stroke="none"/><text fill="#000000" stroke="none" font-family="Arial" font-size="13px" font-style="normal" font-weight="normal" text-decoration="none" x="453" y="189">+recupererNoteMoyenneUtilisateurs(nomFilm: String): double</text></g></g><g transform="translate(-102,-110) scale(1,1)"><g><path fill="none" stroke="none"/><text fill="#000000" stroke="none" font-family="Arial" font-size="13px" font-style="normal" font-weight="normal" text-decoration="none" x="453" y="204">+recupererAvis(nomFilm: String): String[*]</text></g></g><g transform="translate(-102,-110) scale(1,1)"><path fill="none" stroke="#000000" d="M 615 280 L 615 210" stroke-miterlimit="10" stroke-dasharray="3"/></g><g transform="translate(-102,-110) scale(1,1)"><path fill="#FFFFFF" stroke="none" d="M 623.419035512032 230.3253497152483 L 615 210 L 606.580964487968 230.3253497152483"/></g><g transform="translate(-102,-110) scale(1,1)"><path fill="none" stroke="#000000" d="M 623.419035512032 230.3253497152483 L 615 210 L 606.580964487968 230.3253497152483 L 623.419035512032 230.3253497152483" stroke-miterlimit="10"/></g><g transform="translate(-102,-110) scale(1,1)"><path fill="none" stroke="#000000" d="M 448 160 L 319 160" stroke-miterlimit="10"/></g><g transform="translate(-102,-110) scale(1,1)"><path fill="#FFFFFF" stroke="none" d="M 329.16267485762415 155.790482243984 L 319 160 L 329.16267485762415 164.209517756016 L 341 160"/></g><g transform="translate(-102,-110) scale(1,1)"><path fill="none" stroke="#000000" d="M 329.16267485762415 155.790482243984 L 319 160 L 329.16267485762415 164.209517756016 L 341 160 L 329.16267485762415 155.790482243984" stroke-miterlimit="10"/></g><g transform="translate(-102,-110) scale(1,1)"><path fill="none" stroke="#000000" d="M 437.83732514237585 164.209517756016 L 448 160 L 437.83732514237585 155.790482243984" stroke-miterlimit="10"/></g><g transform="translate(-102,-110) scale(1,1)"><g><path fill="none" stroke="none"/><text fill="#000000" stroke="none" font-family="Arial" font-size="13px" font-style="normal" font-weight="normal" text-decoration="none" x="374.5" y="178.5">-extracteur</text></g></g><g transform="translate(-102,-110) scale(1,1)"><g><path fill="none" stroke="none"/><text fill="#000000" stroke="none" font-family="Arial" font-size="13px" font-style="normal" font-weight="normal" text-decoration="none" x="422.5" y="152">1</text></g></g><g transform="translate(-102,-110) scale(1,1)"><rect fill="#C0C0C0" stroke="none" x="159" y="431" width="156.8" height="15" opacity="0.2"/></g><g transform="translate(-102,-110) scale(1,1)"><rect fill="#C0C0C0" stroke="none" x="159" y="445" width="392" height="210" opacity="0.2"/></g><g transform="translate(-102,-110) scale(1,1)"><rect fill="#ffffff" stroke="none" x="152" y="439" width="392" height="209"/></g><g transform="translate(-102,-110) scale(1,1)"><path fill="none" stroke="#000000" d="M 152 439 L 544 439 L 544 648 L 152 648 L 152 439 Z Z" stroke-miterlimit="10"/></g><g transform="translate(-102,-110) scale(1,1)"><rect fill="#ffffff" stroke="none" x="152" y="424" width="156.8" height="15"/></g><g transform="translate(-102,-110) scale(1,1)"><path fill="none" stroke="#000000" d="M 152 424 L 308.8 424 L 308.8 439 L 152 439 L 152 424 Z Z" stroke-miterlimit="10"/></g><g transform="translate(-102,-110) scale(1,1)"><rect fill="#ffffff" stroke="none" x="152" y="438" width="392" height="210"/></g><g transform="translate(-102,-110) scale(1,1)"><path fill="none" stroke="#000000" d="M 152 438 L 544 438 L 544 648 L 152 648 L 152 438 Z Z" stroke-miterlimit="10"/></g><g transform="translate(-102,-110) scale(1,1)"><path fill="none" stroke="#000000" d="M 300.8 427 L 300.8 431" stroke-miterlimit="10"/></g><g transform="translate(-102,-110) scale(1,1)"><path fill="none" stroke="#000000" d="M 297.8 435 L 297.8 431 L 303.8 431" stroke-miterlimit="10"/></g><g transform="translate(-102,-110) scale(1,1)"><path fill="none" stroke="#000000" d="M 303.8 435 L 303.8 431 L 297.8 431" stroke-miterlimit="10"/></g><g transform="translate(-102,-110) scale(1,1)"><g><path fill="none" stroke="none"/><text fill="#000000" stroke="none" font-family="Arial" font-size="13px" font-style="normal" font-weight="bold" text-decoration="none" x="278.648681640625" y="457">Librairie Sens Critique</text></g></g><g transform="translate(-102,-110) scale(1,1)"><rect fill="#C0C0C0" stroke="none" x="599" y="447" width="230.39999999999998" height="15" opacity="0.2"/></g><g transform="translate(-102,-110) scale(1,1)"><rect fill="#C0C0C0" stroke="none" x="599" y="461" width="576" height="434" opacity="0.2"/></g><g transform="translate(-102,-110) scale(1,1)"><rect fill="#ffffff" stroke="none" x="592" y="455" width="576" height="433"/></g><g transform="translate(-102,-110) scale(1,1)"><path fill="none" stroke="#000000" d="M 592 455 L 1168 455 L 1168 888 L 592 888 L 592 455 Z Z" stroke-miterlimit="10"/></g><g transform="translate(-102,-110) scale(1,1)"><rect fill="#ffffff" stroke="none" x="592" y="440" width="230.39999999999998" height="15"/></g><g transform="translate(-102,-110) scale(1,1)"><path fill="none" stroke="#000000" d="M 592 440 L 822.4 440 L 822.4 455 L 592 455 L 592 440 Z Z" stroke-miterlimit="10"/></g><g transform="translate(-102,-110) scale(1,1)"><rect fill="#ffffff" stroke="none" x="592" y="454" width="576" height="434"/></g><g transform="translate(-102,-110) scale(1,1)"><path fill="none" stroke="#000000" d="M 592 454 L 1168 454 L 1168 888 L 592 888 L 592 454 Z Z" stroke-miterlimit="10"/></g><g transform="translate(-102,-110) scale(1,1)"><path fill="none" stroke="#000000" d="M 814.4 443 L 814.4 447" stroke-miterlimit="10"/></g><g transform="translate(-102,-110) scale(1,1)"><path fill="none" stroke="#000000" d="M 811.4 451 L 811.4 447 L 817.4 447" stroke-miterlimit="10"/></g><g transform="translate(-102,-110) scale(1,1)"><path fill="none" stroke="#000000" d="M 817.4 451 L 817.4 447 L 811.4 447" stroke-miterlimit="10"/></g><g transform="translate(-102,-110) scale(1,1)"><g><path fill="none" stroke="none"/><text fill="#000000" stroke="none" font-family="Arial" font-size="13px" font-style="normal" font-weight="bold" text-decoration="none" x="799.943359375" y="473">Librairie Rotten Tomatoes</text></g></g><g transform="translate(-102,-110) scale(1,1)"><rect fill="#C0C0C0" stroke="none" x="175" y="495" width="349.68505859375" height="117" opacity="0.2"/></g><g transform="translate(-102,-110) scale(1,1)"><rect fill="#ffffff" stroke="none" x="168" y="488" width="349.68505859375" height="117"/></g><g transform="translate(-102,-110) scale(1,1)"><path fill="none" stroke="#000000" d="M 168 488 L 517.68505859375 488 L 517.68505859375 605 L 168 605 L 168 488 Z Z" stroke-miterlimit="10"/></g><g transform="translate(-102,-110) scale(1,1)"><path fill="none" stroke="#000000" d="M 168 513 L 517.68505859375 513" stroke-miterlimit="10"/></g><g transform="translate(-102,-110) scale(1,1)"><path fill="none" stroke="#000000" d="M 168 523 L 517.68505859375 523" stroke-miterlimit="10"/></g><g transform="translate(-102,-110) scale(1,1)"><g><path fill="none" stroke="none"/><text fill="#000000" stroke="none" font-family="Arial" font-size="13px" font-style="normal" font-weight="bold" text-decoration="none" x="291.915283203125" y="506">SensCritiqueAPI</text></g></g><g transform="translate(-102,-110) scale(1,1)"><g><path fill="none" stroke="none"/><text fill="#000000" stroke="none" font-family="Arial" font-size="13px" font-style="normal" font-weight="normal" text-decoration="none" x="173" y="539">+verifierFilm(film: String): int</text></g></g><g transform="translate(-102,-110) scale(1,1)"><g><path fill="none" stroke="none"/><text fill="#000000" stroke="none" font-family="Arial" font-size="13px" font-style="normal" font-weight="normal" text-decoration="none" x="173" y="554">+obtenirNoteUtilisateurs(film: String): double</text></g></g><g transform="translate(-102,-110) scale(1,1)"><g><path fill="none" stroke="none"/><text fill="#000000" stroke="none" font-family="Arial" font-size="13px" font-style="normal" font-weight="normal" text-decoration="none" x="173" y="569">+obtenirNotePresse(film: String): double</text></g></g><g transform="translate(-102,-110) scale(1,1)"><g><path fill="none" stroke="none"/><text fill="#000000" stroke="none" font-family="Arial" font-size="13px" font-style="normal" font-weight="normal" text-decoration="none" x="173" y="584">+obtenirCritiquesUtilisateurs(film: String): List&lt;String&gt;</text></g></g><g transform="translate(-102,-110) scale(1,1)"><g><path fill="none" stroke="none"/><text fill="#000000" stroke="none" font-family="Arial" font-size="13px" font-style="normal" font-weight="normal" text-decoration="none" x="173" y="599">+obtenirInformationsTechniquesFilm(): Map&lt;String, String&gt;</text></g></g><g transform="translate(-102,-110) scale(1,1)"><path fill="none" stroke="#000000" d="M 885 604 L 885 688" stroke-miterlimit="10" stroke-dasharray="3"/></g><g transform="translate(-102,-110) scale(1,1)"><path fill="none" stroke="#000000" d="M 880.790482243984 677.8373251423759 L 885 688 L 889.209517756016 677.8373251423759" stroke-miterlimit="10"/></g><g transform="translate(-102,-110) scale(1,1)"><g><path fill="none" stroke="none"/><text fill="#000000" stroke="none" font-family="Arial" font-size="13px" font-style="normal" font-weight="normal" text-decoration="none" x="903.5" y="646.5">«create»</text></g></g><g transform="translate(-102,-110) scale(1,1)"><rect fill="#C0C0C0" stroke="none" x="735" y="511" width="295.4697265625" height="100" opacity="0.2"/></g><g transform="translate(-102,-110) scale(1,1)"><rect fill="#ffffff" stroke="none" x="728" y="504" width="295.4697265625" height="100"/></g><g transform="translate(-102,-110) scale(1,1)"><path fill="none" stroke="#000000" d="M 728 504 L 1023.4697265625 504 L 1023.4697265625 604 L 728 604 L 728 504 Z Z" stroke-miterlimit="10"/></g><g transform="translate(-102,-110) scale(1,1)"><path fill="none" stroke="#000000" d="M 728 529 L 1023.4697265625 529" stroke-miterlimit="10"/></g><g transform="translate(-102,-110) scale(1,1)"><path fill="none" stroke="#000000" d="M 728 552 L 1023.4697265625 552" stroke-miterlimit="10"/></g><g transform="translate(-102,-110) scale(1,1)"><g><path fill="none" stroke="none"/><text fill="#000000" stroke="none" font-family="Arial" font-size="13px" font-style="normal" font-weight="bold" text-decoration="none" x="782.31005859375" y="522">RottenTomatoesDataExtractor</text></g></g><g transform="translate(-102,-110) scale(1,1)"><g><path fill="none" stroke="none"/><text fill="#000000" stroke="none" font-family="Arial" font-size="13px" font-style="normal" font-weight="normal" text-decoration="none" x="733" y="545">-INSTANCE: RottenTomatoesDataExtractor</text><path fill="none" stroke="#000000" d="M 733 546.5 L 983.453125 546.5" stroke-miterlimit="10"/></g></g><g transform="translate(-102,-110) scale(1,1)"><g><path fill="none" stroke="none"/><text fill="#000000" stroke="none" font-family="Arial" font-size="13px" font-style="normal" font-weight="normal" text-decoration="none" x="733" y="568">-RottenTomatoesDataExtractor()</text></g></g><g transform="translate(-102,-110) scale(1,1)"><g><path fill="none" stroke="none"/><text fill="#000000" stroke="none" font-family="Arial" font-size="13px" font-style="normal" font-weight="normal" text-decoration="none" x="733" y="583">+getInstance(): RottenTomatoesDataExtractor</text><path fill="none" stroke="#000000" d="M 733 584.5 L 997.82421875 584.5" stroke-miterlimit="10"/></g></g><g transform="translate(-102,-110) scale(1,1)"><g><path fill="none" stroke="none"/><text fill="#000000" stroke="none" font-family="Arial" font-size="13px" font-style="normal" font-weight="normal" text-decoration="none" x="733" y="598">+getMovieInformation(movieName: String): Movie</text></g></g><g transform="translate(-102,-110) scale(1,1)"><rect fill="#C0C0C0" stroke="none" x="679" y="695" width="420.5185546875" height="175" opacity="0.2"/></g><g transform="translate(-102,-110) scale(1,1)"><rect fill="#ffffff" stroke="none" x="672" y="688" width="420.5185546875" height="175"/></g><g transform="translate(-102,-110) scale(1,1)"><path fill="none" stroke="#000000" d="M 672 688 L 1092.5185546875 688 L 1092.5185546875 863 L 672 863 L 672 688 Z Z" stroke-miterlimit="10"/></g><g transform="translate(-102,-110) scale(1,1)"><path fill="none" stroke="#000000" d="M 672 713 L 1092.5185546875 713" stroke-miterlimit="10"/></g><g transform="translate(-102,-110) scale(1,1)"><path fill="none" stroke="#000000" d="M 672 781 L 1092.5185546875 781" stroke-miterlimit="10"/></g><g transform="translate(-102,-110) scale(1,1)"><g><path fill="none" stroke="none"/><text fill="#000000" stroke="none" font-family="Arial" font-size="13px" font-style="normal" font-weight="bold" text-decoration="none" x="863.83837890625" y="706">Movie</text></g></g><g transform="translate(-102,-110) scale(1,1)"><g><path fill="none" stroke="none"/><text fill="#000000" stroke="none" font-family="Arial" font-size="13px" font-style="normal" font-weight="normal" text-decoration="none" x="677" y="729">-name: String</text></g></g><g transform="translate(-102,-110) scale(1,1)"><g><path fill="none" stroke="none"/><text fill="#000000" stroke="none" font-family="Arial" font-size="13px" font-style="normal" font-weight="normal" text-decoration="none" x="677" y="744">-category: String</text></g></g><g transform="translate(-102,-110) scale(1,1)"><g><path fill="none" stroke="none"/><text fill="#000000" stroke="none" font-family="Arial" font-size="13px" font-style="normal" font-weight="normal" text-decoration="none" x="677" y="759">-note: double</text></g></g><g transform="translate(-102,-110) scale(1,1)"><g><path fill="none" stroke="none"/><text fill="#000000" stroke="none" font-family="Arial" font-size="13px" font-style="normal" font-weight="normal" text-decoration="none" x="677" y="774">-reviews: String[*]</text></g></g><g transform="translate(-102,-110) scale(1,1)"><g><path fill="none" stroke="none"/><text fill="#000000" stroke="none" font-family="Arial" font-size="13px" font-style="normal" font-weight="normal" text-decoration="none" x="677" y="797">+Movie(name: String, category: double, note: double, reviews: String[*])</text></g></g><g transform="translate(-102,-110) scale(1,1)"><g><path fill="none" stroke="none"/><text fill="#000000" stroke="none" font-family="Arial" font-size="13px" font-style="normal" font-weight="normal" text-decoration="none" x="677" y="812">+getName(): String</text></g></g><g transform="translate(-102,-110) scale(1,1)"><g><path fill="none" stroke="none"/><text fill="#000000" stroke="none" font-family="Arial" font-size="13px" font-style="normal" font-weight="normal" text-decoration="none" x="677" y="827">+getCategory(): String</text></g></g><g transform="translate(-102,-110) scale(1,1)"><g><path fill="none" stroke="none"/><text fill="#000000" stroke="none" font-family="Arial" font-size="13px" font-style="normal" font-weight="normal" text-decoration="none" x="677" y="842">+getNote(): double</text></g></g><g transform="translate(-102,-110) scale(1,1)"><g><path fill="none" stroke="none"/><text fill="#000000" stroke="none" font-family="Arial" font-size="13px" font-style="normal" font-weight="normal" text-decoration="none" x="677" y="857">+getReviews(): String[*]</text></g></g></g></svg>