<svg version="1.1" xmlns="http://www.w3.org/2000/svg" xmlns:xlink="http://www.w3.org/1999/xlink" width="566.81787109375" height="373"><defs/><g><g transform="translate(-214,-214) scale(1,1)"><rect fill="#C0C0C0" stroke="none" x="231" y="255" width="187.14697265625" height="175" opacity="0.2"/></g><g transform="translate(-214,-214) scale(1,1)"><rect fill="#ffffff" stroke="none" x="224" y="248" width="187.14697265625" height="175"/></g><g transform="translate(-214,-214) scale(1,1)"><path fill="none" stroke="#000000" d="M 224 248 L 411.14697265625 248 L 411.14697265625 423 L 224 423 L 224 248 Z Z" stroke-miterlimit="10"/></g><g transform="translate(-214,-214) scale(1,1)"><path fill="none" stroke="#000000" d="M 224 273 L 411.14697265625 273" stroke-miterlimit="10"/></g><g transform="translate(-214,-214) scale(1,1)"><path fill="none" stroke="#000000" d="M 224 371 L 411.14697265625 371" stroke-miterlimit="10"/></g><g transform="translate(-214,-214) scale(1,1)"><g><path fill="none" stroke="none"/><text fill="#000000" stroke="none" font-family="Arial" font-size="13px" font-style="normal" font-weight="bold" text-decoration="none" x="290.837158203125" y="266">Exemple</text></g></g><g transform="translate(-214,-214) scale(1,1)"><g><path fill="none" stroke="none"/><text fill="#000000" stroke="none" font-family="Arial" font-size="13px" font-style="normal" font-weight="normal" text-decoration="none" x="229" y="289">-data: String</text></g></g><g transform="translate(-214,-214) scale(1,1)"><g><path fill="none" stroke="none"/><text fill="#000000" stroke="none" font-family="Arial" font-size="13px" font-style="normal" font-weight="normal" text-decoration="none" x="229" y="304">-compteur: int</text></g></g><g transform="translate(-214,-214) scale(1,1)"><g><path fill="none" stroke="none"/><text fill="#000000" stroke="none" font-family="Arial" font-size="13px" font-style="normal" font-weight="normal" text-decoration="none" x="229" y="319">-optionA: String</text></g></g><g transform="translate(-214,-214) scale(1,1)"><g><path fill="none" stroke="none"/><text fill="#000000" stroke="none" font-family="Arial" font-size="13px" font-style="normal" font-weight="normal" text-decoration="none" x="229" y="334">-optionB: boolean</text></g></g><g transform="translate(-214,-214) scale(1,1)"><g><path fill="none" stroke="none"/><text fill="#000000" stroke="none" font-family="Arial" font-size="13px" font-style="normal" font-weight="normal" text-decoration="none" x="229" y="349">-optionC: double</text></g></g><g transform="translate(-214,-214) scale(1,1)"><g><path fill="none" stroke="none"/><text fill="#000000" stroke="none" font-family="Arial" font-size="13px" font-style="normal" font-weight="normal" text-decoration="none" x="229" y="364">-optionD: boolean</text></g></g><g transform="translate(-214,-214) scale(1,1)"><g><path fill="none" stroke="none"/><text fill="#000000" stroke="none" font-family="Arial" font-size="13px" font-style="normal" font-weight="normal" text-decoration="none" x="229" y="387">-Exemple()</text></g></g><g transform="translate(-214,-214) scale(1,1)"><g><path fill="none" stroke="none"/><text fill="#000000" stroke="none" font-family="Arial" font-size="13px" font-style="normal" font-weight="normal" text-decoration="none" x="229" y="402">+setData(data: String)</text></g></g><g transform="translate(-214,-214) scale(1,1)"><g><path fill="none" stroke="none"/><text fill="#000000" stroke="none" font-family="Arial" font-size="13px" font-style="normal" font-weight="normal" text-decoration="none" x="229" y="417">+setOptionB(optionB: boolean)</text></g></g><g transform="translate(-214,-214) scale(1,1)"><rect fill="#C0C0C0" stroke="none" x="543" y="231" width="234.81787109375" height="220" opacity="0.2"/></g><g transform="translate(-214,-214) scale(1,1)"><rect fill="#ffffff" stroke="none" x="536" y="224" width="234.81787109375" height="220"/></g><g transform="translate(-214,-214) scale(1,1)"><path fill="none" stroke="#000000" d="M 536 224 L 770.81787109375 224 L 770.81787109375 444 L 536 444 L 536 224 Z Z" stroke-miterlimit="10"/></g><g transform="translate(-214,-214) scale(1,1)"><path fill="none" stroke="#000000" d="M 536 249 L 770.81787109375 249" stroke-miterlimit="10"/></g><g transform="translate(-214,-214) scale(1,1)"><path fill="none" stroke="#000000" d="M 536 347 L 770.81787109375 347" stroke-miterlimit="10"/></g><g transform="translate(-214,-214) scale(1,1)"><g><path fill="none" stroke="none"/><text fill="#000000" stroke="none" font-family="Arial" font-size="13px" font-style="normal" font-weight="bold" text-decoration="none" x="631.017578125" y="242">Builder</text></g></g><g transform="translate(-214,-214) scale(1,1)"><g><path fill="none" stroke="none"/><text fill="#000000" stroke="none" font-family="Arial" font-size="13px" font-style="normal" font-weight="normal" text-decoration="none" x="541" y="265">-data: String</text></g></g><g transform="translate(-214,-214) scale(1,1)"><g><path fill="none" stroke="none"/><text fill="#000000" stroke="none" font-family="Arial" font-size="13px" font-style="normal" font-weight="normal" text-decoration="none" x="541" y="280">-compteur: int</text></g></g><g transform="translate(-214,-214) scale(1,1)"><g><path fill="none" stroke="none"/><text fill="#000000" stroke="none" font-family="Arial" font-size="13px" font-style="normal" font-weight="normal" text-decoration="none" x="541" y="295">-optionA: String</text></g></g><g transform="translate(-214,-214) scale(1,1)"><g><path fill="none" stroke="none"/><text fill="#000000" stroke="none" font-family="Arial" font-size="13px" font-style="normal" font-weight="normal" text-decoration="none" x="541" y="310">-optionB: boolean</text></g></g><g transform="translate(-214,-214) scale(1,1)"><g><path fill="none" stroke="none"/><text fill="#000000" stroke="none" font-family="Arial" font-size="13px" font-style="normal" font-weight="normal" text-decoration="none" x="541" y="325">-optionC: double</text></g></g><g transform="translate(-214,-214) scale(1,1)"><g><path fill="none" stroke="none"/><text fill="#000000" stroke="none" font-family="Arial" font-size="13px" font-style="normal" font-weight="normal" text-decoration="none" x="541" y="340">-optionD: boolean</text></g></g><g transform="translate(-214,-214) scale(1,1)"><g><path fill="none" stroke="none"/><text fill="#000000" stroke="none" font-family="Arial" font-size="13px" font-style="normal" font-weight="normal" text-decoration="none" x="541" y="363">+Builder(data: String, compteur: int)</text></g></g><g transform="translate(-214,-214) scale(1,1)"><g><path fill="none" stroke="none"/><text fill="#000000" stroke="none" font-family="Arial" font-size="13px" font-style="normal" font-weight="normal" text-decoration="none" x="541" y="378">+withOptionA(optionA: String): Builder</text></g></g><g transform="translate(-214,-214) scale(1,1)"><g><path fill="none" stroke="none"/><text fill="#000000" stroke="none" font-family="Arial" font-size="13px" font-style="normal" font-weight="normal" text-decoration="none" x="541" y="393">+withOptionB(): Builder</text></g></g><g transform="translate(-214,-214) scale(1,1)"><g><path fill="none" stroke="none"/><text fill="#000000" stroke="none" font-family="Arial" font-size="13px" font-style="normal" font-weight="normal" text-decoration="none" x="541" y="408">+withOptionC(optionC: double): Builder</text></g></g><g transform="translate(-214,-214) scale(1,1)"><g><path fill="none" stroke="none"/><text fill="#000000" stroke="none" font-family="Arial" font-size="13px" font-style="normal" font-weight="normal" text-decoration="none" x="541" y="423">+withOptionD(): Builder</text></g></g><g transform="translate(-214,-214) scale(1,1)"><g><path fill="none" stroke="none"/><text fill="#000000" stroke="none" font-family="Arial" font-size="13px" font-style="normal" font-weight="normal" text-decoration="none" x="541" y="438">+build(): Exemple</text></g></g><g transform="translate(-214,-214) scale(1,1)"><path fill="none" stroke="#000000" d="M 536 335 L 411 335" stroke-miterlimit="10"/></g><g transform="translate(-214,-214) scale(1,1)"><path fill="#FFFFFF" stroke="none" d="M 411 335 C 411 331.1340064 414.1340064 328 418 328 C 421.8659936 328 425 331.1340064 425 335 C 425 338.8659936 421.8659936 342 418 342 C 414.1340064 342 411 338.8659936 411 335 Z"/></g><g transform="translate(-214,-214) scale(1,1)"><path fill="none" stroke="#000000" d="M 411 335 C 411 331.1340064 414.1340064 328 418 328 C 421.8659936 328 425 331.1340064 425 335 C 425 338.8659936 421.8659936 342 418 342 C 414.1340064 342 411 338.8659936 411 335 Z" stroke-miterlimit="10"/></g><g transform="translate(-214,-214) scale(1,1)"><path fill="none" stroke="#000000" d="M 425 335 L 411 335" stroke-miterlimit="10"/></g><g transform="translate(-214,-214) scale(1,1)"><path fill="none" stroke="#000000" d="M 418 328 L 418 342" stroke-miterlimit="10"/></g><g transform="translate(-214,-214) scale(1,1)"><rect fill="#C0C0C0" stroke="none" x="407" y="527" width="132.1826171875" height="57" opacity="0.2"/></g><g transform="translate(-214,-214) scale(1,1)"><rect fill="#ffffff" stroke="none" x="400" y="520" width="132.1826171875" height="57"/></g><g transform="translate(-214,-214) scale(1,1)"><path fill="none" stroke="#000000" d="M 400 520 L 532.1826171875 520 L 532.1826171875 577 L 400 577 L 400 520 Z Z" stroke-miterlimit="10"/></g><g transform="translate(-214,-214) scale(1,1)"><path fill="none" stroke="#000000" d="M 403 520 L 403 577" stroke-miterlimit="10"/></g><g transform="translate(-214,-214) scale(1,1)"><path fill="none" stroke="#000000" d="M 529.1826171875 520 L 529.1826171875 577" stroke-miterlimit="10"/></g><g transform="translate(-214,-214) scale(1,1)"><path fill="none" stroke="#000000" d="M 400 545 L 532.1826171875 545" stroke-miterlimit="10"/></g><g transform="translate(-214,-214) scale(1,1)"><path fill="none" stroke="#000000" d="M 400 555 L 532.1826171875 555" stroke-miterlimit="10"/></g><g transform="translate(-214,-214) scale(1,1)"><g><path fill="none" stroke="none"/><text fill="#000000" stroke="none" font-family="Arial" font-size="13px" font-style="normal" font-weight="bold" text-decoration="none" x="451.285400390625" y="538">Main</text></g></g><g transform="translate(-214,-214) scale(1,1)"><g><path fill="none" stroke="none"/><text fill="#000000" stroke="none" font-family="Arial" font-size="13px" font-style="normal" font-weight="normal" text-decoration="none" x="405" y="571">+main(args: String[*])</text><path fill="none" stroke="#000000" d="M 405 572.5 L 528.1826171875 572.5" stroke-miterlimit="10"/></g></g><g transform="translate(-214,-214) scale(1,1)"><path fill="none" stroke="#000000" d="M 532 548 L 592 548 L 592 444" stroke-miterlimit="10" stroke-dasharray="3"/></g><g transform="translate(-214,-214) scale(1,1)"><path fill="none" stroke="#000000" d="M 596.209517756016 454.16267485762415 L 592 444 L 587.790482243984 454.16267485762415" stroke-miterlimit="10"/></g><g transform="translate(-214,-214) scale(1,1)"><g><path fill="none" stroke="none"/><text fill="#000000" stroke="none" font-family="Arial" font-size="13px" font-style="normal" font-weight="normal" text-decoration="none" x="535.5" y="497.5">«create»</text></g></g><g transform="translate(-214,-214) scale(1,1)"><path fill="none" stroke="#000000" d="M 400 548 L 352 548 L 352 423" stroke-miterlimit="10" stroke-dasharray="3"/></g><g transform="translate(-214,-214) scale(1,1)"><path fill="none" stroke="#000000" d="M 356.209517756016 433.16267485762415 L 352 423 L 347.790482243984 433.16267485762415" stroke-miterlimit="10"/></g><g transform="translate(-214,-214) scale(1,1)"><g><path fill="none" stroke="none"/><text fill="#000000" stroke="none" font-family="Arial" font-size="13px" font-style="normal" font-weight="normal" text-decoration="none" x="305.5" y="506">«call»</text></g></g></g></svg>