<svg version="1.1" xmlns="http://www.w3.org/2000/svg" xmlns:xlink="http://www.w3.org/1999/xlink" width="709" height="709"><defs/><g><g transform="translate(-142,-398) scale(1,1)"><rect fill="#C0C0C0" stroke="none" x="303" y="415" width="89.57080078125" height="60" opacity="0.2"/></g><g transform="translate(-142,-398) scale(1,1)"><rect fill="#ffffff" stroke="none" x="296" y="408" width="89.57080078125" height="60"/></g><g transform="translate(-142,-398) scale(1,1)"><path fill="none" stroke="#000000" d="M 296 408 L 385.57080078125 408 L 385.57080078125 468 L 296 468 L 296 408 Z Z" stroke-miterlimit="10"/></g><g transform="translate(-142,-398) scale(1,1)"><path fill="none" stroke="#000000" d="M 296 446 L 385.57080078125 446" stroke-miterlimit="10"/></g><g transform="translate(-142,-398) scale(1,1)"><g><path fill="none" stroke="none"/><text fill="#000000" stroke="none" font-family="Arial" font-size="13px" font-style="normal" font-weight="normal" text-decoration="none" x="308.625" y="424">«interface»</text></g></g><g transform="translate(-142,-398) scale(1,1)"><g><path fill="none" stroke="none"/><text fill="#000000" stroke="none" font-family="Arial" font-size="13px" font-style="normal" font-weight="bold" text-decoration="none" x="312.96044921875" y="439">ServiceA</text></g></g><g transform="translate(-142,-398) scale(1,1)"><g><path fill="none" stroke="none"/><text fill="#000000" stroke="none" font-family="Arial" font-size="13px" font-style="normal" font-weight="normal" text-decoration="none" x="301" y="462">+actionA()</text></g></g><g transform="translate(-142,-398) scale(1,1)"><rect fill="#C0C0C0" stroke="none" x="567" y="415" width="89.57080078125" height="60" opacity="0.2"/></g><g transform="translate(-142,-398) scale(1,1)"><rect fill="#ffffff" stroke="none" x="560" y="408" width="89.57080078125" height="60"/></g><g transform="translate(-142,-398) scale(1,1)"><path fill="none" stroke="#000000" d="M 560 408 L 649.57080078125 408 L 649.57080078125 468 L 560 468 L 560 408 Z Z" stroke-miterlimit="10"/></g><g transform="translate(-142,-398) scale(1,1)"><path fill="none" stroke="#000000" d="M 560 446 L 649.57080078125 446" stroke-miterlimit="10"/></g><g transform="translate(-142,-398) scale(1,1)"><g><path fill="none" stroke="none"/><text fill="#000000" stroke="none" font-family="Arial" font-size="13px" font-style="normal" font-weight="normal" text-decoration="none" x="572.625" y="424">«interface»</text></g></g><g transform="translate(-142,-398) scale(1,1)"><g><path fill="none" stroke="none"/><text fill="#000000" stroke="none" font-family="Arial" font-size="13px" font-style="normal" font-weight="bold" text-decoration="none" x="576.96044921875" y="439">ServiceB</text></g></g><g transform="translate(-142,-398) scale(1,1)"><g><path fill="none" stroke="none"/><text fill="#000000" stroke="none" font-family="Arial" font-size="13px" font-style="normal" font-weight="normal" text-decoration="none" x="565" y="462">+actionB()</text></g></g><g transform="translate(-142,-398) scale(1,1)"><rect fill="#C0C0C0" stroke="none" x="239" y="527" width="89.57080078125" height="57" opacity="0.2"/></g><g transform="translate(-142,-398) scale(1,1)"><rect fill="#ffffff" stroke="none" x="232" y="520" width="89.57080078125" height="57"/></g><g transform="translate(-142,-398) scale(1,1)"><path fill="none" stroke="#000000" d="M 232 520 L 321.57080078125 520 L 321.57080078125 577 L 232 577 L 232 520 Z Z" stroke-miterlimit="10"/></g><g transform="translate(-142,-398) scale(1,1)"><path fill="none" stroke="#000000" d="M 232 545 L 321.57080078125 545" stroke-miterlimit="10"/></g><g transform="translate(-142,-398) scale(1,1)"><path fill="none" stroke="#000000" d="M 232 555 L 321.57080078125 555" stroke-miterlimit="10"/></g><g transform="translate(-142,-398) scale(1,1)"><g><path fill="none" stroke="none"/><text fill="#000000" stroke="none" font-family="Arial" font-size="13px" font-style="normal" font-weight="bold" text-decoration="none" x="245.345458984375" y="538">ServiceA1</text></g></g><g transform="translate(-142,-398) scale(1,1)"><g><path fill="none" stroke="none"/><text fill="#000000" stroke="none" font-family="Arial" font-size="13px" font-style="normal" font-weight="normal" text-decoration="none" x="237" y="571">+actionA()</text></g></g><g transform="translate(-142,-398) scale(1,1)"><rect fill="#C0C0C0" stroke="none" x="359" y="527" width="89.57080078125" height="57" opacity="0.2"/></g><g transform="translate(-142,-398) scale(1,1)"><rect fill="#ffffff" stroke="none" x="352" y="520" width="89.57080078125" height="57"/></g><g transform="translate(-142,-398) scale(1,1)"><path fill="none" stroke="#000000" d="M 352 520 L 441.57080078125 520 L 441.57080078125 577 L 352 577 L 352 520 Z Z" stroke-miterlimit="10"/></g><g transform="translate(-142,-398) scale(1,1)"><path fill="none" stroke="#000000" d="M 352 545 L 441.57080078125 545" stroke-miterlimit="10"/></g><g transform="translate(-142,-398) scale(1,1)"><path fill="none" stroke="#000000" d="M 352 555 L 441.57080078125 555" stroke-miterlimit="10"/></g><g transform="translate(-142,-398) scale(1,1)"><g><path fill="none" stroke="none"/><text fill="#000000" stroke="none" font-family="Arial" font-size="13px" font-style="normal" font-weight="bold" text-decoration="none" x="365.345458984375" y="538">ServiceA2</text></g></g><g transform="translate(-142,-398) scale(1,1)"><g><path fill="none" stroke="none"/><text fill="#000000" stroke="none" font-family="Arial" font-size="13px" font-style="normal" font-weight="normal" text-decoration="none" x="357" y="571">+actionA()</text></g></g><g transform="translate(-142,-398) scale(1,1)"><rect fill="#C0C0C0" stroke="none" x="519" y="527" width="89.57080078125" height="57" opacity="0.2"/></g><g transform="translate(-142,-398) scale(1,1)"><rect fill="#ffffff" stroke="none" x="512" y="520" width="89.57080078125" height="57"/></g><g transform="translate(-142,-398) scale(1,1)"><path fill="none" stroke="#000000" d="M 512 520 L 601.57080078125 520 L 601.57080078125 577 L 512 577 L 512 520 Z Z" stroke-miterlimit="10"/></g><g transform="translate(-142,-398) scale(1,1)"><path fill="none" stroke="#000000" d="M 512 545 L 601.57080078125 545" stroke-miterlimit="10"/></g><g transform="translate(-142,-398) scale(1,1)"><path fill="none" stroke="#000000" d="M 512 555 L 601.57080078125 555" stroke-miterlimit="10"/></g><g transform="translate(-142,-398) scale(1,1)"><g><path fill="none" stroke="none"/><text fill="#000000" stroke="none" font-family="Arial" font-size="13px" font-style="normal" font-weight="bold" text-decoration="none" x="525.345458984375" y="538">ServiceB1</text></g></g><g transform="translate(-142,-398) scale(1,1)"><g><path fill="none" stroke="none"/><text fill="#000000" stroke="none" font-family="Arial" font-size="13px" font-style="normal" font-weight="normal" text-decoration="none" x="517" y="571">+actionB()</text></g></g><g transform="translate(-142,-398) scale(1,1)"><rect fill="#C0C0C0" stroke="none" x="663" y="527" width="89.57080078125" height="57" opacity="0.2"/></g><g transform="translate(-142,-398) scale(1,1)"><rect fill="#ffffff" stroke="none" x="656" y="520" width="89.57080078125" height="57"/></g><g transform="translate(-142,-398) scale(1,1)"><path fill="none" stroke="#000000" d="M 656 520 L 745.57080078125 520 L 745.57080078125 577 L 656 577 L 656 520 Z Z" stroke-miterlimit="10"/></g><g transform="translate(-142,-398) scale(1,1)"><path fill="none" stroke="#000000" d="M 656 545 L 745.57080078125 545" stroke-miterlimit="10"/></g><g transform="translate(-142,-398) scale(1,1)"><path fill="none" stroke="#000000" d="M 656 555 L 745.57080078125 555" stroke-miterlimit="10"/></g><g transform="translate(-142,-398) scale(1,1)"><g><path fill="none" stroke="none"/><text fill="#000000" stroke="none" font-family="Arial" font-size="13px" font-style="normal" font-weight="bold" text-decoration="none" x="669.345458984375" y="538">ServiceB2</text></g></g><g transform="translate(-142,-398) scale(1,1)"><g><path fill="none" stroke="none"/><text fill="#000000" stroke="none" font-family="Arial" font-size="13px" font-style="normal" font-weight="normal" text-decoration="none" x="661" y="571">+actionB()</text></g></g><g transform="translate(-142,-398) scale(1,1)"><rect fill="#C0C0C0" stroke="none" x="207" y="647" width="187.90869140625" height="87" opacity="0.2"/></g><g transform="translate(-142,-398) scale(1,1)"><rect fill="#ffffff" stroke="none" x="200" y="640" width="187.90869140625" height="87"/></g><g transform="translate(-142,-398) scale(1,1)"><path fill="none" stroke="#000000" d="M 200 640 L 387.90869140625 640 L 387.90869140625 727 L 200 727 L 200 640 Z Z" stroke-miterlimit="10"/></g><g transform="translate(-142,-398) scale(1,1)"><path fill="none" stroke="#000000" d="M 200 665 L 387.90869140625 665" stroke-miterlimit="10"/></g><g transform="translate(-142,-398) scale(1,1)"><path fill="none" stroke="#000000" d="M 200 675 L 387.90869140625 675" stroke-miterlimit="10"/></g><g transform="translate(-142,-398) scale(1,1)"><g><path fill="none" stroke="none"/><text fill="#000000" stroke="none" font-family="Arial" font-size="13px" font-style="normal" font-weight="bold" text-decoration="none" x="230.373046875" y="658">ConteneurServiceV1</text></g></g><g transform="translate(-142,-398) scale(1,1)"><g><path fill="none" stroke="none"/><text fill="#000000" stroke="none" font-family="Arial" font-size="13px" font-style="normal" font-weight="normal" text-decoration="none" x="205" y="691">+ConteneurServiceV1()</text></g></g><g transform="translate(-142,-398) scale(1,1)"><g><path fill="none" stroke="none"/><text fill="#000000" stroke="none" font-family="Arial" font-size="13px" font-style="normal" font-weight="normal" text-decoration="none" x="205" y="706">+getServiceA(): ServiceA</text></g></g><g transform="translate(-142,-398) scale(1,1)"><g><path fill="none" stroke="none"/><text fill="#000000" stroke="none" font-family="Arial" font-size="13px" font-style="normal" font-weight="normal" text-decoration="none" x="205" y="721">+getServiceB(): ServiceB</text></g></g><g transform="translate(-142,-398) scale(1,1)"><rect fill="#C0C0C0" stroke="none" x="543" y="647" width="191.17138671875" height="87" opacity="0.2"/></g><g transform="translate(-142,-398) scale(1,1)"><rect fill="#ffffff" stroke="none" x="536" y="640" width="191.17138671875" height="87"/></g><g transform="translate(-142,-398) scale(1,1)"><path fill="none" stroke="#000000" d="M 536 640 L 727.17138671875 640 L 727.17138671875 727 L 536 727 L 536 640 Z Z" stroke-miterlimit="10"/></g><g transform="translate(-142,-398) scale(1,1)"><path fill="none" stroke="#000000" d="M 536 665 L 727.17138671875 665" stroke-miterlimit="10"/></g><g transform="translate(-142,-398) scale(1,1)"><path fill="none" stroke="#000000" d="M 536 675 L 727.17138671875 675" stroke-miterlimit="10"/></g><g transform="translate(-142,-398) scale(1,1)"><g><path fill="none" stroke="none"/><text fill="#000000" stroke="none" font-family="Arial" font-size="13px" font-style="normal" font-weight="bold" text-decoration="none" x="568.00439453125" y="658">ConteneurServiceV2</text></g></g><g transform="translate(-142,-398) scale(1,1)"><g><path fill="none" stroke="none"/><text fill="#000000" stroke="none" font-family="Arial" font-size="13px" font-style="normal" font-weight="normal" text-decoration="none" x="541" y="691">+ConteneurServiceV2()</text></g></g><g transform="translate(-142,-398) scale(1,1)"><g><path fill="none" stroke="none"/><text fill="#000000" stroke="none" font-family="Arial" font-size="13px" font-style="normal" font-weight="normal" text-decoration="none" x="541" y="706">+getServiceA(): ServiceA</text></g></g><g transform="translate(-142,-398) scale(1,1)"><g><path fill="none" stroke="none"/><text fill="#000000" stroke="none" font-family="Arial" font-size="13px" font-style="normal" font-weight="normal" text-decoration="none" x="541" y="721">+getServiceB(): ServiceB</text></g></g><g transform="translate(-142,-398) scale(1,1)"><path fill="none" stroke="#000000" d="M 264 520 L 264 448 L 296 448" stroke-miterlimit="10" stroke-dasharray="3"/></g><g transform="translate(-142,-398) scale(1,1)"><path fill="#FFFFFF" stroke="none" d="M 275.6746502847517 456.419035512032 L 296 448 L 275.6746502847517 439.580964487968"/></g><g transform="translate(-142,-398) scale(1,1)"><path fill="none" stroke="#000000" d="M 275.6746502847517 456.419035512032 L 296 448 L 275.6746502847517 439.580964487968 L 275.6746502847517 456.419035512032" stroke-miterlimit="10"/></g><g transform="translate(-142,-398) scale(1,1)"><path fill="none" stroke="#000000" d="M 416 520 L 416 448 L 386 448" stroke-miterlimit="10" stroke-dasharray="3"/></g><g transform="translate(-142,-398) scale(1,1)"><path fill="#FFFFFF" stroke="none" d="M 406.3253497152483 439.580964487968 L 386 448 L 406.3253497152483 456.419035512032"/></g><g transform="translate(-142,-398) scale(1,1)"><path fill="none" stroke="#000000" d="M 406.3253497152483 439.580964487968 L 386 448 L 406.3253497152483 456.419035512032 L 406.3253497152483 439.580964487968" stroke-miterlimit="10"/></g><g transform="translate(-142,-398) scale(1,1)"><path fill="none" stroke="#000000" d="M 528 520 L 528 448 L 560 448" stroke-miterlimit="10" stroke-dasharray="3"/></g><g transform="translate(-142,-398) scale(1,1)"><path fill="#FFFFFF" stroke="none" d="M 539.6746502847517 456.419035512032 L 560 448 L 539.6746502847517 439.580964487968"/></g><g transform="translate(-142,-398) scale(1,1)"><path fill="none" stroke="#000000" d="M 539.6746502847517 456.419035512032 L 560 448 L 539.6746502847517 439.580964487968 L 539.6746502847517 456.419035512032" stroke-miterlimit="10"/></g><g transform="translate(-142,-398) scale(1,1)"><path fill="none" stroke="#000000" d="M 688 520 L 688 448 L 650 448" stroke-miterlimit="10" stroke-dasharray="3"/></g><g transform="translate(-142,-398) scale(1,1)"><path fill="#FFFFFF" stroke="none" d="M 670.3253497152483 439.580964487968 L 650 448 L 670.3253497152483 456.419035512032"/></g><g transform="translate(-142,-398) scale(1,1)"><path fill="none" stroke="#000000" d="M 670.3253497152483 439.580964487968 L 650 448 L 670.3253497152483 456.419035512032 L 670.3253497152483 439.580964487968" stroke-miterlimit="10"/></g><g transform="translate(-142,-398) scale(1,1)"><path fill="none" stroke="#000000" d="M 291 640 L 291 577" stroke-miterlimit="10"/></g><g transform="translate(-142,-398) scale(1,1)"><path fill="none" stroke="#000000" d="M 295.209517756016 587.1626748576241 L 291 577 L 286.790482243984 587.1626748576241" stroke-miterlimit="10"/></g><g transform="translate(-142,-398) scale(1,1)"><g><path fill="none" stroke="none"/><text fill="#000000" stroke="none" font-family="Arial" font-size="13px" font-style="normal" font-weight="normal" text-decoration="none" x="221.5" y="606">-serviceA</text></g></g><g transform="translate(-142,-398) scale(1,1)"><g><path fill="none" stroke="none"/><text fill="#000000" stroke="none" font-family="Arial" font-size="13px" font-style="normal" font-weight="normal" text-decoration="none" x="299.5" y="603">1</text></g></g><g transform="translate(-142,-398) scale(1,1)"><path fill="none" stroke="#000000" d="M 388 676 L 480 676 L 480 552 L 512 552" stroke-miterlimit="10"/></g><g transform="translate(-142,-398) scale(1,1)"><path fill="none" stroke="#000000" d="M 501.83732514237585 556.209517756016 L 512 552 L 501.83732514237585 547.790482243984" stroke-miterlimit="10"/></g><g transform="translate(-142,-398) scale(1,1)"><g><path fill="none" stroke="none"/><text fill="#000000" stroke="none" font-family="Arial" font-size="13px" font-style="normal" font-weight="normal" text-decoration="none" x="454.5" y="540">-serviceB</text></g></g><g transform="translate(-142,-398) scale(1,1)"><g><path fill="none" stroke="none"/><text fill="#000000" stroke="none" font-family="Arial" font-size="13px" font-style="normal" font-weight="normal" text-decoration="none" x="486.5" y="569">1</text></g></g><g transform="translate(-142,-398) scale(1,1)"><path fill="none" stroke="#000000" d="M 536 664 L 424 664 L 424 577" stroke-miterlimit="10"/></g><g transform="translate(-142,-398) scale(1,1)"><path fill="none" stroke="#000000" d="M 428.209517756016 587.1626748576241 L 424 577 L 419.790482243984 587.1626748576241" stroke-miterlimit="10"/></g><g transform="translate(-142,-398) scale(1,1)"><g><path fill="none" stroke="none"/><text fill="#000000" stroke="none" font-family="Arial" font-size="13px" font-style="normal" font-weight="normal" text-decoration="none" x="349.5" y="606">-serviceA</text></g></g><g transform="translate(-142,-398) scale(1,1)"><g><path fill="none" stroke="none"/><text fill="#000000" stroke="none" font-family="Arial" font-size="13px" font-style="normal" font-weight="normal" text-decoration="none" x="407.5" y="595">1</text></g></g><g transform="translate(-142,-398) scale(1,1)"><path fill="none" stroke="#000000" d="M 672 640 L 672 577" stroke-miterlimit="10"/></g><g transform="translate(-142,-398) scale(1,1)"><path fill="none" stroke="#000000" d="M 676.209517756016 587.1626748576241 L 672 577 L 667.790482243984 587.1626748576241" stroke-miterlimit="10"/></g><g transform="translate(-142,-398) scale(1,1)"><g><path fill="none" stroke="none"/><text fill="#000000" stroke="none" font-family="Arial" font-size="13px" font-style="normal" font-weight="normal" text-decoration="none" x="614.5" y="603">-serviceB</text></g></g><g transform="translate(-142,-398) scale(1,1)"><g><path fill="none" stroke="none"/><text fill="#000000" stroke="none" font-family="Arial" font-size="13px" font-style="normal" font-weight="normal" text-decoration="none" x="680.5" y="594">1</text></g></g><g transform="translate(-142,-398) scale(1,1)"><rect fill="#C0C0C0" stroke="none" x="415" y="1047" width="132.1826171875" height="57" opacity="0.2"/></g><g transform="translate(-142,-398) scale(1,1)"><rect fill="#ffffff" stroke="none" x="408" y="1040" width="132.1826171875" height="57"/></g><g transform="translate(-142,-398) scale(1,1)"><path fill="none" stroke="#000000" d="M 408 1040 L 540.1826171875 1040 L 540.1826171875 1097 L 408 1097 L 408 1040 Z Z" stroke-miterlimit="10"/></g><g transform="translate(-142,-398) scale(1,1)"><path fill="none" stroke="#000000" d="M 411 1040 L 411 1097" stroke-miterlimit="10"/></g><g transform="translate(-142,-398) scale(1,1)"><path fill="none" stroke="#000000" d="M 537.1826171875 1040 L 537.1826171875 1097" stroke-miterlimit="10"/></g><g transform="translate(-142,-398) scale(1,1)"><path fill="none" stroke="#000000" d="M 408 1065 L 540.1826171875 1065" stroke-miterlimit="10"/></g><g transform="translate(-142,-398) scale(1,1)"><path fill="none" stroke="#000000" d="M 408 1075 L 540.1826171875 1075" stroke-miterlimit="10"/></g><g transform="translate(-142,-398) scale(1,1)"><g><path fill="none" stroke="none"/><text fill="#000000" stroke="none" font-family="Arial" font-size="13px" font-style="normal" font-weight="bold" text-decoration="none" x="459.285400390625" y="1058">Main</text></g></g><g transform="translate(-142,-398) scale(1,1)"><g><path fill="none" stroke="none"/><text fill="#000000" stroke="none" font-family="Arial" font-size="13px" font-style="normal" font-weight="normal" text-decoration="none" x="413" y="1091">+main(args: String[*])</text><path fill="none" stroke="#000000" d="M 413 1092.5 L 536.1826171875 1092.5" stroke-miterlimit="10"/></g></g><g transform="translate(-142,-398) scale(1,1)"><rect fill="#C0C0C0" stroke="none" x="335" y="903" width="271.65966796875" height="100" opacity="0.2"/></g><g transform="translate(-142,-398) scale(1,1)"><rect fill="#ffffff" stroke="none" x="328" y="896" width="271.65966796875" height="100"/></g><g transform="translate(-142,-398) scale(1,1)"><path fill="none" stroke="#000000" d="M 328 896 L 599.65966796875 896 L 599.65966796875 996 L 328 996 L 328 896 Z Z" stroke-miterlimit="10"/></g><g transform="translate(-142,-398) scale(1,1)"><path fill="none" stroke="#000000" d="M 328 921 L 599.65966796875 921" stroke-miterlimit="10"/></g><g transform="translate(-142,-398) scale(1,1)"><path fill="none" stroke="#000000" d="M 328 944 L 599.65966796875 944" stroke-miterlimit="10"/></g><g transform="translate(-142,-398) scale(1,1)"><g><path fill="none" stroke="none"/><text fill="#000000" stroke="none" font-family="Arial" font-size="13px" font-style="normal" font-weight="bold" text-decoration="none" x="421.2275390625" y="914">Configuration</text></g></g><g transform="translate(-142,-398) scale(1,1)"><g><path fill="none" stroke="none"/><text fill="#000000" stroke="none" font-family="Arial" font-size="13px" font-style="normal" font-weight="normal" text-decoration="none" x="333" y="937">-INSTANCE: Configuration</text><path fill="none" stroke="#000000" d="M 333 938.5 L 486.64501953125 938.5" stroke-miterlimit="10"/></g></g><g transform="translate(-142,-398) scale(1,1)"><g><path fill="none" stroke="none"/><text fill="#000000" stroke="none" font-family="Arial" font-size="13px" font-style="normal" font-weight="normal" text-decoration="none" x="333" y="960">-Configuration()</text></g></g><g transform="translate(-142,-398) scale(1,1)"><g><path fill="none" stroke="none"/><text fill="#000000" stroke="none" font-family="Arial" font-size="13px" font-style="normal" font-weight="normal" text-decoration="none" x="333" y="975">+getInstance(): Configuration</text><path fill="none" stroke="#000000" d="M 333 976.5 L 501.01611328125 976.5" stroke-miterlimit="10"/></g></g><g transform="translate(-142,-398) scale(1,1)"><g><path fill="none" stroke="none"/><text fill="#000000" stroke="none" font-family="Arial" font-size="13px" font-style="normal" font-weight="normal" text-decoration="none" x="333" y="990">+getConteneurService(): ConteneurService</text></g></g><g transform="translate(-142,-398) scale(1,1)"><rect fill="#C0C0C0" stroke="none" x="391" y="783" width="154.58349609375" height="75" opacity="0.2"/></g><g transform="translate(-142,-398) scale(1,1)"><rect fill="#ffffff" stroke="none" x="384" y="776" width="154.58349609375" height="75"/></g><g transform="translate(-142,-398) scale(1,1)"><path fill="none" stroke="#000000" d="M 384 776 L 538.58349609375 776 L 538.58349609375 851 L 384 851 L 384 776 Z Z" stroke-miterlimit="10"/></g><g transform="translate(-142,-398) scale(1,1)"><path fill="none" stroke="#000000" d="M 384 814 L 538.58349609375 814" stroke-miterlimit="10"/></g><g transform="translate(-142,-398) scale(1,1)"><g><path fill="none" stroke="none"/><text fill="#000000" stroke="none" font-family="Arial" font-size="13px" font-style="normal" font-weight="normal" text-decoration="none" x="429.13134765625" y="792">«interface»</text></g></g><g transform="translate(-142,-398) scale(1,1)"><g><path fill="none" stroke="none"/><text fill="#000000" stroke="none" font-family="Arial" font-size="13px" font-style="normal" font-weight="bold" text-decoration="none" x="405.660888671875" y="807">ConteneurService</text></g></g><g transform="translate(-142,-398) scale(1,1)"><g><path fill="none" stroke="none"/><text fill="#000000" stroke="none" font-family="Arial" font-size="13px" font-style="normal" font-weight="normal" text-decoration="none" x="389" y="830">+getServiceA(): ServiceA</text></g></g><g transform="translate(-142,-398) scale(1,1)"><g><path fill="none" stroke="none"/><text fill="#000000" stroke="none" font-family="Arial" font-size="13px" font-style="normal" font-weight="normal" text-decoration="none" x="389" y="845">+getServiceB(): ServiceB</text></g></g><g transform="translate(-142,-398) scale(1,1)"><path fill="none" stroke="#000000" d="M 320 727 L 320 821 L 384 821" stroke-miterlimit="10" stroke-dasharray="3"/></g><g transform="translate(-142,-398) scale(1,1)"><path fill="#FFFFFF" stroke="none" d="M 363.6746502847517 829.419035512032 L 384 821 L 363.6746502847517 812.580964487968"/></g><g transform="translate(-142,-398) scale(1,1)"><path fill="none" stroke="#000000" d="M 363.6746502847517 829.419035512032 L 384 821 L 363.6746502847517 812.580964487968 L 363.6746502847517 829.419035512032" stroke-miterlimit="10"/></g><g transform="translate(-142,-398) scale(1,1)"><path fill="none" stroke="#000000" d="M 600 727 L 600 821 L 539 821" stroke-miterlimit="10" stroke-dasharray="3"/></g><g transform="translate(-142,-398) scale(1,1)"><path fill="#FFFFFF" stroke="none" d="M 559.3253497152483 812.580964487968 L 539 821 L 559.3253497152483 829.419035512032"/></g><g transform="translate(-142,-398) scale(1,1)"><path fill="none" stroke="#000000" d="M 559.3253497152483 812.580964487968 L 539 821 L 559.3253497152483 829.419035512032 L 559.3253497152483 812.580964487968" stroke-miterlimit="10"/></g><g transform="translate(-142,-398) scale(1,1)"><path fill="none" stroke="#000000" d="M 328 954 L 256 954 L 256 727" stroke-miterlimit="10" stroke-dasharray="3"/></g><g transform="translate(-142,-398) scale(1,1)"><path fill="none" stroke="#000000" d="M 260.209517756016 737.1626748576241 L 256 727 L 251.790482243984 737.1626748576241" stroke-miterlimit="10"/></g><g transform="translate(-142,-398) scale(1,1)"><g><path fill="none" stroke="none"/><text fill="#000000" stroke="none" font-family="Arial" font-size="13px" font-style="normal" font-weight="normal" text-decoration="none" x="190.5" y="857.5">«create»</text></g></g><g transform="translate(-142,-398) scale(1,1)"><path fill="none" stroke="#000000" d="M 600 954 L 680 954 L 680 727" stroke-miterlimit="10" stroke-dasharray="3"/></g><g transform="translate(-142,-398) scale(1,1)"><path fill="none" stroke="#000000" d="M 684.209517756016 737.1626748576241 L 680 727 L 675.790482243984 737.1626748576241" stroke-miterlimit="10"/></g><g transform="translate(-142,-398) scale(1,1)"><g><path fill="none" stroke="none"/><text fill="#000000" stroke="none" font-family="Arial" font-size="13px" font-style="normal" font-weight="normal" text-decoration="none" x="694.5" y="842.5">«create»</text></g></g><g transform="translate(-142,-398) scale(1,1)"><path fill="none" stroke="#000000" d="M 468 1040 L 468 996" stroke-miterlimit="10" stroke-dasharray="3"/></g><g transform="translate(-142,-398) scale(1,1)"><path fill="none" stroke="#000000" d="M 472.209517756016 1006.1626748576241 L 468 996 L 463.790482243984 1006.1626748576241" stroke-miterlimit="10"/></g><g transform="translate(-142,-398) scale(1,1)"><path fill="none" stroke="#000000" d="M 408 1068 L 152 1068 L 152 424 L 296 424" stroke-miterlimit="10" stroke-dasharray="3"/></g><g transform="translate(-142,-398) scale(1,1)"><path fill="none" stroke="#000000" d="M 285.83732514237585 428.209517756016 L 296 424 L 285.83732514237585 419.790482243984" stroke-miterlimit="10"/></g><g transform="translate(-142,-398) scale(1,1)"><path fill="none" stroke="#000000" d="M 540 1068 L 840 1068 L 840 424 L 650 424" stroke-miterlimit="10" stroke-dasharray="3"/></g><g transform="translate(-142,-398) scale(1,1)"><path fill="none" stroke="#000000" d="M 660.1626748576241 419.790482243984 L 650 424 L 660.1626748576241 428.209517756016" stroke-miterlimit="10"/></g><g transform="translate(-142,-398) scale(1,1)"><path fill="none" stroke="#000000" d="M 462 896 L 462 851" stroke-miterlimit="10"/></g><g transform="translate(-142,-398) scale(1,1)"><path fill="none" stroke="#000000" d="M 466.209517756016 861.1626748576241 L 462 851 L 457.790482243984 861.1626748576241" stroke-miterlimit="10"/></g><g transform="translate(-142,-398) scale(1,1)"><g><path fill="none" stroke="none"/><text fill="#000000" stroke="none" font-family="Arial" font-size="13px" font-style="normal" font-weight="normal" text-decoration="none" x="342.5" y="874">-conteneurServices</text></g></g><g transform="translate(-142,-398) scale(1,1)"><g><path fill="none" stroke="none"/><text fill="#000000" stroke="none" font-family="Arial" font-size="13px" font-style="normal" font-weight="normal" text-decoration="none" x="469.5" y="874">1</text></g></g></g></svg>