<svg version="1.1" xmlns="http://www.w3.org/2000/svg" xmlns:xlink="http://www.w3.org/1999/xlink" width="532" height="470"><defs/><g><g transform="translate(-54,-22) scale(1,1)"><rect fill="#C0C0C0" stroke="none" x="175" y="135" width="89.57080078125" height="72" opacity="0.2"/></g><g transform="translate(-54,-22) scale(1,1)"><rect fill="#ffffff" stroke="none" x="168" y="128" width="89.57080078125" height="72"/></g><g transform="translate(-54,-22) scale(1,1)"><path fill="none" stroke="#000000" d="M 168 128 L 257.57080078125 128 L 257.57080078125 200 L 168 200 L 168 128 Z Z" stroke-miterlimit="10"/></g><g transform="translate(-54,-22) scale(1,1)"><path fill="none" stroke="#000000" d="M 168 153 L 257.57080078125 153" stroke-miterlimit="10"/></g><g transform="translate(-54,-22) scale(1,1)"><path fill="none" stroke="#000000" d="M 168 163 L 257.57080078125 163" stroke-miterlimit="10"/></g><g transform="translate(-54,-22) scale(1,1)"><g><path fill="none" stroke="none"/><text fill="#000000" stroke="none" font-family="Arial" font-size="13px" font-style="normal" font-weight="bold" text-decoration="none" x="184.96044921875" y="146">ServiceA</text></g></g><g transform="translate(-54,-22) scale(1,1)"><g><path fill="none" stroke="none"/><text fill="#000000" stroke="none" font-family="Arial" font-size="13px" font-style="normal" font-weight="normal" text-decoration="none" x="173" y="179">+action()</text></g></g><g transform="translate(-54,-22) scale(1,1)"><rect fill="#C0C0C0" stroke="none" x="447" y="119" width="136" height="72" opacity="0.2"/></g><g transform="translate(-54,-22) scale(1,1)"><rect fill="#ffffff" stroke="none" x="440" y="112" width="136" height="72"/></g><g transform="translate(-54,-22) scale(1,1)"><path fill="none" stroke="#000000" d="M 440 112 L 576 112 L 576 184 L 440 184 L 440 112 Z Z" stroke-miterlimit="10"/></g><g transform="translate(-54,-22) scale(1,1)"><path fill="none" stroke="#000000" d="M 440 150 L 576 150" stroke-miterlimit="10"/></g><g transform="translate(-54,-22) scale(1,1)"><g><path fill="none" stroke="none"/><text fill="#000000" stroke="none" font-family="Arial" font-size="13px" font-style="normal" font-weight="normal" text-decoration="none" x="475.839599609375" y="128">«interface»</text></g></g><g transform="translate(-54,-22) scale(1,1)"><g><path fill="none" stroke="none"/><text fill="#000000" stroke="none" font-family="Arial" font-size="13px" font-style="normal" font-weight="bold" text-decoration="none" x="484.869140625" y="143">Service</text></g></g><g transform="translate(-54,-22) scale(1,1)"><g><path fill="none" stroke="none"/><text fill="#000000" stroke="none" font-family="Arial" font-size="13px" font-style="normal" font-weight="normal" text-decoration="none" x="445" y="166">+action()</text></g></g><g transform="translate(-54,-22) scale(1,1)"><path fill="none" stroke="#000000" d="M 258 160 L 440 160" stroke-miterlimit="10" stroke-dasharray="3"/></g><g transform="translate(-54,-22) scale(1,1)"><path fill="#FFFFFF" stroke="none" d="M 419.6746502847517 168.41903551203197 L 440 160 L 419.6746502847517 151.58096448796803"/></g><g transform="translate(-54,-22) scale(1,1)"><path fill="none" stroke="#000000" d="M 419.6746502847517 168.41903551203197 L 440 160 L 419.6746502847517 151.58096448796803 L 419.6746502847517 168.41903551203197" stroke-miterlimit="10"/></g><g transform="translate(-54,-22) scale(1,1)"><rect fill="#C0C0C0" stroke="none" x="263" y="39" width="89.57080078125" height="57" opacity="0.2"/></g><g transform="translate(-54,-22) scale(1,1)"><rect fill="#ffffff" stroke="none" x="256" y="32" width="89.57080078125" height="57"/></g><g transform="translate(-54,-22) scale(1,1)"><path fill="none" stroke="#000000" d="M 256 32 L 345.57080078125 32 L 345.57080078125 89 L 256 89 L 256 32 Z Z" stroke-miterlimit="10"/></g><g transform="translate(-54,-22) scale(1,1)"><path fill="none" stroke="#000000" d="M 256 57 L 345.57080078125 57" stroke-miterlimit="10"/></g><g transform="translate(-54,-22) scale(1,1)"><path fill="none" stroke="#000000" d="M 256 67 L 345.57080078125 67" stroke-miterlimit="10"/></g><g transform="translate(-54,-22) scale(1,1)"><g><path fill="none" stroke="none"/><text fill="#000000" stroke="none" font-family="Arial" font-size="13px" font-style="normal" font-weight="bold" text-decoration="none" x="272.96044921875" y="50">ServiceB</text></g></g><g transform="translate(-54,-22) scale(1,1)"><g><path fill="none" stroke="none"/><text fill="#000000" stroke="none" font-family="Arial" font-size="13px" font-style="normal" font-weight="normal" text-decoration="none" x="261" y="83">+action()</text></g></g><g transform="translate(-54,-22) scale(1,1)"><path fill="none" stroke="#000000" d="M 340 89 L 340 128 L 440 128" stroke-miterlimit="10" stroke-dasharray="3"/></g><g transform="translate(-54,-22) scale(1,1)"><path fill="#FFFFFF" stroke="none" d="M 419.6746502847517 136.41903551203197 L 440 128 L 419.6746502847517 119.58096448796803"/></g><g transform="translate(-54,-22) scale(1,1)"><path fill="none" stroke="#000000" d="M 419.6746502847517 136.41903551203197 L 440 128 L 419.6746502847517 119.58096448796803 L 419.6746502847517 136.41903551203197" stroke-miterlimit="10"/></g><g transform="translate(-54,-22) scale(1,1)"><rect fill="#C0C0C0" stroke="none" x="71" y="279" width="96" height="80" opacity="0.2"/></g><g transform="translate(-54,-22) scale(1,1)"><rect fill="#ffffff" stroke="none" x="64" y="272" width="96" height="80"/></g><g transform="translate(-54,-22) scale(1,1)"><path fill="none" stroke="#000000" d="M 64 272 L 160 272 L 160 352 L 64 352 L 64 272 Z Z" stroke-miterlimit="10"/></g><g transform="translate(-54,-22) scale(1,1)"><path fill="none" stroke="#000000" d="M 64 297 L 160 297" stroke-miterlimit="10"/></g><g transform="translate(-54,-22) scale(1,1)"><path fill="none" stroke="#000000" d="M 64 307 L 160 307" stroke-miterlimit="10"/></g><g transform="translate(-54,-22) scale(1,1)"><g><path fill="none" stroke="none"/><text fill="#000000" stroke="none" font-family="Arial" font-size="13px" font-style="normal" font-weight="bold" text-decoration="none" x="85.99365234375" y="290">ClientV1</text></g></g><g transform="translate(-54,-22) scale(1,1)"><g><path fill="none" stroke="none"/><text fill="#000000" stroke="none" font-family="Arial" font-size="13px" font-style="normal" font-weight="normal" text-decoration="none" x="69" y="323">+actionV1()</text></g></g><g transform="translate(-54,-22) scale(1,1)"><rect fill="#C0C0C0" stroke="none" x="295" y="279" width="89.57080078125" height="80" opacity="0.2"/></g><g transform="translate(-54,-22) scale(1,1)"><rect fill="#ffffff" stroke="none" x="288" y="272" width="89.57080078125" height="80"/></g><g transform="translate(-54,-22) scale(1,1)"><path fill="none" stroke="#000000" d="M 288 272 L 377.57080078125 272 L 377.57080078125 352 L 288 352 L 288 272 Z Z" stroke-miterlimit="10"/></g><g transform="translate(-54,-22) scale(1,1)"><path fill="none" stroke="#000000" d="M 288 297 L 377.57080078125 297" stroke-miterlimit="10"/></g><g transform="translate(-54,-22) scale(1,1)"><path fill="none" stroke="#000000" d="M 288 307 L 377.57080078125 307" stroke-miterlimit="10"/></g><g transform="translate(-54,-22) scale(1,1)"><g><path fill="none" stroke="none"/><text fill="#000000" stroke="none" font-family="Arial" font-size="13px" font-style="normal" font-weight="bold" text-decoration="none" x="306.779052734375" y="290">ClientV2</text></g></g><g transform="translate(-54,-22) scale(1,1)"><g><path fill="none" stroke="none"/><text fill="#000000" stroke="none" font-family="Arial" font-size="13px" font-style="normal" font-weight="normal" text-decoration="none" x="293" y="323">+actionV2()</text></g></g><g transform="translate(-54,-22) scale(1,1)"><path fill="none" stroke="#000000" d="M 288 312 L 242 312 L 242 200" stroke-miterlimit="10" stroke-dasharray="3"/></g><g transform="translate(-54,-22) scale(1,1)"><path fill="none" stroke="#000000" d="M 246.209517756016 210.16267485762415 L 242 200 L 237.790482243984 210.16267485762415" stroke-miterlimit="10"/></g><g transform="translate(-54,-22) scale(1,1)"><g><path fill="none" stroke="none"/><text fill="#000000" stroke="none" font-family="Arial" font-size="13px" font-style="normal" font-weight="normal" text-decoration="none" x="254.5" y="250.5">«create»</text></g></g><g transform="translate(-54,-22) scale(1,1)"><path fill="none" stroke="#000000" d="M 160 312 L 192 312 L 192 200" stroke-miterlimit="10" stroke-dasharray="3"/></g><g transform="translate(-54,-22) scale(1,1)"><path fill="none" stroke="#000000" d="M 196.209517756016 210.16267485762415 L 192 200 L 187.790482243984 210.16267485762415" stroke-miterlimit="10"/></g><g transform="translate(-54,-22) scale(1,1)"><g><path fill="none" stroke="none"/><text fill="#000000" stroke="none" font-family="Arial" font-size="13px" font-style="normal" font-weight="normal" text-decoration="none" x="126.5" y="249.5">«create»</text></g></g><g transform="translate(-54,-22) scale(1,1)"><path fill="#ffffff" stroke="none" d="M 192 400 L 453 400 L 463 410 L 463 481 L 192 481 L 192 400"/></g><g transform="translate(-54,-22) scale(1,1)"><path fill="none" stroke="#000000" d="M 192 400 L 453 400 L 463 410 L 463 481 L 192 481 L 192 400 L 192 400" stroke-miterlimit="10"/></g><g transform="translate(-54,-22) scale(1,1)"><path fill="none" stroke="#000000" d="M 453 400 L 453 410 L 463 410 L 453 400" stroke-miterlimit="10"/></g><g transform="translate(-54,-22) scale(1,1)"><g><path fill="none" stroke="none"/><text fill="#000000" stroke="none" font-family="Arial" font-size="13px" font-style="normal" font-weight="normal" text-decoration="none" x="197" y="415">public void actionV2() {</text></g></g><g transform="translate(-54,-22) scale(1,1)"><g><path fill="none" stroke="none"/><text fill="#000000" stroke="none" font-family="Arial" font-size="13px" font-style="normal" font-weight="normal" text-decoration="none" x="197" y="430">    Service service = new Service();</text></g></g><g transform="translate(-54,-22) scale(1,1)"><g><path fill="none" stroke="none"/><text fill="#000000" stroke="none" font-family="Arial" font-size="13px" font-style="normal" font-weight="normal" text-decoration="none" x="197" y="445">    service.action();</text></g></g><g transform="translate(-54,-22) scale(1,1)"><g><path fill="none" stroke="none"/><text fill="#000000" stroke="none" font-family="Arial" font-size="13px" font-style="normal" font-weight="normal" text-decoration="none" x="197" y="460">}</text></g></g><g transform="translate(-54,-22) scale(1,1)"><path fill="none" stroke="#000000" d="M 331 353 L 329 399" stroke-miterlimit="10" stroke-dasharray="3"/></g></g></svg>