<svg version="1.1" xmlns="http://www.w3.org/2000/svg" xmlns:xlink="http://www.w3.org/1999/xlink" width="872.826171875" height="478"><defs/><g><g transform="translate(-30,-78) scale(1,1)"><rect fill="#C0C0C0" stroke="none" x="143" y="303" width="237.67431640625" height="96" opacity="0.2"/></g><g transform="translate(-30,-78) scale(1,1)"><rect fill="#ffffff" stroke="none" x="136" y="296" width="237.67431640625" height="96"/></g><g transform="translate(-30,-78) scale(1,1)"><path fill="none" stroke="#000000" d="M 136 296 L 373.67431640625 296 L 373.67431640625 392 L 136 392 L 136 296 Z Z" stroke-miterlimit="10"/></g><g transform="translate(-30,-78) scale(1,1)"><path fill="none" stroke="#000000" d="M 136 321 L 373.67431640625 321" stroke-miterlimit="10"/></g><g transform="translate(-30,-78) scale(1,1)"><path fill="none" stroke="#000000" d="M 136 331 L 373.67431640625 331" stroke-miterlimit="10"/></g><g transform="translate(-30,-78) scale(1,1)"><g><path fill="none" stroke="none"/><text fill="#000000" stroke="none" font-family="Arial" font-size="13px" font-style="normal" font-weight="bold" text-decoration="none" x="196.68310546875" y="314">ZonePlaineFactory</text></g></g><g transform="translate(-30,-78) scale(1,1)"><g><path fill="none" stroke="none"/><text fill="#000000" stroke="none" font-family="Arial" font-size="13px" font-style="normal" font-weight="normal" text-decoration="none" x="141" y="347">+creerMonstreNormal(): Monstre</text></g></g><g transform="translate(-30,-78) scale(1,1)"><g><path fill="none" stroke="none"/><text fill="#000000" stroke="none" font-family="Arial" font-size="13px" font-style="normal" font-weight="normal" text-decoration="none" x="141" y="362">+creerBoss(): Boss</text></g></g><g transform="translate(-30,-78) scale(1,1)"><g><path fill="none" stroke="none"/><text fill="#000000" stroke="none" font-family="Arial" font-size="13px" font-style="normal" font-weight="normal" text-decoration="none" x="141" y="377">+creerRecompense(): Item</text></g></g><g transform="translate(-30,-78) scale(1,1)"><rect fill="#C0C0C0" stroke="none" x="447" y="303" width="256.50146484375" height="96" opacity="0.2"/></g><g transform="translate(-30,-78) scale(1,1)"><rect fill="#ffffff" stroke="none" x="440" y="296" width="256.50146484375" height="96"/></g><g transform="translate(-30,-78) scale(1,1)"><path fill="none" stroke="#000000" d="M 440 296 L 696.50146484375 296 L 696.50146484375 392 L 440 392 L 440 296 Z Z" stroke-miterlimit="10"/></g><g transform="translate(-30,-78) scale(1,1)"><path fill="none" stroke="#000000" d="M 440 321 L 696.50146484375 321" stroke-miterlimit="10"/></g><g transform="translate(-30,-78) scale(1,1)"><path fill="none" stroke="#000000" d="M 440 331 L 696.50146484375 331" stroke-miterlimit="10"/></g><g transform="translate(-30,-78) scale(1,1)"><g><path fill="none" stroke="none"/><text fill="#000000" stroke="none" font-family="Arial" font-size="13px" font-style="normal" font-weight="bold" text-decoration="none" x="485.540771484375" y="314">ZoneChateauHanteFactory</text></g></g><g transform="translate(-30,-78) scale(1,1)"><g><path fill="none" stroke="none"/><text fill="#000000" stroke="none" font-family="Arial" font-size="13px" font-style="normal" font-weight="normal" text-decoration="none" x="445" y="347">+creerMonstreNormal(): Monstre</text></g></g><g transform="translate(-30,-78) scale(1,1)"><g><path fill="none" stroke="none"/><text fill="#000000" stroke="none" font-family="Arial" font-size="13px" font-style="normal" font-weight="normal" text-decoration="none" x="445" y="362">+creerBoss(): Boss</text></g></g><g transform="translate(-30,-78) scale(1,1)"><g><path fill="none" stroke="none"/><text fill="#000000" stroke="none" font-family="Arial" font-size="13px" font-style="normal" font-weight="normal" text-decoration="none" x="445" y="377">+creerRecompense(): Item</text></g></g><g transform="translate(-30,-78) scale(1,1)"><rect fill="#C0C0C0" stroke="none" x="359" y="479" width="132.1826171875" height="72" opacity="0.2"/></g><g transform="translate(-30,-78) scale(1,1)"><rect fill="#ffffff" stroke="none" x="352" y="472" width="132.1826171875" height="72"/></g><g transform="translate(-30,-78) scale(1,1)"><path fill="none" stroke="#000000" d="M 352 472 L 484.1826171875 472 L 484.1826171875 544 L 352 544 L 352 472 Z Z" stroke-miterlimit="10"/></g><g transform="translate(-30,-78) scale(1,1)"><path fill="none" stroke="#000000" d="M 355 472 L 355 544" stroke-miterlimit="10"/></g><g transform="translate(-30,-78) scale(1,1)"><path fill="none" stroke="#000000" d="M 481.1826171875 472 L 481.1826171875 544" stroke-miterlimit="10"/></g><g transform="translate(-30,-78) scale(1,1)"><path fill="none" stroke="#000000" d="M 352 497 L 484.1826171875 497" stroke-miterlimit="10"/></g><g transform="translate(-30,-78) scale(1,1)"><path fill="none" stroke="#000000" d="M 352 507 L 484.1826171875 507" stroke-miterlimit="10"/></g><g transform="translate(-30,-78) scale(1,1)"><g><path fill="none" stroke="none"/><text fill="#000000" stroke="none" font-family="Arial" font-size="13px" font-style="normal" font-weight="bold" text-decoration="none" x="403.285400390625" y="490">Main</text></g></g><g transform="translate(-30,-78) scale(1,1)"><g><path fill="none" stroke="none"/><text fill="#000000" stroke="none" font-family="Arial" font-size="13px" font-style="normal" font-weight="normal" text-decoration="none" x="357" y="523">+main(args: String[*])</text></g></g><g transform="translate(-30,-78) scale(1,1)"><rect fill="#C0C0C0" stroke="none" x="647" y="431" width="252.826171875" height="72" opacity="0.2"/></g><g transform="translate(-30,-78) scale(1,1)"><rect fill="#ffffff" stroke="none" x="640" y="424" width="252.826171875" height="72"/></g><g transform="translate(-30,-78) scale(1,1)"><path fill="none" stroke="#000000" d="M 640 424 L 892.826171875 424 L 892.826171875 496 L 640 496 L 640 424 Z Z" stroke-miterlimit="10"/></g><g transform="translate(-30,-78) scale(1,1)"><path fill="none" stroke="#000000" d="M 640 449 L 892.826171875 449" stroke-miterlimit="10"/></g><g transform="translate(-30,-78) scale(1,1)"><path fill="none" stroke="#000000" d="M 640 459 L 892.826171875 459" stroke-miterlimit="10"/></g><g transform="translate(-30,-78) scale(1,1)"><g><path fill="none" stroke="none"/><text fill="#000000" stroke="none" font-family="Arial" font-size="13px" font-style="normal" font-weight="bold" text-decoration="none" x="750.88671875" y="442">Zone</text></g></g><g transform="translate(-30,-78) scale(1,1)"><g><path fill="none" stroke="none"/><text fill="#000000" stroke="none" font-family="Arial" font-size="13px" font-style="normal" font-weight="normal" text-decoration="none" x="645" y="475">+Zone(factory: AbstractZoneFactory)</text></g></g><g transform="translate(-30,-78) scale(1,1)"><g><path fill="none" stroke="none"/><text fill="#000000" stroke="none" font-family="Arial" font-size="13px" font-style="normal" font-weight="normal" text-decoration="none" x="645" y="490">+traverserZoneNormale(joueur: Joueur)</text></g></g><g transform="translate(-30,-78) scale(1,1)"><path fill="none" stroke="#000000" d="M 484 520 L 766 520 L 766 496" stroke-miterlimit="10" stroke-dasharray="3"/></g><g transform="translate(-30,-78) scale(1,1)"><path fill="none" stroke="#000000" d="M 770.209517756016 506.16267485762415 L 766 496 L 761.790482243984 506.16267485762415" stroke-miterlimit="10"/></g><g transform="translate(-30,-78) scale(1,1)"><g><path fill="none" stroke="none"/><text fill="#000000" stroke="none" font-family="Arial" font-size="13px" font-style="normal" font-weight="normal" text-decoration="none" x="582.5" y="544.5">«create»</text></g></g><g transform="translate(-30,-78) scale(1,1)"><path fill="#C0C0C0" stroke="none" d="M 116.656787109375 95 L 151.37678710937502 95 L 166.256787109375 109.88 L 166.256787109375 157 L 116.656787109375 157" opacity="0.2"/></g><g transform="translate(-30,-78) scale(1,1)"><path fill="#ffffff" stroke="none" d="M 109.65678710937499 88 L 144.37678710937502 88 L 159.256787109375 102.88000000000001 L 159.256787109375 150 L 109.65678710937499 150"/></g><g transform="translate(-30,-78) scale(1,1)"><path fill="none" stroke="#000000" d="M 109.65678710937499 88 L 144.37678710937502 88 L 159.256787109375 102.88000000000001 L 159.256787109375 150 L 109.65678710937499 150 L 109.65678710937499 88" stroke-miterlimit="10"/></g><g transform="translate(-30,-78) scale(1,1)"><path fill="none" stroke="#000000" d="M 144.37678710937502 88 L 144.37678710937502 102.88000000000001 L 159.256787109375 102.88000000000001 L 144.37678710937502 88" stroke-miterlimit="10"/></g><g transform="translate(-30,-78) scale(1,1)"><g><path fill="none" stroke="none"/><text fill="#000000" stroke="none" font-family="Arial" font-size="13px" font-style="normal" font-weight="bold" text-decoration="none" x="61.5" y="168">zone_factory_config.txt</text><path fill="none" stroke="#000000" d="M 207.41357421875 169.5 L 61.5 169.5" stroke-miterlimit="10"/></g></g><g transform="translate(-30,-78) scale(1,1)"><rect fill="#C0C0C0" stroke="none" x="287" y="103" width="258.60888671875" height="143" opacity="0.2"/></g><g transform="translate(-30,-78) scale(1,1)"><rect fill="#ffffff" stroke="none" x="280" y="96" width="258.60888671875" height="143"/></g><g transform="translate(-30,-78) scale(1,1)"><path fill="none" stroke="#000000" d="M 280 96 L 538.60888671875 96 L 538.60888671875 239 L 280 239 L 280 96 Z Z" stroke-miterlimit="10"/></g><g transform="translate(-30,-78) scale(1,1)"><path fill="none" stroke="#000000" d="M 280 134 L 538.60888671875 134" stroke-miterlimit="10"/></g><g transform="translate(-30,-78) scale(1,1)"><path fill="none" stroke="#000000" d="M 280 157 L 538.60888671875 157" stroke-miterlimit="10"/></g><g transform="translate(-30,-78) scale(1,1)"><g><path fill="none" stroke="none"/><text fill="#000000" stroke="none" font-family="Arial" font-size="13px" font-style="normal" font-weight="normal" text-decoration="none" x="378.953125" y="112">«abstract»</text></g></g><g transform="translate(-30,-78) scale(1,1)"><g><path fill="none" stroke="none"/><text fill="#000000" stroke="none" font-family="Arial" font-size="13px" font-style="italic" font-weight="bold" text-decoration="none" x="343.929931640625" y="127">AbstractZoneFactory</text></g></g><g transform="translate(-30,-78) scale(1,1)"><g><path fill="none" stroke="none"/><text fill="#000000" stroke="none" font-family="Arial" font-size="13px" font-style="normal" font-weight="normal" text-decoration="none" x="285" y="150">-INSTANCE: AbstractZoneFactory</text><path fill="none" stroke="#000000" d="M 285 151.5 L 481.97412109375 151.5" stroke-miterlimit="10"/></g></g><g transform="translate(-30,-78) scale(1,1)"><g><path fill="none" stroke="none"/><text fill="#000000" stroke="none" font-family="Arial" font-size="13px" font-style="normal" font-weight="normal" text-decoration="none" x="285" y="173">+getInstance(): AbstractZoneFactyory</text><path fill="none" stroke="#000000" d="M 285 174.5 L 502.84521484375 174.5" stroke-miterlimit="10"/></g></g><g transform="translate(-30,-78) scale(1,1)"><g><path fill="none" stroke="none"/><text fill="#000000" stroke="none" font-family="Arial" font-size="13px" font-style="normal" font-weight="normal" text-decoration="none" x="285" y="188">«abstract»+creerMonstreNormal(): Monstre</text></g></g><g transform="translate(-30,-78) scale(1,1)"><g><path fill="none" stroke="none"/><text fill="#000000" stroke="none" font-family="Arial" font-size="13px" font-style="italic" font-weight="normal" text-decoration="none" x="285" y="203">«abstract»+creerBoss(): Boss</text></g></g><g transform="translate(-30,-78) scale(1,1)"><g><path fill="none" stroke="none"/><text fill="#000000" stroke="none" font-family="Arial" font-size="13px" font-style="italic" font-weight="normal" text-decoration="none" x="285" y="218">«abstract»+creerRecompense(): Item</text></g></g><g transform="translate(-30,-78) scale(1,1)"><path fill="none" stroke="#000000" d="M 345 296 L 345 239" stroke-miterlimit="10"/></g><g transform="translate(-30,-78) scale(1,1)"><path fill="#FFFFFF" stroke="none" d="M 353.419035512032 259.3253497152483 L 345 239 L 336.580964487968 259.3253497152483"/></g><g transform="translate(-30,-78) scale(1,1)"><path fill="none" stroke="#000000" d="M 353.419035512032 259.3253497152483 L 345 239 L 336.580964487968 259.3253497152483 L 353.419035512032 259.3253497152483" stroke-miterlimit="10"/></g><g transform="translate(-30,-78) scale(1,1)"><path fill="none" stroke="#000000" d="M 475 296 L 475 239" stroke-miterlimit="10"/></g><g transform="translate(-30,-78) scale(1,1)"><path fill="#FFFFFF" stroke="none" d="M 483.419035512032 259.3253497152483 L 475 239 L 466.580964487968 259.3253497152483"/></g><g transform="translate(-30,-78) scale(1,1)"><path fill="none" stroke="#000000" d="M 483.419035512032 259.3253497152483 L 475 239 L 466.580964487968 259.3253497152483 L 483.419035512032 259.3253497152483" stroke-miterlimit="10"/></g><g transform="translate(-30,-78) scale(1,1)"><path fill="none" stroke="#000000" d="M 280 208 L 240 208 L 240 296" stroke-miterlimit="10" stroke-dasharray="3"/></g><g transform="translate(-30,-78) scale(1,1)"><path fill="none" stroke="#000000" d="M 235.790482243984 285.83732514237585 L 240 296 L 244.209517756016 285.83732514237585" stroke-miterlimit="10"/></g><g transform="translate(-30,-78) scale(1,1)"><g><path fill="none" stroke="none"/><text fill="#000000" stroke="none" font-family="Arial" font-size="13px" font-style="normal" font-weight="normal" text-decoration="none" x="182.5" y="250.5">«create»</text></g></g><g transform="translate(-30,-78) scale(1,1)"><path fill="none" stroke="#000000" d="M 539 208 L 584 208 L 584 296" stroke-miterlimit="10" stroke-dasharray="3"/></g><g transform="translate(-30,-78) scale(1,1)"><path fill="none" stroke="#000000" d="M 579.790482243984 285.83732514237585 L 584 296 L 588.209517756016 285.83732514237585" stroke-miterlimit="10"/></g><g transform="translate(-30,-78) scale(1,1)"><g><path fill="none" stroke="none"/><text fill="#000000" stroke="none" font-family="Arial" font-size="13px" font-style="normal" font-weight="normal" text-decoration="none" x="598.5" y="249.5">«create»</text></g></g><g transform="translate(-30,-78) scale(1,1)"><path fill="none" stroke="#000000" d="M 408 472 L 408 239" stroke-miterlimit="10" stroke-dasharray="3"/></g><g transform="translate(-30,-78) scale(1,1)"><path fill="none" stroke="#000000" d="M 412.209517756016 249.16267485762415 L 408 239 L 403.790482243984 249.16267485762415" stroke-miterlimit="10"/></g><g transform="translate(-30,-78) scale(1,1)"><g><path fill="none" stroke="none"/><text fill="#000000" stroke="none" font-family="Arial" font-size="13px" font-style="normal" font-weight="normal" text-decoration="none" x="361.5" y="431">«call»</text></g></g><g transform="translate(-30,-78) scale(1,1)"><path fill="none" stroke="#000000" d="M 539 144 L 760 144 L 760 424" stroke-miterlimit="10"/></g><g transform="translate(-30,-78) scale(1,1)"><path fill="#FFFFFF" stroke="none" d="M 755.790482243984 413.83732514237585 L 760 424 L 764.209517756016 413.83732514237585 L 760 402"/></g><g transform="translate(-30,-78) scale(1,1)"><path fill="none" stroke="#000000" d="M 755.790482243984 413.83732514237585 L 760 424 L 764.209517756016 413.83732514237585 L 760 402 L 755.790482243984 413.83732514237585" stroke-miterlimit="10"/></g><g transform="translate(-30,-78) scale(1,1)"><path fill="none" stroke="#000000" d="M 549.1626748576241 139.790482243984 L 539 144 L 549.1626748576241 148.209517756016" stroke-miterlimit="10"/></g><g transform="translate(-30,-78) scale(1,1)"><g><path fill="none" stroke="none"/><text fill="#000000" stroke="none" font-family="Arial" font-size="13px" font-style="normal" font-weight="normal" text-decoration="none" x="542.5" y="134">-factory</text></g></g><g transform="translate(-30,-78) scale(1,1)"><g><path fill="none" stroke="none"/><text fill="#000000" stroke="none" font-family="Arial" font-size="13px" font-style="normal" font-weight="normal" text-decoration="none" x="556.5" y="161">1</text></g></g><g transform="translate(-30,-78) scale(1,1)"><path fill="none" stroke="#000000" d="M 279 150 L 230 144" stroke-miterlimit="10" stroke-dasharray="3"/></g></g></svg>