<svg version="1.1" xmlns="http://www.w3.org/2000/svg" xmlns:xlink="http://www.w3.org/1999/xlink" width="972" height="624"><defs/><g><g transform="translate(-22,-206) scale(1,1)"><rect fill="#C0C0C0" stroke="none" x="39" y="359" width="216" height="190" opacity="0.2"/></g><g transform="translate(-22,-206) scale(1,1)"><rect fill="#ffffff" stroke="none" x="32" y="352" width="216" height="190"/></g><g transform="translate(-22,-206) scale(1,1)"><path fill="none" stroke="#000000" d="M 32 352 L 248 352 L 248 542 L 32 542 L 32 352 Z Z" stroke-miterlimit="10"/></g><g transform="translate(-22,-206) scale(1,1)"><path fill="none" stroke="#000000" d="M 32 377 L 248 377" stroke-miterlimit="10"/></g><g transform="translate(-22,-206) scale(1,1)"><path fill="none" stroke="#000000" d="M 32 430 L 248 430" stroke-miterlimit="10"/></g><g transform="translate(-22,-206) scale(1,1)"><g><path fill="none" stroke="none"/><text fill="#000000" stroke="none" font-family="Arial" font-size="13px" font-style="normal" font-weight="bold" text-decoration="none" x="120.135009765625" y="370">Canne</text></g></g><g transform="translate(-22,-206) scale(1,1)"><g><path fill="none" stroke="none"/><text fill="#000000" stroke="none" font-family="Arial" font-size="13px" font-style="normal" font-weight="normal" text-decoration="none" x="37" y="393">-niveau: int</text></g></g><g transform="translate(-22,-206) scale(1,1)"><g><path fill="none" stroke="none"/><text fill="#000000" stroke="none" font-family="Arial" font-size="13px" font-style="normal" font-weight="normal" text-decoration="none" x="37" y="408">-degradation: int = 0</text></g></g><g transform="translate(-22,-206) scale(1,1)"><g><path fill="none" stroke="none"/><text fill="#000000" stroke="none" font-family="Arial" font-size="13px" font-style="normal" font-weight="normal" text-decoration="none" x="37" y="423">-score: int = 0</text></g></g><g transform="translate(-22,-206) scale(1,1)"><g><path fill="none" stroke="none"/><text fill="#000000" stroke="none" font-family="Arial" font-size="13px" font-style="normal" font-weight="normal" text-decoration="none" x="37" y="446">+Canne(niveau: int)</text></g></g><g transform="translate(-22,-206) scale(1,1)"><g><path fill="none" stroke="none"/><text fill="#000000" stroke="none" font-family="Arial" font-size="13px" font-style="normal" font-weight="normal" text-decoration="none" x="37" y="461">+augmenterNiveau(): void</text></g></g><g transform="translate(-22,-206) scale(1,1)"><g><path fill="none" stroke="none"/><text fill="#000000" stroke="none" font-family="Arial" font-size="13px" font-style="normal" font-weight="normal" text-decoration="none" x="37" y="476">+degrader(): void</text></g></g><g transform="translate(-22,-206) scale(1,1)"><g><path fill="none" stroke="none"/><text fill="#000000" stroke="none" font-family="Arial" font-size="13px" font-style="normal" font-weight="normal" text-decoration="none" x="37" y="491">+reparer(): void</text></g></g><g transform="translate(-22,-206) scale(1,1)"><g><path fill="none" stroke="none"/><text fill="#000000" stroke="none" font-family="Arial" font-size="13px" font-style="normal" font-weight="normal" text-decoration="none" x="37" y="506">+getForce(): int</text></g></g><g transform="translate(-22,-206) scale(1,1)"><g><path fill="none" stroke="none"/><text fill="#000000" stroke="none" font-family="Arial" font-size="13px" font-style="normal" font-weight="normal" text-decoration="none" x="37" y="521">+augmenterScore(points: int): void</text></g></g><g transform="translate(-22,-206) scale(1,1)"><g><path fill="none" stroke="none"/><text fill="#000000" stroke="none" font-family="Arial" font-size="13px" font-style="normal" font-weight="normal" text-decoration="none" x="37" y="536">+toString(): String</text></g></g><g transform="translate(-22,-206) scale(1,1)"><rect fill="#C0C0C0" stroke="none" x="767" y="647" width="224" height="100" opacity="0.2"/></g><g transform="translate(-22,-206) scale(1,1)"><rect fill="#ffffff" stroke="none" x="760" y="640" width="224" height="100"/></g><g transform="translate(-22,-206) scale(1,1)"><path fill="none" stroke="#000000" d="M 760 640 L 984 640 L 984 740 L 760 740 L 760 640 Z Z" stroke-miterlimit="10"/></g><g transform="translate(-22,-206) scale(1,1)"><path fill="none" stroke="#000000" d="M 760 665 L 984 665" stroke-miterlimit="10"/></g><g transform="translate(-22,-206) scale(1,1)"><path fill="none" stroke="#000000" d="M 760 688 L 984 688" stroke-miterlimit="10"/></g><g transform="translate(-22,-206) scale(1,1)"><g><path fill="none" stroke="none"/><text fill="#000000" stroke="none" font-family="Arial" font-size="13px" font-style="normal" font-weight="bold" text-decoration="none" x="853.575927734375" y="658">Carpe</text></g></g><g transform="translate(-22,-206) scale(1,1)"><g><path fill="none" stroke="none"/><text fill="#000000" stroke="none" font-family="Arial" font-size="13px" font-style="normal" font-weight="normal" text-decoration="none" x="765" y="681">-doree: boolean</text></g></g><g transform="translate(-22,-206) scale(1,1)"><g><path fill="none" stroke="none"/><text fill="#000000" stroke="none" font-family="Arial" font-size="13px" font-style="normal" font-weight="normal" text-decoration="none" x="765" y="704">+Carpe(niveau: int, doree: boolean)</text></g></g><g transform="translate(-22,-206) scale(1,1)"><g><path fill="none" stroke="none"/><text fill="#000000" stroke="none" font-family="Arial" font-size="13px" font-style="normal" font-weight="normal" text-decoration="none" x="765" y="719">+getNbPoints(): int</text></g></g><g transform="translate(-22,-206) scale(1,1)"><g><path fill="none" stroke="none"/><text fill="#000000" stroke="none" font-family="Arial" font-size="13px" font-style="normal" font-weight="normal" text-decoration="none" x="765" y="734">+getNom(): String</text></g></g><g transform="translate(-22,-206) scale(1,1)"><rect fill="#C0C0C0" stroke="none" x="271" y="295" width="154.22802734375" height="57" opacity="0.2"/></g><g transform="translate(-22,-206) scale(1,1)"><rect fill="#ffffff" stroke="none" x="264" y="288" width="154.22802734375" height="57"/></g><g transform="translate(-22,-206) scale(1,1)"><path fill="none" stroke="#000000" d="M 264 288 L 418.22802734375 288 L 418.22802734375 345 L 264 345 L 264 288 Z Z" stroke-miterlimit="10"/></g><g transform="translate(-22,-206) scale(1,1)"><path fill="none" stroke="#000000" d="M 264 313 L 418.22802734375 313" stroke-miterlimit="10"/></g><g transform="translate(-22,-206) scale(1,1)"><path fill="none" stroke="#000000" d="M 264 323 L 418.22802734375 323" stroke-miterlimit="10"/></g><g transform="translate(-22,-206) scale(1,1)"><g><path fill="none" stroke="none"/><text fill="#000000" stroke="none" font-family="Arial" font-size="13px" font-style="normal" font-weight="bold" text-decoration="none" x="323.05810546875" y="306">Etang</text></g></g><g transform="translate(-22,-206) scale(1,1)"><g><path fill="none" stroke="none"/><text fill="#000000" stroke="none" font-family="Arial" font-size="13px" font-style="normal" font-weight="normal" text-decoration="none" x="269" y="339">#creerPoisson(): Poisson</text></g></g><g transform="translate(-22,-206) scale(1,1)"><rect fill="#C0C0C0" stroke="none" x="703" y="295" width="232" height="85" opacity="0.2"/></g><g transform="translate(-22,-206) scale(1,1)"><rect fill="#ffffff" stroke="none" x="696" y="288" width="232" height="85"/></g><g transform="translate(-22,-206) scale(1,1)"><path fill="none" stroke="#000000" d="M 696 288 L 928 288 L 928 373 L 696 373 L 696 288 Z Z" stroke-miterlimit="10"/></g><g transform="translate(-22,-206) scale(1,1)"><path fill="none" stroke="#000000" d="M 696 313 L 928 313" stroke-miterlimit="10"/></g><g transform="translate(-22,-206) scale(1,1)"><path fill="none" stroke="#000000" d="M 696 336 L 928 336" stroke-miterlimit="10"/></g><g transform="translate(-22,-206) scale(1,1)"><g><path fill="none" stroke="none"/><text fill="#000000" stroke="none" font-family="Arial" font-size="13px" font-style="normal" font-weight="bold" text-decoration="none" x="800.799560546875" y="306">Lac</text></g></g><g transform="translate(-22,-206) scale(1,1)"><g><path fill="none" stroke="none"/><text fill="#000000" stroke="none" font-family="Arial" font-size="13px" font-style="normal" font-weight="normal" text-decoration="none" x="701" y="329">-probabiliteCarpeDoree: double</text></g></g><g transform="translate(-22,-206) scale(1,1)"><g><path fill="none" stroke="none"/><text fill="#000000" stroke="none" font-family="Arial" font-size="13px" font-style="normal" font-weight="normal" text-decoration="none" x="701" y="352">+Lac(probabiliteCarpeDoree: double)</text></g></g><g transform="translate(-22,-206) scale(1,1)"><g><path fill="none" stroke="none"/><text fill="#000000" stroke="none" font-family="Arial" font-size="13px" font-style="normal" font-weight="normal" text-decoration="none" x="701" y="367">#creerPoisson(): Poisson</text></g></g><g transform="translate(-22,-206) scale(1,1)"><rect fill="#C0C0C0" stroke="none" x="447" y="503" width="262.7919921875" height="143" opacity="0.2"/></g><g transform="translate(-22,-206) scale(1,1)"><rect fill="#ffffff" stroke="none" x="440" y="496" width="262.7919921875" height="143"/></g><g transform="translate(-22,-206) scale(1,1)"><path fill="none" stroke="#000000" d="M 440 496 L 702.7919921875 496 L 702.7919921875 639 L 440 639 L 440 496 Z Z" stroke-miterlimit="10"/></g><g transform="translate(-22,-206) scale(1,1)"><path fill="none" stroke="#000000" d="M 440 534 L 702.7919921875 534" stroke-miterlimit="10"/></g><g transform="translate(-22,-206) scale(1,1)"><path fill="none" stroke="#000000" d="M 440 572 L 702.7919921875 572" stroke-miterlimit="10"/></g><g transform="translate(-22,-206) scale(1,1)"><g><path fill="none" stroke="none"/><text fill="#000000" stroke="none" font-family="Arial" font-size="13px" font-style="normal" font-weight="normal" text-decoration="none" x="541.044677734375" y="512">«abstract»</text></g></g><g transform="translate(-22,-206) scale(1,1)"><g><path fill="none" stroke="none"/><text fill="#000000" stroke="none" font-family="Arial" font-size="13px" font-style="italic" font-weight="bold" text-decoration="none" x="546.11328125" y="527">Poisson</text></g></g><g transform="translate(-22,-206) scale(1,1)"><g><path fill="none" stroke="none"/><text fill="#000000" stroke="none" font-family="Arial" font-size="13px" font-style="normal" font-weight="normal" text-decoration="none" x="445" y="550">#niveau: int</text></g></g><g transform="translate(-22,-206) scale(1,1)"><g><path fill="none" stroke="none"/><text fill="#000000" stroke="none" font-family="Arial" font-size="13px" font-style="normal" font-weight="normal" text-decoration="none" x="445" y="565">-aleatoire: Random</text></g></g><g transform="translate(-22,-206) scale(1,1)"><g><path fill="none" stroke="none"/><text fill="#000000" stroke="none" font-family="Arial" font-size="13px" font-style="normal" font-weight="normal" text-decoration="none" x="445" y="588">+Poisson(niveau: int)</text></g></g><g transform="translate(-22,-206) scale(1,1)"><g><path fill="none" stroke="none"/><text fill="#000000" stroke="none" font-family="Arial" font-size="13px" font-style="italic" font-weight="normal" text-decoration="none" x="445" y="603">+getNbPoints(): int</text></g></g><g transform="translate(-22,-206) scale(1,1)"><g><path fill="none" stroke="none"/><text fill="#000000" stroke="none" font-family="Arial" font-size="13px" font-style="italic" font-weight="normal" text-decoration="none" x="445" y="618">+getNom(): String</text></g></g><g transform="translate(-22,-206) scale(1,1)"><g><path fill="none" stroke="none"/><text fill="#000000" stroke="none" font-family="Arial" font-size="13px" font-style="normal" font-weight="normal" text-decoration="none" x="445" y="633">+tenterPecherAvec(canne: Canne): boolean</text></g></g><g transform="translate(-22,-206) scale(1,1)"><path fill="none" stroke="#000000" d="M 800 640 L 800 576 L 703 576" stroke-miterlimit="10"/></g><g transform="translate(-22,-206) scale(1,1)"><path fill="#FFFFFF" stroke="none" d="M 723.3253497152483 567.580964487968 L 703 576 L 723.3253497152483 584.419035512032"/></g><g transform="translate(-22,-206) scale(1,1)"><path fill="none" stroke="#000000" d="M 723.3253497152483 567.580964487968 L 703 576 L 723.3253497152483 584.419035512032 L 723.3253497152483 567.580964487968" stroke-miterlimit="10"/></g><g transform="translate(-22,-206) scale(1,1)"><rect fill="#C0C0C0" stroke="none" x="479" y="343" width="177.0224609375" height="98" opacity="0.2"/></g><g transform="translate(-22,-206) scale(1,1)"><rect fill="#ffffff" stroke="none" x="472" y="336" width="177.0224609375" height="98"/></g><g transform="translate(-22,-206) scale(1,1)"><path fill="none" stroke="#000000" d="M 472 336 L 649.0224609375 336 L 649.0224609375 434 L 472 434 L 472 336 Z Z" stroke-miterlimit="10"/></g><g transform="translate(-22,-206) scale(1,1)"><path fill="none" stroke="#000000" d="M 472 374 L 649.0224609375 374" stroke-miterlimit="10"/></g><g transform="translate(-22,-206) scale(1,1)"><path fill="none" stroke="#000000" d="M 472 397 L 649.0224609375 397" stroke-miterlimit="10"/></g><g transform="translate(-22,-206) scale(1,1)"><g><path fill="none" stroke="none"/><text fill="#000000" stroke="none" font-family="Arial" font-size="13px" font-style="normal" font-weight="normal" text-decoration="none" x="530.159912109375" y="352">«abstract»</text></g></g><g transform="translate(-22,-206) scale(1,1)"><g><path fill="none" stroke="none"/><text fill="#000000" stroke="none" font-family="Arial" font-size="13px" font-style="italic" font-weight="bold" text-decoration="none" x="526.91943359375" y="367">SpotPeche</text></g></g><g transform="translate(-22,-206) scale(1,1)"><g><path fill="none" stroke="none"/><text fill="#000000" stroke="none" font-family="Arial" font-size="13px" font-style="normal" font-weight="normal" text-decoration="none" x="477" y="390">#aleatoire: Random</text></g></g><g transform="translate(-22,-206) scale(1,1)"><g><path fill="none" stroke="none"/><text fill="#000000" stroke="none" font-family="Arial" font-size="13px" font-style="normal" font-weight="normal" text-decoration="none" x="477" y="413">+pecher(canne: Canne): void</text></g></g><g transform="translate(-22,-206) scale(1,1)"><g><path fill="none" stroke="none"/><text fill="#000000" stroke="none" font-family="Arial" font-size="13px" font-style="italic" font-weight="normal" text-decoration="none" x="477" y="428">#creerPoisson(): Poisson</text></g></g><g transform="translate(-22,-206) scale(1,1)"><path fill="none" stroke="#000000" d="M 376 345 L 376 394 L 472 394" stroke-miterlimit="10"/></g><g transform="translate(-22,-206) scale(1,1)"><path fill="#FFFFFF" stroke="none" d="M 451.6746502847517 402.419035512032 L 472 394 L 451.6746502847517 385.580964487968"/></g><g transform="translate(-22,-206) scale(1,1)"><path fill="none" stroke="#000000" d="M 451.6746502847517 402.419035512032 L 472 394 L 451.6746502847517 385.580964487968 L 451.6746502847517 402.419035512032" stroke-miterlimit="10"/></g><g transform="translate(-22,-206) scale(1,1)"><path fill="none" stroke="#000000" d="M 800 373 L 800 394 L 649 394" stroke-miterlimit="10"/></g><g transform="translate(-22,-206) scale(1,1)"><path fill="#FFFFFF" stroke="none" d="M 669.3253497152483 385.580964487968 L 649 394 L 669.3253497152483 402.419035512032"/></g><g transform="translate(-22,-206) scale(1,1)"><path fill="none" stroke="#000000" d="M 669.3253497152483 385.580964487968 L 649 394 L 669.3253497152483 402.419035512032 L 669.3253497152483 385.580964487968" stroke-miterlimit="10"/></g><g transform="translate(-22,-206) scale(1,1)"><rect fill="#C0C0C0" stroke="none" x="231" y="647" width="192" height="100" opacity="0.2"/></g><g transform="translate(-22,-206) scale(1,1)"><rect fill="#ffffff" stroke="none" x="224" y="640" width="192" height="100"/></g><g transform="translate(-22,-206) scale(1,1)"><path fill="none" stroke="#000000" d="M 224 640 L 416 640 L 416 740 L 224 740 L 224 640 Z Z" stroke-miterlimit="10"/></g><g transform="translate(-22,-206) scale(1,1)"><path fill="none" stroke="#000000" d="M 224 665 L 416 665" stroke-miterlimit="10"/></g><g transform="translate(-22,-206) scale(1,1)"><path fill="none" stroke="#000000" d="M 224 688 L 416 688" stroke-miterlimit="10"/></g><g transform="translate(-22,-206) scale(1,1)"><g><path fill="none" stroke="none"/><text fill="#000000" stroke="none" font-family="Arial" font-size="13px" font-style="normal" font-weight="bold" text-decoration="none" x="302.302734375" y="658">Truite</text></g></g><g transform="translate(-22,-206) scale(1,1)"><g><path fill="none" stroke="none"/><text fill="#000000" stroke="none" font-family="Arial" font-size="13px" font-style="normal" font-weight="normal" text-decoration="none" x="229" y="681">-force: int</text></g></g><g transform="translate(-22,-206) scale(1,1)"><g><path fill="none" stroke="none"/><text fill="#000000" stroke="none" font-family="Arial" font-size="13px" font-style="normal" font-weight="normal" text-decoration="none" x="229" y="704">+Truite(niveau: int, force: int)</text></g></g><g transform="translate(-22,-206) scale(1,1)"><g><path fill="none" stroke="none"/><text fill="#000000" stroke="none" font-family="Arial" font-size="13px" font-style="normal" font-weight="normal" text-decoration="none" x="229" y="719">+getNbPoints(): int</text></g></g><g transform="translate(-22,-206) scale(1,1)"><g><path fill="none" stroke="none"/><text fill="#000000" stroke="none" font-family="Arial" font-size="13px" font-style="normal" font-weight="normal" text-decoration="none" x="229" y="734">+getNom(): String</text></g></g><g transform="translate(-22,-206) scale(1,1)"><path fill="none" stroke="#000000" d="M 376 640 L 376 576 L 440 576" stroke-miterlimit="10"/></g><g transform="translate(-22,-206) scale(1,1)"><path fill="#FFFFFF" stroke="none" d="M 419.6746502847517 584.419035512032 L 440 576 L 419.6746502847517 567.580964487968"/></g><g transform="translate(-22,-206) scale(1,1)"><path fill="none" stroke="#000000" d="M 419.6746502847517 584.419035512032 L 440 576 L 419.6746502847517 567.580964487968 L 419.6746502847517 584.419035512032" stroke-miterlimit="10"/></g><g transform="translate(-22,-206) scale(1,1)"><path fill="none" stroke="#000000" d="M 576 336 L 576 240 L 144 240 L 144 352" stroke-miterlimit="10" stroke-dasharray="3"/></g><g transform="translate(-22,-206) scale(1,1)"><path fill="none" stroke="#000000" d="M 139.790482243984 341.83732514237585 L 144 352 L 148.209517756016 341.83732514237585" stroke-miterlimit="10"/></g><g transform="translate(-22,-206) scale(1,1)"><g><path fill="none" stroke="none"/><text fill="#000000" stroke="none" font-family="Arial" font-size="13px" font-style="normal" font-weight="normal" text-decoration="none" x="344.226806640625" y="227">«call»</text></g></g><g transform="translate(-22,-206) scale(1,1)"><path fill="none" stroke="#000000" d="M 592 639 L 592 784 L 120 784 L 120 542" stroke-miterlimit="10" stroke-dasharray="3"/></g><g transform="translate(-22,-206) scale(1,1)"><path fill="none" stroke="#000000" d="M 124.20951775601598 552.1626748576241 L 120 542 L 115.79048224398402 552.1626748576241" stroke-miterlimit="10"/></g><g transform="translate(-22,-206) scale(1,1)"><g><path fill="none" stroke="none"/><text fill="#000000" stroke="none" font-family="Arial" font-size="13px" font-style="normal" font-weight="normal" text-decoration="none" x="338.5" y="819">«call»</text></g></g><g transform="translate(-22,-206) scale(1,1)"><path fill="none" stroke="#000000" d="M 288 345 L 288 640" stroke-miterlimit="10" stroke-dasharray="3"/></g><g transform="translate(-22,-206) scale(1,1)"><path fill="none" stroke="#000000" d="M 283.790482243984 629.8373251423759 L 288 640 L 292.209517756016 629.8373251423759" stroke-miterlimit="10"/></g><g transform="translate(-22,-206) scale(1,1)"><g><path fill="none" stroke="none"/><text fill="#000000" stroke="none" font-family="Arial" font-size="13px" font-style="normal" font-weight="normal" text-decoration="none" x="292.5" y="495.5">«create»</text></g></g><g transform="translate(-22,-206) scale(1,1)"><path fill="none" stroke="#000000" d="M 880 373 L 880 640" stroke-miterlimit="10" stroke-dasharray="3"/></g><g transform="translate(-22,-206) scale(1,1)"><path fill="none" stroke="#000000" d="M 875.790482243984 629.8373251423759 L 880 640 L 884.209517756016 629.8373251423759" stroke-miterlimit="10"/></g><g transform="translate(-22,-206) scale(1,1)"><g><path fill="none" stroke="none"/><text fill="#000000" stroke="none" font-family="Arial" font-size="13px" font-style="normal" font-weight="normal" text-decoration="none" x="884.5" y="509.5">«create»</text></g></g></g></svg>