<svg version="1.1" xmlns="http://www.w3.org/2000/svg" xmlns:xlink="http://www.w3.org/1999/xlink" width="956" height="732"><defs/><g><g transform="translate(-30,-150) scale(1,1)"><rect fill="#C0C0C0" stroke="none" x="463" y="167" width="128.9072265625" height="75" opacity="0.2"/></g><g transform="translate(-30,-150) scale(1,1)"><rect fill="#ffffff" stroke="none" x="456" y="160" width="128.9072265625" height="75"/></g><g transform="translate(-30,-150) scale(1,1)"><path fill="none" stroke="#000000" d="M 456 160 L 584.9072265625 160 L 584.9072265625 235 L 456 235 L 456 160 Z Z" stroke-miterlimit="10"/></g><g transform="translate(-30,-150) scale(1,1)"><path fill="none" stroke="#000000" d="M 456 198 L 584.9072265625 198" stroke-miterlimit="10"/></g><g transform="translate(-30,-150) scale(1,1)"><g><path fill="none" stroke="none"/><text fill="#000000" stroke="none" font-family="Arial" font-size="13px" font-style="normal" font-weight="normal" text-decoration="none" x="488.293212890625" y="176">«interface»</text></g></g><g transform="translate(-30,-150) scale(1,1)"><g><path fill="none" stroke="none"/><text fill="#000000" stroke="none" font-family="Arial" font-size="13px" font-style="normal" font-weight="bold" text-decoration="none" x="460.5" y="191">FigureGeometrique</text></g></g><g transform="translate(-30,-150) scale(1,1)"><g><path fill="none" stroke="none"/><text fill="#000000" stroke="none" font-family="Arial" font-size="13px" font-style="normal" font-weight="normal" text-decoration="none" x="461" y="214">+getAire(): int</text></g></g><g transform="translate(-30,-150) scale(1,1)"><g><path fill="none" stroke="none"/><text fill="#000000" stroke="none" font-family="Arial" font-size="13px" font-style="normal" font-weight="normal" text-decoration="none" x="461" y="229">+afficherFigure()</text></g></g><g transform="translate(-30,-150) scale(1,1)"><rect fill="#C0C0C0" stroke="none" x="175" y="303" width="161.35986328125" height="60" opacity="0.2"/></g><g transform="translate(-30,-150) scale(1,1)"><rect fill="#ffffff" stroke="none" x="168" y="296" width="161.35986328125" height="60"/></g><g transform="translate(-30,-150) scale(1,1)"><path fill="none" stroke="#000000" d="M 168 296 L 329.35986328125 296 L 329.35986328125 356 L 168 356 L 168 296 Z Z" stroke-miterlimit="10"/></g><g transform="translate(-30,-150) scale(1,1)"><path fill="none" stroke="#000000" d="M 168 334 L 329.35986328125 334" stroke-miterlimit="10"/></g><g transform="translate(-30,-150) scale(1,1)"><g><path fill="none" stroke="none"/><text fill="#000000" stroke="none" font-family="Arial" font-size="13px" font-style="normal" font-weight="normal" text-decoration="none" x="216.51953125" y="312">«interface»</text></g></g><g transform="translate(-30,-150) scale(1,1)"><g><path fill="none" stroke="none"/><text fill="#000000" stroke="none" font-family="Arial" font-size="13px" font-style="normal" font-weight="bold" text-decoration="none" x="231.69677734375" y="327">Carre</text></g></g><g transform="translate(-30,-150) scale(1,1)"><g><path fill="none" stroke="none"/><text fill="#000000" stroke="none" font-family="Arial" font-size="13px" font-style="normal" font-weight="normal" text-decoration="none" x="173" y="350">+getTailleCote(): int</text></g></g><g transform="translate(-30,-150) scale(1,1)"><rect fill="#C0C0C0" stroke="none" x="671" y="303" width="168" height="60" opacity="0.2"/></g><g transform="translate(-30,-150) scale(1,1)"><rect fill="#ffffff" stroke="none" x="664" y="296" width="168" height="60"/></g><g transform="translate(-30,-150) scale(1,1)"><path fill="none" stroke="#000000" d="M 664 296 L 832 296 L 832 356 L 664 356 L 664 296 Z Z" stroke-miterlimit="10"/></g><g transform="translate(-30,-150) scale(1,1)"><path fill="none" stroke="#000000" d="M 664 334 L 832 334" stroke-miterlimit="10"/></g><g transform="translate(-30,-150) scale(1,1)"><g><path fill="none" stroke="none"/><text fill="#000000" stroke="none" font-family="Arial" font-size="13px" font-style="normal" font-weight="normal" text-decoration="none" x="715.839599609375" y="312">«interface»</text></g></g><g transform="translate(-30,-150) scale(1,1)"><g><path fill="none" stroke="none"/><text fill="#000000" stroke="none" font-family="Arial" font-size="13px" font-style="normal" font-weight="bold" text-decoration="none" x="728.12548828125" y="327">Cercle</text></g></g><g transform="translate(-30,-150) scale(1,1)"><g><path fill="none" stroke="none"/><text fill="#000000" stroke="none" font-family="Arial" font-size="13px" font-style="normal" font-weight="normal" text-decoration="none" x="669" y="350">+getDiametre(): int</text></g></g><g transform="translate(-30,-150) scale(1,1)"><path fill="none" stroke="#000000" d="M 329 328 L 480 328 L 480 235" stroke-miterlimit="10"/></g><g transform="translate(-30,-150) scale(1,1)"><path fill="#FFFFFF" stroke="none" d="M 488.419035512032 255.3253497152483 L 480 235 L 471.580964487968 255.3253497152483"/></g><g transform="translate(-30,-150) scale(1,1)"><path fill="none" stroke="#000000" d="M 488.419035512032 255.3253497152483 L 480 235 L 471.580964487968 255.3253497152483 L 488.419035512032 255.3253497152483" stroke-miterlimit="10"/></g><g transform="translate(-30,-150) scale(1,1)"><path fill="none" stroke="#000000" d="M 664 326 L 548 326 L 548 235" stroke-miterlimit="10"/></g><g transform="translate(-30,-150) scale(1,1)"><path fill="#FFFFFF" stroke="none" d="M 556.419035512032 255.3253497152483 L 548 235 L 539.580964487968 255.3253497152483"/></g><g transform="translate(-30,-150) scale(1,1)"><path fill="none" stroke="#000000" d="M 556.419035512032 255.3253497152483 L 548 235 L 539.580964487968 255.3253497152483 L 556.419035512032 255.3253497152483" stroke-miterlimit="10"/></g><g transform="translate(-30,-150) scale(1,1)"><rect fill="#C0C0C0" stroke="none" x="559" y="423" width="156.0244140625" height="115" opacity="0.2"/></g><g transform="translate(-30,-150) scale(1,1)"><rect fill="#ffffff" stroke="none" x="552" y="416" width="156.0244140625" height="115"/></g><g transform="translate(-30,-150) scale(1,1)"><path fill="none" stroke="#000000" d="M 552 416 L 708.0244140625 416 L 708.0244140625 531 L 552 531 L 552 416 Z Z" stroke-miterlimit="10"/></g><g transform="translate(-30,-150) scale(1,1)"><path fill="none" stroke="#000000" d="M 552 441 L 708.0244140625 441" stroke-miterlimit="10"/></g><g transform="translate(-30,-150) scale(1,1)"><path fill="none" stroke="#000000" d="M 552 464 L 708.0244140625 464" stroke-miterlimit="10"/></g><g transform="translate(-30,-150) scale(1,1)"><g><path fill="none" stroke="none"/><text fill="#000000" stroke="none" font-family="Arial" font-size="13px" font-style="normal" font-weight="bold" text-decoration="none" x="588.825439453125" y="434">CercleSimple</text></g></g><g transform="translate(-30,-150) scale(1,1)"><g><path fill="none" stroke="none"/><text fill="#000000" stroke="none" font-family="Arial" font-size="13px" font-style="normal" font-weight="normal" text-decoration="none" x="557" y="457">-rayon: int</text></g></g><g transform="translate(-30,-150) scale(1,1)"><g><path fill="none" stroke="none"/><text fill="#000000" stroke="none" font-family="Arial" font-size="13px" font-style="normal" font-weight="normal" text-decoration="none" x="557" y="480">+CercleSimple(rayon: int)</text></g></g><g transform="translate(-30,-150) scale(1,1)"><g><path fill="none" stroke="none"/><text fill="#000000" stroke="none" font-family="Arial" font-size="13px" font-style="normal" font-weight="normal" text-decoration="none" x="557" y="495">+getDiametre(): int</text></g></g><g transform="translate(-30,-150) scale(1,1)"><g><path fill="none" stroke="none"/><text fill="#000000" stroke="none" font-family="Arial" font-size="13px" font-style="normal" font-weight="normal" text-decoration="none" x="557" y="510">+getAire(): int</text></g></g><g transform="translate(-30,-150) scale(1,1)"><g><path fill="none" stroke="none"/><text fill="#000000" stroke="none" font-family="Arial" font-size="13px" font-style="normal" font-weight="normal" text-decoration="none" x="557" y="525">+afficherFigure()</text></g></g><g transform="translate(-30,-150) scale(1,1)"><rect fill="#C0C0C0" stroke="none" x="791" y="423" width="192" height="112" opacity="0.2"/></g><g transform="translate(-30,-150) scale(1,1)"><rect fill="#ffffff" stroke="none" x="784" y="416" width="192" height="112"/></g><g transform="translate(-30,-150) scale(1,1)"><path fill="none" stroke="#000000" d="M 784 416 L 976 416 L 976 528 L 784 528 L 784 416 Z Z" stroke-miterlimit="10"/></g><g transform="translate(-30,-150) scale(1,1)"><path fill="none" stroke="#000000" d="M 784 441 L 976 441" stroke-miterlimit="10"/></g><g transform="translate(-30,-150) scale(1,1)"><path fill="none" stroke="#000000" d="M 784 451 L 976 451" stroke-miterlimit="10"/></g><g transform="translate(-30,-150) scale(1,1)"><g><path fill="none" stroke="none"/><text fill="#000000" stroke="none" font-family="Arial" font-size="13px" font-style="normal" font-weight="bold" text-decoration="none" x="827.622314453125" y="434">CercleGraphique</text></g></g><g transform="translate(-30,-150) scale(1,1)"><g><path fill="none" stroke="none"/><text fill="#000000" stroke="none" font-family="Arial" font-size="13px" font-style="normal" font-weight="normal" text-decoration="none" x="789" y="467">+CercleGraphique(rayon: int)</text></g></g><g transform="translate(-30,-150) scale(1,1)"><g><path fill="none" stroke="none"/><text fill="#000000" stroke="none" font-family="Arial" font-size="13px" font-style="normal" font-weight="normal" text-decoration="none" x="789" y="482">+getDiametre(): int</text></g></g><g transform="translate(-30,-150) scale(1,1)"><g><path fill="none" stroke="none"/><text fill="#000000" stroke="none" font-family="Arial" font-size="13px" font-style="normal" font-weight="normal" text-decoration="none" x="789" y="497">+getAire(): int</text></g></g><g transform="translate(-30,-150) scale(1,1)"><g><path fill="none" stroke="none"/><text fill="#000000" stroke="none" font-family="Arial" font-size="13px" font-style="normal" font-weight="normal" text-decoration="none" x="789" y="512">+afficherFigure()</text></g></g><g transform="translate(-30,-150) scale(1,1)"><rect fill="#C0C0C0" stroke="none" x="47" y="423" width="172.642578125" height="115" opacity="0.2"/></g><g transform="translate(-30,-150) scale(1,1)"><rect fill="#ffffff" stroke="none" x="40" y="416" width="172.642578125" height="115"/></g><g transform="translate(-30,-150) scale(1,1)"><path fill="none" stroke="#000000" d="M 40 416 L 212.642578125 416 L 212.642578125 531 L 40 531 L 40 416 Z Z" stroke-miterlimit="10"/></g><g transform="translate(-30,-150) scale(1,1)"><path fill="none" stroke="#000000" d="M 40 441 L 212.642578125 441" stroke-miterlimit="10"/></g><g transform="translate(-30,-150) scale(1,1)"><path fill="none" stroke="#000000" d="M 40 464 L 212.642578125 464" stroke-miterlimit="10"/></g><g transform="translate(-30,-150) scale(1,1)"><g><path fill="none" stroke="none"/><text fill="#000000" stroke="none" font-family="Arial" font-size="13px" font-style="normal" font-weight="bold" text-decoration="none" x="88.02587890625" y="434">CarreSimple</text></g></g><g transform="translate(-30,-150) scale(1,1)"><g><path fill="none" stroke="none"/><text fill="#000000" stroke="none" font-family="Arial" font-size="13px" font-style="normal" font-weight="normal" text-decoration="none" x="45" y="457">-tailleCote: int</text></g></g><g transform="translate(-30,-150) scale(1,1)"><g><path fill="none" stroke="none"/><text fill="#000000" stroke="none" font-family="Arial" font-size="13px" font-style="normal" font-weight="normal" text-decoration="none" x="45" y="480">+CarreSimple(tailleCote: int)</text></g></g><g transform="translate(-30,-150) scale(1,1)"><g><path fill="none" stroke="none"/><text fill="#000000" stroke="none" font-family="Arial" font-size="13px" font-style="normal" font-weight="normal" text-decoration="none" x="45" y="495">+getTailleCote(): int</text></g></g><g transform="translate(-30,-150) scale(1,1)"><g><path fill="none" stroke="none"/><text fill="#000000" stroke="none" font-family="Arial" font-size="13px" font-style="normal" font-weight="normal" text-decoration="none" x="45" y="510">+getAire(): int</text></g></g><g transform="translate(-30,-150) scale(1,1)"><g><path fill="none" stroke="none"/><text fill="#000000" stroke="none" font-family="Arial" font-size="13px" font-style="normal" font-weight="normal" text-decoration="none" x="45" y="525">+afficherFigure()</text></g></g><g transform="translate(-30,-150) scale(1,1)"><rect fill="#C0C0C0" stroke="none" x="295" y="423" width="209.615234375" height="112" opacity="0.2"/></g><g transform="translate(-30,-150) scale(1,1)"><rect fill="#ffffff" stroke="none" x="288" y="416" width="209.615234375" height="112"/></g><g transform="translate(-30,-150) scale(1,1)"><path fill="none" stroke="#000000" d="M 288 416 L 497.615234375 416 L 497.615234375 528 L 288 528 L 288 416 Z Z" stroke-miterlimit="10"/></g><g transform="translate(-30,-150) scale(1,1)"><path fill="none" stroke="#000000" d="M 288 441 L 497.615234375 441" stroke-miterlimit="10"/></g><g transform="translate(-30,-150) scale(1,1)"><path fill="none" stroke="#000000" d="M 288 451 L 497.615234375 451" stroke-miterlimit="10"/></g><g transform="translate(-30,-150) scale(1,1)"><g><path fill="none" stroke="none"/><text fill="#000000" stroke="none" font-family="Arial" font-size="13px" font-style="normal" font-weight="bold" text-decoration="none" x="343.3212890625" y="434">CarreGraphique</text></g></g><g transform="translate(-30,-150) scale(1,1)"><g><path fill="none" stroke="none"/><text fill="#000000" stroke="none" font-family="Arial" font-size="13px" font-style="normal" font-weight="normal" text-decoration="none" x="293" y="467">+CarreGraphique(tailleCote: int)</text></g></g><g transform="translate(-30,-150) scale(1,1)"><g><path fill="none" stroke="none"/><text fill="#000000" stroke="none" font-family="Arial" font-size="13px" font-style="normal" font-weight="normal" text-decoration="none" x="293" y="482">+getTailleCote(): int</text></g></g><g transform="translate(-30,-150) scale(1,1)"><g><path fill="none" stroke="none"/><text fill="#000000" stroke="none" font-family="Arial" font-size="13px" font-style="normal" font-weight="normal" text-decoration="none" x="293" y="497">+getAire(): int</text></g></g><g transform="translate(-30,-150) scale(1,1)"><g><path fill="none" stroke="none"/><text fill="#000000" stroke="none" font-family="Arial" font-size="13px" font-style="normal" font-weight="normal" text-decoration="none" x="293" y="512">+afficherFigure()</text></g></g><g transform="translate(-30,-150) scale(1,1)"><path fill="none" stroke="#000000" d="M 784 473 L 708 473" stroke-miterlimit="10"/></g><g transform="translate(-30,-150) scale(1,1)"><path fill="none" stroke="#000000" d="M 718.1626748576241 468.790482243984 L 708 473 L 718.1626748576241 477.209517756016" stroke-miterlimit="10"/></g><g transform="translate(-30,-150) scale(1,1)"><g><path fill="none" stroke="none"/><text fill="#000000" stroke="none" font-family="Arial" font-size="13px" font-style="normal" font-weight="normal" text-decoration="none" x="713.5" y="492">-cercle</text></g></g><g transform="translate(-30,-150) scale(1,1)"><g><path fill="none" stroke="none"/><text fill="#000000" stroke="none" font-family="Arial" font-size="13px" font-style="normal" font-weight="normal" text-decoration="none" x="725.5" y="465">1</text></g></g><g transform="translate(-30,-150) scale(1,1)"><path fill="none" stroke="#000000" d="M 288 473 L 213 473" stroke-miterlimit="10"/></g><g transform="translate(-30,-150) scale(1,1)"><path fill="none" stroke="#000000" d="M 223.16267485762415 468.790482243984 L 213 473 L 223.16267485762415 477.209517756016" stroke-miterlimit="10"/></g><g transform="translate(-30,-150) scale(1,1)"><g><path fill="none" stroke="none"/><text fill="#000000" stroke="none" font-family="Arial" font-size="13px" font-style="normal" font-weight="normal" text-decoration="none" x="221.13134765625" y="490.5">-carre</text></g></g><g transform="translate(-30,-150) scale(1,1)"><g><path fill="none" stroke="none"/><text fill="#000000" stroke="none" font-family="Arial" font-size="13px" font-style="normal" font-weight="normal" text-decoration="none" x="230.5" y="465">1</text></g></g><g transform="translate(-30,-150) scale(1,1)"><path fill="none" stroke="#000000" d="M 192 416 L 192 356" stroke-miterlimit="10" stroke-dasharray="3"/></g><g transform="translate(-30,-150) scale(1,1)"><path fill="#FFFFFF" stroke="none" d="M 200.41903551203197 376.3253497152483 L 192 356 L 183.58096448796803 376.3253497152483"/></g><g transform="translate(-30,-150) scale(1,1)"><path fill="none" stroke="#000000" d="M 200.41903551203197 376.3253497152483 L 192 356 L 183.58096448796803 376.3253497152483 L 200.41903551203197 376.3253497152483" stroke-miterlimit="10"/></g><g transform="translate(-30,-150) scale(1,1)"><path fill="none" stroke="#000000" d="M 312 416 L 312 356" stroke-miterlimit="10" stroke-dasharray="3"/></g><g transform="translate(-30,-150) scale(1,1)"><path fill="#FFFFFF" stroke="none" d="M 320.419035512032 376.3253497152483 L 312 356 L 303.580964487968 376.3253497152483"/></g><g transform="translate(-30,-150) scale(1,1)"><path fill="none" stroke="#000000" d="M 320.419035512032 376.3253497152483 L 312 356 L 303.580964487968 376.3253497152483 L 320.419035512032 376.3253497152483" stroke-miterlimit="10"/></g><g transform="translate(-30,-150) scale(1,1)"><path fill="none" stroke="#000000" d="M 696 416 L 696 356" stroke-miterlimit="10" stroke-dasharray="3"/></g><g transform="translate(-30,-150) scale(1,1)"><path fill="#FFFFFF" stroke="none" d="M 704.419035512032 376.3253497152483 L 696 356 L 687.580964487968 376.3253497152483"/></g><g transform="translate(-30,-150) scale(1,1)"><path fill="none" stroke="#000000" d="M 704.419035512032 376.3253497152483 L 696 356 L 687.580964487968 376.3253497152483 L 704.419035512032 376.3253497152483" stroke-miterlimit="10"/></g><g transform="translate(-30,-150) scale(1,1)"><path fill="none" stroke="#000000" d="M 792 416 L 792 356" stroke-miterlimit="10" stroke-dasharray="3"/></g><g transform="translate(-30,-150) scale(1,1)"><path fill="#FFFFFF" stroke="none" d="M 800.419035512032 376.3253497152483 L 792 356 L 783.580964487968 376.3253497152483"/></g><g transform="translate(-30,-150) scale(1,1)"><path fill="none" stroke="#000000" d="M 800.419035512032 376.3253497152483 L 792 356 L 783.580964487968 376.3253497152483 L 800.419035512032 376.3253497152483" stroke-miterlimit="10"/></g><g transform="translate(-30,-150) scale(1,1)"><rect fill="#C0C0C0" stroke="none" x="383" y="807" width="278.84521484375" height="72" opacity="0.2"/></g><g transform="translate(-30,-150) scale(1,1)"><rect fill="#ffffff" stroke="none" x="376" y="800" width="278.84521484375" height="72"/></g><g transform="translate(-30,-150) scale(1,1)"><path fill="none" stroke="#000000" d="M 376 800 L 654.84521484375 800 L 654.84521484375 872 L 376 872 L 376 800 Z Z" stroke-miterlimit="10"/></g><g transform="translate(-30,-150) scale(1,1)"><path fill="none" stroke="#000000" d="M 376 825 L 654.84521484375 825" stroke-miterlimit="10"/></g><g transform="translate(-30,-150) scale(1,1)"><path fill="none" stroke="#000000" d="M 376 835 L 654.84521484375 835" stroke-miterlimit="10"/></g><g transform="translate(-30,-150) scale(1,1)"><g><path fill="none" stroke="none"/><text fill="#000000" stroke="none" font-family="Arial" font-size="13px" font-style="normal" font-weight="bold" text-decoration="none" x="487.59765625" y="818">ServiceA</text></g></g><g transform="translate(-30,-150) scale(1,1)"><g><path fill="none" stroke="none"/><text fill="#000000" stroke="none" font-family="Arial" font-size="13px" font-style="normal" font-weight="normal" text-decoration="none" x="381" y="851">+ServiceA(factory: FigureGeometriqueFactory)</text></g></g><g transform="translate(-30,-150) scale(1,1)"><g><path fill="none" stroke="none"/><text fill="#000000" stroke="none" font-family="Arial" font-size="13px" font-style="normal" font-weight="normal" text-decoration="none" x="381" y="866">+action()</text></g></g><g transform="translate(-30,-150) scale(1,1)"><rect fill="#C0C0C0" stroke="none" x="79" y="807" width="275.95703125" height="72" opacity="0.2"/></g><g transform="translate(-30,-150) scale(1,1)"><rect fill="#ffffff" stroke="none" x="72" y="800" width="275.95703125" height="72"/></g><g transform="translate(-30,-150) scale(1,1)"><path fill="none" stroke="#000000" d="M 72 800 L 347.95703125 800 L 347.95703125 872 L 72 872 L 72 800 Z Z" stroke-miterlimit="10"/></g><g transform="translate(-30,-150) scale(1,1)"><path fill="none" stroke="#000000" d="M 72 825 L 347.95703125 825" stroke-miterlimit="10"/></g><g transform="translate(-30,-150) scale(1,1)"><path fill="none" stroke="#000000" d="M 72 835 L 347.95703125 835" stroke-miterlimit="10"/></g><g transform="translate(-30,-150) scale(1,1)"><g><path fill="none" stroke="none"/><text fill="#000000" stroke="none" font-family="Arial" font-size="13px" font-style="normal" font-weight="bold" text-decoration="none" x="182.153564453125" y="818">ServiceB</text></g></g><g transform="translate(-30,-150) scale(1,1)"><g><path fill="none" stroke="none"/><text fill="#000000" stroke="none" font-family="Arial" font-size="13px" font-style="normal" font-weight="normal" text-decoration="none" x="77" y="851">+ServiceB(factory: FgureGeometriqueFactory)</text></g></g><g transform="translate(-30,-150) scale(1,1)"><g><path fill="none" stroke="none"/><text fill="#000000" stroke="none" font-family="Arial" font-size="13px" font-style="normal" font-weight="normal" text-decoration="none" x="77" y="866">+action()</text></g></g><g transform="translate(-30,-150) scale(1,1)"><rect fill="#C0C0C0" stroke="none" x="239" y="607" width="255.02880859375" height="115" opacity="0.2"/></g><g transform="translate(-30,-150) scale(1,1)"><rect fill="#ffffff" stroke="none" x="232" y="600" width="255.02880859375" height="115"/></g><g transform="translate(-30,-150) scale(1,1)"><path fill="none" stroke="#000000" d="M 232 600 L 487.02880859375 600 L 487.02880859375 715 L 232 715 L 232 600 Z Z" stroke-miterlimit="10"/></g><g transform="translate(-30,-150) scale(1,1)"><path fill="none" stroke="#000000" d="M 232 625 L 487.02880859375 625" stroke-miterlimit="10"/></g><g transform="translate(-30,-150) scale(1,1)"><path fill="none" stroke="#000000" d="M 232 648 L 487.02880859375 648" stroke-miterlimit="10"/></g><g transform="translate(-30,-150) scale(1,1)"><g><path fill="none" stroke="none"/><text fill="#000000" stroke="none" font-family="Arial" font-size="13px" font-style="normal" font-weight="bold" text-decoration="none" x="276.080810546875" y="618">FigureGeometriqueFactory</text></g></g><g transform="translate(-30,-150) scale(1,1)"><g><path fill="none" stroke="none"/><text fill="#000000" stroke="none" font-family="Arial" font-size="13px" font-style="normal" font-weight="normal" text-decoration="none" x="237" y="641">-INSTANCE: FigureGeometriqueFactory</text></g></g><g transform="translate(-30,-150) scale(1,1)"><g><path fill="none" stroke="none"/><text fill="#000000" stroke="none" font-family="Arial" font-size="13px" font-style="normal" font-weight="normal" text-decoration="none" x="237" y="664">-FigureGeometriqueFactory()</text></g></g><g transform="translate(-30,-150) scale(1,1)"><g><path fill="none" stroke="none"/><text fill="#000000" stroke="none" font-family="Arial" font-size="13px" font-style="normal" font-weight="normal" text-decoration="none" x="237" y="679">+getInstance(): FigureGeometriqueFactory</text><path fill="none" stroke="#000000" d="M 237 680.5 L 483.02880859375 680.5" stroke-miterlimit="10"/></g></g><g transform="translate(-30,-150) scale(1,1)"><g><path fill="none" stroke="none"/><text fill="#000000" stroke="none" font-family="Arial" font-size="13px" font-style="normal" font-weight="normal" text-decoration="none" x="237" y="694">+creerCarre(tailleCote: int): Carre</text></g></g><g transform="translate(-30,-150) scale(1,1)"><g><path fill="none" stroke="none"/><text fill="#000000" stroke="none" font-family="Arial" font-size="13px" font-style="normal" font-weight="normal" text-decoration="none" x="237" y="709">+creerCercle(rayon: int): Cercle</text></g></g><g transform="translate(-30,-150) scale(1,1)"><path fill="none" stroke="#000000" d="M 232 697 L 166 697 L 166 531" stroke-miterlimit="10" stroke-dasharray="3"/></g><g transform="translate(-30,-150) scale(1,1)"><path fill="none" stroke="#000000" d="M 170.209517756016 541.1626748576241 L 166 531 L 161.790482243984 541.1626748576241" stroke-miterlimit="10"/></g><g transform="translate(-30,-150) scale(1,1)"><g><path fill="none" stroke="none"/><text fill="#000000" stroke="none" font-family="Arial" font-size="13px" font-style="normal" font-weight="normal" text-decoration="none" x="110.5" y="700.5">«create»</text></g></g><g transform="translate(-30,-150) scale(1,1)"><path fill="none" stroke="#000000" d="M 487 697 L 608 697 L 608 531" stroke-miterlimit="10" stroke-dasharray="3"/></g><g transform="translate(-30,-150) scale(1,1)"><path fill="none" stroke="#000000" d="M 612.209517756016 541.1626748576241 L 608 531 L 603.790482243984 541.1626748576241" stroke-miterlimit="10"/></g><g transform="translate(-30,-150) scale(1,1)"><g><path fill="none" stroke="none"/><text fill="#000000" stroke="none" font-family="Arial" font-size="13px" font-style="normal" font-weight="normal" text-decoration="none" x="542.5" y="714.5">«create»</text></g></g><g transform="translate(-30,-150) scale(1,1)"><path fill="none" stroke="#000000" d="M 288 800 L 288 715" stroke-miterlimit="10"/></g><g transform="translate(-30,-150) scale(1,1)"><path fill="none" stroke="#000000" d="M 292.209517756016 725.1626748576241 L 288 715 L 283.790482243984 725.1626748576241" stroke-miterlimit="10"/></g><g transform="translate(-30,-150) scale(1,1)"><g><path fill="none" stroke="none"/><text fill="#000000" stroke="none" font-family="Arial" font-size="13px" font-style="normal" font-weight="normal" text-decoration="none" x="231.5" y="747">-factory</text></g></g><g transform="translate(-30,-150) scale(1,1)"><g><path fill="none" stroke="none"/><text fill="#000000" stroke="none" font-family="Arial" font-size="13px" font-style="normal" font-weight="normal" text-decoration="none" x="296.5" y="741">1</text></g></g><g transform="translate(-30,-150) scale(1,1)"><path fill="none" stroke="#000000" d="M 416 800 L 416 715" stroke-miterlimit="10"/></g><g transform="translate(-30,-150) scale(1,1)"><path fill="none" stroke="#000000" d="M 420.209517756016 725.1626748576241 L 416 715 L 411.790482243984 725.1626748576241" stroke-miterlimit="10"/></g><g transform="translate(-30,-150) scale(1,1)"><g><path fill="none" stroke="none"/><text fill="#000000" stroke="none" font-family="Arial" font-size="13px" font-style="normal" font-weight="normal" text-decoration="none" x="360.13134765625" y="747">-factory</text></g></g><g transform="translate(-30,-150) scale(1,1)"><g><path fill="none" stroke="none"/><text fill="#000000" stroke="none" font-family="Arial" font-size="13px" font-style="normal" font-weight="normal" text-decoration="none" x="424.5" y="741">1</text></g></g></g></svg>