<svg version="1.1" xmlns="http://www.w3.org/2000/svg" xmlns:xlink="http://www.w3.org/1999/xlink" width="991.73779296875" height="852"><defs/><g><g transform="translate(-30,-150) scale(1,1)"><rect fill="#C0C0C0" stroke="none" x="463" y="167" width="128.9072265625" height="75" opacity="0.2"/></g><g transform="translate(-30,-150) scale(1,1)"><rect fill="#ffffff" stroke="none" x="456" y="160" width="128.9072265625" height="75"/></g><g transform="translate(-30,-150) scale(1,1)"><path fill="none" stroke="#000000" d="M 456 160 L 584.9072265625 160 L 584.9072265625 235 L 456 235 L 456 160 Z Z" stroke-miterlimit="10"/></g><g transform="translate(-30,-150) scale(1,1)"><path fill="none" stroke="#000000" d="M 456 198 L 584.9072265625 198" stroke-miterlimit="10"/></g><g transform="translate(-30,-150) scale(1,1)"><g><path fill="none" stroke="none"/><text fill="#000000" stroke="none" font-family="Arial" font-size="13px" font-style="normal" font-weight="normal" text-decoration="none" x="488.293212890625" y="176">«interface»</text></g></g><g transform="translate(-30,-150) scale(1,1)"><g><path fill="none" stroke="none"/><text fill="#000000" stroke="none" font-family="Arial" font-size="13px" font-style="normal" font-weight="bold" text-decoration="none" x="460.5" y="191">FigureGeometrique</text></g></g><g transform="translate(-30,-150) scale(1,1)"><g><path fill="none" stroke="none"/><text fill="#000000" stroke="none" font-family="Arial" font-size="13px" font-style="normal" font-weight="normal" text-decoration="none" x="461" y="214">+getAire(): int</text></g></g><g transform="translate(-30,-150) scale(1,1)"><g><path fill="none" stroke="none"/><text fill="#000000" stroke="none" font-family="Arial" font-size="13px" font-style="normal" font-weight="normal" text-decoration="none" x="461" y="229">+afficherFigure()</text></g></g><g transform="translate(-30,-150) scale(1,1)"><rect fill="#C0C0C0" stroke="none" x="175" y="303" width="161.35986328125" height="60" opacity="0.2"/></g><g transform="translate(-30,-150) scale(1,1)"><rect fill="#ffffff" stroke="none" x="168" y="296" width="161.35986328125" height="60"/></g><g transform="translate(-30,-150) scale(1,1)"><path fill="none" stroke="#000000" d="M 168 296 L 329.35986328125 296 L 329.35986328125 356 L 168 356 L 168 296 Z Z" stroke-miterlimit="10"/></g><g transform="translate(-30,-150) scale(1,1)"><path fill="none" stroke="#000000" d="M 168 334 L 329.35986328125 334" stroke-miterlimit="10"/></g><g transform="translate(-30,-150) scale(1,1)"><g><path fill="none" stroke="none"/><text fill="#000000" stroke="none" font-family="Arial" font-size="13px" font-style="normal" font-weight="normal" text-decoration="none" x="216.51953125" y="312">«interface»</text></g></g><g transform="translate(-30,-150) scale(1,1)"><g><path fill="none" stroke="none"/><text fill="#000000" stroke="none" font-family="Arial" font-size="13px" font-style="normal" font-weight="bold" text-decoration="none" x="231.69677734375" y="327">Carre</text></g></g><g transform="translate(-30,-150) scale(1,1)"><g><path fill="none" stroke="none"/><text fill="#000000" stroke="none" font-family="Arial" font-size="13px" font-style="normal" font-weight="normal" text-decoration="none" x="173" y="350">+getTailleCote(): int</text></g></g><g transform="translate(-30,-150) scale(1,1)"><rect fill="#C0C0C0" stroke="none" x="671" y="303" width="168" height="60" opacity="0.2"/></g><g transform="translate(-30,-150) scale(1,1)"><rect fill="#ffffff" stroke="none" x="664" y="296" width="168" height="60"/></g><g transform="translate(-30,-150) scale(1,1)"><path fill="none" stroke="#000000" d="M 664 296 L 832 296 L 832 356 L 664 356 L 664 296 Z Z" stroke-miterlimit="10"/></g><g transform="translate(-30,-150) scale(1,1)"><path fill="none" stroke="#000000" d="M 664 334 L 832 334" stroke-miterlimit="10"/></g><g transform="translate(-30,-150) scale(1,1)"><g><path fill="none" stroke="none"/><text fill="#000000" stroke="none" font-family="Arial" font-size="13px" font-style="normal" font-weight="normal" text-decoration="none" x="715.839599609375" y="312">«interface»</text></g></g><g transform="translate(-30,-150) scale(1,1)"><g><path fill="none" stroke="none"/><text fill="#000000" stroke="none" font-family="Arial" font-size="13px" font-style="normal" font-weight="bold" text-decoration="none" x="728.12548828125" y="327">Cercle</text></g></g><g transform="translate(-30,-150) scale(1,1)"><g><path fill="none" stroke="none"/><text fill="#000000" stroke="none" font-family="Arial" font-size="13px" font-style="normal" font-weight="normal" text-decoration="none" x="669" y="350">+getDiametre(): int</text></g></g><g transform="translate(-30,-150) scale(1,1)"><path fill="none" stroke="#000000" d="M 329 328 L 480 328 L 480 235" stroke-miterlimit="10"/></g><g transform="translate(-30,-150) scale(1,1)"><path fill="#FFFFFF" stroke="none" d="M 488.419035512032 255.3253497152483 L 480 235 L 471.580964487968 255.3253497152483"/></g><g transform="translate(-30,-150) scale(1,1)"><path fill="none" stroke="#000000" d="M 488.419035512032 255.3253497152483 L 480 235 L 471.580964487968 255.3253497152483 L 488.419035512032 255.3253497152483" stroke-miterlimit="10"/></g><g transform="translate(-30,-150) scale(1,1)"><path fill="none" stroke="#000000" d="M 664 326 L 548 326 L 548 235" stroke-miterlimit="10"/></g><g transform="translate(-30,-150) scale(1,1)"><path fill="#FFFFFF" stroke="none" d="M 556.419035512032 255.3253497152483 L 548 235 L 539.580964487968 255.3253497152483"/></g><g transform="translate(-30,-150) scale(1,1)"><path fill="none" stroke="#000000" d="M 556.419035512032 255.3253497152483 L 548 235 L 539.580964487968 255.3253497152483 L 556.419035512032 255.3253497152483" stroke-miterlimit="10"/></g><g transform="translate(-30,-150) scale(1,1)"><rect fill="#C0C0C0" stroke="none" x="559" y="423" width="156.0244140625" height="115" opacity="0.2"/></g><g transform="translate(-30,-150) scale(1,1)"><rect fill="#ffffff" stroke="none" x="552" y="416" width="156.0244140625" height="115"/></g><g transform="translate(-30,-150) scale(1,1)"><path fill="none" stroke="#000000" d="M 552 416 L 708.0244140625 416 L 708.0244140625 531 L 552 531 L 552 416 Z Z" stroke-miterlimit="10"/></g><g transform="translate(-30,-150) scale(1,1)"><path fill="none" stroke="#000000" d="M 552 441 L 708.0244140625 441" stroke-miterlimit="10"/></g><g transform="translate(-30,-150) scale(1,1)"><path fill="none" stroke="#000000" d="M 552 464 L 708.0244140625 464" stroke-miterlimit="10"/></g><g transform="translate(-30,-150) scale(1,1)"><g><path fill="none" stroke="none"/><text fill="#000000" stroke="none" font-family="Arial" font-size="13px" font-style="normal" font-weight="bold" text-decoration="none" x="588.825439453125" y="434">CercleSimple</text></g></g><g transform="translate(-30,-150) scale(1,1)"><g><path fill="none" stroke="none"/><text fill="#000000" stroke="none" font-family="Arial" font-size="13px" font-style="normal" font-weight="normal" text-decoration="none" x="557" y="457">-rayon: int</text></g></g><g transform="translate(-30,-150) scale(1,1)"><g><path fill="none" stroke="none"/><text fill="#000000" stroke="none" font-family="Arial" font-size="13px" font-style="normal" font-weight="normal" text-decoration="none" x="557" y="480">+CercleSimple(rayon: int)</text></g></g><g transform="translate(-30,-150) scale(1,1)"><g><path fill="none" stroke="none"/><text fill="#000000" stroke="none" font-family="Arial" font-size="13px" font-style="normal" font-weight="normal" text-decoration="none" x="557" y="495">+getDiametre(): int</text></g></g><g transform="translate(-30,-150) scale(1,1)"><g><path fill="none" stroke="none"/><text fill="#000000" stroke="none" font-family="Arial" font-size="13px" font-style="normal" font-weight="normal" text-decoration="none" x="557" y="510">+getAire(): int</text></g></g><g transform="translate(-30,-150) scale(1,1)"><g><path fill="none" stroke="none"/><text fill="#000000" stroke="none" font-family="Arial" font-size="13px" font-style="normal" font-weight="normal" text-decoration="none" x="557" y="525">+afficherFigure()</text></g></g><g transform="translate(-30,-150) scale(1,1)"><rect fill="#C0C0C0" stroke="none" x="791" y="423" width="192" height="112" opacity="0.2"/></g><g transform="translate(-30,-150) scale(1,1)"><rect fill="#ffffff" stroke="none" x="784" y="416" width="192" height="112"/></g><g transform="translate(-30,-150) scale(1,1)"><path fill="none" stroke="#000000" d="M 784 416 L 976 416 L 976 528 L 784 528 L 784 416 Z Z" stroke-miterlimit="10"/></g><g transform="translate(-30,-150) scale(1,1)"><path fill="none" stroke="#000000" d="M 784 441 L 976 441" stroke-miterlimit="10"/></g><g transform="translate(-30,-150) scale(1,1)"><path fill="none" stroke="#000000" d="M 784 451 L 976 451" stroke-miterlimit="10"/></g><g transform="translate(-30,-150) scale(1,1)"><g><path fill="none" stroke="none"/><text fill="#000000" stroke="none" font-family="Arial" font-size="13px" font-style="normal" font-weight="bold" text-decoration="none" x="827.622314453125" y="434">CercleGraphique</text></g></g><g transform="translate(-30,-150) scale(1,1)"><g><path fill="none" stroke="none"/><text fill="#000000" stroke="none" font-family="Arial" font-size="13px" font-style="normal" font-weight="normal" text-decoration="none" x="789" y="467">+CercleGraphique(rayon: int)</text></g></g><g transform="translate(-30,-150) scale(1,1)"><g><path fill="none" stroke="none"/><text fill="#000000" stroke="none" font-family="Arial" font-size="13px" font-style="normal" font-weight="normal" text-decoration="none" x="789" y="482">+getDiametre(): int</text></g></g><g transform="translate(-30,-150) scale(1,1)"><g><path fill="none" stroke="none"/><text fill="#000000" stroke="none" font-family="Arial" font-size="13px" font-style="normal" font-weight="normal" text-decoration="none" x="789" y="497">+getAire(): int</text></g></g><g transform="translate(-30,-150) scale(1,1)"><g><path fill="none" stroke="none"/><text fill="#000000" stroke="none" font-family="Arial" font-size="13px" font-style="normal" font-weight="normal" text-decoration="none" x="789" y="512">+afficherFigure()</text></g></g><g transform="translate(-30,-150) scale(1,1)"><rect fill="#C0C0C0" stroke="none" x="47" y="423" width="172.642578125" height="115" opacity="0.2"/></g><g transform="translate(-30,-150) scale(1,1)"><rect fill="#ffffff" stroke="none" x="40" y="416" width="172.642578125" height="115"/></g><g transform="translate(-30,-150) scale(1,1)"><path fill="none" stroke="#000000" d="M 40 416 L 212.642578125 416 L 212.642578125 531 L 40 531 L 40 416 Z Z" stroke-miterlimit="10"/></g><g transform="translate(-30,-150) scale(1,1)"><path fill="none" stroke="#000000" d="M 40 441 L 212.642578125 441" stroke-miterlimit="10"/></g><g transform="translate(-30,-150) scale(1,1)"><path fill="none" stroke="#000000" d="M 40 464 L 212.642578125 464" stroke-miterlimit="10"/></g><g transform="translate(-30,-150) scale(1,1)"><g><path fill="none" stroke="none"/><text fill="#000000" stroke="none" font-family="Arial" font-size="13px" font-style="normal" font-weight="bold" text-decoration="none" x="88.02587890625" y="434">CarreSimple</text></g></g><g transform="translate(-30,-150) scale(1,1)"><g><path fill="none" stroke="none"/><text fill="#000000" stroke="none" font-family="Arial" font-size="13px" font-style="normal" font-weight="normal" text-decoration="none" x="45" y="457">-tailleCote: int</text></g></g><g transform="translate(-30,-150) scale(1,1)"><g><path fill="none" stroke="none"/><text fill="#000000" stroke="none" font-family="Arial" font-size="13px" font-style="normal" font-weight="normal" text-decoration="none" x="45" y="480">+CarreSimple(tailleCote: int)</text></g></g><g transform="translate(-30,-150) scale(1,1)"><g><path fill="none" stroke="none"/><text fill="#000000" stroke="none" font-family="Arial" font-size="13px" font-style="normal" font-weight="normal" text-decoration="none" x="45" y="495">+getTailleCote(): int</text></g></g><g transform="translate(-30,-150) scale(1,1)"><g><path fill="none" stroke="none"/><text fill="#000000" stroke="none" font-family="Arial" font-size="13px" font-style="normal" font-weight="normal" text-decoration="none" x="45" y="510">+getAire(): int</text></g></g><g transform="translate(-30,-150) scale(1,1)"><g><path fill="none" stroke="none"/><text fill="#000000" stroke="none" font-family="Arial" font-size="13px" font-style="normal" font-weight="normal" text-decoration="none" x="45" y="525">+afficherFigure()</text></g></g><g transform="translate(-30,-150) scale(1,1)"><rect fill="#C0C0C0" stroke="none" x="295" y="423" width="209.615234375" height="112" opacity="0.2"/></g><g transform="translate(-30,-150) scale(1,1)"><rect fill="#ffffff" stroke="none" x="288" y="416" width="209.615234375" height="112"/></g><g transform="translate(-30,-150) scale(1,1)"><path fill="none" stroke="#000000" d="M 288 416 L 497.615234375 416 L 497.615234375 528 L 288 528 L 288 416 Z Z" stroke-miterlimit="10"/></g><g transform="translate(-30,-150) scale(1,1)"><path fill="none" stroke="#000000" d="M 288 441 L 497.615234375 441" stroke-miterlimit="10"/></g><g transform="translate(-30,-150) scale(1,1)"><path fill="none" stroke="#000000" d="M 288 451 L 497.615234375 451" stroke-miterlimit="10"/></g><g transform="translate(-30,-150) scale(1,1)"><g><path fill="none" stroke="none"/><text fill="#000000" stroke="none" font-family="Arial" font-size="13px" font-style="normal" font-weight="bold" text-decoration="none" x="343.3212890625" y="434">CarreGraphique</text></g></g><g transform="translate(-30,-150) scale(1,1)"><g><path fill="none" stroke="none"/><text fill="#000000" stroke="none" font-family="Arial" font-size="13px" font-style="normal" font-weight="normal" text-decoration="none" x="293" y="467">+CarreGraphique(tailleCote: int)</text></g></g><g transform="translate(-30,-150) scale(1,1)"><g><path fill="none" stroke="none"/><text fill="#000000" stroke="none" font-family="Arial" font-size="13px" font-style="normal" font-weight="normal" text-decoration="none" x="293" y="482">+getTailleCote(): int</text></g></g><g transform="translate(-30,-150) scale(1,1)"><g><path fill="none" stroke="none"/><text fill="#000000" stroke="none" font-family="Arial" font-size="13px" font-style="normal" font-weight="normal" text-decoration="none" x="293" y="497">+getAire(): int</text></g></g><g transform="translate(-30,-150) scale(1,1)"><g><path fill="none" stroke="none"/><text fill="#000000" stroke="none" font-family="Arial" font-size="13px" font-style="normal" font-weight="normal" text-decoration="none" x="293" y="512">+afficherFigure()</text></g></g><g transform="translate(-30,-150) scale(1,1)"><path fill="none" stroke="#000000" d="M 784 473 L 708 473" stroke-miterlimit="10"/></g><g transform="translate(-30,-150) scale(1,1)"><path fill="none" stroke="#000000" d="M 718.1626748576241 468.790482243984 L 708 473 L 718.1626748576241 477.209517756016" stroke-miterlimit="10"/></g><g transform="translate(-30,-150) scale(1,1)"><g><path fill="none" stroke="none"/><text fill="#000000" stroke="none" font-family="Arial" font-size="13px" font-style="normal" font-weight="normal" text-decoration="none" x="713.5" y="492">-cercle</text></g></g><g transform="translate(-30,-150) scale(1,1)"><g><path fill="none" stroke="none"/><text fill="#000000" stroke="none" font-family="Arial" font-size="13px" font-style="normal" font-weight="normal" text-decoration="none" x="725.5" y="465">1</text></g></g><g transform="translate(-30,-150) scale(1,1)"><path fill="none" stroke="#000000" d="M 288 473 L 213 473" stroke-miterlimit="10"/></g><g transform="translate(-30,-150) scale(1,1)"><path fill="none" stroke="#000000" d="M 223.16267485762415 468.790482243984 L 213 473 L 223.16267485762415 477.209517756016" stroke-miterlimit="10"/></g><g transform="translate(-30,-150) scale(1,1)"><g><path fill="none" stroke="none"/><text fill="#000000" stroke="none" font-family="Arial" font-size="13px" font-style="normal" font-weight="normal" text-decoration="none" x="221.13134765625" y="490.5">-carre</text></g></g><g transform="translate(-30,-150) scale(1,1)"><g><path fill="none" stroke="none"/><text fill="#000000" stroke="none" font-family="Arial" font-size="13px" font-style="normal" font-weight="normal" text-decoration="none" x="230.5" y="465">1</text></g></g><g transform="translate(-30,-150) scale(1,1)"><path fill="none" stroke="#000000" d="M 192 416 L 192 356" stroke-miterlimit="10" stroke-dasharray="3"/></g><g transform="translate(-30,-150) scale(1,1)"><path fill="#FFFFFF" stroke="none" d="M 200.41903551203197 376.3253497152483 L 192 356 L 183.58096448796803 376.3253497152483"/></g><g transform="translate(-30,-150) scale(1,1)"><path fill="none" stroke="#000000" d="M 200.41903551203197 376.3253497152483 L 192 356 L 183.58096448796803 376.3253497152483 L 200.41903551203197 376.3253497152483" stroke-miterlimit="10"/></g><g transform="translate(-30,-150) scale(1,1)"><path fill="none" stroke="#000000" d="M 312 416 L 312 356" stroke-miterlimit="10" stroke-dasharray="3"/></g><g transform="translate(-30,-150) scale(1,1)"><path fill="#FFFFFF" stroke="none" d="M 320.419035512032 376.3253497152483 L 312 356 L 303.580964487968 376.3253497152483"/></g><g transform="translate(-30,-150) scale(1,1)"><path fill="none" stroke="#000000" d="M 320.419035512032 376.3253497152483 L 312 356 L 303.580964487968 376.3253497152483 L 320.419035512032 376.3253497152483" stroke-miterlimit="10"/></g><g transform="translate(-30,-150) scale(1,1)"><path fill="none" stroke="#000000" d="M 696 416 L 696 356" stroke-miterlimit="10" stroke-dasharray="3"/></g><g transform="translate(-30,-150) scale(1,1)"><path fill="#FFFFFF" stroke="none" d="M 704.419035512032 376.3253497152483 L 696 356 L 687.580964487968 376.3253497152483"/></g><g transform="translate(-30,-150) scale(1,1)"><path fill="none" stroke="#000000" d="M 704.419035512032 376.3253497152483 L 696 356 L 687.580964487968 376.3253497152483 L 704.419035512032 376.3253497152483" stroke-miterlimit="10"/></g><g transform="translate(-30,-150) scale(1,1)"><path fill="none" stroke="#000000" d="M 792 416 L 792 356" stroke-miterlimit="10" stroke-dasharray="3"/></g><g transform="translate(-30,-150) scale(1,1)"><path fill="#FFFFFF" stroke="none" d="M 800.419035512032 376.3253497152483 L 792 356 L 783.580964487968 376.3253497152483"/></g><g transform="translate(-30,-150) scale(1,1)"><path fill="none" stroke="#000000" d="M 800.419035512032 376.3253497152483 L 792 356 L 783.580964487968 376.3253497152483 L 800.419035512032 376.3253497152483" stroke-miterlimit="10"/></g><g transform="translate(-30,-150) scale(1,1)"><rect fill="#C0C0C0" stroke="none" x="615" y="927" width="326.52880859375" height="72" opacity="0.2"/></g><g transform="translate(-30,-150) scale(1,1)"><rect fill="#ffffff" stroke="none" x="608" y="920" width="326.52880859375" height="72"/></g><g transform="translate(-30,-150) scale(1,1)"><path fill="none" stroke="#000000" d="M 608 920 L 934.52880859375 920 L 934.52880859375 992 L 608 992 L 608 920 Z Z" stroke-miterlimit="10"/></g><g transform="translate(-30,-150) scale(1,1)"><path fill="none" stroke="#000000" d="M 608 945 L 934.52880859375 945" stroke-miterlimit="10"/></g><g transform="translate(-30,-150) scale(1,1)"><path fill="none" stroke="#000000" d="M 608 955 L 934.52880859375 955" stroke-miterlimit="10"/></g><g transform="translate(-30,-150) scale(1,1)"><g><path fill="none" stroke="none"/><text fill="#000000" stroke="none" font-family="Arial" font-size="13px" font-style="normal" font-weight="bold" text-decoration="none" x="743.439453125" y="938">ServiceA</text></g></g><g transform="translate(-30,-150) scale(1,1)"><g><path fill="none" stroke="none"/><text fill="#000000" stroke="none" font-family="Arial" font-size="13px" font-style="normal" font-weight="normal" text-decoration="none" x="613" y="971">+ServiceA(factory: AbstractFigureGeometriqueFactory)</text></g></g><g transform="translate(-30,-150) scale(1,1)"><g><path fill="none" stroke="none"/><text fill="#000000" stroke="none" font-family="Arial" font-size="13px" font-style="normal" font-weight="normal" text-decoration="none" x="613" y="986">+action()</text></g></g><g transform="translate(-30,-150) scale(1,1)"><rect fill="#C0C0C0" stroke="none" x="239" y="927" width="344" height="72" opacity="0.2"/></g><g transform="translate(-30,-150) scale(1,1)"><rect fill="#ffffff" stroke="none" x="232" y="920" width="344" height="72"/></g><g transform="translate(-30,-150) scale(1,1)"><path fill="none" stroke="#000000" d="M 232 920 L 576 920 L 576 992 L 232 992 L 232 920 Z Z" stroke-miterlimit="10"/></g><g transform="translate(-30,-150) scale(1,1)"><path fill="none" stroke="#000000" d="M 232 945 L 576 945" stroke-miterlimit="10"/></g><g transform="translate(-30,-150) scale(1,1)"><path fill="none" stroke="#000000" d="M 232 955 L 576 955" stroke-miterlimit="10"/></g><g transform="translate(-30,-150) scale(1,1)"><g><path fill="none" stroke="none"/><text fill="#000000" stroke="none" font-family="Arial" font-size="13px" font-style="normal" font-weight="bold" text-decoration="none" x="376.175048828125" y="938">ServiceB</text></g></g><g transform="translate(-30,-150) scale(1,1)"><g><path fill="none" stroke="none"/><text fill="#000000" stroke="none" font-family="Arial" font-size="13px" font-style="normal" font-weight="normal" text-decoration="none" x="237" y="971">+ServiceB(factory: AbstractFigureGeometriqueFactory)</text></g></g><g transform="translate(-30,-150) scale(1,1)"><g><path fill="none" stroke="none"/><text fill="#000000" stroke="none" font-family="Arial" font-size="13px" font-style="normal" font-weight="normal" text-decoration="none" x="237" y="986">+action()</text></g></g><g transform="translate(-30,-150) scale(1,1)"><rect fill="#C0C0C0" stroke="none" x="239" y="631" width="302.71240234375" height="115" opacity="0.2"/></g><g transform="translate(-30,-150) scale(1,1)"><rect fill="#ffffff" stroke="none" x="232" y="624" width="302.71240234375" height="115"/></g><g transform="translate(-30,-150) scale(1,1)"><path fill="none" stroke="#000000" d="M 232 624 L 534.71240234375 624 L 534.71240234375 739 L 232 739 L 232 624 Z Z" stroke-miterlimit="10"/></g><g transform="translate(-30,-150) scale(1,1)"><path fill="none" stroke="#000000" d="M 232 649 L 534.71240234375 649" stroke-miterlimit="10"/></g><g transform="translate(-30,-150) scale(1,1)"><path fill="none" stroke="#000000" d="M 232 672 L 534.71240234375 672" stroke-miterlimit="10"/></g><g transform="translate(-30,-150) scale(1,1)"><g><path fill="none" stroke="none"/><text fill="#000000" stroke="none" font-family="Arial" font-size="13px" font-style="normal" font-weight="bold" text-decoration="none" x="278.6103515625" y="642">FigureGeometriqueSimpleFactory</text></g></g><g transform="translate(-30,-150) scale(1,1)"><g><path fill="none" stroke="none"/><text fill="#000000" stroke="none" font-family="Arial" font-size="13px" font-style="normal" font-weight="normal" text-decoration="none" x="237" y="665">-INSTANCE: FigureGeometriqueSimpleFactory</text></g></g><g transform="translate(-30,-150) scale(1,1)"><g><path fill="none" stroke="none"/><text fill="#000000" stroke="none" font-family="Arial" font-size="13px" font-style="normal" font-weight="normal" text-decoration="none" x="237" y="688">-FigureGeometriqueFactory()</text></g></g><g transform="translate(-30,-150) scale(1,1)"><g><path fill="none" stroke="none"/><text fill="#000000" stroke="none" font-family="Arial" font-size="13px" font-style="normal" font-weight="normal" text-decoration="none" x="237" y="703">+getInstance(): FigureGeometriqueSimpleFactory</text><path fill="none" stroke="#000000" d="M 237 704.5 L 522.76513671875 704.5" stroke-miterlimit="10"/></g></g><g transform="translate(-30,-150) scale(1,1)"><g><path fill="none" stroke="none"/><text fill="#000000" stroke="none" font-family="Arial" font-size="13px" font-style="normal" font-weight="normal" text-decoration="none" x="237" y="718">+creerCarre(tailleCote: int): Carre</text></g></g><g transform="translate(-30,-150) scale(1,1)"><g><path fill="none" stroke="none"/><text fill="#000000" stroke="none" font-family="Arial" font-size="13px" font-style="normal" font-weight="normal" text-decoration="none" x="237" y="733">+creerCercle(rayon: int): Cercle</text></g></g><g transform="translate(-30,-150) scale(1,1)"><path fill="none" stroke="#000000" d="M 232 697 L 166 697 L 166 531" stroke-miterlimit="10" stroke-dasharray="3"/></g><g transform="translate(-30,-150) scale(1,1)"><path fill="none" stroke="#000000" d="M 170.209517756016 541.1626748576241 L 166 531 L 161.790482243984 541.1626748576241" stroke-miterlimit="10"/></g><g transform="translate(-30,-150) scale(1,1)"><g><path fill="none" stroke="none"/><text fill="#000000" stroke="none" font-family="Arial" font-size="13px" font-style="normal" font-weight="normal" text-decoration="none" x="110.5" y="700.5">«create»</text></g></g><g transform="translate(-30,-150) scale(1,1)"><path fill="none" stroke="#000000" d="M 535 697 L 624 697 L 624 531" stroke-miterlimit="10" stroke-dasharray="3"/></g><g transform="translate(-30,-150) scale(1,1)"><path fill="none" stroke="#000000" d="M 628.209517756016 541.1626748576241 L 624 531 L 619.790482243984 541.1626748576241" stroke-miterlimit="10"/></g><g transform="translate(-30,-150) scale(1,1)"><g><path fill="none" stroke="none"/><text fill="#000000" stroke="none" font-family="Arial" font-size="13px" font-style="normal" font-weight="normal" text-decoration="none" x="558.5" y="714.5">«create»</text></g></g><g transform="translate(-30,-150) scale(1,1)"><rect fill="#C0C0C0" stroke="none" x="703" y="623" width="315.73779296875" height="115" opacity="0.2"/></g><g transform="translate(-30,-150) scale(1,1)"><rect fill="#ffffff" stroke="none" x="696" y="616" width="315.73779296875" height="115"/></g><g transform="translate(-30,-150) scale(1,1)"><path fill="none" stroke="#000000" d="M 696 616 L 1011.73779296875 616 L 1011.73779296875 731 L 696 731 L 696 616 Z Z" stroke-miterlimit="10"/></g><g transform="translate(-30,-150) scale(1,1)"><path fill="none" stroke="#000000" d="M 696 641 L 1011.73779296875 641" stroke-miterlimit="10"/></g><g transform="translate(-30,-150) scale(1,1)"><path fill="none" stroke="#000000" d="M 696 664 L 1011.73779296875 664" stroke-miterlimit="10"/></g><g transform="translate(-30,-150) scale(1,1)"><g><path fill="none" stroke="none"/><text fill="#000000" stroke="none" font-family="Arial" font-size="13px" font-style="normal" font-weight="bold" text-decoration="none" x="737.93212890625" y="634">FigureGeometriqueGraphiqueFactory</text></g></g><g transform="translate(-30,-150) scale(1,1)"><g><path fill="none" stroke="none"/><text fill="#000000" stroke="none" font-family="Arial" font-size="13px" font-style="normal" font-weight="normal" text-decoration="none" x="701" y="657">-INSTANCE: FigureGeometriqueGraphiqueFactory</text></g></g><g transform="translate(-30,-150) scale(1,1)"><g><path fill="none" stroke="none"/><text fill="#000000" stroke="none" font-family="Arial" font-size="13px" font-style="normal" font-weight="normal" text-decoration="none" x="701" y="680">-FigureGeometriqueGraphiqueFactory()</text></g></g><g transform="translate(-30,-150) scale(1,1)"><g><path fill="none" stroke="none"/><text fill="#000000" stroke="none" font-family="Arial" font-size="13px" font-style="normal" font-weight="normal" text-decoration="none" x="701" y="695">+getInstance(): FigureGeometriqueGraphiqueFactory</text><path fill="none" stroke="#000000" d="M 701 696.5 L 1007.73779296875 696.5" stroke-miterlimit="10"/></g></g><g transform="translate(-30,-150) scale(1,1)"><g><path fill="none" stroke="none"/><text fill="#000000" stroke="none" font-family="Arial" font-size="13px" font-style="normal" font-weight="normal" text-decoration="none" x="701" y="710">+creerCarre(tailleCote: int): Carre</text></g></g><g transform="translate(-30,-150) scale(1,1)"><g><path fill="none" stroke="none"/><text fill="#000000" stroke="none" font-family="Arial" font-size="13px" font-style="normal" font-weight="normal" text-decoration="none" x="701" y="725">+creerCercle(rayon: int): Cercle</text></g></g><g transform="translate(-30,-150) scale(1,1)"><path fill="none" stroke="#000000" d="M 872 616 L 872 528" stroke-miterlimit="10" stroke-dasharray="3"/></g><g transform="translate(-30,-150) scale(1,1)"><path fill="none" stroke="#000000" d="M 876.209517756016 538.1626748576241 L 872 528 L 867.790482243984 538.1626748576241" stroke-miterlimit="10"/></g><g transform="translate(-30,-150) scale(1,1)"><g><path fill="none" stroke="none"/><text fill="#000000" stroke="none" font-family="Arial" font-size="13px" font-style="normal" font-weight="normal" text-decoration="none" x="816.5" y="575.5">«create»</text></g></g><g transform="translate(-30,-150) scale(1,1)"><path fill="none" stroke="#000000" d="M 768 616 L 768 600 L 400 600 L 400 528" stroke-miterlimit="10" stroke-dasharray="3"/></g><g transform="translate(-30,-150) scale(1,1)"><path fill="none" stroke="#000000" d="M 404.209517756016 538.1626748576241 L 400 528 L 395.790482243984 538.1626748576241" stroke-miterlimit="10"/></g><g transform="translate(-30,-150) scale(1,1)"><g><path fill="none" stroke="none"/><text fill="#000000" stroke="none" font-family="Arial" font-size="13px" font-style="normal" font-weight="normal" text-decoration="none" x="454.5" y="585.5">«create»</text></g></g><g transform="translate(-30,-150) scale(1,1)"><rect fill="#C0C0C0" stroke="none" x="495" y="783" width="228.603515625" height="75" opacity="0.2"/></g><g transform="translate(-30,-150) scale(1,1)"><rect fill="#ffffff" stroke="none" x="488" y="776" width="228.603515625" height="75"/></g><g transform="translate(-30,-150) scale(1,1)"><path fill="none" stroke="#000000" d="M 488 776 L 716.603515625 776 L 716.603515625 851 L 488 851 L 488 776 Z Z" stroke-miterlimit="10"/></g><g transform="translate(-30,-150) scale(1,1)"><path fill="none" stroke="#000000" d="M 488 814 L 716.603515625 814" stroke-miterlimit="10"/></g><g transform="translate(-30,-150) scale(1,1)"><g><path fill="none" stroke="none"/><text fill="#000000" stroke="none" font-family="Arial" font-size="13px" font-style="normal" font-weight="normal" text-decoration="none" x="570.141357421875" y="792">«interface»</text></g></g><g transform="translate(-30,-150) scale(1,1)"><g><path fill="none" stroke="none"/><text fill="#000000" stroke="none" font-family="Arial" font-size="13px" font-style="normal" font-weight="bold" text-decoration="none" x="492.5" y="807">AbstractFigureGeometriqueFactory</text></g></g><g transform="translate(-30,-150) scale(1,1)"><g><path fill="none" stroke="none"/><text fill="#000000" stroke="none" font-family="Arial" font-size="13px" font-style="normal" font-weight="normal" text-decoration="none" x="493" y="830">+creerCarre(tailleCote: int): Carre</text></g></g><g transform="translate(-30,-150) scale(1,1)"><g><path fill="none" stroke="none"/><text fill="#000000" stroke="none" font-family="Arial" font-size="13px" font-style="normal" font-weight="normal" text-decoration="none" x="493" y="845">+creerCercle(rayon: int): Cercle</text></g></g><g transform="translate(-30,-150) scale(1,1)"><path fill="none" stroke="#000000" d="M 432 739 L 432 829 L 488 829" stroke-miterlimit="10" stroke-dasharray="3"/></g><g transform="translate(-30,-150) scale(1,1)"><path fill="#FFFFFF" stroke="none" d="M 467.6746502847517 837.419035512032 L 488 829 L 467.6746502847517 820.580964487968"/></g><g transform="translate(-30,-150) scale(1,1)"><path fill="none" stroke="#000000" d="M 467.6746502847517 837.419035512032 L 488 829 L 467.6746502847517 820.580964487968 L 467.6746502847517 837.419035512032" stroke-miterlimit="10"/></g><g transform="translate(-30,-150) scale(1,1)"><path fill="none" stroke="#000000" d="M 758 731 L 758 824 L 717 824" stroke-miterlimit="10" stroke-dasharray="3"/></g><g transform="translate(-30,-150) scale(1,1)"><path fill="#FFFFFF" stroke="none" d="M 737.3253497152483 815.580964487968 L 717 824 L 737.3253497152483 832.419035512032"/></g><g transform="translate(-30,-150) scale(1,1)"><path fill="none" stroke="#000000" d="M 737.3253497152483 815.580964487968 L 717 824 L 737.3253497152483 832.419035512032 L 737.3253497152483 815.580964487968" stroke-miterlimit="10"/></g><g transform="translate(-30,-150) scale(1,1)"><path fill="none" stroke="#000000" d="M 528 920 L 528 851" stroke-miterlimit="10"/></g><g transform="translate(-30,-150) scale(1,1)"><path fill="none" stroke="#000000" d="M 532.209517756016 861.1626748576241 L 528 851 L 523.790482243984 861.1626748576241" stroke-miterlimit="10"/></g><g transform="translate(-30,-150) scale(1,1)"><g><path fill="none" stroke="none"/><text fill="#000000" stroke="none" font-family="Arial" font-size="13px" font-style="normal" font-weight="normal" text-decoration="none" x="471.5" y="883">-factory</text></g></g><g transform="translate(-30,-150) scale(1,1)"><g><path fill="none" stroke="none"/><text fill="#000000" stroke="none" font-family="Arial" font-size="13px" font-style="normal" font-weight="normal" text-decoration="none" x="536.5" y="877">1</text></g></g><g transform="translate(-30,-150) scale(1,1)"><path fill="none" stroke="#000000" d="M 656 920 L 656 851" stroke-miterlimit="10"/></g><g transform="translate(-30,-150) scale(1,1)"><path fill="none" stroke="#000000" d="M 660.209517756016 861.1626748576241 L 656 851 L 651.790482243984 861.1626748576241" stroke-miterlimit="10"/></g><g transform="translate(-30,-150) scale(1,1)"><g><path fill="none" stroke="none"/><text fill="#000000" stroke="none" font-family="Arial" font-size="13px" font-style="normal" font-weight="normal" text-decoration="none" x="607.5" y="883">-factory</text></g></g><g transform="translate(-30,-150) scale(1,1)"><g><path fill="none" stroke="none"/><text fill="#000000" stroke="none" font-family="Arial" font-size="13px" font-style="normal" font-weight="normal" text-decoration="none" x="664.5" y="877">1</text></g></g></g></svg>