<svg version="1.1" xmlns="http://www.w3.org/2000/svg" xmlns:xlink="http://www.w3.org/1999/xlink" width="534.88525390625" height="392"><defs/><g><g transform="translate(-310,-198) scale(1,1)"><rect fill="#C0C0C0" stroke="none" x="359" y="215" width="139.9013671875" height="113" opacity="0.2"/></g><g transform="translate(-310,-198) scale(1,1)"><rect fill="#ffffff" stroke="none" x="352" y="208" width="139.9013671875" height="113"/></g><g transform="translate(-310,-198) scale(1,1)"><path fill="none" stroke="#000000" d="M 352 208 L 491.9013671875 208 L 491.9013671875 321 L 352 321 L 352 208 Z Z" stroke-miterlimit="10"/></g><g transform="translate(-310,-198) scale(1,1)"><path fill="none" stroke="#000000" d="M 352 246 L 491.9013671875 246" stroke-miterlimit="10"/></g><g transform="translate(-310,-198) scale(1,1)"><path fill="none" stroke="#000000" d="M 352 284 L 491.9013671875 284" stroke-miterlimit="10"/></g><g transform="translate(-310,-198) scale(1,1)"><g><path fill="none" stroke="none"/><text fill="#000000" stroke="none" font-family="Arial" font-size="13px" font-style="normal" font-weight="normal" text-decoration="none" x="391.599365234375" y="224">«abstract»</text></g></g><g transform="translate(-310,-198) scale(1,1)"><g><path fill="none" stroke="none"/><text fill="#000000" stroke="none" font-family="Arial" font-size="13px" font-style="italic" font-weight="bold" text-decoration="none" x="407.862060546875" y="239">Cafe</text></g></g><g transform="translate(-310,-198) scale(1,1)"><g><path fill="none" stroke="none"/><text fill="#000000" stroke="none" font-family="Arial" font-size="13px" font-style="normal" font-weight="normal" text-decoration="none" x="357" y="262">-typeGraine: String</text></g></g><g transform="translate(-310,-198) scale(1,1)"><g><path fill="none" stroke="none"/><text fill="#000000" stroke="none" font-family="Arial" font-size="13px" font-style="normal" font-weight="normal" text-decoration="none" x="357" y="277">-marqueSucre: String</text></g></g><g transform="translate(-310,-198) scale(1,1)"><g><path fill="none" stroke="none"/><text fill="#000000" stroke="none" font-family="Arial" font-size="13px" font-style="italic" font-weight="normal" text-decoration="none" x="357" y="300">«abstract»+preparer()</text></g></g><g transform="translate(-310,-198) scale(1,1)"><g><path fill="none" stroke="none"/><text fill="#000000" stroke="none" font-family="Arial" font-size="13px" font-style="normal" font-weight="normal" text-decoration="none" x="357" y="315">+afficherComposition()</text></g></g><g transform="translate(-310,-198) scale(1,1)"><rect fill="#C0C0C0" stroke="none" x="327" y="383" width="89.57080078125" height="57" opacity="0.2"/></g><g transform="translate(-310,-198) scale(1,1)"><rect fill="#ffffff" stroke="none" x="320" y="376" width="89.57080078125" height="57"/></g><g transform="translate(-310,-198) scale(1,1)"><path fill="none" stroke="#000000" d="M 320 376 L 409.57080078125 376 L 409.57080078125 433 L 320 433 L 320 376 Z Z" stroke-miterlimit="10"/></g><g transform="translate(-310,-198) scale(1,1)"><path fill="none" stroke="#000000" d="M 320 401 L 409.57080078125 401" stroke-miterlimit="10"/></g><g transform="translate(-310,-198) scale(1,1)"><path fill="none" stroke="#000000" d="M 320 411 L 409.57080078125 411" stroke-miterlimit="10"/></g><g transform="translate(-310,-198) scale(1,1)"><g><path fill="none" stroke="none"/><text fill="#000000" stroke="none" font-family="Arial" font-size="13px" font-style="normal" font-weight="bold" text-decoration="none" x="335.51953125" y="394">Expresso</text></g></g><g transform="translate(-310,-198) scale(1,1)"><g><path fill="none" stroke="none"/><text fill="#000000" stroke="none" font-family="Arial" font-size="13px" font-style="normal" font-weight="normal" text-decoration="none" x="325" y="427">+preparer()</text></g></g><g transform="translate(-310,-198) scale(1,1)"><rect fill="#C0C0C0" stroke="none" x="439" y="383" width="89.57080078125" height="57" opacity="0.2"/></g><g transform="translate(-310,-198) scale(1,1)"><rect fill="#ffffff" stroke="none" x="432" y="376" width="89.57080078125" height="57"/></g><g transform="translate(-310,-198) scale(1,1)"><path fill="none" stroke="#000000" d="M 432 376 L 521.57080078125 376 L 521.57080078125 433 L 432 433 L 432 376 Z Z" stroke-miterlimit="10"/></g><g transform="translate(-310,-198) scale(1,1)"><path fill="none" stroke="#000000" d="M 432 401 L 521.57080078125 401" stroke-miterlimit="10"/></g><g transform="translate(-310,-198) scale(1,1)"><path fill="none" stroke="#000000" d="M 432 411 L 521.57080078125 411" stroke-miterlimit="10"/></g><g transform="translate(-310,-198) scale(1,1)"><g><path fill="none" stroke="none"/><text fill="#000000" stroke="none" font-family="Arial" font-size="13px" font-style="normal" font-weight="bold" text-decoration="none" x="439.588134765625" y="394">Cappuccino</text></g></g><g transform="translate(-310,-198) scale(1,1)"><g><path fill="none" stroke="none"/><text fill="#000000" stroke="none" font-family="Arial" font-size="13px" font-style="normal" font-weight="normal" text-decoration="none" x="437" y="427">+preparer()</text></g></g><g transform="translate(-310,-198) scale(1,1)"><rect fill="#C0C0C0" stroke="none" x="623" y="503" width="218.88525390625" height="72" opacity="0.2"/></g><g transform="translate(-310,-198) scale(1,1)"><rect fill="#ffffff" stroke="none" x="616" y="496" width="218.88525390625" height="72"/></g><g transform="translate(-310,-198) scale(1,1)"><path fill="none" stroke="#000000" d="M 616 496 L 834.88525390625 496 L 834.88525390625 568 L 616 568 L 616 496 Z Z" stroke-miterlimit="10"/></g><g transform="translate(-310,-198) scale(1,1)"><path fill="none" stroke="#000000" d="M 616 521 L 834.88525390625 521" stroke-miterlimit="10"/></g><g transform="translate(-310,-198) scale(1,1)"><path fill="none" stroke="#000000" d="M 616 531 L 834.88525390625 531" stroke-miterlimit="10"/></g><g transform="translate(-310,-198) scale(1,1)"><g><path fill="none" stroke="none"/><text fill="#000000" stroke="none" font-family="Arial" font-size="13px" font-style="normal" font-weight="bold" text-decoration="none" x="685.34765625" y="514">MachineCafe</text></g></g><g transform="translate(-310,-198) scale(1,1)"><g><path fill="none" stroke="none"/><text fill="#000000" stroke="none" font-family="Arial" font-size="13px" font-style="normal" font-weight="normal" text-decoration="none" x="621" y="547">+MachineCafe(factory: CafeFactory)</text></g></g><g transform="translate(-310,-198) scale(1,1)"><g><path fill="none" stroke="none"/><text fill="#000000" stroke="none" font-family="Arial" font-size="13px" font-style="normal" font-weight="normal" text-decoration="none" x="621" y="562">+commanderCafe(type: String)</text></g></g><g transform="translate(-310,-198) scale(1,1)"><rect fill="#C0C0C0" stroke="none" x="335" y="487" width="182.76708984375" height="100" opacity="0.2"/></g><g transform="translate(-310,-198) scale(1,1)"><rect fill="#ffffff" stroke="none" x="328" y="480" width="182.76708984375" height="100"/></g><g transform="translate(-310,-198) scale(1,1)"><path fill="none" stroke="#000000" d="M 328 480 L 510.76708984375 480 L 510.76708984375 580 L 328 580 L 328 480 Z Z" stroke-miterlimit="10"/></g><g transform="translate(-310,-198) scale(1,1)"><path fill="none" stroke="#000000" d="M 328 505 L 510.76708984375 505" stroke-miterlimit="10"/></g><g transform="translate(-310,-198) scale(1,1)"><path fill="none" stroke="#000000" d="M 328 528 L 510.76708984375 528" stroke-miterlimit="10"/></g><g transform="translate(-310,-198) scale(1,1)"><g><path fill="none" stroke="none"/><text fill="#000000" stroke="none" font-family="Arial" font-size="13px" font-style="normal" font-weight="bold" text-decoration="none" x="381.81494140625" y="498">CafeFactory</text></g></g><g transform="translate(-310,-198) scale(1,1)"><g><path fill="none" stroke="none"/><text fill="#000000" stroke="none" font-family="Arial" font-size="13px" font-style="normal" font-weight="normal" text-decoration="none" x="333" y="521">-INSTANCE: CafeFactory</text><path fill="none" stroke="#000000" d="M 333 522.5 L 480.11962890625 522.5" stroke-miterlimit="10"/></g></g><g transform="translate(-310,-198) scale(1,1)"><g><path fill="none" stroke="none"/><text fill="#000000" stroke="none" font-family="Arial" font-size="13px" font-style="normal" font-weight="normal" text-decoration="none" x="333" y="544">-CafeFactory()</text></g></g><g transform="translate(-310,-198) scale(1,1)"><g><path fill="none" stroke="none"/><text fill="#000000" stroke="none" font-family="Arial" font-size="13px" font-style="normal" font-weight="normal" text-decoration="none" x="333" y="559">+getInstance(): CafeFactory</text><path fill="none" stroke="#000000" d="M 333 560.5 L 494.49072265625 560.5" stroke-miterlimit="10"/></g></g><g transform="translate(-310,-198) scale(1,1)"><g><path fill="none" stroke="none"/><text fill="#000000" stroke="none" font-family="Arial" font-size="13px" font-style="normal" font-weight="normal" text-decoration="none" x="333" y="574">+creerCafe(type: String): Cafe</text></g></g><g transform="translate(-310,-198) scale(1,1)"><path fill="none" stroke="#000000" d="M 376 376 L 376 321" stroke-miterlimit="10"/></g><g transform="translate(-310,-198) scale(1,1)"><path fill="#FFFFFF" stroke="none" d="M 384.419035512032 341.3253497152483 L 376 321 L 367.580964487968 341.3253497152483"/></g><g transform="translate(-310,-198) scale(1,1)"><path fill="none" stroke="#000000" d="M 384.419035512032 341.3253497152483 L 376 321 L 367.580964487968 341.3253497152483 L 384.419035512032 341.3253497152483" stroke-miterlimit="10"/></g><g transform="translate(-310,-198) scale(1,1)"><path fill="none" stroke="#000000" d="M 464 376 L 464 321" stroke-miterlimit="10"/></g><g transform="translate(-310,-198) scale(1,1)"><path fill="#FFFFFF" stroke="none" d="M 472.419035512032 341.3253497152483 L 464 321 L 455.580964487968 341.3253497152483"/></g><g transform="translate(-310,-198) scale(1,1)"><path fill="none" stroke="#000000" d="M 472.419035512032 341.3253497152483 L 464 321 L 455.580964487968 341.3253497152483 L 472.419035512032 341.3253497152483" stroke-miterlimit="10"/></g><g transform="translate(-310,-198) scale(1,1)"><path fill="none" stroke="#000000" d="M 377 480 L 377 433" stroke-miterlimit="10" stroke-dasharray="3"/></g><g transform="translate(-310,-198) scale(1,1)"><path fill="none" stroke="#000000" d="M 381.209517756016 443.16267485762415 L 377 433 L 372.790482243984 443.16267485762415" stroke-miterlimit="10"/></g><g transform="translate(-310,-198) scale(1,1)"><g><path fill="none" stroke="none"/><text fill="#000000" stroke="none" font-family="Arial" font-size="13px" font-style="normal" font-weight="normal" text-decoration="none" x="321.5" y="459.5">«create»</text></g></g><g transform="translate(-310,-198) scale(1,1)"><path fill="none" stroke="#000000" d="M 464 480 L 464 433" stroke-miterlimit="10" stroke-dasharray="3"/></g><g transform="translate(-310,-198) scale(1,1)"><path fill="none" stroke="#000000" d="M 468.209517756016 443.16267485762415 L 464 433 L 459.790482243984 443.16267485762415" stroke-miterlimit="10"/></g><g transform="translate(-310,-198) scale(1,1)"><g><path fill="none" stroke="none"/><text fill="#000000" stroke="none" font-family="Arial" font-size="13px" font-style="normal" font-weight="normal" text-decoration="none" x="479.5" y="458.5">«create»</text></g></g><g transform="translate(-310,-198) scale(1,1)"><path fill="none" stroke="#000000" d="M 616 531 L 511 531" stroke-miterlimit="10"/></g><g transform="translate(-310,-198) scale(1,1)"><path fill="none" stroke="#000000" d="M 521.1626748576241 526.790482243984 L 511 531 L 521.1626748576241 535.209517756016" stroke-miterlimit="10"/></g><g transform="translate(-310,-198) scale(1,1)"><path fill="#FFFFFF" stroke="none" d="M 605.8373251423759 535.209517756016 L 616 531 L 605.8373251423758 526.790482243984 L 594 531"/></g><g transform="translate(-310,-198) scale(1,1)"><path fill="none" stroke="#000000" d="M 605.8373251423759 535.209517756016 L 616 531 L 605.8373251423758 526.790482243984 L 594 531 L 605.8373251423759 535.209517756016" stroke-miterlimit="10"/></g><g transform="translate(-310,-198) scale(1,1)"><g><path fill="none" stroke="none"/><text fill="#000000" stroke="none" font-family="Arial" font-size="13px" font-style="normal" font-weight="normal" text-decoration="none" x="514.5" y="550">-factory</text></g></g><g transform="translate(-310,-198) scale(1,1)"><g><path fill="none" stroke="none"/><text fill="#000000" stroke="none" font-family="Arial" font-size="13px" font-style="normal" font-weight="normal" text-decoration="none" x="528.5" y="523">1</text></g></g></g></svg>