<svg version="1.1" xmlns="http://www.w3.org/2000/svg" xmlns:xlink="http://www.w3.org/1999/xlink" width="984.826171875" height="572"><defs/><g><g transform="translate(-30,-150) scale(1,1)"><rect fill="#C0C0C0" stroke="none" x="303" y="167" width="197.90625" height="90" opacity="0.2"/></g><g transform="translate(-30,-150) scale(1,1)"><rect fill="#ffffff" stroke="none" x="296" y="160" width="197.90625" height="90"/></g><g transform="translate(-30,-150) scale(1,1)"><path fill="none" stroke="#000000" d="M 296 160 L 493.90625 160 L 493.90625 250 L 296 250 L 296 160 Z Z" stroke-miterlimit="10"/></g><g transform="translate(-30,-150) scale(1,1)"><path fill="none" stroke="#000000" d="M 296 198 L 493.90625 198" stroke-miterlimit="10"/></g><g transform="translate(-30,-150) scale(1,1)"><g><path fill="none" stroke="none"/><text fill="#000000" stroke="none" font-family="Arial" font-size="13px" font-style="normal" font-weight="normal" text-decoration="none" x="362.792724609375" y="176">«interface»</text></g></g><g transform="translate(-30,-150) scale(1,1)"><g><path fill="none" stroke="none"/><text fill="#000000" stroke="none" font-family="Arial" font-size="13px" font-style="normal" font-weight="bold" text-decoration="none" x="329.57861328125" y="191">AbstractZoneFactory</text></g></g><g transform="translate(-30,-150) scale(1,1)"><g><path fill="none" stroke="none"/><text fill="#000000" stroke="none" font-family="Arial" font-size="13px" font-style="normal" font-weight="normal" text-decoration="none" x="301" y="214">+creerMonstreNormal(): Monstre</text></g></g><g transform="translate(-30,-150) scale(1,1)"><g><path fill="none" stroke="none"/><text fill="#000000" stroke="none" font-family="Arial" font-size="13px" font-style="normal" font-weight="normal" text-decoration="none" x="301" y="229">+creerBoss(): Boss</text></g></g><g transform="translate(-30,-150) scale(1,1)"><g><path fill="none" stroke="none"/><text fill="#000000" stroke="none" font-family="Arial" font-size="13px" font-style="normal" font-weight="normal" text-decoration="none" x="301" y="244">+creerRecompense(): Item</text></g></g><g transform="translate(-30,-150) scale(1,1)"><rect fill="#C0C0C0" stroke="none" x="143" y="303" width="237.67431640625" height="130" opacity="0.2"/></g><g transform="translate(-30,-150) scale(1,1)"><rect fill="#ffffff" stroke="none" x="136" y="296" width="237.67431640625" height="130"/></g><g transform="translate(-30,-150) scale(1,1)"><path fill="none" stroke="#000000" d="M 136 296 L 373.67431640625 296 L 373.67431640625 426 L 136 426 L 136 296 Z Z" stroke-miterlimit="10"/></g><g transform="translate(-30,-150) scale(1,1)"><path fill="none" stroke="#000000" d="M 136 321 L 373.67431640625 321" stroke-miterlimit="10"/></g><g transform="translate(-30,-150) scale(1,1)"><path fill="none" stroke="#000000" d="M 136 344 L 373.67431640625 344" stroke-miterlimit="10"/></g><g transform="translate(-30,-150) scale(1,1)"><g><path fill="none" stroke="none"/><text fill="#000000" stroke="none" font-family="Arial" font-size="13px" font-style="normal" font-weight="bold" text-decoration="none" x="196.68310546875" y="314">ZonePlaineFactory</text></g></g><g transform="translate(-30,-150) scale(1,1)"><g><path fill="none" stroke="none"/><text fill="#000000" stroke="none" font-family="Arial" font-size="13px" font-style="normal" font-weight="normal" text-decoration="none" x="141" y="337">-INSTANCE: AbstractZoneFactory</text><path fill="none" stroke="#000000" d="M 141 338.5 L 337.97412109375 338.5" stroke-miterlimit="10"/></g></g><g transform="translate(-30,-150) scale(1,1)"><g><path fill="none" stroke="none"/><text fill="#000000" stroke="none" font-family="Arial" font-size="13px" font-style="normal" font-weight="normal" text-decoration="none" x="141" y="360">-ZonePlaineFactory()</text></g></g><g transform="translate(-30,-150) scale(1,1)"><g><path fill="none" stroke="none"/><text fill="#000000" stroke="none" font-family="Arial" font-size="13px" font-style="normal" font-weight="normal" text-decoration="none" x="141" y="375">+getInstance(): AbstractZoneFactory</text><path fill="none" stroke="#000000" d="M 141 376.5 L 352.34521484375 376.5" stroke-miterlimit="10"/></g></g><g transform="translate(-30,-150) scale(1,1)"><g><path fill="none" stroke="none"/><text fill="#000000" stroke="none" font-family="Arial" font-size="13px" font-style="normal" font-weight="normal" text-decoration="none" x="141" y="390">+creerMonstreNormal(): Monstre</text></g></g><g transform="translate(-30,-150) scale(1,1)"><g><path fill="none" stroke="none"/><text fill="#000000" stroke="none" font-family="Arial" font-size="13px" font-style="normal" font-weight="normal" text-decoration="none" x="141" y="405">+creerBoss(): Boss</text></g></g><g transform="translate(-30,-150) scale(1,1)"><g><path fill="none" stroke="none"/><text fill="#000000" stroke="none" font-family="Arial" font-size="13px" font-style="normal" font-weight="normal" text-decoration="none" x="141" y="420">+creerRecompense(): Item</text></g></g><g transform="translate(-30,-150) scale(1,1)"><rect fill="#C0C0C0" stroke="none" x="447" y="303" width="256.50146484375" height="130" opacity="0.2"/></g><g transform="translate(-30,-150) scale(1,1)"><rect fill="#ffffff" stroke="none" x="440" y="296" width="256.50146484375" height="130"/></g><g transform="translate(-30,-150) scale(1,1)"><path fill="none" stroke="#000000" d="M 440 296 L 696.50146484375 296 L 696.50146484375 426 L 440 426 L 440 296 Z Z" stroke-miterlimit="10"/></g><g transform="translate(-30,-150) scale(1,1)"><path fill="none" stroke="#000000" d="M 440 321 L 696.50146484375 321" stroke-miterlimit="10"/></g><g transform="translate(-30,-150) scale(1,1)"><path fill="none" stroke="#000000" d="M 440 344 L 696.50146484375 344" stroke-miterlimit="10"/></g><g transform="translate(-30,-150) scale(1,1)"><g><path fill="none" stroke="none"/><text fill="#000000" stroke="none" font-family="Arial" font-size="13px" font-style="normal" font-weight="bold" text-decoration="none" x="485.540771484375" y="314">ZoneChateauHanteFactory</text></g></g><g transform="translate(-30,-150) scale(1,1)"><g><path fill="none" stroke="none"/><text fill="#000000" stroke="none" font-family="Arial" font-size="13px" font-style="normal" font-weight="normal" text-decoration="none" x="445" y="337">-INSTANCE: AbstractZoneFactory</text><path fill="none" stroke="#000000" d="M 445 338.5 L 641.97412109375 338.5" stroke-miterlimit="10"/></g></g><g transform="translate(-30,-150) scale(1,1)"><g><path fill="none" stroke="none"/><text fill="#000000" stroke="none" font-family="Arial" font-size="13px" font-style="normal" font-weight="normal" text-decoration="none" x="445" y="360">-ZoneChateauHanteFactory()</text></g></g><g transform="translate(-30,-150) scale(1,1)"><g><path fill="none" stroke="none"/><text fill="#000000" stroke="none" font-family="Arial" font-size="13px" font-style="normal" font-weight="normal" text-decoration="none" x="445" y="375">+getInstance(): AbstractZoneFactory</text><path fill="none" stroke="#000000" d="M 445 376.5 L 656.34521484375 376.5" stroke-miterlimit="10"/></g></g><g transform="translate(-30,-150) scale(1,1)"><g><path fill="none" stroke="none"/><text fill="#000000" stroke="none" font-family="Arial" font-size="13px" font-style="normal" font-weight="normal" text-decoration="none" x="445" y="390">+creerMonstreNormal(): Monstre</text></g></g><g transform="translate(-30,-150) scale(1,1)"><g><path fill="none" stroke="none"/><text fill="#000000" stroke="none" font-family="Arial" font-size="13px" font-style="normal" font-weight="normal" text-decoration="none" x="445" y="405">+creerBoss(): Boss</text></g></g><g transform="translate(-30,-150) scale(1,1)"><g><path fill="none" stroke="none"/><text fill="#000000" stroke="none" font-family="Arial" font-size="13px" font-style="normal" font-weight="normal" text-decoration="none" x="445" y="420">+creerRecompense(): Item</text></g></g><g transform="translate(-30,-150) scale(1,1)"><path fill="none" stroke="#000000" d="M 350 296 L 350 250" stroke-miterlimit="10" stroke-dasharray="3"/></g><g transform="translate(-30,-150) scale(1,1)"><path fill="#FFFFFF" stroke="none" d="M 358.419035512032 270.3253497152483 L 350 250 L 341.580964487968 270.3253497152483"/></g><g transform="translate(-30,-150) scale(1,1)"><path fill="none" stroke="#000000" d="M 358.419035512032 270.3253497152483 L 350 250 L 341.580964487968 270.3253497152483 L 358.419035512032 270.3253497152483" stroke-miterlimit="10"/></g><g transform="translate(-30,-150) scale(1,1)"><path fill="none" stroke="#000000" d="M 456 296 L 456 250" stroke-miterlimit="10" stroke-dasharray="3"/></g><g transform="translate(-30,-150) scale(1,1)"><path fill="#FFFFFF" stroke="none" d="M 464.419035512032 270.3253497152483 L 456 250 L 447.580964487968 270.3253497152483"/></g><g transform="translate(-30,-150) scale(1,1)"><path fill="none" stroke="#000000" d="M 464.419035512032 270.3253497152483 L 456 250 L 447.580964487968 270.3253497152483 L 464.419035512032 270.3253497152483" stroke-miterlimit="10"/></g><g transform="translate(-30,-150) scale(1,1)"><rect fill="#C0C0C0" stroke="none" x="263" y="495" width="299.81787109375" height="100" opacity="0.2"/></g><g transform="translate(-30,-150) scale(1,1)"><rect fill="#ffffff" stroke="none" x="256" y="488" width="299.81787109375" height="100"/></g><g transform="translate(-30,-150) scale(1,1)"><path fill="none" stroke="#000000" d="M 256 488 L 555.81787109375 488 L 555.81787109375 588 L 256 588 L 256 488 Z Z" stroke-miterlimit="10"/></g><g transform="translate(-30,-150) scale(1,1)"><path fill="none" stroke="#000000" d="M 256 513 L 555.81787109375 513" stroke-miterlimit="10"/></g><g transform="translate(-30,-150) scale(1,1)"><path fill="none" stroke="#000000" d="M 256 536 L 555.81787109375 536" stroke-miterlimit="10"/></g><g transform="translate(-30,-150) scale(1,1)"><g><path fill="none" stroke="none"/><text fill="#000000" stroke="none" font-family="Arial" font-size="13px" font-style="normal" font-weight="bold" text-decoration="none" x="363.306640625" y="506">Configuration</text></g></g><g transform="translate(-30,-150) scale(1,1)"><g><path fill="none" stroke="none"/><text fill="#000000" stroke="none" font-family="Arial" font-size="13px" font-style="normal" font-weight="normal" text-decoration="none" x="261" y="529">-INSTANCE: Configuration</text><path fill="none" stroke="#000000" d="M 261 530.5 L 414.64501953125 530.5" stroke-miterlimit="10"/></g></g><g transform="translate(-30,-150) scale(1,1)"><g><path fill="none" stroke="none"/><text fill="#000000" stroke="none" font-family="Arial" font-size="13px" font-style="normal" font-weight="normal" text-decoration="none" x="261" y="552">-Configuration()</text></g></g><g transform="translate(-30,-150) scale(1,1)"><g><path fill="none" stroke="none"/><text fill="#000000" stroke="none" font-family="Arial" font-size="13px" font-style="normal" font-weight="normal" text-decoration="none" x="261" y="567">+getInstance(): Configuration</text><path fill="none" stroke="#000000" d="M 261 568.5 L 429.01611328125 568.5" stroke-miterlimit="10"/></g></g><g transform="translate(-30,-150) scale(1,1)"><g><path fill="none" stroke="none"/><text fill="#000000" stroke="none" font-family="Arial" font-size="13px" font-style="normal" font-weight="normal" text-decoration="none" x="261" y="582">+getZoneFactoryInstance(): AbstractZoneFactory</text></g></g><g transform="translate(-30,-150) scale(1,1)"><path fill="none" stroke="#000000" d="M 300 488 L 300 426" stroke-miterlimit="10" stroke-dasharray="3"/></g><g transform="translate(-30,-150) scale(1,1)"><path fill="none" stroke="#000000" d="M 304.209517756016 436.16267485762415 L 300 426 L 295.790482243984 436.16267485762415" stroke-miterlimit="10"/></g><g transform="translate(-30,-150) scale(1,1)"><path fill="none" stroke="#000000" d="M 526 488 L 526 426" stroke-miterlimit="10" stroke-dasharray="3"/></g><g transform="translate(-30,-150) scale(1,1)"><path fill="none" stroke="#000000" d="M 530.209517756016 436.16267485762415 L 526 426 L 521.790482243984 436.16267485762415" stroke-miterlimit="10"/></g><g transform="translate(-30,-150) scale(1,1)"><path fill="none" stroke="#000000" d="M 400 488 L 400 250" stroke-miterlimit="10" stroke-dasharray="3"/></g><g transform="translate(-30,-150) scale(1,1)"><path fill="none" stroke="#000000" d="M 404.209517756016 260.16267485762415 L 400 250 L 395.790482243984 260.16267485762415" stroke-miterlimit="10"/></g><g transform="translate(-30,-150) scale(1,1)"><rect fill="#C0C0C0" stroke="none" x="343" y="647" width="132.1826171875" height="72" opacity="0.2"/></g><g transform="translate(-30,-150) scale(1,1)"><rect fill="#ffffff" stroke="none" x="336" y="640" width="132.1826171875" height="72"/></g><g transform="translate(-30,-150) scale(1,1)"><path fill="none" stroke="#000000" d="M 336 640 L 468.1826171875 640 L 468.1826171875 712 L 336 712 L 336 640 Z Z" stroke-miterlimit="10"/></g><g transform="translate(-30,-150) scale(1,1)"><path fill="none" stroke="#000000" d="M 339 640 L 339 712" stroke-miterlimit="10"/></g><g transform="translate(-30,-150) scale(1,1)"><path fill="none" stroke="#000000" d="M 465.1826171875 640 L 465.1826171875 712" stroke-miterlimit="10"/></g><g transform="translate(-30,-150) scale(1,1)"><path fill="none" stroke="#000000" d="M 336 665 L 468.1826171875 665" stroke-miterlimit="10"/></g><g transform="translate(-30,-150) scale(1,1)"><path fill="none" stroke="#000000" d="M 336 675 L 468.1826171875 675" stroke-miterlimit="10"/></g><g transform="translate(-30,-150) scale(1,1)"><g><path fill="none" stroke="none"/><text fill="#000000" stroke="none" font-family="Arial" font-size="13px" font-style="normal" font-weight="bold" text-decoration="none" x="387.285400390625" y="658">Main</text></g></g><g transform="translate(-30,-150) scale(1,1)"><g><path fill="none" stroke="none"/><text fill="#000000" stroke="none" font-family="Arial" font-size="13px" font-style="normal" font-weight="normal" text-decoration="none" x="341" y="691">+main(args: String[*])</text></g></g><g transform="translate(-30,-150) scale(1,1)"><path fill="none" stroke="#000000" d="M 399 640 L 399 588" stroke-miterlimit="10" stroke-dasharray="3"/></g><g transform="translate(-30,-150) scale(1,1)"><path fill="none" stroke="#000000" d="M 403.209517756016 598.1626748576241 L 399 588 L 394.790482243984 598.1626748576241" stroke-miterlimit="10"/></g><g transform="translate(-30,-150) scale(1,1)"><rect fill="#C0C0C0" stroke="none" x="759" y="559" width="252.826171875" height="72" opacity="0.2"/></g><g transform="translate(-30,-150) scale(1,1)"><rect fill="#ffffff" stroke="none" x="752" y="552" width="252.826171875" height="72"/></g><g transform="translate(-30,-150) scale(1,1)"><path fill="none" stroke="#000000" d="M 752 552 L 1004.826171875 552 L 1004.826171875 624 L 752 624 L 752 552 Z Z" stroke-miterlimit="10"/></g><g transform="translate(-30,-150) scale(1,1)"><path fill="none" stroke="#000000" d="M 752 577 L 1004.826171875 577" stroke-miterlimit="10"/></g><g transform="translate(-30,-150) scale(1,1)"><path fill="none" stroke="#000000" d="M 752 587 L 1004.826171875 587" stroke-miterlimit="10"/></g><g transform="translate(-30,-150) scale(1,1)"><g><path fill="none" stroke="none"/><text fill="#000000" stroke="none" font-family="Arial" font-size="13px" font-style="normal" font-weight="bold" text-decoration="none" x="862.88671875" y="570">Zone</text></g></g><g transform="translate(-30,-150) scale(1,1)"><g><path fill="none" stroke="none"/><text fill="#000000" stroke="none" font-family="Arial" font-size="13px" font-style="normal" font-weight="normal" text-decoration="none" x="757" y="603">+Zone(factory: AbstractZoneFactory)</text></g></g><g transform="translate(-30,-150) scale(1,1)"><g><path fill="none" stroke="none"/><text fill="#000000" stroke="none" font-family="Arial" font-size="13px" font-style="normal" font-weight="normal" text-decoration="none" x="757" y="618">+traverserZoneNormale(joueur: Joueur)</text></g></g><g transform="translate(-30,-150) scale(1,1)"><path fill="none" stroke="#000000" d="M 888 552 L 888 216 L 494 216" stroke-miterlimit="10"/></g><g transform="translate(-30,-150) scale(1,1)"><path fill="none" stroke="#000000" d="M 504.16267485762415 211.790482243984 L 494 216 L 504.16267485762415 220.209517756016" stroke-miterlimit="10"/></g><g transform="translate(-30,-150) scale(1,1)"><path fill="#FFFFFF" stroke="none" d="M 883.790482243984 541.8373251423759 L 888 552 L 892.209517756016 541.8373251423759 L 888 530"/></g><g transform="translate(-30,-150) scale(1,1)"><path fill="none" stroke="#000000" d="M 883.790482243984 541.8373251423759 L 888 552 L 892.209517756016 541.8373251423759 L 888 530 L 883.790482243984 541.8373251423759" stroke-miterlimit="10"/></g><g transform="translate(-30,-150) scale(1,1)"><g><path fill="none" stroke="none"/><text fill="#000000" stroke="none" font-family="Arial" font-size="13px" font-style="normal" font-weight="normal" text-decoration="none" x="497.5" y="235">-factory</text></g></g><g transform="translate(-30,-150) scale(1,1)"><g><path fill="none" stroke="none"/><text fill="#000000" stroke="none" font-family="Arial" font-size="13px" font-style="normal" font-weight="normal" text-decoration="none" x="511.5" y="208">1</text></g></g><g transform="translate(-30,-150) scale(1,1)"><path fill="none" stroke="#000000" d="M 468 666 L 878 666 L 878 624" stroke-miterlimit="10" stroke-dasharray="3"/></g><g transform="translate(-30,-150) scale(1,1)"><path fill="none" stroke="#000000" d="M 882.209517756016 634.1626748576241 L 878 624 L 873.790482243984 634.1626748576241" stroke-miterlimit="10"/></g><g transform="translate(-30,-150) scale(1,1)"><g><path fill="none" stroke="none"/><text fill="#000000" stroke="none" font-family="Arial" font-size="13px" font-style="normal" font-weight="normal" text-decoration="none" x="629.5" y="690.5">«create»</text></g></g><g transform="translate(-30,-150) scale(1,1)"><path fill="#C0C0C0" stroke="none" d="M 116.656787109375 567 L 151.37678710937502 567 L 166.256787109375 581.88 L 166.256787109375 629 L 116.656787109375 629" opacity="0.2"/></g><g transform="translate(-30,-150) scale(1,1)"><path fill="#ffffff" stroke="none" d="M 109.65678710937499 560 L 144.37678710937502 560 L 159.256787109375 574.88 L 159.256787109375 622 L 109.65678710937499 622"/></g><g transform="translate(-30,-150) scale(1,1)"><path fill="none" stroke="#000000" d="M 109.65678710937499 560 L 144.37678710937502 560 L 159.256787109375 574.88 L 159.256787109375 622 L 109.65678710937499 622 L 109.65678710937499 560" stroke-miterlimit="10"/></g><g transform="translate(-30,-150) scale(1,1)"><path fill="none" stroke="#000000" d="M 144.37678710937502 560 L 144.37678710937502 574.88 L 159.256787109375 574.88 L 144.37678710937502 560" stroke-miterlimit="10"/></g><g transform="translate(-30,-150) scale(1,1)"><g><path fill="none" stroke="none"/><text fill="#000000" stroke="none" font-family="Arial" font-size="13px" font-style="normal" font-weight="bold" text-decoration="none" x="61.5" y="640">zone_factory_config.txt</text><path fill="none" stroke="#000000" d="M 207.41357421875 641.5 L 61.5 641.5" stroke-miterlimit="10"/></g></g><g transform="translate(-30,-150) scale(1,1)"><path fill="none" stroke="#000000" d="M 255 574 L 230 580" stroke-miterlimit="10" stroke-dasharray="3"/></g></g></svg>