<svg version="1.1" xmlns="http://www.w3.org/2000/svg" xmlns:xlink="http://www.w3.org/1999/xlink" width="428.71435546875" height="457"><defs/><g><g transform="translate(-158,-70) scale(1,1)"><rect fill="#C0C0C0" stroke="none" x="319" y="87" width="166.16162109375" height="60" opacity="0.2"/></g><g transform="translate(-158,-70) scale(1,1)"><rect fill="#ffffff" stroke="none" x="312" y="80" width="166.16162109375" height="60"/></g><g transform="translate(-158,-70) scale(1,1)"><path fill="none" stroke="#000000" d="M 312 80 L 478.16162109375 80 L 478.16162109375 140 L 312 140 L 312 80 Z Z" stroke-miterlimit="10"/></g><g transform="translate(-158,-70) scale(1,1)"><path fill="none" stroke="#000000" d="M 312 118 L 478.16162109375 118" stroke-miterlimit="10"/></g><g transform="translate(-158,-70) scale(1,1)"><g><path fill="none" stroke="none"/><text fill="#000000" stroke="none" font-family="Arial" font-size="13px" font-style="normal" font-weight="normal" text-decoration="none" x="362.92041015625" y="96">«interface»</text></g></g><g transform="translate(-158,-70) scale(1,1)"><g><path fill="none" stroke="none"/><text fill="#000000" stroke="none" font-family="Arial" font-size="13px" font-style="normal" font-weight="bold" text-decoration="none" x="369.80126953125" y="111">Monstre</text></g></g><g transform="translate(-158,-70) scale(1,1)"><g><path fill="none" stroke="none"/><text fill="#000000" stroke="none" font-family="Arial" font-size="13px" font-style="normal" font-weight="normal" text-decoration="none" x="317" y="134">+combattre(joueur: Joueur)</text></g></g><g transform="translate(-158,-70) scale(1,1)"><rect fill="#C0C0C0" stroke="none" x="375" y="191" width="166.16162109375" height="57" opacity="0.2"/></g><g transform="translate(-158,-70) scale(1,1)"><rect fill="#ffffff" stroke="none" x="368" y="184" width="166.16162109375" height="57"/></g><g transform="translate(-158,-70) scale(1,1)"><path fill="none" stroke="#000000" d="M 368 184 L 534.16162109375 184 L 534.16162109375 241 L 368 241 L 368 184 Z Z" stroke-miterlimit="10"/></g><g transform="translate(-158,-70) scale(1,1)"><path fill="none" stroke="#000000" d="M 368 209 L 534.16162109375 209" stroke-miterlimit="10"/></g><g transform="translate(-158,-70) scale(1,1)"><path fill="none" stroke="#000000" d="M 368 219 L 534.16162109375 219" stroke-miterlimit="10"/></g><g transform="translate(-158,-70) scale(1,1)"><g><path fill="none" stroke="none"/><text fill="#000000" stroke="none" font-family="Arial" font-size="13px" font-style="normal" font-weight="bold" text-decoration="none" x="433.739013671875" y="202">Slime</text></g></g><g transform="translate(-158,-70) scale(1,1)"><g><path fill="none" stroke="none"/><text fill="#000000" stroke="none" font-family="Arial" font-size="13px" font-style="normal" font-weight="normal" text-decoration="none" x="373" y="235">+combattre(joueur: Joueur)</text></g></g><g transform="translate(-158,-70) scale(1,1)"><rect fill="#C0C0C0" stroke="none" x="183" y="191" width="166.16162109375" height="57" opacity="0.2"/></g><g transform="translate(-158,-70) scale(1,1)"><rect fill="#ffffff" stroke="none" x="176" y="184" width="166.16162109375" height="57"/></g><g transform="translate(-158,-70) scale(1,1)"><path fill="none" stroke="#000000" d="M 176 184 L 342.16162109375 184 L 342.16162109375 241 L 176 241 L 176 184 Z Z" stroke-miterlimit="10"/></g><g transform="translate(-158,-70) scale(1,1)"><path fill="none" stroke="#000000" d="M 176 209 L 342.16162109375 209" stroke-miterlimit="10"/></g><g transform="translate(-158,-70) scale(1,1)"><path fill="none" stroke="#000000" d="M 176 219 L 342.16162109375 219" stroke-miterlimit="10"/></g><g transform="translate(-158,-70) scale(1,1)"><g><path fill="none" stroke="none"/><text fill="#000000" stroke="none" font-family="Arial" font-size="13px" font-style="normal" font-weight="bold" text-decoration="none" x="231.995361328125" y="202">Fantome</text></g></g><g transform="translate(-158,-70) scale(1,1)"><g><path fill="none" stroke="none"/><text fill="#000000" stroke="none" font-family="Arial" font-size="13px" font-style="normal" font-weight="normal" text-decoration="none" x="181" y="235">+combattre(joueur: Joueur)</text></g></g><g transform="translate(-158,-70) scale(1,1)"><path fill="none" stroke="#000000" d="M 416 184 L 416 140" stroke-miterlimit="10" stroke-dasharray="3"/></g><g transform="translate(-158,-70) scale(1,1)"><path fill="#FFFFFF" stroke="none" d="M 424.419035512032 160.3253497152483 L 416 140 L 407.580964487968 160.3253497152483"/></g><g transform="translate(-158,-70) scale(1,1)"><path fill="none" stroke="#000000" d="M 424.419035512032 160.3253497152483 L 416 140 L 407.580964487968 160.3253497152483 L 424.419035512032 160.3253497152483" stroke-miterlimit="10"/></g><g transform="translate(-158,-70) scale(1,1)"><path fill="none" stroke="#000000" d="M 240 184 L 240 112 L 312 112" stroke-miterlimit="10" stroke-dasharray="3"/></g><g transform="translate(-158,-70) scale(1,1)"><path fill="#FFFFFF" stroke="none" d="M 291.6746502847517 120.41903551203198 L 312 112 L 291.6746502847517 103.58096448796803"/></g><g transform="translate(-158,-70) scale(1,1)"><path fill="none" stroke="#000000" d="M 291.6746502847517 120.41903551203198 L 312 112 L 291.6746502847517 103.58096448796803 L 291.6746502847517 120.41903551203198" stroke-miterlimit="10"/></g><g transform="translate(-158,-70) scale(1,1)"><rect fill="#C0C0C0" stroke="none" x="231" y="439" width="238.404296875" height="85" opacity="0.2"/></g><g transform="translate(-158,-70) scale(1,1)"><rect fill="#ffffff" stroke="none" x="224" y="432" width="238.404296875" height="85"/></g><g transform="translate(-158,-70) scale(1,1)"><path fill="none" stroke="#000000" d="M 224 432 L 462.404296875 432 L 462.404296875 517 L 224 517 L 224 432 Z Z" stroke-miterlimit="10"/></g><g transform="translate(-158,-70) scale(1,1)"><path fill="none" stroke="#000000" d="M 224 470 L 462.404296875 470" stroke-miterlimit="10"/></g><g transform="translate(-158,-70) scale(1,1)"><path fill="none" stroke="#000000" d="M 224 480 L 462.404296875 480" stroke-miterlimit="10"/></g><g transform="translate(-158,-70) scale(1,1)"><g><path fill="none" stroke="none"/><text fill="#000000" stroke="none" font-family="Arial" font-size="13px" font-style="normal" font-weight="normal" text-decoration="none" x="312.850830078125" y="448">«abstract»</text></g></g><g transform="translate(-158,-70) scale(1,1)"><g><path fill="none" stroke="none"/><text fill="#000000" stroke="none" font-family="Arial" font-size="13px" font-style="italic" font-weight="bold" text-decoration="none" x="327.67578125" y="463">Zone</text></g></g><g transform="translate(-158,-70) scale(1,1)"><g><path fill="none" stroke="none"/><text fill="#000000" stroke="none" font-family="Arial" font-size="13px" font-style="normal" font-weight="normal" text-decoration="none" x="229" y="496">+traverserZoneNormale(joueur: Joueur)</text></g></g><g transform="translate(-158,-70) scale(1,1)"><g><path fill="none" stroke="none"/><text fill="#000000" stroke="none" font-family="Arial" font-size="13px" font-style="italic" font-weight="normal" text-decoration="none" x="229" y="511">«abstract»+creerMonstre(): Monstre</text></g></g><g transform="translate(-158,-70) scale(1,1)"><rect fill="#C0C0C0" stroke="none" x="367" y="311" width="216.71435546875" height="57" opacity="0.2"/></g><g transform="translate(-158,-70) scale(1,1)"><rect fill="#ffffff" stroke="none" x="360" y="304" width="216.71435546875" height="57"/></g><g transform="translate(-158,-70) scale(1,1)"><path fill="none" stroke="#000000" d="M 360 304 L 576.71435546875 304 L 576.71435546875 361 L 360 361 L 360 304 Z Z" stroke-miterlimit="10"/></g><g transform="translate(-158,-70) scale(1,1)"><path fill="none" stroke="#000000" d="M 360 329 L 576.71435546875 329" stroke-miterlimit="10"/></g><g transform="translate(-158,-70) scale(1,1)"><path fill="none" stroke="#000000" d="M 360 339 L 576.71435546875 339" stroke-miterlimit="10"/></g><g transform="translate(-158,-70) scale(1,1)"><g><path fill="none" stroke="none"/><text fill="#000000" stroke="none" font-family="Arial" font-size="13px" font-style="normal" font-weight="bold" text-decoration="none" x="433.68310546875" y="322">ZonePlaine</text></g></g><g transform="translate(-158,-70) scale(1,1)"><g><path fill="none" stroke="none"/><text fill="#000000" stroke="none" font-family="Arial" font-size="13px" font-style="normal" font-weight="normal" text-decoration="none" x="365" y="355">+creerMonstre(): Monstre</text></g></g><g transform="translate(-158,-70) scale(1,1)"><rect fill="#C0C0C0" stroke="none" x="175" y="311" width="156.01171875" height="57" opacity="0.2"/></g><g transform="translate(-158,-70) scale(1,1)"><rect fill="#ffffff" stroke="none" x="168" y="304" width="156.01171875" height="57"/></g><g transform="translate(-158,-70) scale(1,1)"><path fill="none" stroke="#000000" d="M 168 304 L 324.01171875 304 L 324.01171875 361 L 168 361 L 168 304 Z Z" stroke-miterlimit="10"/></g><g transform="translate(-158,-70) scale(1,1)"><path fill="none" stroke="#000000" d="M 168 329 L 324.01171875 329" stroke-miterlimit="10"/></g><g transform="translate(-158,-70) scale(1,1)"><path fill="none" stroke="#000000" d="M 168 339 L 324.01171875 339" stroke-miterlimit="10"/></g><g transform="translate(-158,-70) scale(1,1)"><g><path fill="none" stroke="none"/><text fill="#000000" stroke="none" font-family="Arial" font-size="13px" font-style="normal" font-weight="bold" text-decoration="none" x="186.77587890625" y="322">ZoneChateauHante</text></g></g><g transform="translate(-158,-70) scale(1,1)"><g><path fill="none" stroke="none"/><text fill="#000000" stroke="none" font-family="Arial" font-size="13px" font-style="normal" font-weight="normal" text-decoration="none" x="173" y="355">+creerMonstre(): Monstre</text></g></g><g transform="translate(-158,-70) scale(1,1)"><path fill="none" stroke="#000000" d="M 288 361 L 288 432" stroke-miterlimit="10"/></g><g transform="translate(-158,-70) scale(1,1)"><path fill="#FFFFFF" stroke="none" d="M 279.580964487968 411.6746502847517 L 288 432 L 296.419035512032 411.6746502847517"/></g><g transform="translate(-158,-70) scale(1,1)"><path fill="none" stroke="#000000" d="M 279.580964487968 411.6746502847517 L 288 432 L 296.419035512032 411.6746502847517 L 279.580964487968 411.6746502847517" stroke-miterlimit="10"/></g><g transform="translate(-158,-70) scale(1,1)"><path fill="none" stroke="#000000" d="M 392 361 L 392 432" stroke-miterlimit="10"/></g><g transform="translate(-158,-70) scale(1,1)"><path fill="#FFFFFF" stroke="none" d="M 383.580964487968 411.6746502847517 L 392 432 L 400.419035512032 411.6746502847517"/></g><g transform="translate(-158,-70) scale(1,1)"><path fill="none" stroke="#000000" d="M 383.580964487968 411.6746502847517 L 392 432 L 400.419035512032 411.6746502847517 L 383.580964487968 411.6746502847517" stroke-miterlimit="10"/></g><g transform="translate(-158,-70) scale(1,1)"><path fill="none" stroke="#000000" d="M 256 304 L 256 241" stroke-miterlimit="10" stroke-dasharray="3"/></g><g transform="translate(-158,-70) scale(1,1)"><path fill="none" stroke="#000000" d="M 260.209517756016 251.16267485762415 L 256 241 L 251.790482243984 251.16267485762415" stroke-miterlimit="10"/></g><g transform="translate(-158,-70) scale(1,1)"><g><path fill="none" stroke="none"/><text fill="#000000" stroke="none" font-family="Arial" font-size="13px" font-style="normal" font-weight="normal" text-decoration="none" x="200.5" y="275.5">«create»</text></g></g><g transform="translate(-158,-70) scale(1,1)"><path fill="none" stroke="#000000" d="M 455 304 L 455 241" stroke-miterlimit="10" stroke-dasharray="3"/></g><g transform="translate(-158,-70) scale(1,1)"><path fill="none" stroke="#000000" d="M 459.209517756016 251.16267485762415 L 455 241 L 450.790482243984 251.16267485762415" stroke-miterlimit="10"/></g><g transform="translate(-158,-70) scale(1,1)"><g><path fill="none" stroke="none"/><text fill="#000000" stroke="none" font-family="Arial" font-size="13px" font-style="normal" font-weight="normal" text-decoration="none" x="399.5" y="275.5">«create»</text></g></g></g></svg>