<svg version="1.1" xmlns="http://www.w3.org/2000/svg" xmlns:xlink="http://www.w3.org/1999/xlink" width="738.404296875" height="209"><defs/><g><g transform="translate(-158,-150) scale(1,1)"><rect fill="#C0C0C0" stroke="none" x="343" y="295" width="166.16162109375" height="60" opacity="0.2"/></g><g transform="translate(-158,-150) scale(1,1)"><rect fill="#ffffff" stroke="none" x="336" y="288" width="166.16162109375" height="60"/></g><g transform="translate(-158,-150) scale(1,1)"><path fill="none" stroke="#000000" d="M 336 288 L 502.16162109375 288 L 502.16162109375 348 L 336 348 L 336 288 Z Z" stroke-miterlimit="10"/></g><g transform="translate(-158,-150) scale(1,1)"><path fill="none" stroke="#000000" d="M 336 326 L 502.16162109375 326" stroke-miterlimit="10"/></g><g transform="translate(-158,-150) scale(1,1)"><g><path fill="none" stroke="none"/><text fill="#000000" stroke="none" font-family="Arial" font-size="13px" font-style="normal" font-weight="normal" text-decoration="none" x="386.92041015625" y="304">«interface»</text></g></g><g transform="translate(-158,-150) scale(1,1)"><g><path fill="none" stroke="none"/><text fill="#000000" stroke="none" font-family="Arial" font-size="13px" font-style="normal" font-weight="bold" text-decoration="none" x="393.80126953125" y="319">Monstre</text></g></g><g transform="translate(-158,-150) scale(1,1)"><g><path fill="none" stroke="none"/><text fill="#000000" stroke="none" font-family="Arial" font-size="13px" font-style="normal" font-weight="normal" text-decoration="none" x="341" y="342">+combattre(joueur: Joueur)</text></g></g><g transform="translate(-158,-150) scale(1,1)"><rect fill="#C0C0C0" stroke="none" x="399" y="183" width="166.16162109375" height="57" opacity="0.2"/></g><g transform="translate(-158,-150) scale(1,1)"><rect fill="#ffffff" stroke="none" x="392" y="176" width="166.16162109375" height="57"/></g><g transform="translate(-158,-150) scale(1,1)"><path fill="none" stroke="#000000" d="M 392 176 L 558.16162109375 176 L 558.16162109375 233 L 392 233 L 392 176 Z Z" stroke-miterlimit="10"/></g><g transform="translate(-158,-150) scale(1,1)"><path fill="none" stroke="#000000" d="M 392 201 L 558.16162109375 201" stroke-miterlimit="10"/></g><g transform="translate(-158,-150) scale(1,1)"><path fill="none" stroke="#000000" d="M 392 211 L 558.16162109375 211" stroke-miterlimit="10"/></g><g transform="translate(-158,-150) scale(1,1)"><g><path fill="none" stroke="none"/><text fill="#000000" stroke="none" font-family="Arial" font-size="13px" font-style="normal" font-weight="bold" text-decoration="none" x="457.739013671875" y="194">Slime</text></g></g><g transform="translate(-158,-150) scale(1,1)"><g><path fill="none" stroke="none"/><text fill="#000000" stroke="none" font-family="Arial" font-size="13px" font-style="normal" font-weight="normal" text-decoration="none" x="397" y="227">+combattre(joueur: Joueur)</text></g></g><g transform="translate(-158,-150) scale(1,1)"><rect fill="#C0C0C0" stroke="none" x="175" y="183" width="166.16162109375" height="57" opacity="0.2"/></g><g transform="translate(-158,-150) scale(1,1)"><rect fill="#ffffff" stroke="none" x="168" y="176" width="166.16162109375" height="57"/></g><g transform="translate(-158,-150) scale(1,1)"><path fill="none" stroke="#000000" d="M 168 176 L 334.16162109375 176 L 334.16162109375 233 L 168 233 L 168 176 Z Z" stroke-miterlimit="10"/></g><g transform="translate(-158,-150) scale(1,1)"><path fill="none" stroke="#000000" d="M 168 201 L 334.16162109375 201" stroke-miterlimit="10"/></g><g transform="translate(-158,-150) scale(1,1)"><path fill="none" stroke="#000000" d="M 168 211 L 334.16162109375 211" stroke-miterlimit="10"/></g><g transform="translate(-158,-150) scale(1,1)"><g><path fill="none" stroke="none"/><text fill="#000000" stroke="none" font-family="Arial" font-size="13px" font-style="normal" font-weight="bold" text-decoration="none" x="223.995361328125" y="194">Fantome</text></g></g><g transform="translate(-158,-150) scale(1,1)"><g><path fill="none" stroke="none"/><text fill="#000000" stroke="none" font-family="Arial" font-size="13px" font-style="normal" font-weight="normal" text-decoration="none" x="173" y="227">+combattre(joueur: Joueur)</text></g></g><g transform="translate(-158,-150) scale(1,1)"><path fill="none" stroke="#000000" d="M 472 233 L 472 288" stroke-miterlimit="10" stroke-dasharray="3"/></g><g transform="translate(-158,-150) scale(1,1)"><path fill="#FFFFFF" stroke="none" d="M 463.580964487968 267.6746502847517 L 472 288 L 480.419035512032 267.6746502847517"/></g><g transform="translate(-158,-150) scale(1,1)"><path fill="none" stroke="#000000" d="M 463.580964487968 267.6746502847517 L 472 288 L 480.419035512032 267.6746502847517 L 463.580964487968 267.6746502847517" stroke-miterlimit="10"/></g><g transform="translate(-158,-150) scale(1,1)"><path fill="none" stroke="#000000" d="M 334 220 L 358 220 L 358 288" stroke-miterlimit="10" stroke-dasharray="3"/></g><g transform="translate(-158,-150) scale(1,1)"><path fill="#FFFFFF" stroke="none" d="M 349.580964487968 267.6746502847517 L 358 288 L 366.419035512032 267.6746502847517"/></g><g transform="translate(-158,-150) scale(1,1)"><path fill="none" stroke="#000000" d="M 349.580964487968 267.6746502847517 L 358 288 L 366.419035512032 267.6746502847517 L 349.580964487968 267.6746502847517" stroke-miterlimit="10"/></g><g transform="translate(-158,-150) scale(1,1)"><rect fill="#C0C0C0" stroke="none" x="695" y="271" width="171.22705078125" height="85" opacity="0.2"/></g><g transform="translate(-158,-150) scale(1,1)"><rect fill="#ffffff" stroke="none" x="688" y="264" width="171.22705078125" height="85"/></g><g transform="translate(-158,-150) scale(1,1)"><path fill="none" stroke="#000000" d="M 688 264 L 859.22705078125 264 L 859.22705078125 349 L 688 349 L 688 264 Z Z" stroke-miterlimit="10"/></g><g transform="translate(-158,-150) scale(1,1)"><path fill="none" stroke="#000000" d="M 688 289 L 859.22705078125 289" stroke-miterlimit="10"/></g><g transform="translate(-158,-150) scale(1,1)"><path fill="none" stroke="#000000" d="M 688 312 L 859.22705078125 312" stroke-miterlimit="10"/></g><g transform="translate(-158,-150) scale(1,1)"><g><path fill="none" stroke="none"/><text fill="#000000" stroke="none" font-family="Arial" font-size="13px" font-style="normal" font-weight="bold" text-decoration="none" x="755.189453125" y="282">Arene</text></g></g><g transform="translate(-158,-150) scale(1,1)"><g><path fill="none" stroke="none"/><text fill="#000000" stroke="none" font-family="Arial" font-size="13px" font-style="normal" font-weight="normal" text-decoration="none" x="693" y="305">-combattant: Joueur</text></g></g><g transform="translate(-158,-150) scale(1,1)"><g><path fill="none" stroke="none"/><text fill="#000000" stroke="none" font-family="Arial" font-size="13px" font-style="normal" font-weight="normal" text-decoration="none" x="693" y="328">+Arene(combattant: Joueur)</text></g></g><g transform="translate(-158,-150) scale(1,1)"><g><path fill="none" stroke="none"/><text fill="#000000" stroke="none" font-family="Arial" font-size="13px" font-style="normal" font-weight="normal" text-decoration="none" x="693" y="343">+nouveauCombat()</text></g></g><g transform="translate(-158,-150) scale(1,1)"><rect fill="#C0C0C0" stroke="none" x="655" y="167" width="238.404296875" height="72" opacity="0.2"/></g><g transform="translate(-158,-150) scale(1,1)"><rect fill="#ffffff" stroke="none" x="648" y="160" width="238.404296875" height="72"/></g><g transform="translate(-158,-150) scale(1,1)"><path fill="none" stroke="#000000" d="M 648 160 L 886.404296875 160 L 886.404296875 232 L 648 232 L 648 160 Z Z" stroke-miterlimit="10"/></g><g transform="translate(-158,-150) scale(1,1)"><path fill="none" stroke="#000000" d="M 648 185 L 886.404296875 185" stroke-miterlimit="10"/></g><g transform="translate(-158,-150) scale(1,1)"><path fill="none" stroke="#000000" d="M 648 195 L 886.404296875 195" stroke-miterlimit="10"/></g><g transform="translate(-158,-150) scale(1,1)"><g><path fill="none" stroke="none"/><text fill="#000000" stroke="none" font-family="Arial" font-size="13px" font-style="normal" font-weight="bold" text-decoration="none" x="751.67578125" y="178">Zone</text></g></g><g transform="translate(-158,-150) scale(1,1)"><g><path fill="none" stroke="none"/><text fill="#000000" stroke="none" font-family="Arial" font-size="13px" font-style="normal" font-weight="normal" text-decoration="none" x="653" y="211">+traverserZoneNormale(joueur: Joueur)</text></g></g><g transform="translate(-158,-150) scale(1,1)"><path fill="none" stroke="#000000" d="M 648 202 L 558 202" stroke-miterlimit="10" stroke-dasharray="3"/></g><g transform="translate(-158,-150) scale(1,1)"><path fill="none" stroke="#000000" d="M 568.1626748576241 197.790482243984 L 558 202 L 568.1626748576241 206.209517756016" stroke-miterlimit="10"/></g><g transform="translate(-158,-150) scale(1,1)"><g><path fill="none" stroke="none"/><text fill="#000000" stroke="none" font-family="Arial" font-size="13px" font-style="normal" font-weight="normal" text-decoration="none" x="575.5" y="226.5">«create»</text></g></g><g transform="translate(-158,-150) scale(1,1)"><path fill="none" stroke="#000000" d="M 688 277 L 528 277 L 528 233" stroke-miterlimit="10" stroke-dasharray="3"/></g><g transform="translate(-158,-150) scale(1,1)"><path fill="none" stroke="#000000" d="M 532.209517756016 243.16267485762415 L 528 233 L 523.790482243984 243.16267485762415" stroke-miterlimit="10"/></g><g transform="translate(-158,-150) scale(1,1)"><g><path fill="none" stroke="none"/><text fill="#000000" stroke="none" font-family="Arial" font-size="13px" font-style="normal" font-weight="normal" text-decoration="none" x="574.5" y="297.5">«create»</text></g></g></g></svg>