<svg version="1.1" xmlns="http://www.w3.org/2000/svg" xmlns:xlink="http://www.w3.org/1999/xlink" width="798.271484375" height="409"><defs/><g><g transform="translate(-158,-166) scale(1,1)"><rect fill="#C0C0C0" stroke="none" x="343" y="295" width="166.16162109375" height="60" opacity="0.2"/></g><g transform="translate(-158,-166) scale(1,1)"><rect fill="#ffffff" stroke="none" x="336" y="288" width="166.16162109375" height="60"/></g><g transform="translate(-158,-166) scale(1,1)"><path fill="none" stroke="#000000" d="M 336 288 L 502.16162109375 288 L 502.16162109375 348 L 336 348 L 336 288 Z Z" stroke-miterlimit="10"/></g><g transform="translate(-158,-166) scale(1,1)"><path fill="none" stroke="#000000" d="M 336 326 L 502.16162109375 326" stroke-miterlimit="10"/></g><g transform="translate(-158,-166) scale(1,1)"><g><path fill="none" stroke="none"/><text fill="#000000" stroke="none" font-family="Arial" font-size="13px" font-style="normal" font-weight="normal" text-decoration="none" x="386.92041015625" y="304">«interface»</text></g></g><g transform="translate(-158,-166) scale(1,1)"><g><path fill="none" stroke="none"/><text fill="#000000" stroke="none" font-family="Arial" font-size="13px" font-style="normal" font-weight="bold" text-decoration="none" x="393.80126953125" y="319">Monstre</text></g></g><g transform="translate(-158,-166) scale(1,1)"><g><path fill="none" stroke="none"/><text fill="#000000" stroke="none" font-family="Arial" font-size="13px" font-style="normal" font-weight="normal" text-decoration="none" x="341" y="342">+combattre(joueur: Joueur)</text></g></g><g transform="translate(-158,-166) scale(1,1)"><rect fill="#C0C0C0" stroke="none" x="415" y="183" width="166.16162109375" height="57" opacity="0.2"/></g><g transform="translate(-158,-166) scale(1,1)"><rect fill="#ffffff" stroke="none" x="408" y="176" width="166.16162109375" height="57"/></g><g transform="translate(-158,-166) scale(1,1)"><path fill="none" stroke="#000000" d="M 408 176 L 574.16162109375 176 L 574.16162109375 233 L 408 233 L 408 176 Z Z" stroke-miterlimit="10"/></g><g transform="translate(-158,-166) scale(1,1)"><path fill="none" stroke="#000000" d="M 408 201 L 574.16162109375 201" stroke-miterlimit="10"/></g><g transform="translate(-158,-166) scale(1,1)"><path fill="none" stroke="#000000" d="M 408 211 L 574.16162109375 211" stroke-miterlimit="10"/></g><g transform="translate(-158,-166) scale(1,1)"><g><path fill="none" stroke="none"/><text fill="#000000" stroke="none" font-family="Arial" font-size="13px" font-style="normal" font-weight="bold" text-decoration="none" x="473.739013671875" y="194">Slime</text></g></g><g transform="translate(-158,-166) scale(1,1)"><g><path fill="none" stroke="none"/><text fill="#000000" stroke="none" font-family="Arial" font-size="13px" font-style="normal" font-weight="normal" text-decoration="none" x="413" y="227">+combattre(joueur: Joueur)</text></g></g><g transform="translate(-158,-166) scale(1,1)"><rect fill="#C0C0C0" stroke="none" x="175" y="183" width="166.16162109375" height="57" opacity="0.2"/></g><g transform="translate(-158,-166) scale(1,1)"><rect fill="#ffffff" stroke="none" x="168" y="176" width="166.16162109375" height="57"/></g><g transform="translate(-158,-166) scale(1,1)"><path fill="none" stroke="#000000" d="M 168 176 L 334.16162109375 176 L 334.16162109375 233 L 168 233 L 168 176 Z Z" stroke-miterlimit="10"/></g><g transform="translate(-158,-166) scale(1,1)"><path fill="none" stroke="#000000" d="M 168 201 L 334.16162109375 201" stroke-miterlimit="10"/></g><g transform="translate(-158,-166) scale(1,1)"><path fill="none" stroke="#000000" d="M 168 211 L 334.16162109375 211" stroke-miterlimit="10"/></g><g transform="translate(-158,-166) scale(1,1)"><g><path fill="none" stroke="none"/><text fill="#000000" stroke="none" font-family="Arial" font-size="13px" font-style="normal" font-weight="bold" text-decoration="none" x="223.995361328125" y="194">Fantome</text></g></g><g transform="translate(-158,-166) scale(1,1)"><g><path fill="none" stroke="none"/><text fill="#000000" stroke="none" font-family="Arial" font-size="13px" font-style="normal" font-weight="normal" text-decoration="none" x="173" y="227">+combattre(joueur: Joueur)</text></g></g><g transform="translate(-158,-166) scale(1,1)"><path fill="none" stroke="#000000" d="M 472 233 L 472 288" stroke-miterlimit="10" stroke-dasharray="3"/></g><g transform="translate(-158,-166) scale(1,1)"><path fill="#FFFFFF" stroke="none" d="M 463.580964487968 267.6746502847517 L 472 288 L 480.419035512032 267.6746502847517"/></g><g transform="translate(-158,-166) scale(1,1)"><path fill="none" stroke="#000000" d="M 463.580964487968 267.6746502847517 L 472 288 L 480.419035512032 267.6746502847517 L 463.580964487968 267.6746502847517" stroke-miterlimit="10"/></g><g transform="translate(-158,-166) scale(1,1)"><path fill="none" stroke="#000000" d="M 334 220 L 358 220 L 358 288" stroke-miterlimit="10" stroke-dasharray="3"/></g><g transform="translate(-158,-166) scale(1,1)"><path fill="#FFFFFF" stroke="none" d="M 349.580964487968 267.6746502847517 L 358 288 L 366.419035512032 267.6746502847517"/></g><g transform="translate(-158,-166) scale(1,1)"><path fill="none" stroke="#000000" d="M 349.580964487968 267.6746502847517 L 358 288 L 366.419035512032 267.6746502847517 L 349.580964487968 267.6746502847517" stroke-miterlimit="10"/></g><g transform="translate(-158,-166) scale(1,1)"><rect fill="#C0C0C0" stroke="none" x="639" y="487" width="314.271484375" height="85" opacity="0.2"/></g><g transform="translate(-158,-166) scale(1,1)"><rect fill="#ffffff" stroke="none" x="632" y="480" width="314.271484375" height="85"/></g><g transform="translate(-158,-166) scale(1,1)"><path fill="none" stroke="#000000" d="M 632 480 L 946.271484375 480 L 946.271484375 565 L 632 565 L 632 480 Z Z" stroke-miterlimit="10"/></g><g transform="translate(-158,-166) scale(1,1)"><path fill="none" stroke="#000000" d="M 632 505 L 946.271484375 505" stroke-miterlimit="10"/></g><g transform="translate(-158,-166) scale(1,1)"><path fill="none" stroke="#000000" d="M 632 528 L 946.271484375 528" stroke-miterlimit="10"/></g><g transform="translate(-158,-166) scale(1,1)"><g><path fill="none" stroke="none"/><text fill="#000000" stroke="none" font-family="Arial" font-size="13px" font-style="normal" font-weight="bold" text-decoration="none" x="770.711669921875" y="498">Arene</text></g></g><g transform="translate(-158,-166) scale(1,1)"><g><path fill="none" stroke="none"/><text fill="#000000" stroke="none" font-family="Arial" font-size="13px" font-style="normal" font-weight="normal" text-decoration="none" x="637" y="521">-combattant: Joueur</text></g></g><g transform="translate(-158,-166) scale(1,1)"><g><path fill="none" stroke="none"/><text fill="#000000" stroke="none" font-family="Arial" font-size="13px" font-style="normal" font-weight="normal" text-decoration="none" x="637" y="544">+Arene(combattant: Joueur, factory: MonstreFactory)</text></g></g><g transform="translate(-158,-166) scale(1,1)"><g><path fill="none" stroke="none"/><text fill="#000000" stroke="none" font-family="Arial" font-size="13px" font-style="normal" font-weight="normal" text-decoration="none" x="637" y="559">+nouveauCombat()</text></g></g><g transform="translate(-158,-166) scale(1,1)"><rect fill="#C0C0C0" stroke="none" x="703" y="255" width="238.404296875" height="72" opacity="0.2"/></g><g transform="translate(-158,-166) scale(1,1)"><rect fill="#ffffff" stroke="none" x="696" y="248" width="238.404296875" height="72"/></g><g transform="translate(-158,-166) scale(1,1)"><path fill="none" stroke="#000000" d="M 696 248 L 934.404296875 248 L 934.404296875 320 L 696 320 L 696 248 Z Z" stroke-miterlimit="10"/></g><g transform="translate(-158,-166) scale(1,1)"><path fill="none" stroke="#000000" d="M 696 273 L 934.404296875 273" stroke-miterlimit="10"/></g><g transform="translate(-158,-166) scale(1,1)"><path fill="none" stroke="#000000" d="M 696 283 L 934.404296875 283" stroke-miterlimit="10"/></g><g transform="translate(-158,-166) scale(1,1)"><g><path fill="none" stroke="none"/><text fill="#000000" stroke="none" font-family="Arial" font-size="13px" font-style="normal" font-weight="bold" text-decoration="none" x="799.67578125" y="266">Zone</text></g></g><g transform="translate(-158,-166) scale(1,1)"><g><path fill="none" stroke="none"/><text fill="#000000" stroke="none" font-family="Arial" font-size="13px" font-style="normal" font-weight="normal" text-decoration="none" x="701" y="299">+Zone(factory: MonstreFactory)</text></g></g><g transform="translate(-158,-166) scale(1,1)"><g><path fill="none" stroke="none"/><text fill="#000000" stroke="none" font-family="Arial" font-size="13px" font-style="normal" font-weight="normal" text-decoration="none" x="701" y="314">+traverserZoneNormale(joueur: Joueur)</text></g></g><g transform="translate(-158,-166) scale(1,1)"><path fill="none" stroke="#000000" d="M 528 376 L 528 233" stroke-miterlimit="10" stroke-dasharray="3"/></g><g transform="translate(-158,-166) scale(1,1)"><path fill="none" stroke="#000000" d="M 532.209517756016 243.16267485762415 L 528 233 L 523.790482243984 243.16267485762415" stroke-miterlimit="10"/></g><g transform="translate(-158,-166) scale(1,1)"><g><path fill="none" stroke="none"/><text fill="#000000" stroke="none" font-family="Arial" font-size="13px" font-style="normal" font-weight="normal" text-decoration="none" x="534.5" y="270.5">«create»</text></g></g><g transform="translate(-158,-166) scale(1,1)"><rect fill="#C0C0C0" stroke="none" x="463" y="383" width="156.01171875" height="57" opacity="0.2"/></g><g transform="translate(-158,-166) scale(1,1)"><rect fill="#ffffff" stroke="none" x="456" y="376" width="156.01171875" height="57"/></g><g transform="translate(-158,-166) scale(1,1)"><path fill="none" stroke="#000000" d="M 456 376 L 612.01171875 376 L 612.01171875 433 L 456 433 L 456 376 Z Z" stroke-miterlimit="10"/></g><g transform="translate(-158,-166) scale(1,1)"><path fill="none" stroke="#000000" d="M 456 401 L 612.01171875 401" stroke-miterlimit="10"/></g><g transform="translate(-158,-166) scale(1,1)"><path fill="none" stroke="#000000" d="M 456 411 L 612.01171875 411" stroke-miterlimit="10"/></g><g transform="translate(-158,-166) scale(1,1)"><g><path fill="none" stroke="none"/><text fill="#000000" stroke="none" font-family="Arial" font-size="13px" font-style="normal" font-weight="bold" text-decoration="none" x="485.246337890625" y="394">MonstreFactory</text></g></g><g transform="translate(-158,-166) scale(1,1)"><g><path fill="none" stroke="none"/><text fill="#000000" stroke="none" font-family="Arial" font-size="13px" font-style="normal" font-weight="normal" text-decoration="none" x="461" y="427">+creerMonstre(): Monstre</text></g></g><g transform="translate(-158,-166) scale(1,1)"><path fill="none" stroke="#000000" d="M 696 280 L 648 280 L 648 412 L 612 412" stroke-miterlimit="10"/></g><g transform="translate(-158,-166) scale(1,1)"><path fill="none" stroke="#000000" d="M 622.1626748576241 407.790482243984 L 612 412 L 622.1626748576241 416.209517756016" stroke-miterlimit="10"/></g><g transform="translate(-158,-166) scale(1,1)"><path fill="#FFFFFF" stroke="none" d="M 685.8373251423759 284.209517756016 L 696 280 L 685.8373251423758 275.790482243984 L 674 280"/></g><g transform="translate(-158,-166) scale(1,1)"><path fill="none" stroke="#000000" d="M 685.8373251423759 284.209517756016 L 696 280 L 685.8373251423758 275.790482243984 L 674 280 L 685.8373251423759 284.209517756016" stroke-miterlimit="10"/></g><g transform="translate(-158,-166) scale(1,1)"><g><path fill="none" stroke="none"/><text fill="#000000" stroke="none" font-family="Arial" font-size="13px" font-style="normal" font-weight="normal" text-decoration="none" x="615.5" y="431">-factory</text></g></g><g transform="translate(-158,-166) scale(1,1)"><g><path fill="none" stroke="none"/><text fill="#000000" stroke="none" font-family="Arial" font-size="13px" font-style="normal" font-weight="normal" text-decoration="none" x="629.5" y="404">1</text></g></g><g transform="translate(-158,-166) scale(1,1)"><path fill="none" stroke="#000000" d="M 632 522 L 534 522 L 534 433" stroke-miterlimit="10"/></g><g transform="translate(-158,-166) scale(1,1)"><path fill="none" stroke="#000000" d="M 538.209517756016 443.16267485762415 L 534 433 L 529.790482243984 443.16267485762415" stroke-miterlimit="10"/></g><g transform="translate(-158,-166) scale(1,1)"><path fill="#FFFFFF" stroke="none" d="M 621.8373251423759 526.209517756016 L 632 522 L 621.8373251423758 517.790482243984 L 610 522"/></g><g transform="translate(-158,-166) scale(1,1)"><path fill="none" stroke="#000000" d="M 621.8373251423759 526.209517756016 L 632 522 L 621.8373251423758 517.790482243984 L 610 522 L 621.8373251423759 526.209517756016" stroke-miterlimit="10"/></g><g transform="translate(-158,-166) scale(1,1)"><g><path fill="none" stroke="none"/><text fill="#000000" stroke="none" font-family="Arial" font-size="13px" font-style="normal" font-weight="normal" text-decoration="none" x="486.5" y="458">-factory</text></g></g><g transform="translate(-158,-166) scale(1,1)"><g><path fill="none" stroke="none"/><text fill="#000000" stroke="none" font-family="Arial" font-size="13px" font-style="normal" font-weight="normal" text-decoration="none" x="543.5" y="450">1</text></g></g></g></svg>