<svg version="1.1" xmlns="http://www.w3.org/2000/svg" xmlns:xlink="http://www.w3.org/1999/xlink" width="543.57080078125" height="581"><defs/><g><g transform="translate(-212,-398) scale(1,1)"><rect fill="#C0C0C0" stroke="none" x="303" y="415" width="89.57080078125" height="60" opacity="0.2"/></g><g transform="translate(-212,-398) scale(1,1)"><rect fill="#ffffff" stroke="none" x="296" y="408" width="89.57080078125" height="60"/></g><g transform="translate(-212,-398) scale(1,1)"><path fill="none" stroke="#000000" d="M 296 408 L 385.57080078125 408 L 385.57080078125 468 L 296 468 L 296 408 Z Z" stroke-miterlimit="10"/></g><g transform="translate(-212,-398) scale(1,1)"><path fill="none" stroke="#000000" d="M 296 446 L 385.57080078125 446" stroke-miterlimit="10"/></g><g transform="translate(-212,-398) scale(1,1)"><g><path fill="none" stroke="none"/><text fill="#000000" stroke="none" font-family="Arial" font-size="13px" font-style="normal" font-weight="normal" text-decoration="none" x="308.625" y="424">«interface»</text></g></g><g transform="translate(-212,-398) scale(1,1)"><g><path fill="none" stroke="none"/><text fill="#000000" stroke="none" font-family="Arial" font-size="13px" font-style="normal" font-weight="bold" text-decoration="none" x="312.96044921875" y="439">ServiceA</text></g></g><g transform="translate(-212,-398) scale(1,1)"><g><path fill="none" stroke="none"/><text fill="#000000" stroke="none" font-family="Arial" font-size="13px" font-style="normal" font-weight="normal" text-decoration="none" x="301" y="462">+actionA()</text></g></g><g transform="translate(-212,-398) scale(1,1)"><rect fill="#C0C0C0" stroke="none" x="567" y="415" width="89.57080078125" height="60" opacity="0.2"/></g><g transform="translate(-212,-398) scale(1,1)"><rect fill="#ffffff" stroke="none" x="560" y="408" width="89.57080078125" height="60"/></g><g transform="translate(-212,-398) scale(1,1)"><path fill="none" stroke="#000000" d="M 560 408 L 649.57080078125 408 L 649.57080078125 468 L 560 468 L 560 408 Z Z" stroke-miterlimit="10"/></g><g transform="translate(-212,-398) scale(1,1)"><path fill="none" stroke="#000000" d="M 560 446 L 649.57080078125 446" stroke-miterlimit="10"/></g><g transform="translate(-212,-398) scale(1,1)"><g><path fill="none" stroke="none"/><text fill="#000000" stroke="none" font-family="Arial" font-size="13px" font-style="normal" font-weight="normal" text-decoration="none" x="572.625" y="424">«interface»</text></g></g><g transform="translate(-212,-398) scale(1,1)"><g><path fill="none" stroke="none"/><text fill="#000000" stroke="none" font-family="Arial" font-size="13px" font-style="normal" font-weight="bold" text-decoration="none" x="576.96044921875" y="439">ServiceB</text></g></g><g transform="translate(-212,-398) scale(1,1)"><g><path fill="none" stroke="none"/><text fill="#000000" stroke="none" font-family="Arial" font-size="13px" font-style="normal" font-weight="normal" text-decoration="none" x="565" y="462">+actionB()</text></g></g><g transform="translate(-212,-398) scale(1,1)"><rect fill="#C0C0C0" stroke="none" x="239" y="527" width="89.57080078125" height="57" opacity="0.2"/></g><g transform="translate(-212,-398) scale(1,1)"><rect fill="#ffffff" stroke="none" x="232" y="520" width="89.57080078125" height="57"/></g><g transform="translate(-212,-398) scale(1,1)"><path fill="none" stroke="#000000" d="M 232 520 L 321.57080078125 520 L 321.57080078125 577 L 232 577 L 232 520 Z Z" stroke-miterlimit="10"/></g><g transform="translate(-212,-398) scale(1,1)"><path fill="none" stroke="#000000" d="M 232 545 L 321.57080078125 545" stroke-miterlimit="10"/></g><g transform="translate(-212,-398) scale(1,1)"><path fill="none" stroke="#000000" d="M 232 555 L 321.57080078125 555" stroke-miterlimit="10"/></g><g transform="translate(-212,-398) scale(1,1)"><g><path fill="none" stroke="none"/><text fill="#000000" stroke="none" font-family="Arial" font-size="13px" font-style="normal" font-weight="bold" text-decoration="none" x="245.345458984375" y="538">ServiceA1</text></g></g><g transform="translate(-212,-398) scale(1,1)"><g><path fill="none" stroke="none"/><text fill="#000000" stroke="none" font-family="Arial" font-size="13px" font-style="normal" font-weight="normal" text-decoration="none" x="237" y="571">+actionA()</text></g></g><g transform="translate(-212,-398) scale(1,1)"><rect fill="#C0C0C0" stroke="none" x="359" y="527" width="89.57080078125" height="57" opacity="0.2"/></g><g transform="translate(-212,-398) scale(1,1)"><rect fill="#ffffff" stroke="none" x="352" y="520" width="89.57080078125" height="57"/></g><g transform="translate(-212,-398) scale(1,1)"><path fill="none" stroke="#000000" d="M 352 520 L 441.57080078125 520 L 441.57080078125 577 L 352 577 L 352 520 Z Z" stroke-miterlimit="10"/></g><g transform="translate(-212,-398) scale(1,1)"><path fill="none" stroke="#000000" d="M 352 545 L 441.57080078125 545" stroke-miterlimit="10"/></g><g transform="translate(-212,-398) scale(1,1)"><path fill="none" stroke="#000000" d="M 352 555 L 441.57080078125 555" stroke-miterlimit="10"/></g><g transform="translate(-212,-398) scale(1,1)"><g><path fill="none" stroke="none"/><text fill="#000000" stroke="none" font-family="Arial" font-size="13px" font-style="normal" font-weight="bold" text-decoration="none" x="365.345458984375" y="538">ServiceA2</text></g></g><g transform="translate(-212,-398) scale(1,1)"><g><path fill="none" stroke="none"/><text fill="#000000" stroke="none" font-family="Arial" font-size="13px" font-style="normal" font-weight="normal" text-decoration="none" x="357" y="571">+actionA()</text></g></g><g transform="translate(-212,-398) scale(1,1)"><rect fill="#C0C0C0" stroke="none" x="519" y="527" width="89.57080078125" height="57" opacity="0.2"/></g><g transform="translate(-212,-398) scale(1,1)"><rect fill="#ffffff" stroke="none" x="512" y="520" width="89.57080078125" height="57"/></g><g transform="translate(-212,-398) scale(1,1)"><path fill="none" stroke="#000000" d="M 512 520 L 601.57080078125 520 L 601.57080078125 577 L 512 577 L 512 520 Z Z" stroke-miterlimit="10"/></g><g transform="translate(-212,-398) scale(1,1)"><path fill="none" stroke="#000000" d="M 512 545 L 601.57080078125 545" stroke-miterlimit="10"/></g><g transform="translate(-212,-398) scale(1,1)"><path fill="none" stroke="#000000" d="M 512 555 L 601.57080078125 555" stroke-miterlimit="10"/></g><g transform="translate(-212,-398) scale(1,1)"><g><path fill="none" stroke="none"/><text fill="#000000" stroke="none" font-family="Arial" font-size="13px" font-style="normal" font-weight="bold" text-decoration="none" x="525.345458984375" y="538">ServiceB1</text></g></g><g transform="translate(-212,-398) scale(1,1)"><g><path fill="none" stroke="none"/><text fill="#000000" stroke="none" font-family="Arial" font-size="13px" font-style="normal" font-weight="normal" text-decoration="none" x="517" y="571">+actionB()</text></g></g><g transform="translate(-212,-398) scale(1,1)"><rect fill="#C0C0C0" stroke="none" x="663" y="527" width="89.57080078125" height="57" opacity="0.2"/></g><g transform="translate(-212,-398) scale(1,1)"><rect fill="#ffffff" stroke="none" x="656" y="520" width="89.57080078125" height="57"/></g><g transform="translate(-212,-398) scale(1,1)"><path fill="none" stroke="#000000" d="M 656 520 L 745.57080078125 520 L 745.57080078125 577 L 656 577 L 656 520 Z Z" stroke-miterlimit="10"/></g><g transform="translate(-212,-398) scale(1,1)"><path fill="none" stroke="#000000" d="M 656 545 L 745.57080078125 545" stroke-miterlimit="10"/></g><g transform="translate(-212,-398) scale(1,1)"><path fill="none" stroke="#000000" d="M 656 555 L 745.57080078125 555" stroke-miterlimit="10"/></g><g transform="translate(-212,-398) scale(1,1)"><g><path fill="none" stroke="none"/><text fill="#000000" stroke="none" font-family="Arial" font-size="13px" font-style="normal" font-weight="bold" text-decoration="none" x="669.345458984375" y="538">ServiceB2</text></g></g><g transform="translate(-212,-398) scale(1,1)"><g><path fill="none" stroke="none"/><text fill="#000000" stroke="none" font-family="Arial" font-size="13px" font-style="normal" font-weight="normal" text-decoration="none" x="661" y="571">+actionB()</text></g></g><g transform="translate(-212,-398) scale(1,1)"><rect fill="#C0C0C0" stroke="none" x="255" y="647" width="154.58349609375" height="72" opacity="0.2"/></g><g transform="translate(-212,-398) scale(1,1)"><rect fill="#ffffff" stroke="none" x="248" y="640" width="154.58349609375" height="72"/></g><g transform="translate(-212,-398) scale(1,1)"><path fill="none" stroke="#000000" d="M 248 640 L 402.58349609375 640 L 402.58349609375 712 L 248 712 L 248 640 Z Z" stroke-miterlimit="10"/></g><g transform="translate(-212,-398) scale(1,1)"><path fill="none" stroke="#000000" d="M 248 665 L 402.58349609375 665" stroke-miterlimit="10"/></g><g transform="translate(-212,-398) scale(1,1)"><path fill="none" stroke="#000000" d="M 248 675 L 402.58349609375 675" stroke-miterlimit="10"/></g><g transform="translate(-212,-398) scale(1,1)"><g><path fill="none" stroke="none"/><text fill="#000000" stroke="none" font-family="Arial" font-size="13px" font-style="normal" font-weight="bold" text-decoration="none" x="270.73046875" y="658">ServiceV1Factory</text></g></g><g transform="translate(-212,-398) scale(1,1)"><g><path fill="none" stroke="none"/><text fill="#000000" stroke="none" font-family="Arial" font-size="13px" font-style="normal" font-weight="normal" text-decoration="none" x="253" y="691">+getServiceA(): ServiceA</text></g></g><g transform="translate(-212,-398) scale(1,1)"><g><path fill="none" stroke="none"/><text fill="#000000" stroke="none" font-family="Arial" font-size="13px" font-style="normal" font-weight="normal" text-decoration="none" x="253" y="706">+getServiceB(): ServiceB</text></g></g><g transform="translate(-212,-398) scale(1,1)"><rect fill="#C0C0C0" stroke="none" x="543" y="647" width="154.58349609375" height="72" opacity="0.2"/></g><g transform="translate(-212,-398) scale(1,1)"><rect fill="#ffffff" stroke="none" x="536" y="640" width="154.58349609375" height="72"/></g><g transform="translate(-212,-398) scale(1,1)"><path fill="none" stroke="#000000" d="M 536 640 L 690.58349609375 640 L 690.58349609375 712 L 536 712 L 536 640 Z Z" stroke-miterlimit="10"/></g><g transform="translate(-212,-398) scale(1,1)"><path fill="none" stroke="#000000" d="M 536 665 L 690.58349609375 665" stroke-miterlimit="10"/></g><g transform="translate(-212,-398) scale(1,1)"><path fill="none" stroke="#000000" d="M 536 675 L 690.58349609375 675" stroke-miterlimit="10"/></g><g transform="translate(-212,-398) scale(1,1)"><g><path fill="none" stroke="none"/><text fill="#000000" stroke="none" font-family="Arial" font-size="13px" font-style="normal" font-weight="bold" text-decoration="none" x="558.73046875" y="658">ServiceV2Factory</text></g></g><g transform="translate(-212,-398) scale(1,1)"><g><path fill="none" stroke="none"/><text fill="#000000" stroke="none" font-family="Arial" font-size="13px" font-style="normal" font-weight="normal" text-decoration="none" x="541" y="691">+getServiceA(): ServiceA</text></g></g><g transform="translate(-212,-398) scale(1,1)"><g><path fill="none" stroke="none"/><text fill="#000000" stroke="none" font-family="Arial" font-size="13px" font-style="normal" font-weight="normal" text-decoration="none" x="541" y="706">+getServiceB(): ServiceB</text></g></g><g transform="translate(-212,-398) scale(1,1)"><path fill="none" stroke="#000000" d="M 264 520 L 264 448 L 296 448" stroke-miterlimit="10" stroke-dasharray="3"/></g><g transform="translate(-212,-398) scale(1,1)"><path fill="#FFFFFF" stroke="none" d="M 275.6746502847517 456.419035512032 L 296 448 L 275.6746502847517 439.580964487968"/></g><g transform="translate(-212,-398) scale(1,1)"><path fill="none" stroke="#000000" d="M 275.6746502847517 456.419035512032 L 296 448 L 275.6746502847517 439.580964487968 L 275.6746502847517 456.419035512032" stroke-miterlimit="10"/></g><g transform="translate(-212,-398) scale(1,1)"><path fill="none" stroke="#000000" d="M 416 520 L 416 448 L 386 448" stroke-miterlimit="10" stroke-dasharray="3"/></g><g transform="translate(-212,-398) scale(1,1)"><path fill="#FFFFFF" stroke="none" d="M 406.3253497152483 439.580964487968 L 386 448 L 406.3253497152483 456.419035512032"/></g><g transform="translate(-212,-398) scale(1,1)"><path fill="none" stroke="#000000" d="M 406.3253497152483 439.580964487968 L 386 448 L 406.3253497152483 456.419035512032 L 406.3253497152483 439.580964487968" stroke-miterlimit="10"/></g><g transform="translate(-212,-398) scale(1,1)"><path fill="none" stroke="#000000" d="M 528 520 L 528 440 L 560 440" stroke-miterlimit="10" stroke-dasharray="3"/></g><g transform="translate(-212,-398) scale(1,1)"><path fill="#FFFFFF" stroke="none" d="M 539.6746502847517 448.419035512032 L 560 440 L 539.6746502847517 431.580964487968"/></g><g transform="translate(-212,-398) scale(1,1)"><path fill="none" stroke="#000000" d="M 539.6746502847517 448.419035512032 L 560 440 L 539.6746502847517 431.580964487968 L 539.6746502847517 448.419035512032" stroke-miterlimit="10"/></g><g transform="translate(-212,-398) scale(1,1)"><path fill="none" stroke="#000000" d="M 688 520 L 688 432 L 650 432" stroke-miterlimit="10" stroke-dasharray="3"/></g><g transform="translate(-212,-398) scale(1,1)"><path fill="#FFFFFF" stroke="none" d="M 670.3253497152483 423.580964487968 L 650 432 L 670.3253497152483 440.419035512032"/></g><g transform="translate(-212,-398) scale(1,1)"><path fill="none" stroke="#000000" d="M 670.3253497152483 423.580964487968 L 650 432 L 670.3253497152483 440.419035512032 L 670.3253497152483 423.580964487968" stroke-miterlimit="10"/></g><g transform="translate(-212,-398) scale(1,1)"><path fill="none" stroke="#000000" d="M 291 640 L 291 577" stroke-miterlimit="10"/></g><g transform="translate(-212,-398) scale(1,1)"><path fill="none" stroke="#000000" d="M 295.209517756016 587.1626748576241 L 291 577 L 286.790482243984 587.1626748576241" stroke-miterlimit="10"/></g><g transform="translate(-212,-398) scale(1,1)"><g><path fill="none" stroke="none"/><text fill="#000000" stroke="none" font-family="Arial" font-size="13px" font-style="normal" font-weight="normal" text-decoration="none" x="221.5" y="606">-serviceA</text></g></g><g transform="translate(-212,-398) scale(1,1)"><g><path fill="none" stroke="none"/><text fill="#000000" stroke="none" font-family="Arial" font-size="13px" font-style="normal" font-weight="normal" text-decoration="none" x="299.5" y="603">1</text></g></g><g transform="translate(-212,-398) scale(1,1)"><path fill="none" stroke="#000000" d="M 403 676 L 480 676 L 480 552 L 512 552" stroke-miterlimit="10"/></g><g transform="translate(-212,-398) scale(1,1)"><path fill="none" stroke="#000000" d="M 501.83732514237585 556.209517756016 L 512 552 L 501.83732514237585 547.790482243984" stroke-miterlimit="10"/></g><g transform="translate(-212,-398) scale(1,1)"><g><path fill="none" stroke="none"/><text fill="#000000" stroke="none" font-family="Arial" font-size="13px" font-style="normal" font-weight="normal" text-decoration="none" x="454.5" y="540">-serviceB</text></g></g><g transform="translate(-212,-398) scale(1,1)"><g><path fill="none" stroke="none"/><text fill="#000000" stroke="none" font-family="Arial" font-size="13px" font-style="normal" font-weight="normal" text-decoration="none" x="486.5" y="569">1</text></g></g><g transform="translate(-212,-398) scale(1,1)"><path fill="none" stroke="#000000" d="M 536 664 L 424 664 L 424 577" stroke-miterlimit="10"/></g><g transform="translate(-212,-398) scale(1,1)"><path fill="none" stroke="#000000" d="M 428.209517756016 587.1626748576241 L 424 577 L 419.790482243984 587.1626748576241" stroke-miterlimit="10"/></g><g transform="translate(-212,-398) scale(1,1)"><g><path fill="none" stroke="none"/><text fill="#000000" stroke="none" font-family="Arial" font-size="13px" font-style="normal" font-weight="normal" text-decoration="none" x="349.5" y="606">-serviceA</text></g></g><g transform="translate(-212,-398) scale(1,1)"><g><path fill="none" stroke="none"/><text fill="#000000" stroke="none" font-family="Arial" font-size="13px" font-style="normal" font-weight="normal" text-decoration="none" x="407.5" y="595">1</text></g></g><g transform="translate(-212,-398) scale(1,1)"><path fill="none" stroke="#000000" d="M 672 640 L 672 577" stroke-miterlimit="10"/></g><g transform="translate(-212,-398) scale(1,1)"><path fill="none" stroke="#000000" d="M 676.209517756016 587.1626748576241 L 672 577 L 667.790482243984 587.1626748576241" stroke-miterlimit="10"/></g><g transform="translate(-212,-398) scale(1,1)"><g><path fill="none" stroke="none"/><text fill="#000000" stroke="none" font-family="Arial" font-size="13px" font-style="normal" font-weight="normal" text-decoration="none" x="614.5" y="603">-serviceB</text></g></g><g transform="translate(-212,-398) scale(1,1)"><g><path fill="none" stroke="none"/><text fill="#000000" stroke="none" font-family="Arial" font-size="13px" font-style="normal" font-weight="normal" text-decoration="none" x="680.5" y="594">1</text></g></g><g transform="translate(-212,-398) scale(1,1)"><rect fill="#C0C0C0" stroke="none" x="375" y="783" width="234.0625" height="100" opacity="0.2"/></g><g transform="translate(-212,-398) scale(1,1)"><rect fill="#ffffff" stroke="none" x="368" y="776" width="234.0625" height="100"/></g><g transform="translate(-212,-398) scale(1,1)"><path fill="none" stroke="#000000" d="M 368 776 L 602.0625 776 L 602.0625 876 L 368 876 L 368 776 Z Z" stroke-miterlimit="10"/></g><g transform="translate(-212,-398) scale(1,1)"><path fill="none" stroke="#000000" d="M 368 801 L 602.0625 801" stroke-miterlimit="10"/></g><g transform="translate(-212,-398) scale(1,1)"><path fill="none" stroke="#000000" d="M 368 824 L 602.0625 824" stroke-miterlimit="10"/></g><g transform="translate(-212,-398) scale(1,1)"><g><path fill="none" stroke="none"/><text fill="#000000" stroke="none" font-family="Arial" font-size="13px" font-style="italic" font-weight="bold" text-decoration="none" x="412.05224609375" y="794">AbstractServiceFactory</text></g></g><g transform="translate(-212,-398) scale(1,1)"><g><path fill="none" stroke="none"/><text fill="#000000" stroke="none" font-family="Arial" font-size="13px" font-style="normal" font-weight="normal" text-decoration="none" x="373" y="817">-INSTANCE: AbstractServiceFactory</text><path fill="none" stroke="#000000" d="M 373 818.5 L 583.69140625 818.5" stroke-miterlimit="10"/></g></g><g transform="translate(-212,-398) scale(1,1)"><g><path fill="none" stroke="none"/><text fill="#000000" stroke="none" font-family="Arial" font-size="13px" font-style="normal" font-weight="normal" text-decoration="none" x="373" y="840">+getInstance(): AbstractServiceFactory</text><path fill="none" stroke="#000000" d="M 373 841.5 L 598.0625 841.5" stroke-miterlimit="10"/></g></g><g transform="translate(-212,-398) scale(1,1)"><g><path fill="none" stroke="none"/><text fill="#000000" stroke="none" font-family="Arial" font-size="13px" font-style="italic" font-weight="normal" text-decoration="none" x="373" y="855">+getServiceA(): ServiceA</text></g></g><g transform="translate(-212,-398) scale(1,1)"><g><path fill="none" stroke="none"/><text fill="#000000" stroke="none" font-family="Arial" font-size="13px" font-style="normal" font-weight="normal" text-decoration="none" x="373" y="870">+getServiceB(): ServiceB</text></g></g><g transform="translate(-212,-398) scale(1,1)"><path fill="none" stroke="#000000" d="M 325 712 L 325 834 L 368 834" stroke-miterlimit="10"/></g><g transform="translate(-212,-398) scale(1,1)"><path fill="#FFFFFF" stroke="none" d="M 347.6746502847517 842.419035512032 L 368 834 L 347.6746502847517 825.580964487968"/></g><g transform="translate(-212,-398) scale(1,1)"><path fill="none" stroke="#000000" d="M 347.6746502847517 842.419035512032 L 368 834 L 347.6746502847517 825.580964487968 L 347.6746502847517 842.419035512032" stroke-miterlimit="10"/></g><g transform="translate(-212,-398) scale(1,1)"><path fill="none" stroke="#000000" d="M 637 712 L 637 832 L 602 832" stroke-miterlimit="10"/></g><g transform="translate(-212,-398) scale(1,1)"><path fill="#FFFFFF" stroke="none" d="M 622.3253497152483 823.580964487968 L 602 832 L 622.3253497152483 840.419035512032"/></g><g transform="translate(-212,-398) scale(1,1)"><path fill="none" stroke="#000000" d="M 622.3253497152483 823.580964487968 L 602 832 L 622.3253497152483 840.419035512032 L 622.3253497152483 823.580964487968" stroke-miterlimit="10"/></g><g transform="translate(-212,-398) scale(1,1)"><rect fill="#C0C0C0" stroke="none" x="423" y="919" width="132.1826171875" height="57" opacity="0.2"/></g><g transform="translate(-212,-398) scale(1,1)"><rect fill="#ffffff" stroke="none" x="416" y="912" width="132.1826171875" height="57"/></g><g transform="translate(-212,-398) scale(1,1)"><path fill="none" stroke="#000000" d="M 416 912 L 548.1826171875 912 L 548.1826171875 969 L 416 969 L 416 912 Z Z" stroke-miterlimit="10"/></g><g transform="translate(-212,-398) scale(1,1)"><path fill="none" stroke="#000000" d="M 419 912 L 419 969" stroke-miterlimit="10"/></g><g transform="translate(-212,-398) scale(1,1)"><path fill="none" stroke="#000000" d="M 545.1826171875 912 L 545.1826171875 969" stroke-miterlimit="10"/></g><g transform="translate(-212,-398) scale(1,1)"><path fill="none" stroke="#000000" d="M 416 937 L 548.1826171875 937" stroke-miterlimit="10"/></g><g transform="translate(-212,-398) scale(1,1)"><path fill="none" stroke="#000000" d="M 416 947 L 548.1826171875 947" stroke-miterlimit="10"/></g><g transform="translate(-212,-398) scale(1,1)"><g><path fill="none" stroke="none"/><text fill="#000000" stroke="none" font-family="Arial" font-size="13px" font-style="normal" font-weight="bold" text-decoration="none" x="467.285400390625" y="930">Main</text></g></g><g transform="translate(-212,-398) scale(1,1)"><g><path fill="none" stroke="none"/><text fill="#000000" stroke="none" font-family="Arial" font-size="13px" font-style="normal" font-weight="normal" text-decoration="none" x="421" y="963">+main(args: String[*])</text><path fill="none" stroke="#000000" d="M 421 964.5 L 544.1826171875 964.5" stroke-miterlimit="10"/></g></g><g transform="translate(-212,-398) scale(1,1)"><path fill="none" stroke="#000000" d="M 484 912 L 484 876" stroke-miterlimit="10" stroke-dasharray="3"/></g><g transform="translate(-212,-398) scale(1,1)"><path fill="none" stroke="#000000" d="M 488.209517756016 886.1626748576241 L 484 876 L 479.790482243984 886.1626748576241" stroke-miterlimit="10"/></g></g></svg>