<svg version="1.1" xmlns="http://www.w3.org/2000/svg" xmlns:xlink="http://www.w3.org/1999/xlink" width="675" height="564"><defs/><g><g transform="translate(-15,-30) scale(1,1)"><rect fill="#C0C0C0" stroke="none" x="103" y="271" width="214.54345703125" height="72" opacity="0.2"/></g><g transform="translate(-15,-30) scale(1,1)"><rect fill="#ffffff" stroke="none" x="96" y="264" width="214.54345703125" height="72"/></g><g transform="translate(-15,-30) scale(1,1)"><path fill="none" stroke="#000000" d="M 96 264 L 310.54345703125 264 L 310.54345703125 336 L 96 336 L 96 264 Z Z" stroke-miterlimit="10"/></g><g transform="translate(-15,-30) scale(1,1)"><path fill="none" stroke="#000000" d="M 96 289 L 310.54345703125 289" stroke-miterlimit="10"/></g><g transform="translate(-15,-30) scale(1,1)"><path fill="none" stroke="#000000" d="M 96 299 L 310.54345703125 299" stroke-miterlimit="10"/></g><g transform="translate(-15,-30) scale(1,1)"><g><path fill="none" stroke="none"/><text fill="#000000" stroke="none" font-family="Arial" font-size="13px" font-style="normal" font-weight="bold" text-decoration="none" x="154.51220703125" y="282">FabriqueSimple</text></g></g><g transform="translate(-15,-30) scale(1,1)"><g><path fill="none" stroke="none"/><text fill="#000000" stroke="none" font-family="Arial" font-size="13px" font-style="normal" font-weight="normal" text-decoration="none" x="101" y="315">+creerService(type: String): Service</text></g></g><g transform="translate(-15,-30) scale(1,1)"><rect fill="#C0C0C0" stroke="none" x="135" y="143" width="89.57080078125" height="72" opacity="0.2"/></g><g transform="translate(-15,-30) scale(1,1)"><rect fill="#ffffff" stroke="none" x="128" y="136" width="89.57080078125" height="72"/></g><g transform="translate(-15,-30) scale(1,1)"><path fill="none" stroke="#000000" d="M 128 136 L 217.57080078125 136 L 217.57080078125 208 L 128 208 L 128 136 Z Z" stroke-miterlimit="10"/></g><g transform="translate(-15,-30) scale(1,1)"><path fill="none" stroke="#000000" d="M 128 161 L 217.57080078125 161" stroke-miterlimit="10"/></g><g transform="translate(-15,-30) scale(1,1)"><path fill="none" stroke="#000000" d="M 128 171 L 217.57080078125 171" stroke-miterlimit="10"/></g><g transform="translate(-15,-30) scale(1,1)"><g><path fill="none" stroke="none"/><text fill="#000000" stroke="none" font-family="Arial" font-size="13px" font-style="normal" font-weight="bold" text-decoration="none" x="144.96044921875" y="154">ServiceA</text></g></g><g transform="translate(-15,-30) scale(1,1)"><g><path fill="none" stroke="none"/><text fill="#000000" stroke="none" font-family="Arial" font-size="13px" font-style="normal" font-weight="normal" text-decoration="none" x="133" y="187">+action()</text></g></g><g transform="translate(-15,-30) scale(1,1)"><rect fill="#C0C0C0" stroke="none" x="407" y="127" width="136" height="72" opacity="0.2"/></g><g transform="translate(-15,-30) scale(1,1)"><rect fill="#ffffff" stroke="none" x="400" y="120" width="136" height="72"/></g><g transform="translate(-15,-30) scale(1,1)"><path fill="none" stroke="#000000" d="M 400 120 L 536 120 L 536 192 L 400 192 L 400 120 Z Z" stroke-miterlimit="10"/></g><g transform="translate(-15,-30) scale(1,1)"><path fill="none" stroke="#000000" d="M 400 158 L 536 158" stroke-miterlimit="10"/></g><g transform="translate(-15,-30) scale(1,1)"><g><path fill="none" stroke="none"/><text fill="#000000" stroke="none" font-family="Arial" font-size="13px" font-style="normal" font-weight="normal" text-decoration="none" x="435.839599609375" y="136">«interface»</text></g></g><g transform="translate(-15,-30) scale(1,1)"><g><path fill="none" stroke="none"/><text fill="#000000" stroke="none" font-family="Arial" font-size="13px" font-style="normal" font-weight="bold" text-decoration="none" x="417.774169921875" y="151">ServiceInterface</text></g></g><g transform="translate(-15,-30) scale(1,1)"><g><path fill="none" stroke="none"/><text fill="#000000" stroke="none" font-family="Arial" font-size="13px" font-style="normal" font-weight="normal" text-decoration="none" x="405" y="174">+action()</text></g></g><g transform="translate(-15,-30) scale(1,1)"><path fill="none" stroke="#000000" d="M 218 168 L 400 168" stroke-miterlimit="10" stroke-dasharray="3"/></g><g transform="translate(-15,-30) scale(1,1)"><path fill="#FFFFFF" stroke="none" d="M 379.6746502847517 176.41903551203197 L 400 168 L 379.6746502847517 159.58096448796803"/></g><g transform="translate(-15,-30) scale(1,1)"><path fill="none" stroke="#000000" d="M 379.6746502847517 176.41903551203197 L 400 168 L 379.6746502847517 159.58096448796803 L 379.6746502847517 176.41903551203197" stroke-miterlimit="10"/></g><g transform="translate(-15,-30) scale(1,1)"><rect fill="#C0C0C0" stroke="none" x="223" y="47" width="89.57080078125" height="57" opacity="0.2"/></g><g transform="translate(-15,-30) scale(1,1)"><rect fill="#ffffff" stroke="none" x="216" y="40" width="89.57080078125" height="57"/></g><g transform="translate(-15,-30) scale(1,1)"><path fill="none" stroke="#000000" d="M 216 40 L 305.57080078125 40 L 305.57080078125 97 L 216 97 L 216 40 Z Z" stroke-miterlimit="10"/></g><g transform="translate(-15,-30) scale(1,1)"><path fill="none" stroke="#000000" d="M 216 65 L 305.57080078125 65" stroke-miterlimit="10"/></g><g transform="translate(-15,-30) scale(1,1)"><path fill="none" stroke="#000000" d="M 216 75 L 305.57080078125 75" stroke-miterlimit="10"/></g><g transform="translate(-15,-30) scale(1,1)"><g><path fill="none" stroke="none"/><text fill="#000000" stroke="none" font-family="Arial" font-size="13px" font-style="normal" font-weight="bold" text-decoration="none" x="232.96044921875" y="58">ServiceB</text></g></g><g transform="translate(-15,-30) scale(1,1)"><g><path fill="none" stroke="none"/><text fill="#000000" stroke="none" font-family="Arial" font-size="13px" font-style="normal" font-weight="normal" text-decoration="none" x="221" y="91">+action()</text></g></g><g transform="translate(-15,-30) scale(1,1)"><path fill="none" stroke="#000000" d="M 300 97 L 300 136 L 400 136" stroke-miterlimit="10" stroke-dasharray="3"/></g><g transform="translate(-15,-30) scale(1,1)"><path fill="#FFFFFF" stroke="none" d="M 379.6746502847517 144.41903551203197 L 400 136 L 379.6746502847517 127.58096448796803"/></g><g transform="translate(-15,-30) scale(1,1)"><path fill="none" stroke="#000000" d="M 379.6746502847517 144.41903551203197 L 400 136 L 379.6746502847517 127.58096448796803 L 379.6746502847517 144.41903551203197" stroke-miterlimit="10"/></g><g transform="translate(-15,-30) scale(1,1)"><rect fill="#C0C0C0" stroke="none" x="415" y="271" width="219.63427734375" height="72" opacity="0.2"/></g><g transform="translate(-15,-30) scale(1,1)"><rect fill="#ffffff" stroke="none" x="408" y="264" width="219.63427734375" height="72"/></g><g transform="translate(-15,-30) scale(1,1)"><path fill="none" stroke="#000000" d="M 408 264 L 627.63427734375 264 L 627.63427734375 336 L 408 336 L 408 264 Z Z" stroke-miterlimit="10"/></g><g transform="translate(-15,-30) scale(1,1)"><path fill="none" stroke="#000000" d="M 408 289 L 627.63427734375 289" stroke-miterlimit="10"/></g><g transform="translate(-15,-30) scale(1,1)"><path fill="none" stroke="#000000" d="M 408 299 L 627.63427734375 299" stroke-miterlimit="10"/></g><g transform="translate(-15,-30) scale(1,1)"><g><path fill="none" stroke="none"/><text fill="#000000" stroke="none" font-family="Arial" font-size="13px" font-style="normal" font-weight="bold" text-decoration="none" x="491.810791015625" y="282">ClientV1</text></g></g><g transform="translate(-15,-30) scale(1,1)"><g><path fill="none" stroke="none"/><text fill="#000000" stroke="none" font-family="Arial" font-size="13px" font-style="normal" font-weight="normal" text-decoration="none" x="413" y="315">+ClientV1(fabrique: FabriqueSimple)</text></g></g><g transform="translate(-15,-30) scale(1,1)"><g><path fill="none" stroke="none"/><text fill="#000000" stroke="none" font-family="Arial" font-size="13px" font-style="normal" font-weight="normal" text-decoration="none" x="413" y="330">+actionV1()</text></g></g><g transform="translate(-15,-30) scale(1,1)"><path fill="none" stroke="#000000" d="M 456 264 L 456 192" stroke-miterlimit="10" stroke-dasharray="3"/></g><g transform="translate(-15,-30) scale(1,1)"><path fill="none" stroke="#000000" d="M 460.209517756016 202.16267485762415 L 456 192 L 451.790482243984 202.16267485762415" stroke-miterlimit="10"/></g><g transform="translate(-15,-30) scale(1,1)"><path fill="none" stroke="#000000" d="M 174 264 L 174 208" stroke-miterlimit="10" stroke-dasharray="3"/></g><g transform="translate(-15,-30) scale(1,1)"><path fill="none" stroke="#000000" d="M 178.209517756016 218.16267485762415 L 174 208 L 169.790482243984 218.16267485762415" stroke-miterlimit="10"/></g><g transform="translate(-15,-30) scale(1,1)"><g><path fill="none" stroke="none"/><text fill="#000000" stroke="none" font-family="Arial" font-size="13px" font-style="normal" font-weight="normal" text-decoration="none" x="118.5" y="239.5">«create»</text></g></g><g transform="translate(-15,-30) scale(1,1)"><rect fill="#C0C0C0" stroke="none" x="431" y="367" width="219.63427734375" height="80" opacity="0.2"/></g><g transform="translate(-15,-30) scale(1,1)"><rect fill="#ffffff" stroke="none" x="424" y="360" width="219.63427734375" height="80"/></g><g transform="translate(-15,-30) scale(1,1)"><path fill="none" stroke="#000000" d="M 424 360 L 643.63427734375 360 L 643.63427734375 440 L 424 440 L 424 360 Z Z" stroke-miterlimit="10"/></g><g transform="translate(-15,-30) scale(1,1)"><path fill="none" stroke="#000000" d="M 424 385 L 643.63427734375 385" stroke-miterlimit="10"/></g><g transform="translate(-15,-30) scale(1,1)"><path fill="none" stroke="#000000" d="M 424 395 L 643.63427734375 395" stroke-miterlimit="10"/></g><g transform="translate(-15,-30) scale(1,1)"><g><path fill="none" stroke="none"/><text fill="#000000" stroke="none" font-family="Arial" font-size="13px" font-style="normal" font-weight="bold" text-decoration="none" x="507.810791015625" y="378">ClientV2</text></g></g><g transform="translate(-15,-30) scale(1,1)"><g><path fill="none" stroke="none"/><text fill="#000000" stroke="none" font-family="Arial" font-size="13px" font-style="normal" font-weight="normal" text-decoration="none" x="429" y="411">+ClientV2(fabrique: FabriqueSimple)</text></g></g><g transform="translate(-15,-30) scale(1,1)"><g><path fill="none" stroke="none"/><text fill="#000000" stroke="none" font-family="Arial" font-size="13px" font-style="normal" font-weight="normal" text-decoration="none" x="429" y="426">+actionV2()</text></g></g><g transform="translate(-15,-30) scale(1,1)"><path fill="none" stroke="#000000" d="M 311 300 L 408 300" stroke-miterlimit="10"/></g><g transform="translate(-15,-30) scale(1,1)"><path fill="#FFFFFF" stroke="none" d="M 397.83732514237585 304.209517756016 L 408 300 L 397.83732514237585 295.790482243984 L 386 300"/></g><g transform="translate(-15,-30) scale(1,1)"><path fill="none" stroke="#000000" d="M 397.83732514237585 304.209517756016 L 408 300 L 397.83732514237585 295.790482243984 L 386 300 L 397.83732514237585 304.209517756016" stroke-miterlimit="10"/></g><g transform="translate(-15,-30) scale(1,1)"><path fill="none" stroke="#000000" d="M 321.16267485762415 295.790482243984 L 311 300 L 321.16267485762415 304.209517756016" stroke-miterlimit="10"/></g><g transform="translate(-15,-30) scale(1,1)"><g><path fill="none" stroke="none"/><text fill="#000000" stroke="none" font-family="Arial" font-size="13px" font-style="normal" font-weight="normal" text-decoration="none" x="310.5" y="290">-fabrique</text></g></g><g transform="translate(-15,-30) scale(1,1)"><g><path fill="none" stroke="none"/><text fill="#000000" stroke="none" font-family="Arial" font-size="13px" font-style="normal" font-weight="normal" text-decoration="none" x="328.5" y="317">1</text></g></g><g transform="translate(-15,-30) scale(1,1)"><path fill="none" stroke="#000000" d="M 179 336 L 179 384 L 424 384" stroke-miterlimit="10"/></g><g transform="translate(-15,-30) scale(1,1)"><path fill="#FFFFFF" stroke="none" d="M 413.83732514237585 388.209517756016 L 424 384 L 413.83732514237585 379.790482243984 L 402 384"/></g><g transform="translate(-15,-30) scale(1,1)"><path fill="none" stroke="#000000" d="M 413.83732514237585 388.209517756016 L 424 384 L 413.83732514237585 379.790482243984 L 402 384 L 413.83732514237585 388.209517756016" stroke-miterlimit="10"/></g><g transform="translate(-15,-30) scale(1,1)"><path fill="none" stroke="#000000" d="M 183.209517756016 346.16267485762415 L 179 336 L 174.790482243984 346.16267485762415" stroke-miterlimit="10"/></g><g transform="translate(-15,-30) scale(1,1)"><g><path fill="none" stroke="none"/><text fill="#000000" stroke="none" font-family="Arial" font-size="13px" font-style="normal" font-weight="normal" text-decoration="none" x="190.5" y="355">-fabrique</text></g></g><g transform="translate(-15,-30) scale(1,1)"><g><path fill="none" stroke="none"/><text fill="#000000" stroke="none" font-family="Arial" font-size="13px" font-style="normal" font-weight="normal" text-decoration="none" x="162.5" y="362">1</text></g></g><g transform="translate(-15,-30) scale(1,1)"><path fill="none" stroke="#000000" d="M 644 392 L 656 392 L 656 160 L 536 160" stroke-miterlimit="10" stroke-dasharray="3"/></g><g transform="translate(-15,-30) scale(1,1)"><path fill="none" stroke="#000000" d="M 546.1626748576241 155.790482243984 L 536 160 L 546.1626748576241 164.209517756016" stroke-miterlimit="10"/></g><g transform="translate(-15,-30) scale(1,1)"><path fill="none" stroke="#000000" d="M 96 304 L 80 304 L 80 72 L 216 72" stroke-miterlimit="10" stroke-dasharray="3"/></g><g transform="translate(-15,-30) scale(1,1)"><path fill="none" stroke="#000000" d="M 205.83732514237585 76.20951775601598 L 216 72 L 205.83732514237585 67.79048224398402" stroke-miterlimit="10"/></g><g transform="translate(-15,-30) scale(1,1)"><g><path fill="none" stroke="none"/><text fill="#000000" stroke="none" font-family="Arial" font-size="13px" font-style="normal" font-weight="normal" text-decoration="none" x="24.5" y="191.5">«create»</text></g></g><g transform="translate(-15,-30) scale(1,1)"><path fill="#ffffff" stroke="none" d="M 384 512 L 669 512 L 679 522 L 679 583 L 384 583 L 384 512"/></g><g transform="translate(-15,-30) scale(1,1)"><path fill="none" stroke="#000000" d="M 384 512 L 669 512 L 679 522 L 679 583 L 384 583 L 384 512 L 384 512" stroke-miterlimit="10"/></g><g transform="translate(-15,-30) scale(1,1)"><path fill="none" stroke="#000000" d="M 669 512 L 669 522 L 679 522 L 669 512" stroke-miterlimit="10"/></g><g transform="translate(-15,-30) scale(1,1)"><g><path fill="none" stroke="none"/><text fill="#000000" stroke="none" font-family="Arial" font-size="13px" font-style="normal" font-weight="normal" text-decoration="none" x="389" y="527">public void actionV2() {</text></g></g><g transform="translate(-15,-30) scale(1,1)"><g><path fill="none" stroke="none"/><text fill="#000000" stroke="none" font-family="Arial" font-size="13px" font-style="normal" font-weight="normal" text-decoration="none" x="389" y="542">    Service service = fabrique.creerService("A");</text></g></g><g transform="translate(-15,-30) scale(1,1)"><g><path fill="none" stroke="none"/><text fill="#000000" stroke="none" font-family="Arial" font-size="13px" font-style="normal" font-weight="normal" text-decoration="none" x="389" y="557">    service.action();</text></g></g><g transform="translate(-15,-30) scale(1,1)"><g><path fill="none" stroke="none"/><text fill="#000000" stroke="none" font-family="Arial" font-size="13px" font-style="normal" font-weight="normal" text-decoration="none" x="389" y="572">}</text></g></g><g transform="translate(-15,-30) scale(1,1)"><path fill="none" stroke="#000000" d="M 533 441 L 532 511" stroke-miterlimit="10" stroke-dasharray="3"/></g></g></svg>