<svg version="1.1" xmlns="http://www.w3.org/2000/svg" xmlns:xlink="http://www.w3.org/1999/xlink" width="740.5908203125" height="543"><defs/><g><g transform="translate(-86,-126) scale(1,1)"><rect fill="#C0C0C0" stroke="none" x="327" y="255" width="89.57080078125" height="88" opacity="0.2"/></g><g transform="translate(-86,-126) scale(1,1)"><rect fill="#ffffff" stroke="none" x="320" y="248" width="89.57080078125" height="88"/></g><g transform="translate(-86,-126) scale(1,1)"><path fill="none" stroke="#000000" d="M 320 248 L 409.57080078125 248 L 409.57080078125 336 L 320 336 L 320 248 Z Z" stroke-miterlimit="10"/></g><g transform="translate(-86,-126) scale(1,1)"><path fill="none" stroke="#000000" d="M 320 273 L 409.57080078125 273" stroke-miterlimit="10"/></g><g transform="translate(-86,-126) scale(1,1)"><path fill="none" stroke="#000000" d="M 320 283 L 409.57080078125 283" stroke-miterlimit="10"/></g><g transform="translate(-86,-126) scale(1,1)"><g><path fill="none" stroke="none"/><text fill="#000000" stroke="none" font-family="Arial" font-size="13px" font-style="normal" font-weight="bold" text-decoration="none" x="333.345458984375" y="266">ServiceA1</text></g></g><g transform="translate(-86,-126) scale(1,1)"><g><path fill="none" stroke="none"/><text fill="#000000" stroke="none" font-family="Arial" font-size="13px" font-style="normal" font-weight="normal" text-decoration="none" x="325" y="299">+actionA()</text></g></g><g transform="translate(-86,-126) scale(1,1)"><rect fill="#C0C0C0" stroke="none" x="431" y="255" width="96" height="88" opacity="0.2"/></g><g transform="translate(-86,-126) scale(1,1)"><rect fill="#ffffff" stroke="none" x="424" y="248" width="96" height="88"/></g><g transform="translate(-86,-126) scale(1,1)"><path fill="none" stroke="#000000" d="M 424 248 L 520 248 L 520 336 L 424 336 L 424 248 Z Z" stroke-miterlimit="10"/></g><g transform="translate(-86,-126) scale(1,1)"><path fill="none" stroke="#000000" d="M 424 273 L 520 273" stroke-miterlimit="10"/></g><g transform="translate(-86,-126) scale(1,1)"><path fill="none" stroke="#000000" d="M 424 283 L 520 283" stroke-miterlimit="10"/></g><g transform="translate(-86,-126) scale(1,1)"><g><path fill="none" stroke="none"/><text fill="#000000" stroke="none" font-family="Arial" font-size="13px" font-style="normal" font-weight="bold" text-decoration="none" x="440.56005859375" y="266">ServiceA2</text></g></g><g transform="translate(-86,-126) scale(1,1)"><g><path fill="none" stroke="none"/><text fill="#000000" stroke="none" font-family="Arial" font-size="13px" font-style="normal" font-weight="normal" text-decoration="none" x="429" y="299">+actionA()</text></g></g><g transform="translate(-86,-126) scale(1,1)"><rect fill="#C0C0C0" stroke="none" x="375" y="143" width="89.57080078125" height="60" opacity="0.2"/></g><g transform="translate(-86,-126) scale(1,1)"><rect fill="#ffffff" stroke="none" x="368" y="136" width="89.57080078125" height="60"/></g><g transform="translate(-86,-126) scale(1,1)"><path fill="none" stroke="#000000" d="M 368 136 L 457.57080078125 136 L 457.57080078125 196 L 368 196 L 368 136 Z Z" stroke-miterlimit="10"/></g><g transform="translate(-86,-126) scale(1,1)"><path fill="none" stroke="#000000" d="M 368 174 L 457.57080078125 174" stroke-miterlimit="10"/></g><g transform="translate(-86,-126) scale(1,1)"><g><path fill="none" stroke="none"/><text fill="#000000" stroke="none" font-family="Arial" font-size="13px" font-style="normal" font-weight="normal" text-decoration="none" x="380.625" y="152">«interface»</text></g></g><g transform="translate(-86,-126) scale(1,1)"><g><path fill="none" stroke="none"/><text fill="#000000" stroke="none" font-family="Arial" font-size="13px" font-style="normal" font-weight="bold" text-decoration="none" x="384.96044921875" y="167">ServiceA</text></g></g><g transform="translate(-86,-126) scale(1,1)"><g><path fill="none" stroke="none"/><text fill="#000000" stroke="none" font-family="Arial" font-size="13px" font-style="normal" font-weight="normal" text-decoration="none" x="373" y="190">+actionA()</text></g></g><g transform="translate(-86,-126) scale(1,1)"><path fill="none" stroke="#000000" d="M 336 248 L 336 168 L 368 168" stroke-miterlimit="10" stroke-dasharray="3"/></g><g transform="translate(-86,-126) scale(1,1)"><path fill="#FFFFFF" stroke="none" d="M 347.6746502847517 176.41903551203197 L 368 168 L 347.6746502847517 159.58096448796803"/></g><g transform="translate(-86,-126) scale(1,1)"><path fill="none" stroke="#000000" d="M 347.6746502847517 176.41903551203197 L 368 168 L 347.6746502847517 159.58096448796803 L 347.6746502847517 176.41903551203197" stroke-miterlimit="10"/></g><g transform="translate(-86,-126) scale(1,1)"><path fill="none" stroke="#000000" d="M 496 248 L 496 168 L 458 168" stroke-miterlimit="10" stroke-dasharray="3"/></g><g transform="translate(-86,-126) scale(1,1)"><path fill="#FFFFFF" stroke="none" d="M 478.3253497152483 159.58096448796803 L 458 168 L 478.3253497152483 176.41903551203197"/></g><g transform="translate(-86,-126) scale(1,1)"><path fill="none" stroke="#000000" d="M 478.3253497152483 159.58096448796803 L 458 168 L 478.3253497152483 176.41903551203197 L 478.3253497152483 159.58096448796803" stroke-miterlimit="10"/></g><g transform="translate(-86,-126) scale(1,1)"><rect fill="#C0C0C0" stroke="none" x="103" y="591" width="258.64697265625" height="72" opacity="0.2"/></g><g transform="translate(-86,-126) scale(1,1)"><rect fill="#ffffff" stroke="none" x="96" y="584" width="258.64697265625" height="72"/></g><g transform="translate(-86,-126) scale(1,1)"><path fill="none" stroke="#000000" d="M 96 584 L 354.64697265625 584 L 354.64697265625 656 L 96 656 L 96 584 Z Z" stroke-miterlimit="10"/></g><g transform="translate(-86,-126) scale(1,1)"><path fill="none" stroke="#000000" d="M 96 609 L 354.64697265625 609" stroke-miterlimit="10"/></g><g transform="translate(-86,-126) scale(1,1)"><path fill="none" stroke="#000000" d="M 96 619 L 354.64697265625 619" stroke-miterlimit="10"/></g><g transform="translate(-86,-126) scale(1,1)"><g><path fill="none" stroke="none"/><text fill="#000000" stroke="none" font-family="Arial" font-size="13px" font-style="normal" font-weight="bold" text-decoration="none" x="207.267578125" y="602">Client</text></g></g><g transform="translate(-86,-126) scale(1,1)"><g><path fill="none" stroke="none"/><text fill="#000000" stroke="none" font-family="Arial" font-size="13px" font-style="normal" font-weight="normal" text-decoration="none" x="101" y="635">+Client(fabrique: FabriqueAbstraiteService)</text></g></g><g transform="translate(-86,-126) scale(1,1)"><g><path fill="none" stroke="none"/><text fill="#000000" stroke="none" font-family="Arial" font-size="13px" font-style="normal" font-weight="normal" text-decoration="none" x="101" y="650">+action()</text></g></g><g transform="translate(-86,-126) scale(1,1)"><rect fill="#C0C0C0" stroke="none" x="551" y="255" width="104" height="88" opacity="0.2"/></g><g transform="translate(-86,-126) scale(1,1)"><rect fill="#ffffff" stroke="none" x="544" y="248" width="104" height="88"/></g><g transform="translate(-86,-126) scale(1,1)"><path fill="none" stroke="#000000" d="M 544 248 L 648 248 L 648 336 L 544 336 L 544 248 Z Z" stroke-miterlimit="10"/></g><g transform="translate(-86,-126) scale(1,1)"><path fill="none" stroke="#000000" d="M 544 273 L 648 273" stroke-miterlimit="10"/></g><g transform="translate(-86,-126) scale(1,1)"><path fill="none" stroke="#000000" d="M 544 283 L 648 283" stroke-miterlimit="10"/></g><g transform="translate(-86,-126) scale(1,1)"><g><path fill="none" stroke="none"/><text fill="#000000" stroke="none" font-family="Arial" font-size="13px" font-style="normal" font-weight="bold" text-decoration="none" x="564.56005859375" y="266">ServiceB1</text></g></g><g transform="translate(-86,-126) scale(1,1)"><g><path fill="none" stroke="none"/><text fill="#000000" stroke="none" font-family="Arial" font-size="13px" font-style="normal" font-weight="normal" text-decoration="none" x="549" y="299">+actionB()</text></g></g><g transform="translate(-86,-126) scale(1,1)"><rect fill="#C0C0C0" stroke="none" x="671" y="255" width="104" height="88" opacity="0.2"/></g><g transform="translate(-86,-126) scale(1,1)"><rect fill="#ffffff" stroke="none" x="664" y="248" width="104" height="88"/></g><g transform="translate(-86,-126) scale(1,1)"><path fill="none" stroke="#000000" d="M 664 248 L 768 248 L 768 336 L 664 336 L 664 248 Z Z" stroke-miterlimit="10"/></g><g transform="translate(-86,-126) scale(1,1)"><path fill="none" stroke="#000000" d="M 664 273 L 768 273" stroke-miterlimit="10"/></g><g transform="translate(-86,-126) scale(1,1)"><path fill="none" stroke="#000000" d="M 664 283 L 768 283" stroke-miterlimit="10"/></g><g transform="translate(-86,-126) scale(1,1)"><g><path fill="none" stroke="none"/><text fill="#000000" stroke="none" font-family="Arial" font-size="13px" font-style="normal" font-weight="bold" text-decoration="none" x="684.56005859375" y="266">ServiceB2</text></g></g><g transform="translate(-86,-126) scale(1,1)"><g><path fill="none" stroke="none"/><text fill="#000000" stroke="none" font-family="Arial" font-size="13px" font-style="normal" font-weight="normal" text-decoration="none" x="669" y="299">+actionB()</text></g></g><g transform="translate(-86,-126) scale(1,1)"><rect fill="#C0C0C0" stroke="none" x="615" y="143" width="89.57080078125" height="60" opacity="0.2"/></g><g transform="translate(-86,-126) scale(1,1)"><rect fill="#ffffff" stroke="none" x="608" y="136" width="89.57080078125" height="60"/></g><g transform="translate(-86,-126) scale(1,1)"><path fill="none" stroke="#000000" d="M 608 136 L 697.57080078125 136 L 697.57080078125 196 L 608 196 L 608 136 Z Z" stroke-miterlimit="10"/></g><g transform="translate(-86,-126) scale(1,1)"><path fill="none" stroke="#000000" d="M 608 174 L 697.57080078125 174" stroke-miterlimit="10"/></g><g transform="translate(-86,-126) scale(1,1)"><g><path fill="none" stroke="none"/><text fill="#000000" stroke="none" font-family="Arial" font-size="13px" font-style="normal" font-weight="normal" text-decoration="none" x="620.625" y="152">«interface»</text></g></g><g transform="translate(-86,-126) scale(1,1)"><g><path fill="none" stroke="none"/><text fill="#000000" stroke="none" font-family="Arial" font-size="13px" font-style="normal" font-weight="bold" text-decoration="none" x="624.96044921875" y="167">ServiceB</text></g></g><g transform="translate(-86,-126) scale(1,1)"><g><path fill="none" stroke="none"/><text fill="#000000" stroke="none" font-family="Arial" font-size="13px" font-style="normal" font-weight="normal" text-decoration="none" x="613" y="190">+actionB()</text></g></g><g transform="translate(-86,-126) scale(1,1)"><path fill="none" stroke="#000000" d="M 576 248 L 576 168 L 608 168" stroke-miterlimit="10" stroke-dasharray="3"/></g><g transform="translate(-86,-126) scale(1,1)"><path fill="#FFFFFF" stroke="none" d="M 587.6746502847517 176.41903551203197 L 608 168 L 587.6746502847517 159.58096448796803"/></g><g transform="translate(-86,-126) scale(1,1)"><path fill="none" stroke="#000000" d="M 587.6746502847517 176.41903551203197 L 608 168 L 587.6746502847517 159.58096448796803 L 587.6746502847517 176.41903551203197" stroke-miterlimit="10"/></g><g transform="translate(-86,-126) scale(1,1)"><path fill="none" stroke="#000000" d="M 736 248 L 736 168 L 698 168" stroke-miterlimit="10" stroke-dasharray="3"/></g><g transform="translate(-86,-126) scale(1,1)"><path fill="#FFFFFF" stroke="none" d="M 718.3253497152483 159.58096448796803 L 698 168 L 718.3253497152483 176.41903551203197"/></g><g transform="translate(-86,-126) scale(1,1)"><path fill="none" stroke="#000000" d="M 718.3253497152483 159.58096448796803 L 698 168 L 718.3253497152483 176.41903551203197 L 718.3253497152483 159.58096448796803" stroke-miterlimit="10"/></g><g transform="translate(-86,-126) scale(1,1)"><rect fill="#C0C0C0" stroke="none" x="383" y="431" width="166.1298828125" height="72" opacity="0.2"/></g><g transform="translate(-86,-126) scale(1,1)"><rect fill="#ffffff" stroke="none" x="376" y="424" width="166.1298828125" height="72"/></g><g transform="translate(-86,-126) scale(1,1)"><path fill="none" stroke="#000000" d="M 376 424 L 542.1298828125 424 L 542.1298828125 496 L 376 496 L 376 424 Z Z" stroke-miterlimit="10"/></g><g transform="translate(-86,-126) scale(1,1)"><path fill="none" stroke="#000000" d="M 376 449 L 542.1298828125 449" stroke-miterlimit="10"/></g><g transform="translate(-86,-126) scale(1,1)"><path fill="none" stroke="#000000" d="M 376 459 L 542.1298828125 459" stroke-miterlimit="10"/></g><g transform="translate(-86,-126) scale(1,1)"><g><path fill="none" stroke="none"/><text fill="#000000" stroke="none" font-family="Arial" font-size="13px" font-style="normal" font-weight="bold" text-decoration="none" x="400.536376953125" y="442">FabriqueServiceV1</text></g></g><g transform="translate(-86,-126) scale(1,1)"><g><path fill="none" stroke="none"/><text fill="#000000" stroke="none" font-family="Arial" font-size="13px" font-style="normal" font-weight="normal" text-decoration="none" x="381" y="475">+creerServiceA(): ServiceA</text></g></g><g transform="translate(-86,-126) scale(1,1)"><g><path fill="none" stroke="none"/><text fill="#000000" stroke="none" font-family="Arial" font-size="13px" font-style="normal" font-weight="normal" text-decoration="none" x="381" y="490">+creerServiceB(): ServiceB</text></g></g><g transform="translate(-86,-126) scale(1,1)"><rect fill="#C0C0C0" stroke="none" x="575" y="431" width="166.1298828125" height="72" opacity="0.2"/></g><g transform="translate(-86,-126) scale(1,1)"><rect fill="#ffffff" stroke="none" x="568" y="424" width="166.1298828125" height="72"/></g><g transform="translate(-86,-126) scale(1,1)"><path fill="none" stroke="#000000" d="M 568 424 L 734.1298828125 424 L 734.1298828125 496 L 568 496 L 568 424 Z Z" stroke-miterlimit="10"/></g><g transform="translate(-86,-126) scale(1,1)"><path fill="none" stroke="#000000" d="M 568 449 L 734.1298828125 449" stroke-miterlimit="10"/></g><g transform="translate(-86,-126) scale(1,1)"><path fill="none" stroke="#000000" d="M 568 459 L 734.1298828125 459" stroke-miterlimit="10"/></g><g transform="translate(-86,-126) scale(1,1)"><g><path fill="none" stroke="none"/><text fill="#000000" stroke="none" font-family="Arial" font-size="13px" font-style="normal" font-weight="bold" text-decoration="none" x="592.536376953125" y="442">FabriqueServiceV2</text></g></g><g transform="translate(-86,-126) scale(1,1)"><g><path fill="none" stroke="none"/><text fill="#000000" stroke="none" font-family="Arial" font-size="13px" font-style="normal" font-weight="normal" text-decoration="none" x="573" y="475">+creerServiceA(): ServiceA</text></g></g><g transform="translate(-86,-126) scale(1,1)"><g><path fill="none" stroke="none"/><text fill="#000000" stroke="none" font-family="Arial" font-size="13px" font-style="normal" font-weight="normal" text-decoration="none" x="573" y="490">+creerServiceB(): ServiceB</text></g></g><g transform="translate(-86,-126) scale(1,1)"><rect fill="#C0C0C0" stroke="none" x="479" y="591" width="166.50439453125" height="75" opacity="0.2"/></g><g transform="translate(-86,-126) scale(1,1)"><rect fill="#ffffff" stroke="none" x="472" y="584" width="166.50439453125" height="75"/></g><g transform="translate(-86,-126) scale(1,1)"><path fill="none" stroke="#000000" d="M 472 584 L 638.50439453125 584 L 638.50439453125 659 L 472 659 L 472 584 Z Z" stroke-miterlimit="10"/></g><g transform="translate(-86,-126) scale(1,1)"><path fill="none" stroke="#000000" d="M 472 622 L 638.50439453125 622" stroke-miterlimit="10"/></g><g transform="translate(-86,-126) scale(1,1)"><g><path fill="none" stroke="none"/><text fill="#000000" stroke="none" font-family="Arial" font-size="13px" font-style="normal" font-weight="normal" text-decoration="none" x="523.091796875" y="600">«interface»</text></g></g><g transform="translate(-86,-126) scale(1,1)"><g><path fill="none" stroke="none"/><text fill="#000000" stroke="none" font-family="Arial" font-size="13px" font-style="normal" font-weight="bold" text-decoration="none" x="476.5" y="615">FabriqueAbstraiteService</text></g></g><g transform="translate(-86,-126) scale(1,1)"><g><path fill="none" stroke="none"/><text fill="#000000" stroke="none" font-family="Arial" font-size="13px" font-style="normal" font-weight="normal" text-decoration="none" x="477" y="638">+creerServiceA(): ServiceA</text></g></g><g transform="translate(-86,-126) scale(1,1)"><g><path fill="none" stroke="none"/><text fill="#000000" stroke="none" font-family="Arial" font-size="13px" font-style="normal" font-weight="normal" text-decoration="none" x="477" y="653">+creerServiceB(): ServiceB</text></g></g><g transform="translate(-86,-126) scale(1,1)"><path fill="none" stroke="#000000" d="M 424 496 L 424 544 L 520 544 L 520 584" stroke-miterlimit="10" stroke-dasharray="3"/></g><g transform="translate(-86,-126) scale(1,1)"><path fill="#FFFFFF" stroke="none" d="M 511.580964487968 563.6746502847517 L 520 584 L 528.419035512032 563.6746502847517"/></g><g transform="translate(-86,-126) scale(1,1)"><path fill="none" stroke="#000000" d="M 511.580964487968 563.6746502847517 L 520 584 L 528.419035512032 563.6746502847517 L 511.580964487968 563.6746502847517" stroke-miterlimit="10"/></g><g transform="translate(-86,-126) scale(1,1)"><path fill="none" stroke="#000000" d="M 696 496 L 696 544 L 584 544 L 584 584" stroke-miterlimit="10" stroke-dasharray="3"/></g><g transform="translate(-86,-126) scale(1,1)"><path fill="#FFFFFF" stroke="none" d="M 575.580964487968 563.6746502847517 L 584 584 L 592.419035512032 563.6746502847517"/></g><g transform="translate(-86,-126) scale(1,1)"><path fill="none" stroke="#000000" d="M 575.580964487968 563.6746502847517 L 584 584 L 592.419035512032 563.6746502847517 L 575.580964487968 563.6746502847517" stroke-miterlimit="10"/></g><g transform="translate(-86,-126) scale(1,1)"><path fill="none" stroke="#000000" d="M 472 616 L 355 616" stroke-miterlimit="10"/></g><g transform="translate(-86,-126) scale(1,1)"><path fill="#FFFFFF" stroke="none" d="M 365.16267485762415 611.790482243984 L 355 616 L 365.16267485762415 620.209517756016 L 377 616"/></g><g transform="translate(-86,-126) scale(1,1)"><path fill="none" stroke="#000000" d="M 365.16267485762415 611.790482243984 L 355 616 L 365.16267485762415 620.209517756016 L 377 616 L 365.16267485762415 611.790482243984" stroke-miterlimit="10"/></g><g transform="translate(-86,-126) scale(1,1)"><path fill="none" stroke="#000000" d="M 461.83732514237585 620.209517756016 L 472 616 L 461.83732514237585 611.790482243984" stroke-miterlimit="10"/></g><g transform="translate(-86,-126) scale(1,1)"><g><path fill="none" stroke="none"/><text fill="#000000" stroke="none" font-family="Arial" font-size="13px" font-style="normal" font-weight="normal" text-decoration="none" x="407.5" y="610">-fabrique</text></g></g><g transform="translate(-86,-126) scale(1,1)"><path fill="none" stroke="#000000" d="M 734 456 L 752 456 L 752 336" stroke-miterlimit="10" stroke-dasharray="3"/></g><g transform="translate(-86,-126) scale(1,1)"><path fill="none" stroke="#000000" d="M 756.209517756016 346.16267485762415 L 752 336 L 747.790482243984 346.16267485762415" stroke-miterlimit="10"/></g><g transform="translate(-86,-126) scale(1,1)"><g><path fill="none" stroke="none"/><text fill="#000000" stroke="none" font-family="Arial" font-size="13px" font-style="normal" font-weight="normal" text-decoration="none" x="766.5" y="394.5">«create»</text></g></g><g transform="translate(-86,-126) scale(1,1)"><path fill="none" stroke="#000000" d="M 640 424 L 640 408 L 448 408 L 448 336" stroke-miterlimit="10" stroke-dasharray="3"/></g><g transform="translate(-86,-126) scale(1,1)"><path fill="none" stroke="#000000" d="M 452.209517756016 346.16267485762415 L 448 336 L 443.790482243984 346.16267485762415" stroke-miterlimit="10"/></g><g transform="translate(-86,-126) scale(1,1)"><g><path fill="none" stroke="none"/><text fill="#000000" stroke="none" font-family="Arial" font-size="13px" font-style="normal" font-weight="normal" text-decoration="none" x="518.5" y="394.5">«create»</text></g></g><g transform="translate(-86,-126) scale(1,1)"><path fill="none" stroke="#000000" d="M 376 456 L 344 456 L 344 336" stroke-miterlimit="10" stroke-dasharray="3"/></g><g transform="translate(-86,-126) scale(1,1)"><path fill="none" stroke="#000000" d="M 348.209517756016 346.16267485762415 L 344 336 L 339.790482243984 346.16267485762415" stroke-miterlimit="10"/></g><g transform="translate(-86,-126) scale(1,1)"><g><path fill="none" stroke="none"/><text fill="#000000" stroke="none" font-family="Arial" font-size="13px" font-style="normal" font-weight="normal" text-decoration="none" x="270.5" y="401.5">«create»</text></g></g><g transform="translate(-86,-126) scale(1,1)"><path fill="none" stroke="#000000" d="M 496 424 L 496 368 L 624 368 L 624 336" stroke-miterlimit="10" stroke-dasharray="3"/></g><g transform="translate(-86,-126) scale(1,1)"><path fill="none" stroke="#000000" d="M 628.209517756016 346.16267485762415 L 624 336 L 619.790482243984 346.16267485762415" stroke-miterlimit="10"/></g><g transform="translate(-86,-126) scale(1,1)"><g><path fill="none" stroke="none"/><text fill="#000000" stroke="none" font-family="Arial" font-size="13px" font-style="normal" font-weight="normal" text-decoration="none" x="533.5" y="353.5">«create»</text></g></g></g></svg>