<svg version="1.1" xmlns="http://www.w3.org/2000/svg" xmlns:xlink="http://www.w3.org/1999/xlink" width="696.7880859375" height="484"><defs/><g><g transform="translate(-78,-126) scale(1,1)"><rect fill="#C0C0C0" stroke="none" x="327" y="255" width="89.57080078125" height="88" opacity="0.2"/></g><g transform="translate(-78,-126) scale(1,1)"><rect fill="#ffffff" stroke="none" x="320" y="248" width="89.57080078125" height="88"/></g><g transform="translate(-78,-126) scale(1,1)"><path fill="none" stroke="#000000" d="M 320 248 L 409.57080078125 248 L 409.57080078125 336 L 320 336 L 320 248 Z Z" stroke-miterlimit="10"/></g><g transform="translate(-78,-126) scale(1,1)"><path fill="none" stroke="#000000" d="M 320 273 L 409.57080078125 273" stroke-miterlimit="10"/></g><g transform="translate(-78,-126) scale(1,1)"><path fill="none" stroke="#000000" d="M 320 283 L 409.57080078125 283" stroke-miterlimit="10"/></g><g transform="translate(-78,-126) scale(1,1)"><g><path fill="none" stroke="none"/><text fill="#000000" stroke="none" font-family="Arial" font-size="13px" font-style="normal" font-weight="bold" text-decoration="none" x="336.96044921875" y="266">ServiceA</text></g></g><g transform="translate(-78,-126) scale(1,1)"><g><path fill="none" stroke="none"/><text fill="#000000" stroke="none" font-family="Arial" font-size="13px" font-style="normal" font-weight="normal" text-decoration="none" x="325" y="299">+action()</text></g></g><g transform="translate(-78,-126) scale(1,1)"><rect fill="#C0C0C0" stroke="none" x="431" y="255" width="96" height="88" opacity="0.2"/></g><g transform="translate(-78,-126) scale(1,1)"><rect fill="#ffffff" stroke="none" x="424" y="248" width="96" height="88"/></g><g transform="translate(-78,-126) scale(1,1)"><path fill="none" stroke="#000000" d="M 424 248 L 520 248 L 520 336 L 424 336 L 424 248 Z Z" stroke-miterlimit="10"/></g><g transform="translate(-78,-126) scale(1,1)"><path fill="none" stroke="#000000" d="M 424 273 L 520 273" stroke-miterlimit="10"/></g><g transform="translate(-78,-126) scale(1,1)"><path fill="none" stroke="#000000" d="M 424 283 L 520 283" stroke-miterlimit="10"/></g><g transform="translate(-78,-126) scale(1,1)"><g><path fill="none" stroke="none"/><text fill="#000000" stroke="none" font-family="Arial" font-size="13px" font-style="normal" font-weight="bold" text-decoration="none" x="444.175048828125" y="266">ServiceB</text></g></g><g transform="translate(-78,-126) scale(1,1)"><g><path fill="none" stroke="none"/><text fill="#000000" stroke="none" font-family="Arial" font-size="13px" font-style="normal" font-weight="normal" text-decoration="none" x="429" y="299">+action()</text></g></g><g transform="translate(-78,-126) scale(1,1)"><rect fill="#C0C0C0" stroke="none" x="375" y="143" width="89.57080078125" height="60" opacity="0.2"/></g><g transform="translate(-78,-126) scale(1,1)"><rect fill="#ffffff" stroke="none" x="368" y="136" width="89.57080078125" height="60"/></g><g transform="translate(-78,-126) scale(1,1)"><path fill="none" stroke="#000000" d="M 368 136 L 457.57080078125 136 L 457.57080078125 196 L 368 196 L 368 136 Z Z" stroke-miterlimit="10"/></g><g transform="translate(-78,-126) scale(1,1)"><path fill="none" stroke="#000000" d="M 368 174 L 457.57080078125 174" stroke-miterlimit="10"/></g><g transform="translate(-78,-126) scale(1,1)"><g><path fill="none" stroke="none"/><text fill="#000000" stroke="none" font-family="Arial" font-size="13px" font-style="normal" font-weight="normal" text-decoration="none" x="380.625" y="152">«interface»</text></g></g><g transform="translate(-78,-126) scale(1,1)"><g><path fill="none" stroke="none"/><text fill="#000000" stroke="none" font-family="Arial" font-size="13px" font-style="normal" font-weight="bold" text-decoration="none" x="389.654541015625" y="167">Service</text></g></g><g transform="translate(-78,-126) scale(1,1)"><g><path fill="none" stroke="none"/><text fill="#000000" stroke="none" font-family="Arial" font-size="13px" font-style="normal" font-weight="normal" text-decoration="none" x="373" y="190">+action()</text></g></g><g transform="translate(-78,-126) scale(1,1)"><path fill="none" stroke="#000000" d="M 336 248 L 336 168 L 368 168" stroke-miterlimit="10" stroke-dasharray="3"/></g><g transform="translate(-78,-126) scale(1,1)"><path fill="#FFFFFF" stroke="none" d="M 347.6746502847517 176.41903551203197 L 368 168 L 347.6746502847517 159.58096448796803"/></g><g transform="translate(-78,-126) scale(1,1)"><path fill="none" stroke="#000000" d="M 347.6746502847517 176.41903551203197 L 368 168 L 347.6746502847517 159.58096448796803 L 347.6746502847517 176.41903551203197" stroke-miterlimit="10"/></g><g transform="translate(-78,-126) scale(1,1)"><path fill="none" stroke="#000000" d="M 496 248 L 496 168 L 458 168" stroke-miterlimit="10" stroke-dasharray="3"/></g><g transform="translate(-78,-126) scale(1,1)"><path fill="#FFFFFF" stroke="none" d="M 478.3253497152483 159.58096448796803 L 458 168 L 478.3253497152483 176.41903551203197"/></g><g transform="translate(-78,-126) scale(1,1)"><path fill="none" stroke="#000000" d="M 478.3253497152483 159.58096448796803 L 458 168 L 478.3253497152483 176.41903551203197 L 478.3253497152483 159.58096448796803" stroke-miterlimit="10"/></g><g transform="translate(-78,-126) scale(1,1)"><rect fill="#C0C0C0" stroke="none" x="327" y="391" width="209.49072265625" height="85" opacity="0.2"/></g><g transform="translate(-78,-126) scale(1,1)"><rect fill="#ffffff" stroke="none" x="320" y="384" width="209.49072265625" height="85"/></g><g transform="translate(-78,-126) scale(1,1)"><path fill="none" stroke="#000000" d="M 320 384 L 529.49072265625 384 L 529.49072265625 469 L 320 469 L 320 384 Z Z" stroke-miterlimit="10"/></g><g transform="translate(-78,-126) scale(1,1)"><path fill="none" stroke="#000000" d="M 320 422 L 529.49072265625 422" stroke-miterlimit="10"/></g><g transform="translate(-78,-126) scale(1,1)"><path fill="none" stroke="#000000" d="M 320 432 L 529.49072265625 432" stroke-miterlimit="10"/></g><g transform="translate(-78,-126) scale(1,1)"><g><path fill="none" stroke="none"/><text fill="#000000" stroke="none" font-family="Arial" font-size="13px" font-style="normal" font-weight="normal" text-decoration="none" x="394.39404296875" y="400">«abstract»</text></g></g><g transform="translate(-78,-126) scale(1,1)"><g><path fill="none" stroke="none"/><text fill="#000000" stroke="none" font-family="Arial" font-size="13px" font-style="italic" font-weight="bold" text-decoration="none" x="406.689453125" y="415">Client</text></g></g><g transform="translate(-78,-126) scale(1,1)"><g><path fill="none" stroke="none"/><text fill="#000000" stroke="none" font-family="Arial" font-size="13px" font-style="normal" font-weight="normal" text-decoration="none" x="325" y="448">+action()</text></g></g><g transform="translate(-78,-126) scale(1,1)"><g><path fill="none" stroke="none"/><text fill="#000000" stroke="none" font-family="Arial" font-size="13px" font-style="italic" font-weight="normal" text-decoration="none" x="325" y="463">«abstract»+creerService(): Service</text></g></g><g transform="translate(-78,-126) scale(1,1)"><rect fill="#C0C0C0" stroke="none" x="95" y="407" width="160" height="57" opacity="0.2"/></g><g transform="translate(-78,-126) scale(1,1)"><rect fill="#ffffff" stroke="none" x="88" y="400" width="160" height="57"/></g><g transform="translate(-78,-126) scale(1,1)"><path fill="none" stroke="#000000" d="M 88 400 L 248 400 L 248 457 L 88 457 L 88 400 Z Z" stroke-miterlimit="10"/></g><g transform="translate(-78,-126) scale(1,1)"><path fill="none" stroke="#000000" d="M 88 425 L 248 425" stroke-miterlimit="10"/></g><g transform="translate(-78,-126) scale(1,1)"><path fill="none" stroke="#000000" d="M 88 435 L 248 435" stroke-miterlimit="10"/></g><g transform="translate(-78,-126) scale(1,1)"><g><path fill="none" stroke="none"/><text fill="#000000" stroke="none" font-family="Arial" font-size="13px" font-style="normal" font-weight="bold" text-decoration="none" x="145.25" y="418">ClientA</text></g></g><g transform="translate(-78,-126) scale(1,1)"><g><path fill="none" stroke="none"/><text fill="#000000" stroke="none" font-family="Arial" font-size="13px" font-style="normal" font-weight="normal" text-decoration="none" x="93" y="451">+creerService(): Service</text></g></g><g transform="translate(-78,-126) scale(1,1)"><rect fill="#C0C0C0" stroke="none" x="623" y="407" width="148.7880859375" height="57" opacity="0.2"/></g><g transform="translate(-78,-126) scale(1,1)"><rect fill="#ffffff" stroke="none" x="616" y="400" width="148.7880859375" height="57"/></g><g transform="translate(-78,-126) scale(1,1)"><path fill="none" stroke="#000000" d="M 616 400 L 764.7880859375 400 L 764.7880859375 457 L 616 457 L 616 400 Z Z" stroke-miterlimit="10"/></g><g transform="translate(-78,-126) scale(1,1)"><path fill="none" stroke="#000000" d="M 616 425 L 764.7880859375 425" stroke-miterlimit="10"/></g><g transform="translate(-78,-126) scale(1,1)"><path fill="none" stroke="#000000" d="M 616 435 L 764.7880859375 435" stroke-miterlimit="10"/></g><g transform="translate(-78,-126) scale(1,1)"><g><path fill="none" stroke="none"/><text fill="#000000" stroke="none" font-family="Arial" font-size="13px" font-style="normal" font-weight="bold" text-decoration="none" x="667.64404296875" y="418">ClientB</text></g></g><g transform="translate(-78,-126) scale(1,1)"><g><path fill="none" stroke="none"/><text fill="#000000" stroke="none" font-family="Arial" font-size="13px" font-style="normal" font-weight="normal" text-decoration="none" x="621" y="451">+creerService(): Service</text></g></g><g transform="translate(-78,-126) scale(1,1)"><path fill="none" stroke="#000000" d="M 248 427 L 320 427" stroke-miterlimit="10"/></g><g transform="translate(-78,-126) scale(1,1)"><path fill="#FFFFFF" stroke="none" d="M 299.6746502847517 435.419035512032 L 320 427 L 299.6746502847517 418.580964487968"/></g><g transform="translate(-78,-126) scale(1,1)"><path fill="none" stroke="#000000" d="M 299.6746502847517 435.419035512032 L 320 427 L 299.6746502847517 418.580964487968 L 299.6746502847517 435.419035512032" stroke-miterlimit="10"/></g><g transform="translate(-78,-126) scale(1,1)"><path fill="none" stroke="#000000" d="M 616 424 L 529 424" stroke-miterlimit="10"/></g><g transform="translate(-78,-126) scale(1,1)"><path fill="#FFFFFF" stroke="none" d="M 549.3253497152483 415.580964487968 L 529 424 L 549.3253497152483 432.419035512032"/></g><g transform="translate(-78,-126) scale(1,1)"><path fill="none" stroke="#000000" d="M 549.3253497152483 415.580964487968 L 529 424 L 549.3253497152483 432.419035512032 L 549.3253497152483 415.580964487968" stroke-miterlimit="10"/></g><g transform="translate(-78,-126) scale(1,1)"><path fill="none" stroke="#000000" d="M 192 400 L 192 296 L 320 296" stroke-miterlimit="10" stroke-dasharray="3"/></g><g transform="translate(-78,-126) scale(1,1)"><path fill="none" stroke="#000000" d="M 309.83732514237585 300.209517756016 L 320 296 L 309.83732514237585 291.790482243984" stroke-miterlimit="10"/></g><g transform="translate(-78,-126) scale(1,1)"><g><path fill="none" stroke="none"/><text fill="#000000" stroke="none" font-family="Arial" font-size="13px" font-style="normal" font-weight="normal" text-decoration="none" x="214.5" y="282.5">«create»</text></g></g><g transform="translate(-78,-126) scale(1,1)"><path fill="none" stroke="#000000" d="M 688 400 L 688 296 L 520 296" stroke-miterlimit="10" stroke-dasharray="3"/></g><g transform="translate(-78,-126) scale(1,1)"><path fill="none" stroke="#000000" d="M 530.1626748576241 291.790482243984 L 520 296 L 530.1626748576241 300.209517756016" stroke-miterlimit="10"/></g><g transform="translate(-78,-126) scale(1,1)"><g><path fill="none" stroke="none"/><text fill="#000000" stroke="none" font-family="Arial" font-size="13px" font-style="normal" font-weight="normal" text-decoration="none" x="558.5" y="281.5">«create»</text></g></g><g transform="translate(-78,-126) scale(1,1)"><path fill="#ffffff" stroke="none" d="M 312 528 L 525 528 L 535 538 L 535 599 L 312 599 L 312 528"/></g><g transform="translate(-78,-126) scale(1,1)"><path fill="none" stroke="#000000" d="M 312 528 L 525 528 L 535 538 L 535 599 L 312 599 L 312 528 L 312 528" stroke-miterlimit="10"/></g><g transform="translate(-78,-126) scale(1,1)"><path fill="none" stroke="#000000" d="M 525 528 L 525 538 L 535 538 L 525 528" stroke-miterlimit="10"/></g><g transform="translate(-78,-126) scale(1,1)"><g><path fill="none" stroke="none"/><text fill="#000000" stroke="none" font-family="Arial" font-size="13px" font-style="normal" font-weight="normal" text-decoration="none" x="317" y="543">public void action() {</text></g></g><g transform="translate(-78,-126) scale(1,1)"><g><path fill="none" stroke="none"/><text fill="#000000" stroke="none" font-family="Arial" font-size="13px" font-style="normal" font-weight="normal" text-decoration="none" x="317" y="558">    Service service = creerService();</text></g></g><g transform="translate(-78,-126) scale(1,1)"><g><path fill="none" stroke="none"/><text fill="#000000" stroke="none" font-family="Arial" font-size="13px" font-style="normal" font-weight="normal" text-decoration="none" x="317" y="573">    service.action();</text></g></g><g transform="translate(-78,-126) scale(1,1)"><g><path fill="none" stroke="none"/><text fill="#000000" stroke="none" font-family="Arial" font-size="13px" font-style="normal" font-weight="normal" text-decoration="none" x="317" y="588">}</text></g></g><g transform="translate(-78,-126) scale(1,1)"><path fill="none" stroke="#000000" d="M 424 470 L 424 527" stroke-miterlimit="10" stroke-dasharray="3"/></g></g></svg>