<svg version="1.1" xmlns="http://www.w3.org/2000/svg" xmlns:xlink="http://www.w3.org/1999/xlink" width="443.1552734375" height="271"><defs/><g><g transform="translate(-94,-110) scale(1,1)"><rect fill="#C0C0C0" stroke="none" x="271" y="263" width="95.3408203125" height="115" opacity="0.2"/></g><g transform="translate(-94,-110) scale(1,1)"><rect fill="#ffffff" stroke="none" x="264" y="256" width="95.3408203125" height="115"/></g><g transform="translate(-94,-110) scale(1,1)"><path fill="none" stroke="#000000" d="M 264 256 L 359.3408203125 256 L 359.3408203125 371 L 264 371 L 264 256 Z Z" stroke-miterlimit="10"/></g><g transform="translate(-94,-110) scale(1,1)"><path fill="none" stroke="#000000" d="M 264 281 L 359.3408203125 281" stroke-miterlimit="10"/></g><g transform="translate(-94,-110) scale(1,1)"><path fill="none" stroke="#000000" d="M 264 304 L 359.3408203125 304" stroke-miterlimit="10"/></g><g transform="translate(-94,-110) scale(1,1)"><g><path fill="none" stroke="none"/><text fill="#000000" stroke="none" font-family="Arial" font-size="13px" font-style="normal" font-weight="bold" text-decoration="none" x="306.976318359375" y="274">A</text></g></g><g transform="translate(-94,-110) scale(1,1)"><g><path fill="none" stroke="none"/><text fill="#000000" stroke="none" font-family="Arial" font-size="13px" font-style="normal" font-weight="normal" text-decoration="none" x="269" y="297">-data: int</text></g></g><g transform="translate(-94,-110) scale(1,1)"><g><path fill="none" stroke="none"/><text fill="#000000" stroke="none" font-family="Arial" font-size="13px" font-style="normal" font-weight="normal" text-decoration="none" x="269" y="320">+A(data: int)</text></g></g><g transform="translate(-94,-110) scale(1,1)"><g><path fill="none" stroke="none"/><text fill="#000000" stroke="none" font-family="Arial" font-size="13px" font-style="normal" font-weight="normal" text-decoration="none" x="269" y="335">+A(aCopier: A)</text></g></g><g transform="translate(-94,-110) scale(1,1)"><g><path fill="none" stroke="none"/><text fill="#000000" stroke="none" font-family="Arial" font-size="13px" font-style="normal" font-weight="normal" text-decoration="none" x="269" y="350">+action()</text></g></g><g transform="translate(-94,-110) scale(1,1)"><g><path fill="none" stroke="none"/><text fill="#000000" stroke="none" font-family="Arial" font-size="13px" font-style="normal" font-weight="normal" text-decoration="none" x="269" y="365">+cloner(): A</text></g></g><g transform="translate(-94,-110) scale(1,1)"><rect fill="#C0C0C0" stroke="none" x="335" y="127" width="118.458984375" height="75" opacity="0.2"/></g><g transform="translate(-94,-110) scale(1,1)"><rect fill="#ffffff" stroke="none" x="328" y="120" width="118.458984375" height="75"/></g><g transform="translate(-94,-110) scale(1,1)"><path fill="none" stroke="#000000" d="M 328 120 L 446.458984375 120 L 446.458984375 195 L 328 195 L 328 120 Z Z" stroke-miterlimit="10"/></g><g transform="translate(-94,-110) scale(1,1)"><path fill="none" stroke="#000000" d="M 328 158 L 446.458984375 158" stroke-miterlimit="10"/></g><g transform="translate(-94,-110) scale(1,1)"><g><path fill="none" stroke="none"/><text fill="#000000" stroke="none" font-family="Arial" font-size="13px" font-style="normal" font-weight="normal" text-decoration="none" x="355.069091796875" y="136">«interface»</text></g></g><g transform="translate(-94,-110) scale(1,1)"><g><path fill="none" stroke="none"/><text fill="#000000" stroke="none" font-family="Arial" font-size="13px" font-style="normal" font-weight="bold" text-decoration="none" x="360.4931640625" y="151">Exemple</text></g></g><g transform="translate(-94,-110) scale(1,1)"><g><path fill="none" stroke="none"/><text fill="#000000" stroke="none" font-family="Arial" font-size="13px" font-style="normal" font-weight="normal" text-decoration="none" x="333" y="174">+action()</text></g></g><g transform="translate(-94,-110) scale(1,1)"><g><path fill="none" stroke="none"/><text fill="#000000" stroke="none" font-family="Arial" font-size="13px" font-style="normal" font-weight="normal" text-decoration="none" x="333" y="189">+cloner(): Exemple</text></g></g><g transform="translate(-94,-110) scale(1,1)"><rect fill="#C0C0C0" stroke="none" x="407" y="263" width="127.1552734375" height="115" opacity="0.2"/></g><g transform="translate(-94,-110) scale(1,1)"><rect fill="#ffffff" stroke="none" x="400" y="256" width="127.1552734375" height="115"/></g><g transform="translate(-94,-110) scale(1,1)"><path fill="none" stroke="#000000" d="M 400 256 L 527.1552734375 256 L 527.1552734375 371 L 400 371 L 400 256 Z Z" stroke-miterlimit="10"/></g><g transform="translate(-94,-110) scale(1,1)"><path fill="none" stroke="#000000" d="M 400 281 L 527.1552734375 281" stroke-miterlimit="10"/></g><g transform="translate(-94,-110) scale(1,1)"><path fill="none" stroke="#000000" d="M 400 304 L 527.1552734375 304" stroke-miterlimit="10"/></g><g transform="translate(-94,-110) scale(1,1)"><g><path fill="none" stroke="none"/><text fill="#000000" stroke="none" font-family="Arial" font-size="13px" font-style="normal" font-weight="bold" text-decoration="none" x="458.883544921875" y="274">B</text></g></g><g transform="translate(-94,-110) scale(1,1)"><g><path fill="none" stroke="none"/><text fill="#000000" stroke="none" font-family="Arial" font-size="13px" font-style="normal" font-weight="normal" text-decoration="none" x="405" y="297">-attribut: boolean</text></g></g><g transform="translate(-94,-110) scale(1,1)"><g><path fill="none" stroke="none"/><text fill="#000000" stroke="none" font-family="Arial" font-size="13px" font-style="normal" font-weight="normal" text-decoration="none" x="405" y="320">+B(attribut: boolean)</text></g></g><g transform="translate(-94,-110) scale(1,1)"><g><path fill="none" stroke="none"/><text fill="#000000" stroke="none" font-family="Arial" font-size="13px" font-style="normal" font-weight="normal" text-decoration="none" x="405" y="335">+B(aCopier: B)</text></g></g><g transform="translate(-94,-110) scale(1,1)"><g><path fill="none" stroke="none"/><text fill="#000000" stroke="none" font-family="Arial" font-size="13px" font-style="normal" font-weight="normal" text-decoration="none" x="405" y="350">+action()</text></g></g><g transform="translate(-94,-110) scale(1,1)"><g><path fill="none" stroke="none"/><text fill="#000000" stroke="none" font-family="Arial" font-size="13px" font-style="normal" font-weight="normal" text-decoration="none" x="405" y="365">+cloner(): B</text></g></g><g transform="translate(-94,-110) scale(1,1)"><rect fill="#C0C0C0" stroke="none" x="111" y="135" width="151.70166015625" height="57" opacity="0.2"/></g><g transform="translate(-94,-110) scale(1,1)"><rect fill="#ffffff" stroke="none" x="104" y="128" width="151.70166015625" height="57"/></g><g transform="translate(-94,-110) scale(1,1)"><path fill="none" stroke="#000000" d="M 104 128 L 255.70166015625 128 L 255.70166015625 185 L 104 185 L 104 128 Z Z" stroke-miterlimit="10"/></g><g transform="translate(-94,-110) scale(1,1)"><path fill="none" stroke="#000000" d="M 104 153 L 255.70166015625 153" stroke-miterlimit="10"/></g><g transform="translate(-94,-110) scale(1,1)"><path fill="none" stroke="#000000" d="M 104 163 L 255.70166015625 163" stroke-miterlimit="10"/></g><g transform="translate(-94,-110) scale(1,1)"><g><path fill="none" stroke="none"/><text fill="#000000" stroke="none" font-family="Arial" font-size="13px" font-style="normal" font-weight="bold" text-decoration="none" x="156.719970703125" y="146">Service</text></g></g><g transform="translate(-94,-110) scale(1,1)"><g><path fill="none" stroke="none"/><text fill="#000000" stroke="none" font-family="Arial" font-size="13px" font-style="normal" font-weight="normal" text-decoration="none" x="109" y="179">+getExemple(): Exemple</text></g></g><g transform="translate(-94,-110) scale(1,1)"><path fill="none" stroke="#000000" d="M 256 157 L 328 157" stroke-miterlimit="10"/></g><g transform="translate(-94,-110) scale(1,1)"><path fill="none" stroke="#000000" d="M 317.83732514237585 161.209517756016 L 328 157 L 317.83732514237585 152.790482243984" stroke-miterlimit="10"/></g><g transform="translate(-94,-110) scale(1,1)"><g><path fill="none" stroke="none"/><text fill="#000000" stroke="none" font-family="Arial" font-size="13px" font-style="normal" font-weight="normal" text-decoration="none" x="293.2236328125" y="145.5">-ex</text></g></g><g transform="translate(-94,-110) scale(1,1)"><g><path fill="none" stroke="none"/><text fill="#000000" stroke="none" font-family="Arial" font-size="13px" font-style="normal" font-weight="normal" text-decoration="none" x="302.5" y="174">1</text></g></g><g transform="translate(-94,-110) scale(1,1)"><path fill="none" stroke="#000000" d="M 352 256 L 352 195" stroke-miterlimit="10" stroke-dasharray="3"/></g><g transform="translate(-94,-110) scale(1,1)"><path fill="#FFFFFF" stroke="none" d="M 360.419035512032 215.3253497152483 L 352 195 L 343.580964487968 215.3253497152483"/></g><g transform="translate(-94,-110) scale(1,1)"><path fill="none" stroke="#000000" d="M 360.419035512032 215.3253497152483 L 352 195 L 343.580964487968 215.3253497152483 L 360.419035512032 215.3253497152483" stroke-miterlimit="10"/></g><g transform="translate(-94,-110) scale(1,1)"><path fill="none" stroke="#000000" d="M 424 256 L 424 195" stroke-miterlimit="10" stroke-dasharray="3"/></g><g transform="translate(-94,-110) scale(1,1)"><path fill="#FFFFFF" stroke="none" d="M 432.419035512032 215.3253497152483 L 424 195 L 415.580964487968 215.3253497152483"/></g><g transform="translate(-94,-110) scale(1,1)"><path fill="none" stroke="#000000" d="M 432.419035512032 215.3253497152483 L 424 195 L 415.580964487968 215.3253497152483 L 432.419035512032 215.3253497152483" stroke-miterlimit="10"/></g></g></svg>