<svg version="1.1" xmlns="http://www.w3.org/2000/svg" xmlns:xlink="http://www.w3.org/1999/xlink" width="371.037109375" height="221"><defs/><g><g transform="translate(-238,-254) scale(1,1)"><rect fill="#C0C0C0" stroke="none" x="463" y="287" width="143.037109375" height="130" opacity="0.2"/></g><g transform="translate(-238,-254) scale(1,1)"><rect fill="#ffffff" stroke="none" x="456" y="280" width="143.037109375" height="130"/></g><g transform="translate(-238,-254) scale(1,1)"><path fill="none" stroke="#000000" d="M 456 280 L 599.037109375 280 L 599.037109375 410 L 456 410 L 456 280 Z Z" stroke-miterlimit="10"/></g><g transform="translate(-238,-254) scale(1,1)"><path fill="none" stroke="#000000" d="M 456 305 L 599.037109375 305" stroke-miterlimit="10"/></g><g transform="translate(-238,-254) scale(1,1)"><path fill="none" stroke="#000000" d="M 456 315 L 599.037109375 315" stroke-miterlimit="10"/></g><g transform="translate(-238,-254) scale(1,1)"><g><path fill="none" stroke="none"/><text fill="#000000" stroke="none" font-family="Arial" font-size="13px" font-style="normal" font-weight="bold" text-decoration="none" x="504.3876953125" y="298">Service</text></g></g><g transform="translate(-238,-254) scale(1,1)"><g><path fill="none" stroke="none"/><text fill="#000000" stroke="none" font-family="Arial" font-size="13px" font-style="normal" font-weight="normal" text-decoration="none" x="461" y="331">-Service()</text></g></g><g transform="translate(-238,-254) scale(1,1)"><g><path fill="none" stroke="none"/><text fill="#000000" stroke="none" font-family="Arial" font-size="13px" font-style="normal" font-weight="normal" text-decoration="none" x="461" y="346">+actionA()</text></g></g><g transform="translate(-238,-254) scale(1,1)"><g><path fill="none" stroke="none"/><text fill="#000000" stroke="none" font-family="Arial" font-size="13px" font-style="normal" font-weight="normal" text-decoration="none" x="461" y="361">+actionB()</text></g></g><g transform="translate(-238,-254) scale(1,1)"><g><path fill="none" stroke="none"/><text fill="#000000" stroke="none" font-family="Arial" font-size="13px" font-style="normal" font-weight="normal" text-decoration="none" x="461" y="376">+calcul(): int</text></g></g><g transform="translate(-238,-254) scale(1,1)"><rect fill="#C0C0C0" stroke="none" x="263" y="359" width="115.564453125" height="85" opacity="0.2"/></g><g transform="translate(-238,-254) scale(1,1)"><rect fill="#ffffff" stroke="none" x="256" y="352" width="115.564453125" height="85"/></g><g transform="translate(-238,-254) scale(1,1)"><path fill="none" stroke="#000000" d="M 256 352 L 371.564453125 352 L 371.564453125 437 L 256 437 L 256 352 Z Z" stroke-miterlimit="10"/></g><g transform="translate(-238,-254) scale(1,1)"><path fill="none" stroke="#000000" d="M 256 377 L 371.564453125 377" stroke-miterlimit="10"/></g><g transform="translate(-238,-254) scale(1,1)"><path fill="none" stroke="#000000" d="M 256 400 L 371.564453125 400" stroke-miterlimit="10"/></g><g transform="translate(-238,-254) scale(1,1)"><g><path fill="none" stroke="none"/><text fill="#000000" stroke="none" font-family="Arial" font-size="13px" font-style="normal" font-weight="bold" text-decoration="none" x="266.0859375" y="370">ClasseExemple</text></g></g><g transform="translate(-238,-254) scale(1,1)"><g><path fill="none" stroke="none"/><text fill="#000000" stroke="none" font-family="Arial" font-size="13px" font-style="normal" font-weight="normal" text-decoration="none" x="261" y="393">-data: int</text></g></g><g transform="translate(-238,-254) scale(1,1)"><g><path fill="none" stroke="none"/><text fill="#000000" stroke="none" font-family="Arial" font-size="13px" font-style="normal" font-weight="normal" text-decoration="none" x="261" y="416">+ClasseExemple()</text></g></g><g transform="translate(-238,-254) scale(1,1)"><g><path fill="none" stroke="none"/><text fill="#000000" stroke="none" font-family="Arial" font-size="13px" font-style="normal" font-weight="normal" text-decoration="none" x="261" y="431">+operation()</text></g></g><g transform="translate(-238,-254) scale(1,1)"><rect fill="#C0C0C0" stroke="none" x="255" y="271" width="132.1826171875" height="57" opacity="0.2"/></g><g transform="translate(-238,-254) scale(1,1)"><rect fill="#ffffff" stroke="none" x="248" y="264" width="132.1826171875" height="57"/></g><g transform="translate(-238,-254) scale(1,1)"><path fill="none" stroke="#000000" d="M 248 264 L 380.1826171875 264 L 380.1826171875 321 L 248 321 L 248 264 Z Z" stroke-miterlimit="10"/></g><g transform="translate(-238,-254) scale(1,1)"><path fill="none" stroke="#000000" d="M 251 264 L 251 321" stroke-miterlimit="10"/></g><g transform="translate(-238,-254) scale(1,1)"><path fill="none" stroke="#000000" d="M 377.1826171875 264 L 377.1826171875 321" stroke-miterlimit="10"/></g><g transform="translate(-238,-254) scale(1,1)"><path fill="none" stroke="#000000" d="M 248 289 L 380.1826171875 289" stroke-miterlimit="10"/></g><g transform="translate(-238,-254) scale(1,1)"><path fill="none" stroke="#000000" d="M 248 299 L 380.1826171875 299" stroke-miterlimit="10"/></g><g transform="translate(-238,-254) scale(1,1)"><g><path fill="none" stroke="none"/><text fill="#000000" stroke="none" font-family="Arial" font-size="13px" font-style="normal" font-weight="bold" text-decoration="none" x="296.035400390625" y="282">Client</text></g></g><g transform="translate(-238,-254) scale(1,1)"><g><path fill="none" stroke="none"/><text fill="#000000" stroke="none" font-family="Arial" font-size="13px" font-style="normal" font-weight="normal" text-decoration="none" x="253" y="315">+main(args: String[*])</text><path fill="none" stroke="#000000" d="M 253 316.5 L 376.1826171875 316.5" stroke-miterlimit="10"/></g></g><g transform="translate(-238,-254) scale(1,1)"><path fill="none" stroke="#000000" d="M 372 386 L 456 386" stroke-miterlimit="10" stroke-dasharray="3"/></g><g transform="translate(-238,-254) scale(1,1)"><path fill="none" stroke="#000000" d="M 445.83732514237585 390.209517756016 L 456 386 L 445.83732514237585 381.790482243984" stroke-miterlimit="10"/></g><g transform="translate(-238,-254) scale(1,1)"><g><path fill="none" stroke="none"/><text fill="#000000" stroke="none" font-family="Arial" font-size="13px" font-style="normal" font-weight="normal" text-decoration="none" x="388.5" y="360.5">«create»</text></g></g><g transform="translate(-238,-254) scale(1,1)"><path fill="none" stroke="#000000" d="M 380 304 L 456 304" stroke-miterlimit="10" stroke-dasharray="3"/></g><g transform="translate(-238,-254) scale(1,1)"><path fill="none" stroke="#000000" d="M 445.83732514237585 308.209517756016 L 456 304 L 445.83732514237585 299.790482243984" stroke-miterlimit="10"/></g><g transform="translate(-238,-254) scale(1,1)"><g><path fill="none" stroke="none"/><text fill="#000000" stroke="none" font-family="Arial" font-size="13px" font-style="normal" font-weight="normal" text-decoration="none" x="392.5" y="278.5">«create»</text></g></g><g transform="translate(-238,-254) scale(1,1)"><path fill="none" stroke="#000000" d="M 313 437 L 313 464 L 527 464 L 527 410" stroke-miterlimit="10"/></g><g transform="translate(-238,-254) scale(1,1)"><path fill="none" stroke="#000000" d="M 531.209517756016 420.16267485762415 L 527 410 L 522.790482243984 420.16267485762415" stroke-miterlimit="10"/></g><g transform="translate(-238,-254) scale(1,1)"><g><path fill="none" stroke="none"/><text fill="#000000" stroke="none" font-family="Arial" font-size="13px" font-style="normal" font-weight="normal" text-decoration="none" x="469.5" y="426">-service</text></g></g><g transform="translate(-238,-254) scale(1,1)"><g><path fill="none" stroke="none"/><text fill="#000000" stroke="none" font-family="Arial" font-size="13px" font-style="normal" font-weight="normal" text-decoration="none" x="535.5" y="426">1</text></g></g></g></svg>